<svg width="520" height="700" viewBox="0 0 520 700" fill="none" xmlns="http://www.w3.org/2000/svg">
<circle cx="260" cy="350" r="260" fill="#EDFFF9"/>
<circle cx="260" cy="350" r="209.268" fill="#DAFFED"/>
<circle cx="259.278" cy="349.278" r="159.929" fill="white"/>
<circle cx="426.223" cy="249.589" r="50.7317" fill="#2BCBBA"/>
<circle cx="122.203" cy="274.103" r="38.0488" fill="#95FC53"/>
<circle cx="187.686" cy="493.765" r="38.0488" fill="#2BCBBA"/>
<path d="M62.3487 367.482C57.434 365.383 53.8353 361.052 52.8148 355.838C51.7137 362.025 46.5304 367.195 39.9507 368.521C46.5304 369.869 51.7137 375.017 52.8148 381.204C53.9159 375.017 59.126 369.846 65.6789 368.521C65.6789 368.521 63.3155 367.902 62.3487 367.482Z" fill="#27C4F4"/>
<path d="M464.161 470.328C461.376 469.138 459.337 466.684 458.758 463.729C458.134 467.235 455.197 470.165 451.469 470.916C455.197 471.68 458.134 474.598 458.758 478.103C459.382 474.598 462.335 471.668 466.048 470.916C466.048 470.916 464.709 470.566 464.161 470.328Z" fill="#27C4F4"/>
<path d="M265.403 222.515C262.618 221.326 260.578 218.872 260 215.917C259.376 219.423 256.439 222.353 252.71 223.104C256.439 223.868 259.376 226.785 260 230.291C260.624 226.785 263.576 223.855 267.29 223.104C267.29 223.104 265.95 222.753 265.403 222.515Z" fill="#27C4F4"/>
</svg>
