<svg width="300" height="600" viewBox="0 0 300 600" fill="none" xmlns="http://www.w3.org/2000/svg">
<g clip-path="url(#clip0_618_847)">
<circle opacity="0.1" cx="150" cy="300" r="150" fill="#2BCBBA"/>
<circle opacity="0.3" cx="150" cy="300" r="131.788" fill="#2BCBBA"/>
<circle cx="325.714" cy="245.302" r="38.0488" transform="rotate(18.8957 325.714 245.302)" fill="#2BCBBA"/>
<circle cx="40.1394" cy="170.04" r="28.5366" transform="rotate(18.8957 40.1394 170.04)" fill="#95FC53"/>
<circle cx="40.9578" cy="399.069" r="38.0488" transform="rotate(18.8957 40.9578 399.069)" fill="#2BCBBA"/>
<path d="M22.7708 168.492C21.0977 163.416 21.969 157.853 25.2076 153.641C19.8371 156.904 12.5312 156.432 7.18739 152.37C10.5249 158.199 10.0874 165.491 6.17243 170.407C11.5429 167.144 18.8666 167.636 24.1926 171.677C24.1926 171.677 23.0948 169.495 22.7708 168.492Z" fill="#27C4F4"/>
<path d="M271.173 409.998C270.225 407.122 270.719 403.97 272.554 401.583C269.511 403.432 265.371 403.164 262.343 400.863C264.234 404.165 263.986 408.298 261.768 411.083C264.811 409.234 268.961 409.513 271.979 411.803C271.979 411.803 271.357 410.567 271.173 409.998Z" fill="#27C4F4"/>
<path d="M285.767 375.051C284.819 372.175 285.313 369.022 287.148 366.635C284.105 368.484 279.965 368.217 276.937 365.915C278.828 369.218 278.58 373.351 276.362 376.136C279.405 374.287 283.555 374.566 286.573 376.856C286.573 376.856 285.951 375.619 285.767 375.051Z" fill="#27C4F4"/>
<g filter="url(#filter0_ii_618_847)">
<rect x="32.3571" y="57.999" width="235.286" height="484.907" rx="36.6933" fill="#2C2C2C"/>
</g>
<mask id="mask0_618_847" style="mask-type:alpha" maskUnits="userSpaceOnUse" x="43" y="67" width="214" height="464">
<path d="M43.4399 92.0672C43.4399 78.4363 54.4284 67.3862 67.9833 67.3862H232.017C245.572 67.3862 256.56 78.4363 256.56 92.0672V506.279C256.56 519.91 245.572 530.96 232.017 530.96H67.9833C54.4283 530.96 43.4399 519.91 43.4399 506.279V92.0672Z" fill="white"/>
</mask>
<g mask="url(#mask0_618_847)">
<path d="M43.4399 67.3862H256.56V530.96H43.4399V67.3862Z" fill="#868686"/>
<rect width="213.12" height="463.573" transform="translate(43.3666 67.3862)" fill="white"/>
<g clip-path="url(#clip1_618_847)">
<rect width="213.12" height="545.019" transform="translate(43.3019 67.2856)" fill="#F9F9F9"/>
<path d="M56.0777 152.982C54.3228 152.982 52.8315 151.5 52.8315 149.745C52.8315 147.99 54.3228 146.517 56.0777 146.517C56.9689 146.517 57.7872 146.89 58.3783 147.499L57.7327 148.117C57.3144 147.663 56.7233 147.363 56.0777 147.363C54.832 147.363 53.7772 148.454 53.7772 149.745C53.7772 151.045 54.832 152.137 56.0777 152.137C56.7233 152.137 57.3144 151.836 57.7327 151.382L58.3783 152C57.7872 152.6 56.9689 152.982 56.0777 152.982ZM61.6661 148.063C62.7027 148.063 63.4302 148.818 63.4302 149.881V152.873H62.5481V150.036C62.5481 149.336 62.1026 148.845 61.466 148.845C60.7568 148.845 60.1657 149.345 60.1657 149.954V152.873H59.2746V146.517H60.1657V148.872C60.4476 148.399 61.0205 148.063 61.6661 148.063ZM66.9459 152.982C65.6001 152.982 64.4634 151.855 64.4634 150.518C64.4634 149.181 65.6001 148.063 66.9459 148.063C68.2825 148.063 69.4101 149.181 69.4101 150.518C69.4101 151.855 68.2825 152.982 66.9459 152.982ZM66.9459 152.2C67.7915 152.2 68.5099 151.436 68.5099 150.518C68.5099 149.609 67.7915 148.845 66.9459 148.845C66.082 148.845 65.3637 149.609 65.3637 150.518C65.3637 151.436 66.082 152.2 66.9459 152.2ZM72.6912 152.982C71.3454 152.982 70.2088 151.855 70.2088 150.518C70.2088 149.181 71.3454 148.063 72.6912 148.063C74.0279 148.063 75.1555 149.181 75.1555 150.518C75.1555 151.855 74.0279 152.982 72.6912 152.982ZM72.6912 152.2C73.5369 152.2 74.2552 151.436 74.2552 150.518C74.2552 149.609 73.5369 148.845 72.6912 148.845C71.8274 148.845 71.109 149.609 71.109 150.518C71.109 151.436 71.8274 152.2 72.6912 152.2ZM77.9092 152.982C77.2181 152.982 76.4634 152.737 75.8996 152.282L76.327 151.636C76.8271 152 77.3636 152.209 77.9183 152.209C78.4457 152.209 78.8094 151.964 78.8094 151.6C78.8094 151.164 78.3275 151.027 77.7455 150.863C76.6634 150.563 76.1269 150.254 76.1269 149.49C76.1178 148.627 76.8362 148.063 77.8364 148.063C78.4457 148.063 79.064 148.272 79.5732 148.608L79.1731 149.272C78.7185 148.99 78.2456 148.836 77.8364 148.836C77.3727 148.836 77.009 149.036 77.009 149.39C77.009 149.754 77.2999 149.863 78.091 150.109C78.864 150.336 79.6914 150.591 79.6914 151.527C79.6914 152.418 78.9367 152.982 77.9092 152.982ZM82.8926 152.182C83.3837 152.182 83.9565 151.964 84.2384 151.673L84.8022 152.255C84.3839 152.7 83.5655 152.982 82.9017 152.982C81.5923 152.982 80.483 151.955 80.483 150.509C80.483 149.099 81.5287 148.063 82.829 148.063C84.2657 148.063 85.0932 149.154 85.0932 150.836H81.3923C81.5105 151.618 82.0833 152.182 82.8926 152.182ZM82.8654 148.863C82.1379 148.863 81.5469 149.354 81.4014 150.118H84.2202C84.1202 149.39 83.6746 148.863 82.8654 148.863ZM93.6851 152.873L93.1395 151.6H89.8842L89.3386 152.873H88.3202L91.0026 146.626H92.0211L94.7035 152.873H93.6851ZM90.2388 150.773H92.7849L91.5118 147.808L90.2388 150.773ZM99.2129 146.517H100.104V152.873H99.2129V152.055C98.8491 152.637 98.2672 152.982 97.5397 152.982C96.3031 152.982 95.3756 151.964 95.3756 150.518C95.3756 149.081 96.3031 148.063 97.5397 148.063C98.2672 148.063 98.8491 148.408 99.2129 148.981V146.517ZM97.758 152.2C98.6036 152.2 99.2129 151.5 99.2129 150.518C99.2129 149.536 98.6036 148.845 97.758 148.845C96.8941 148.845 96.2849 149.536 96.2849 150.518C96.2849 151.5 96.8941 152.2 97.758 152.2ZM103.155 152.982C102.464 152.982 101.709 152.737 101.145 152.282L101.573 151.636C102.073 152 102.609 152.209 103.164 152.209C103.692 152.209 104.055 151.964 104.055 151.6C104.055 151.164 103.573 151.027 102.991 150.863C101.909 150.563 101.373 150.254 101.373 149.49C101.364 148.627 102.082 148.063 103.082 148.063C103.692 148.063 104.31 148.272 104.819 148.608L104.419 149.272C103.964 148.99 103.491 148.836 103.082 148.836C102.619 148.836 102.255 149.036 102.255 149.39C102.255 149.754 102.546 149.863 103.337 150.109C104.11 150.336 104.937 150.591 104.937 151.527C104.937 152.418 104.183 152.982 103.155 152.982ZM110.786 152.027L111.113 152.646C110.859 152.855 110.513 152.982 110.177 152.982C109.449 152.982 108.94 152.455 108.94 151.7V148.936H108.231V148.172H108.94V146.881H109.822V148.172H110.931V148.936H109.822V151.636C109.822 151.964 110.04 152.2 110.304 152.2C110.504 152.2 110.686 152.127 110.786 152.027ZM112.858 154.51C112.54 154.51 112.213 154.437 111.967 154.31L112.167 153.619C112.349 153.719 112.558 153.764 112.74 153.764C113.031 153.764 113.231 153.673 113.386 153.4L113.622 152.9L111.603 148.172H112.567L114.077 151.882L115.504 148.172H116.441L114.368 153.3C114.031 154.146 113.531 154.501 112.858 154.51ZM120.057 148.063C121.294 148.063 122.221 149.081 122.221 150.518C122.221 151.964 121.294 152.982 120.057 152.982C119.33 152.982 118.748 152.637 118.384 152.055V154.437H117.493V148.172H118.384V148.981C118.748 148.408 119.33 148.063 120.057 148.063ZM119.839 152.2C120.703 152.2 121.312 151.5 121.312 150.518C121.312 149.536 120.703 148.845 119.839 148.845C118.993 148.845 118.384 149.536 118.384 150.518C118.384 151.5 118.993 152.2 119.839 152.2ZM125.463 152.182C125.954 152.182 126.527 151.964 126.809 151.673L127.373 152.255C126.955 152.7 126.136 152.982 125.472 152.982C124.163 152.982 123.054 151.955 123.054 150.509C123.054 149.099 124.099 148.063 125.4 148.063C126.836 148.063 127.664 149.154 127.664 150.836H123.963C124.081 151.618 124.654 152.182 125.463 152.182ZM125.436 148.863C124.709 148.863 124.118 149.354 123.972 150.118H126.791C126.691 149.39 126.245 148.863 125.436 148.863Z" fill="#222222" fill-opacity="0.8"/>
<rect x="52.395" y="164.83" width="194.934" height="43.1923" rx="9.09312" fill="white"/>
<g clip-path="url(#clip2_618_847)">
<path d="M97.3423 189.427L96.7285 187.995H93.0663L92.4525 189.427H91.3067L94.3245 182.399H95.4703L98.488 189.427H97.3423ZM93.4652 187.064H96.3296L94.8974 183.729L93.4652 187.064ZM102.426 184.016C103.817 184.016 104.86 185.161 104.86 186.778C104.86 188.404 103.817 189.55 102.426 189.55C101.607 189.55 100.952 189.161 100.543 188.507V191.187H99.5407V184.138H100.543V185.049C100.952 184.404 101.607 184.016 102.426 184.016ZM102.18 188.67C103.152 188.67 103.837 187.883 103.837 186.778C103.837 185.673 103.152 184.895 102.18 184.895C101.229 184.895 100.543 185.673 100.543 186.778C100.543 187.883 101.229 188.67 102.18 188.67ZM109.019 184.016C110.41 184.016 111.454 185.161 111.454 186.778C111.454 188.404 110.41 189.55 109.019 189.55C108.201 189.55 107.546 189.161 107.137 188.507V191.187H106.134V184.138H107.137V185.049C107.546 184.404 108.201 184.016 109.019 184.016ZM108.773 188.67C109.745 188.67 110.431 187.883 110.431 186.778C110.431 185.673 109.745 184.895 108.773 184.895C107.822 184.895 107.137 185.673 107.137 186.778C107.137 187.883 107.822 188.67 108.773 188.67ZM115.757 189.427V182.399H116.79L120.831 187.729V182.399H121.864V189.427H120.831L116.79 184.098V189.427H115.757ZM126.002 189.55C124.488 189.55 123.209 188.282 123.209 186.778C123.209 185.274 124.488 184.016 126.002 184.016C127.506 184.016 128.774 185.274 128.774 186.778C128.774 188.282 127.506 189.55 126.002 189.55ZM126.002 188.67C126.953 188.67 127.761 187.811 127.761 186.778C127.761 185.755 126.953 184.895 126.002 184.895C125.03 184.895 124.222 185.755 124.222 186.778C124.222 187.811 125.03 188.67 126.002 188.67ZM132.435 188.476L132.803 189.172C132.517 189.407 132.128 189.55 131.749 189.55C130.931 189.55 130.358 188.957 130.358 188.108V184.998H129.56V184.138H130.358V182.686H131.35V184.138H132.598V184.998H131.35V188.036C131.35 188.404 131.596 188.67 131.893 188.67C132.118 188.67 132.322 188.588 132.435 188.476ZM134.336 183.259C133.989 183.259 133.723 182.972 133.723 182.645C133.723 182.328 133.989 182.041 134.336 182.041C134.664 182.041 134.94 182.328 134.94 182.645C134.94 182.972 134.664 183.259 134.336 183.259ZM133.825 189.427V184.138H134.838V189.427H133.825ZM137.694 183.555V184.138H138.942V184.998H137.694V189.427H136.702V184.998H135.904V184.138H136.702V183.504C136.702 182.655 137.275 182.062 138.093 182.062C138.471 182.062 138.86 182.205 139.147 182.44L138.778 183.115C138.666 183.003 138.461 182.921 138.236 182.921C137.94 182.921 137.694 183.187 137.694 183.555ZM140.49 183.259C140.142 183.259 139.877 182.972 139.877 182.645C139.877 182.328 140.142 182.041 140.49 182.041C140.818 182.041 141.094 182.328 141.094 182.645C141.094 182.972 140.818 183.259 140.49 183.259ZM139.979 189.427V184.138H140.992V189.427H139.979ZM144.953 189.55C143.449 189.55 142.17 188.282 142.17 186.778C142.17 185.274 143.449 184.016 144.963 184.016C145.72 184.016 146.405 184.333 146.907 184.834L146.221 185.468C145.904 185.11 145.444 184.895 144.953 184.895C143.991 184.895 143.193 185.755 143.193 186.778C143.193 187.811 143.991 188.67 144.963 188.67C145.454 188.67 145.924 188.445 146.252 188.077L146.937 188.701C146.426 189.223 145.74 189.55 144.953 189.55ZM150.241 184.016C151.663 184.016 152.45 184.916 152.45 186.225V189.427H151.458V188.701C151.069 189.253 150.343 189.55 149.699 189.55C148.573 189.55 147.745 188.895 147.745 187.862C147.745 186.808 148.696 186.103 149.862 186.103C150.384 186.103 150.947 186.215 151.458 186.389V186.225C151.458 185.56 151.151 184.855 150.098 184.855C149.576 184.855 149.064 185.059 148.604 185.294L148.236 184.548C148.993 184.169 149.658 184.016 150.241 184.016ZM149.893 188.752C150.548 188.752 151.284 188.425 151.458 187.77V187.064C151.029 186.931 150.538 186.86 150.016 186.86C149.31 186.86 148.717 187.259 148.717 187.831C148.717 188.404 149.228 188.752 149.893 188.752ZM156.391 188.476L156.759 189.172C156.473 189.407 156.084 189.55 155.705 189.55C154.887 189.55 154.314 188.957 154.314 188.108V184.998H153.516V184.138H154.314V182.686H155.306V184.138H156.554V184.998H155.306V188.036C155.306 188.404 155.552 188.67 155.849 188.67C156.074 188.67 156.278 188.588 156.391 188.476ZM158.292 183.259C157.945 183.259 157.679 182.972 157.679 182.645C157.679 182.328 157.945 182.041 158.292 182.041C158.62 182.041 158.896 182.328 158.896 182.645C158.896 182.972 158.62 183.259 158.292 183.259ZM157.781 189.427V184.138H158.794V189.427H157.781ZM162.765 189.55C161.251 189.55 159.972 188.282 159.972 186.778C159.972 185.274 161.251 184.016 162.765 184.016C164.269 184.016 165.537 185.274 165.537 186.778C165.537 188.282 164.269 189.55 162.765 189.55ZM162.765 188.67C163.716 188.67 164.525 187.811 164.525 186.778C164.525 185.755 163.716 184.895 162.765 184.895C161.793 184.895 160.985 185.755 160.985 186.778C160.985 187.811 161.793 188.67 162.765 188.67ZM169.413 184.016C170.579 184.016 171.397 184.865 171.397 186.062V189.427H170.405V186.236C170.405 185.448 169.904 184.895 169.188 184.895C168.451 184.895 167.817 185.376 167.735 186V189.427H166.722V184.138H167.735V184.906C168.052 184.384 168.697 184.016 169.413 184.016ZM181.338 189.427L180.724 187.995H177.062L176.448 189.427H175.303L178.32 182.399H179.466L182.484 189.427H181.338ZM177.461 187.064H180.325L178.893 183.729L177.461 187.064ZM187.557 182.277H188.559V189.427H187.557V188.507C187.148 189.161 186.493 189.55 185.675 189.55C184.283 189.55 183.24 188.404 183.24 186.778C183.24 185.161 184.283 184.016 185.675 184.016C186.493 184.016 187.148 184.404 187.557 185.049V182.277ZM185.92 188.67C186.872 188.67 187.557 187.883 187.557 186.778C187.557 185.673 186.872 184.895 185.92 184.895C184.948 184.895 184.263 185.673 184.263 186.778C184.263 187.883 184.948 188.67 185.92 188.67ZM191.992 189.55C191.214 189.55 190.365 189.274 189.731 188.762L190.212 188.036C190.775 188.445 191.378 188.68 192.002 188.68C192.595 188.68 193.005 188.404 193.005 187.995C193.005 187.504 192.462 187.351 191.808 187.166C190.59 186.829 189.987 186.481 189.987 185.622C189.977 184.65 190.785 184.016 191.91 184.016C192.595 184.016 193.291 184.251 193.864 184.629L193.414 185.376C192.902 185.059 192.37 184.885 191.91 184.885C191.388 184.885 190.979 185.11 190.979 185.509C190.979 185.918 191.306 186.041 192.196 186.317C193.066 186.573 193.997 186.86 193.997 187.913C193.997 188.916 193.148 189.55 191.992 189.55Z" fill="#222222"/>
</g>
<g clip-path="url(#clip3_618_847)">
<path d="M78.6325 180.458H69.3499C68.6139 180.458 68.0238 181.055 68.0238 181.785V191.067C68.0238 191.796 68.6139 192.393 69.3499 192.393H78.6325C79.3684 192.393 79.9586 191.796 79.9586 191.067V181.785C79.9586 181.055 79.3684 180.458 78.6325 180.458ZM72.6651 189.741L69.3499 186.426L70.2848 185.491L72.6651 187.865L77.6976 182.832L78.6325 183.774L72.6651 189.741Z" fill="#2BCBBA"/>
</g>
<rect x="52.395" y="215.979" width="194.934" height="43.1923" rx="9.09312" fill="white"/>
<g clip-path="url(#clip4_618_847)">
<path d="M97.3424 240.575L96.7286 239.143H93.0663L92.4525 240.575H91.3068L94.3246 233.547H95.4703L98.4881 240.575H97.3424ZM93.4653 238.212H96.3296L94.8975 234.877L93.4653 238.212ZM102.426 235.164C103.817 235.164 104.86 236.309 104.86 237.926C104.86 239.552 103.817 240.698 102.426 240.698C101.607 240.698 100.953 240.309 100.543 239.655V242.335H99.5408V235.286H100.543V236.197C100.953 235.552 101.607 235.164 102.426 235.164ZM102.18 239.818C103.152 239.818 103.837 239.031 103.837 237.926C103.837 236.821 103.152 236.043 102.18 236.043C101.229 236.043 100.543 236.821 100.543 237.926C100.543 239.031 101.229 239.818 102.18 239.818ZM109.019 235.164C110.41 235.164 111.454 236.309 111.454 237.926C111.454 239.552 110.41 240.698 109.019 240.698C108.201 240.698 107.546 240.309 107.137 239.655V242.335H106.134V235.286H107.137V236.197C107.546 235.552 108.201 235.164 109.019 235.164ZM108.773 239.818C109.745 239.818 110.431 239.031 110.431 237.926C110.431 236.821 109.745 236.043 108.773 236.043C107.822 236.043 107.137 236.821 107.137 237.926C107.137 239.031 107.822 239.818 108.773 239.818ZM115.757 240.575V233.547H119.092C120.268 233.547 121.097 234.274 121.097 235.297C121.097 236.033 120.729 236.494 120.094 236.852C120.913 237.251 121.383 237.885 121.383 238.662C121.383 239.788 120.483 240.575 119.225 240.575H115.757ZM116.79 236.473H118.836C119.542 236.473 120.043 236.054 120.043 235.471C120.043 234.887 119.542 234.458 118.836 234.458H116.79V236.473ZM116.79 239.665H118.99C119.777 239.665 120.33 239.184 120.33 238.509C120.33 237.834 119.777 237.353 118.99 237.353H116.79V239.665ZM124.866 235.164C126.288 235.164 127.076 236.064 127.076 237.373V240.575H126.084V239.849C125.695 240.401 124.969 240.698 124.324 240.698C123.199 240.698 122.37 240.043 122.37 239.01C122.37 237.956 123.322 237.251 124.488 237.251C125.01 237.251 125.572 237.363 126.084 237.537V237.373C126.084 236.708 125.777 236.002 124.723 236.002C124.201 236.002 123.69 236.207 123.23 236.442L122.861 235.696C123.618 235.317 124.283 235.164 124.866 235.164ZM124.519 239.9C125.173 239.9 125.91 239.573 126.084 238.918V238.212C125.654 238.079 125.163 238.008 124.641 238.008C123.935 238.008 123.342 238.406 123.342 238.979C123.342 239.552 123.854 239.9 124.519 239.9ZM131.231 235.164C132.397 235.164 133.216 236.013 133.216 237.21V240.575H132.223V237.384C132.223 236.596 131.722 236.043 131.006 236.043C130.269 236.043 129.635 236.524 129.553 237.148V240.575H128.541V235.286H129.553V236.054C129.87 235.532 130.515 235.164 131.231 235.164ZM137.355 235.164C138.521 235.164 139.339 236.013 139.339 237.21V240.575H138.347V237.384C138.347 236.596 137.846 236.043 137.13 236.043C136.393 236.043 135.759 236.524 135.677 237.148V240.575H134.664V235.286H135.677V236.054C135.994 235.532 136.639 235.164 137.355 235.164ZM143.213 239.798C143.765 239.798 144.41 239.552 144.727 239.225L145.361 239.88C144.89 240.381 143.97 240.698 143.223 240.698C141.75 240.698 140.502 239.542 140.502 237.915C140.502 236.33 141.678 235.164 143.141 235.164C144.757 235.164 145.688 236.391 145.688 238.284H141.525C141.658 239.163 142.302 239.798 143.213 239.798ZM143.182 236.064C142.364 236.064 141.699 236.616 141.535 237.476H144.706C144.594 236.657 144.093 236.064 143.182 236.064ZM147.926 236.299C148.264 235.604 148.98 235.164 149.89 235.164V236.043C148.796 236.043 148.018 236.647 147.926 237.568V240.575H146.913V235.286H147.926V236.299ZM159.37 240.575L158.756 239.143H155.094L154.48 240.575H153.335L156.352 233.547H157.498L160.516 240.575H159.37ZM155.493 238.212H158.358L156.925 234.877L155.493 238.212ZM165.589 233.425H166.592V240.575H165.589V239.655C165.18 240.309 164.525 240.698 163.707 240.698C162.315 240.698 161.272 239.552 161.272 237.926C161.272 236.309 162.315 235.164 163.707 235.164C164.525 235.164 165.18 235.552 165.589 236.197V233.425ZM163.952 239.818C164.904 239.818 165.589 239.031 165.589 237.926C165.589 236.821 164.904 236.043 163.952 236.043C162.98 236.043 162.295 236.821 162.295 237.926C162.295 239.031 162.98 239.818 163.952 239.818ZM170.024 240.698C169.246 240.698 168.397 240.422 167.763 239.91L168.244 239.184C168.807 239.593 169.41 239.828 170.034 239.828C170.627 239.828 171.037 239.552 171.037 239.143C171.037 238.652 170.494 238.499 169.84 238.314C168.622 237.977 168.019 237.629 168.019 236.77C168.009 235.798 168.817 235.164 169.942 235.164C170.627 235.164 171.323 235.399 171.896 235.777L171.446 236.524C170.934 236.207 170.402 236.033 169.942 236.033C169.42 236.033 169.011 236.258 169.011 236.657C169.011 237.066 169.339 237.189 170.229 237.465C171.098 237.721 172.029 238.008 172.029 239.061C172.029 240.064 171.18 240.698 170.024 240.698Z" fill="#222222"/>
</g>
<g clip-path="url(#clip5_618_847)">
<rect x="68.5921" y="232.178" width="10.7981" height="10.7981" rx="0.56832" stroke="#2BCBBA" stroke-width="1.13664"/>
</g>
<path d="M57.9964 473.406L57.4508 472.133H54.1955L53.6499 473.406H52.6314L55.3139 467.159H56.3323L59.0148 473.406H57.9964ZM54.5501 471.306H57.0962L55.8231 468.341L54.5501 471.306ZM63.5241 467.05H64.4153V473.406H63.5241V472.588C63.1604 473.17 62.5785 473.515 61.851 473.515C60.6143 473.515 59.6868 472.497 59.6868 471.051C59.6868 469.614 60.6143 468.596 61.851 468.596C62.5785 468.596 63.1604 468.942 63.5241 469.514V467.05ZM62.0692 472.733C62.9149 472.733 63.5241 472.033 63.5241 471.051C63.5241 470.069 62.9149 469.378 62.0692 469.378C61.2054 469.378 60.5962 470.069 60.5962 471.051C60.5962 472.033 61.2054 472.733 62.0692 472.733ZM67.3299 473.406L65.3112 468.705H66.2842L67.7482 472.361L69.1849 468.705H70.1579L68.1756 473.406H67.3299ZM72.8582 472.715C73.3493 472.715 73.9221 472.497 74.204 472.206L74.7678 472.788C74.3495 473.233 73.5311 473.515 72.8673 473.515C71.5579 473.515 70.4486 472.488 70.4486 471.042C70.4486 469.633 71.4943 468.596 72.7946 468.596C74.2313 468.596 75.0588 469.687 75.0588 471.369H71.3579C71.4761 472.151 72.0489 472.715 72.8582 472.715ZM72.831 469.396C72.1035 469.396 71.5125 469.887 71.367 470.651H74.1858C74.0858 469.924 73.6402 469.396 72.831 469.396ZM77.0479 469.605C77.348 468.987 77.9845 468.596 78.7938 468.596V469.378C77.8208 469.378 77.1297 469.914 77.0479 470.733V473.406H76.1477V468.705H77.0479V469.605ZM81.8725 472.561L82.1998 473.179C81.9452 473.388 81.5997 473.515 81.2633 473.515C80.5358 473.515 80.0266 472.988 80.0266 472.233V469.469H79.3173V468.705H80.0266V467.414H80.9086V468.705H82.018V469.469H80.9086V472.17C80.9086 472.497 81.1269 472.733 81.3906 472.733C81.5906 472.733 81.7725 472.661 81.8725 472.561ZM83.563 467.923C83.2538 467.923 83.0174 467.668 83.0174 467.378C83.0174 467.096 83.2538 466.841 83.563 466.841C83.8539 466.841 84.0995 467.096 84.0995 467.378C84.0995 467.668 83.8539 467.923 83.563 467.923ZM83.1083 473.406V468.705H84.0085V473.406H83.1083ZM87.0112 473.515C86.3201 473.515 85.5654 473.27 85.0016 472.815L85.429 472.17C85.9291 472.533 86.4656 472.742 87.0203 472.742C87.5477 472.742 87.9114 472.497 87.9114 472.133C87.9114 471.697 87.4295 471.56 86.8475 471.397C85.7654 471.097 85.2289 470.787 85.2289 470.024C85.2198 469.16 85.9382 468.596 86.9384 468.596C87.5477 468.596 88.166 468.805 88.6752 469.142L88.2751 469.805C87.8205 469.523 87.3476 469.369 86.9384 469.369C86.4747 469.369 86.111 469.569 86.111 469.924C86.111 470.287 86.4019 470.396 87.193 470.642C87.966 470.869 88.7934 471.124 88.7934 472.06C88.7934 472.952 88.0387 473.515 87.0112 473.515ZM90.2851 467.923C89.976 467.923 89.7395 467.668 89.7395 467.378C89.7395 467.096 89.976 466.841 90.2851 466.841C90.5761 466.841 90.8216 467.096 90.8216 467.378C90.8216 467.668 90.5761 467.923 90.2851 467.923ZM89.8305 473.406V468.705H90.7307V473.406H89.8305ZM94.4244 468.596C95.461 468.596 96.1885 469.351 96.1885 470.415V473.406H95.3064V470.569C95.3064 469.869 94.8609 469.378 94.2244 469.378C93.5697 469.378 93.0059 469.805 92.9331 470.36V473.406H92.0329V468.705H92.9331V469.387C93.215 468.923 93.7879 468.596 94.4244 468.596ZM101.05 468.705H101.95V472.906C101.95 474.116 100.959 474.97 99.5678 474.97C98.7767 474.97 98.0492 474.707 97.6037 474.343L97.9583 473.67C98.3038 473.997 98.8676 474.188 99.4314 474.188C100.441 474.188 101.05 473.706 101.05 472.888V472.206C100.677 472.742 100.095 473.061 99.3859 473.061C98.1493 473.061 97.249 472.133 97.249 470.824C97.249 469.514 98.1493 468.596 99.3859 468.596C100.095 468.596 100.695 468.932 101.05 469.46V468.705ZM99.6132 472.279C100.45 472.279 101.05 471.679 101.05 470.824C101.05 469.978 100.45 469.378 99.6132 469.378C98.7767 469.378 98.1856 469.978 98.1856 470.824C98.1856 471.679 98.7767 472.279 99.6132 472.279ZM107.131 468.187V468.705H108.241V469.469H107.131V473.406H106.249V469.469H105.54V468.705H106.249V468.141C106.249 467.387 106.758 466.859 107.486 466.859C107.822 466.859 108.168 466.987 108.422 467.196L108.095 467.796C107.995 467.696 107.813 467.623 107.613 467.623C107.35 467.623 107.131 467.859 107.131 468.187ZM110.117 469.605C110.417 468.987 111.054 468.596 111.863 468.596V469.378C110.89 469.378 110.199 469.914 110.117 470.733V473.406H109.217V468.705H110.117V469.605ZM114.827 473.515C113.481 473.515 112.344 472.388 112.344 471.051C112.344 469.714 113.481 468.596 114.827 468.596C116.164 468.596 117.291 469.714 117.291 471.051C117.291 472.388 116.164 473.515 114.827 473.515ZM114.827 472.733C115.672 472.733 116.391 471.97 116.391 471.051C116.391 470.142 115.672 469.378 114.827 469.378C113.963 469.378 113.245 470.142 113.245 471.051C113.245 471.97 113.963 472.733 114.827 472.733ZM123.6 468.596C124.582 468.596 125.292 469.351 125.292 470.415V473.406H124.409V470.551C124.409 469.86 124 469.378 123.409 469.378C122.736 469.378 122.263 469.824 122.263 470.469V473.406H121.381V470.551C121.381 469.86 120.972 469.378 120.381 469.378C119.708 469.378 119.235 469.824 119.235 470.469V473.406H118.335V468.705H119.235V469.36C119.472 468.896 119.963 468.596 120.563 468.596C121.245 468.596 121.8 468.96 122.073 469.542C122.291 468.96 122.891 468.596 123.6 468.596Z" fill="#222222" fill-opacity="0.8"/>
<g filter="url(#filter1_d_618_847)">
<rect x="52.395" y="484.226" width="194.934" height="59.1053" rx="9.09312" fill="white"/>
<path d="M135.734 499.361C135.243 499.361 134.698 499.177 134.275 498.836L134.541 498.46C134.943 498.754 135.345 498.904 135.734 498.904C136.198 498.904 136.512 498.685 136.512 498.351C136.512 497.969 136.102 497.847 135.625 497.71C134.773 497.465 134.445 497.212 134.445 496.708C134.445 496.067 134.977 495.671 135.68 495.671C136.116 495.671 136.566 495.821 136.941 496.067L136.696 496.462C136.341 496.237 135.993 496.128 135.68 496.128C135.284 496.128 134.957 496.305 134.957 496.646C134.957 496.953 135.216 497.049 135.871 497.26C136.437 497.437 137.023 497.628 137.023 498.297C137.023 498.945 136.464 499.361 135.734 499.361ZM139.418 498.761L139.67 499.136C139.486 499.279 139.254 499.361 139.015 499.361C138.511 499.361 138.156 498.986 138.156 498.46V496.21H137.603V495.753H138.156V494.785H138.667V495.753H139.533V496.21H138.667V498.46C138.667 498.72 138.845 498.904 139.049 498.904C139.206 498.904 139.343 498.842 139.418 498.761ZM141.826 495.671C142.787 495.671 143.258 496.278 143.258 497.131V499.279H142.746V498.726C142.494 499.142 141.969 499.361 141.505 499.361C140.762 499.361 140.216 498.931 140.216 498.235C140.216 497.533 140.844 497.062 141.601 497.062C141.983 497.062 142.385 497.144 142.746 497.26V497.131C142.746 496.653 142.555 496.108 141.792 496.108C141.437 496.108 141.082 496.264 140.762 496.428L140.557 496.012C141.062 495.76 141.485 495.671 141.826 495.671ZM141.594 498.911C142.058 498.911 142.61 498.672 142.746 498.174V497.635C142.426 497.547 142.064 497.492 141.683 497.492C141.157 497.492 140.714 497.792 140.714 498.215C140.714 498.651 141.096 498.911 141.594 498.911ZM144.862 496.442C145.074 495.971 145.578 495.671 146.226 495.671V496.128C145.428 496.128 144.862 496.619 144.862 497.308V499.279H144.351V495.753H144.862V496.442ZM148.482 498.761L148.734 499.136C148.55 499.279 148.318 499.361 148.079 499.361C147.575 499.361 147.22 498.986 147.22 498.46V496.21H146.668V495.753H147.22V494.785H147.732V495.753H148.598V496.21H147.732V498.46C147.732 498.72 147.909 498.904 148.114 498.904C148.27 498.904 148.407 498.842 148.482 498.761ZM154.191 494.512H154.703V499.279H154.191V498.617C153.925 499.081 153.475 499.361 152.909 499.361C151.981 499.361 151.286 498.597 151.286 497.512C151.286 496.435 151.981 495.671 152.909 495.671C153.475 495.671 153.925 495.951 154.191 496.414V494.512ZM153.004 498.904C153.7 498.904 154.191 498.324 154.191 497.512C154.191 496.701 153.7 496.128 153.004 496.128C152.316 496.128 151.825 496.701 151.825 497.512C151.825 498.324 152.316 498.904 153.004 498.904ZM157.217 495.671C158.179 495.671 158.649 496.278 158.649 497.131V499.279H158.138V498.726C157.885 499.142 157.36 499.361 156.896 499.361C156.153 499.361 155.608 498.931 155.608 498.235C155.608 497.533 156.235 497.062 156.992 497.062C157.374 497.062 157.776 497.144 158.138 497.26V497.131C158.138 496.653 157.947 496.108 157.183 496.108C156.828 496.108 156.474 496.264 156.153 496.428L155.949 496.012C156.453 495.76 156.876 495.671 157.217 495.671ZM156.985 498.911C157.449 498.911 158.001 498.672 158.138 498.174V497.635C157.817 497.547 157.456 497.492 157.074 497.492C156.549 497.492 156.105 497.792 156.105 498.215C156.105 498.651 156.487 498.911 156.985 498.911ZM161.242 498.761L161.495 499.136C161.311 499.279 161.079 499.361 160.84 499.361C160.335 499.361 159.981 498.986 159.981 498.46V496.21H159.428V495.753H159.981V494.785H160.492V495.753H161.358V496.21H160.492V498.46C160.492 498.72 160.669 498.904 160.874 498.904C161.031 498.904 161.167 498.842 161.242 498.761ZM163.807 498.904C164.223 498.904 164.701 498.72 164.919 498.481L165.233 498.815C164.926 499.149 164.305 499.361 163.814 499.361C162.873 499.361 162.027 498.59 162.027 497.506C162.027 496.455 162.819 495.671 163.767 495.671C164.83 495.671 165.437 496.476 165.437 497.71H162.553C162.628 498.399 163.112 498.904 163.807 498.904ZM163.787 496.128C163.16 496.128 162.655 496.571 162.559 497.253H164.933C164.864 496.619 164.489 496.128 163.787 496.128Z" fill="#9B9B9B"/>
<path d="M139.26 519.279V517.096L143.861 513.532C145.353 512.35 145.825 511.531 145.825 510.659C145.825 509.622 144.953 509.004 143.934 509.004C142.716 509.004 141.788 509.622 140.879 510.659L139.169 509.004C140.406 507.44 141.988 506.567 144.007 506.567C146.662 506.567 148.59 508.203 148.59 510.549C148.59 512.223 147.862 513.514 145.68 515.096L143.407 516.86H148.699V519.279H139.26ZM156.234 511.204C158.544 511.204 160.453 512.695 160.453 515.169C160.453 517.733 158.398 519.497 155.67 519.497C152.015 519.497 150.36 516.878 150.36 513.241C150.36 509.349 152.633 506.567 156.088 506.567C157.652 506.567 158.907 507.094 159.926 507.912L158.653 509.949C157.889 509.313 157.143 508.931 156.107 508.931C154.488 508.931 153.379 510.277 153.142 512.386C153.924 511.641 155.052 511.204 156.234 511.204ZM155.525 517.224C156.852 517.224 157.689 516.296 157.689 515.296C157.689 514.096 156.67 513.386 155.452 513.386C154.415 513.386 153.579 513.95 153.215 514.841C153.451 516.369 154.124 517.224 155.525 517.224Z" fill="#2BCBBA"/>
<path d="M136.034 532.354C135.23 532.354 134.548 532.081 134.029 531.597L134.52 530.99C134.95 531.379 135.448 531.624 136.062 531.624C136.641 531.624 136.941 531.338 136.941 531.003C136.941 530.615 136.607 530.485 135.857 530.308C134.889 530.083 134.214 529.803 134.214 528.923C134.214 528.105 134.909 527.505 135.898 527.505C136.641 527.505 137.201 527.757 137.671 528.16L137.207 528.787C136.798 528.432 136.328 528.235 135.864 528.235C135.393 528.235 135.073 528.521 135.073 528.848C135.073 529.23 135.421 529.367 136.164 529.537C137.139 529.755 137.794 530.069 137.794 530.922C137.794 531.761 137.153 532.354 136.034 532.354ZM142.097 528.371H139.424V529.503H141.845V530.281H139.424V531.501H142.097V532.279H138.571V527.594H142.097V528.371ZM142.914 532.279V527.594H144.953C145.955 527.594 146.705 528.235 146.705 529.149C146.705 530.062 145.955 530.703 144.953 530.703H143.766V532.279H142.914ZM143.766 529.919H144.857C145.437 529.919 145.839 529.626 145.839 529.149C145.839 528.671 145.437 528.378 144.857 528.378H143.766V529.919ZM149.13 532.279V531.583L150.855 530.206C151.449 529.728 151.66 529.374 151.66 528.992C151.66 528.548 151.285 528.276 150.862 528.276C150.371 528.276 150.016 528.528 149.675 528.937L149.123 528.426C149.566 527.846 150.132 527.512 150.889 527.512C151.817 527.512 152.526 528.105 152.526 528.971C152.526 529.592 152.24 530.09 151.435 530.71L150.453 531.501H152.574V532.279H149.13ZM155.326 532.361C154.119 532.361 153.266 531.358 153.266 529.933C153.266 528.514 154.119 527.512 155.326 527.512C156.526 527.512 157.372 528.514 157.372 529.933C157.372 531.358 156.526 532.361 155.326 532.361ZM155.326 531.583C156.015 531.583 156.506 530.901 156.506 529.933C156.506 528.964 156.015 528.289 155.326 528.289C154.63 528.289 154.139 528.964 154.139 529.933C154.139 530.901 154.63 531.583 155.326 531.583ZM158.021 532.279V531.583L159.746 530.206C160.34 529.728 160.551 529.374 160.551 528.992C160.551 528.548 160.176 528.276 159.753 528.276C159.262 528.276 158.908 528.528 158.567 528.937L158.014 528.426C158.457 527.846 159.023 527.512 159.78 527.512C160.708 527.512 161.417 528.105 161.417 528.971C161.417 529.592 161.131 530.09 160.326 530.71L159.344 531.501H161.465V532.279H158.021ZM163.856 532.361C163.037 532.361 162.41 532.026 162.028 531.57L162.546 531.01C162.874 531.379 163.324 531.604 163.828 531.604C164.388 531.604 164.735 531.324 164.735 530.915C164.735 530.499 164.388 530.281 163.726 530.281L163.201 530.287V529.551H163.726C164.278 529.558 164.64 529.333 164.64 528.923C164.64 528.542 164.272 528.276 163.767 528.276C163.303 528.276 162.949 528.501 162.628 528.855L162.123 528.337C162.498 527.866 163.044 527.512 163.842 527.512C164.838 527.512 165.499 528.044 165.499 528.787C165.499 529.353 165.117 529.721 164.613 529.871C165.11 529.987 165.601 530.349 165.601 530.983C165.601 531.788 164.913 532.361 163.856 532.361Z" fill="#2BCBBA"/>
</g>
<rect x="52.6791" y="354.573" width="194.365" height="31.2576" rx="4.2624" fill="#F9F9F9" stroke="#E8ECF4" stroke-width="0.56832"/>
<path d="M64.0103 372.174C63.1112 372.174 62.4031 371.848 61.8541 371.307L62.2439 370.821C62.7054 371.283 63.2703 371.609 64.0341 371.609C64.8775 371.609 65.3072 371.148 65.3072 370.654C65.3072 370.073 64.79 369.843 63.8352 369.62C62.7372 369.365 62.045 369.023 62.045 368.076C62.045 367.201 62.8248 366.517 63.875 366.517C64.6866 366.517 65.2913 366.835 65.7925 367.297L65.4106 367.782C64.9571 367.344 64.4161 367.082 63.8432 367.082C63.1669 367.082 62.6736 367.527 62.6736 368.029C62.6736 368.594 63.2146 368.792 64.1455 369.015C65.1878 369.262 65.9357 369.636 65.9357 370.599C65.9357 371.466 65.2833 372.174 64.0103 372.174ZM68.8262 371.649C69.3115 371.649 69.8685 371.434 70.1231 371.156L70.4891 371.545C70.131 371.935 69.407 372.182 68.8341 372.182C67.7361 372.182 66.7495 371.283 66.7495 370.018C66.7495 368.792 67.6725 367.877 68.7784 367.877C70.0197 367.877 70.7278 368.816 70.7278 370.256H67.3622C67.4497 371.06 68.0146 371.649 68.8262 371.649ZM68.8023 368.411C68.0703 368.411 67.4815 368.928 67.3701 369.723H70.139C70.0594 368.983 69.6218 368.411 68.8023 368.411ZM71.7042 372.086V366.525H72.301V372.086H71.7042ZM75.3607 371.649C75.8461 371.649 76.403 371.434 76.6577 371.156L77.0237 371.545C76.6656 371.935 75.9416 372.182 75.3687 372.182C74.2707 372.182 73.2841 371.283 73.2841 370.018C73.2841 368.792 74.2071 367.877 75.313 367.877C76.5542 367.877 77.2623 368.816 77.2623 370.256H73.8968C73.9843 371.06 74.5492 371.649 75.3607 371.649ZM75.3369 368.411C74.6049 368.411 74.0161 368.928 73.9047 369.723H76.6736C76.594 368.983 76.1564 368.411 75.3369 368.411ZM80.1484 372.182C78.9947 372.182 78.016 371.195 78.016 370.026C78.016 368.856 78.9947 367.877 80.1484 367.877C80.7053 367.877 81.2225 368.108 81.6124 368.482L81.1986 368.888C80.9281 368.594 80.5542 368.411 80.1484 368.411C79.3289 368.411 78.6446 369.15 78.6446 370.026C78.6446 370.909 79.3289 371.649 80.1484 371.649C80.5621 371.649 80.944 371.458 81.2225 371.148L81.6362 371.553C81.2464 371.943 80.7212 372.182 80.1484 372.182ZM84.3573 371.482L84.6517 371.919C84.4369 372.086 84.1663 372.182 83.8879 372.182C83.2991 372.182 82.8853 371.744 82.8853 371.132V368.506H82.2409V367.973H82.8853V366.843H83.4821V367.973H84.4925V368.506H83.4821V371.132C83.4821 371.434 83.6889 371.649 83.9276 371.649C84.1106 371.649 84.2698 371.577 84.3573 371.482ZM88.4163 373.519C88.1776 373.519 87.9549 373.471 87.7639 373.383L87.9071 372.874C88.0503 372.946 88.2174 372.978 88.3925 372.978C88.655 372.978 88.8301 372.89 88.9892 372.612L89.2279 372.102L87.4377 367.973H88.0981L89.5382 371.394L90.8988 367.973H91.5432L89.6655 372.548C89.3791 373.248 88.9812 373.511 88.4163 373.519ZM94.2742 372.182C93.1205 372.182 92.1419 371.195 92.1419 370.026C92.1419 368.856 93.1205 367.877 94.2742 367.877C95.4279 367.877 96.3986 368.856 96.3986 370.026C96.3986 371.195 95.4279 372.182 94.2742 372.182ZM94.2742 371.649C95.0858 371.649 95.7701 370.909 95.7701 370.026C95.7701 369.15 95.0858 368.411 94.2742 368.411C93.4547 368.411 92.7705 369.15 92.7705 370.026C92.7705 370.909 93.4547 371.649 94.2742 371.649ZM100.28 367.973H100.877V372.086H100.28V371.426C100.042 371.864 99.5085 372.182 98.9277 372.182C98.0206 372.182 97.3841 371.522 97.3841 370.591V367.973H97.9808V370.511C97.9808 371.179 98.4025 371.649 99.0072 371.649C99.6994 371.649 100.28 371.163 100.28 370.591V367.973ZM102.745 368.777C102.992 368.228 103.581 367.877 104.336 367.877V368.411C103.406 368.411 102.745 368.983 102.745 369.787V372.086H102.148V367.973H102.745V368.777ZM110.684 366.525H111.281V372.086H110.684V371.315C110.374 371.856 109.849 372.182 109.188 372.182C108.106 372.182 107.295 371.291 107.295 370.026C107.295 368.769 108.106 367.877 109.188 367.877C109.849 367.877 110.374 368.204 110.684 368.745V366.525ZM109.3 371.649C110.111 371.649 110.684 370.973 110.684 370.026C110.684 369.079 110.111 368.411 109.3 368.411C108.496 368.411 107.923 369.079 107.923 370.026C107.923 370.973 108.496 371.649 109.3 371.649ZM112.838 367.225C112.615 367.225 112.44 367.042 112.44 366.827C112.44 366.62 112.615 366.437 112.838 366.437C113.053 366.437 113.228 366.62 113.228 366.827C113.228 367.042 113.053 367.225 112.838 367.225ZM112.535 372.086V367.973H113.132V372.086H112.535ZM115.787 372.182C115.214 372.182 114.577 371.967 114.084 371.569L114.394 371.132C114.864 371.474 115.333 371.649 115.787 371.649C116.328 371.649 116.694 371.394 116.694 371.004C116.694 370.559 116.216 370.416 115.659 370.256C114.665 369.97 114.283 369.676 114.283 369.087C114.283 368.339 114.903 367.877 115.723 367.877C116.232 367.877 116.757 368.052 117.195 368.339L116.908 368.8C116.495 368.538 116.089 368.411 115.723 368.411C115.261 368.411 114.879 368.617 114.879 369.015C114.879 369.373 115.182 369.485 115.946 369.731C116.606 369.938 117.29 370.161 117.29 370.941C117.29 371.697 116.638 372.182 115.787 372.182ZM120.084 371.482L120.378 371.919C120.163 372.086 119.893 372.182 119.614 372.182C119.026 372.182 118.612 371.744 118.612 371.132V368.506H117.967V367.973H118.612V366.843H119.209V367.973H120.219V368.506H119.209V371.132C119.209 371.434 119.415 371.649 119.654 371.649C119.837 371.649 119.996 371.577 120.084 371.482ZM121.875 368.777C122.122 368.228 122.71 367.877 123.466 367.877V368.411C122.535 368.411 121.875 368.983 121.875 369.787V372.086H121.278V367.973H121.875V368.777ZM124.586 367.225C124.363 367.225 124.188 367.042 124.188 366.827C124.188 366.62 124.363 366.437 124.586 366.437C124.801 366.437 124.976 366.62 124.976 366.827C124.976 367.042 124.801 367.225 124.586 367.225ZM124.284 372.086V367.973H124.88V372.086H124.284ZM127.988 372.182C126.835 372.182 125.856 371.195 125.856 370.026C125.856 368.856 126.835 367.877 127.988 367.877C128.545 367.877 129.062 368.108 129.452 368.482L129.039 368.888C128.768 368.594 128.394 368.411 127.988 368.411C127.169 368.411 126.484 369.15 126.484 370.026C126.484 370.909 127.169 371.649 127.988 371.649C128.402 371.649 128.784 371.458 129.062 371.148L129.476 371.553C129.086 371.943 128.561 372.182 127.988 372.182ZM132.197 371.482L132.492 371.919C132.277 372.086 132.006 372.182 131.728 372.182C131.139 372.182 130.725 371.744 130.725 371.132V368.506H130.081V367.973H130.725V366.843H131.322V367.973H132.332V368.506H131.322V371.132C131.322 371.434 131.529 371.649 131.768 371.649C131.951 371.649 132.11 371.577 132.197 371.482Z" fill="#9B9B9B"/>
<path d="M228.782 368.407C228.73 368.46 228.688 368.522 228.66 368.59C228.631 368.658 228.617 368.732 228.617 368.806C228.617 368.88 228.631 368.953 228.66 369.021C228.688 369.09 228.73 369.152 228.782 369.204L232.521 372.943C232.563 372.984 232.612 373.017 232.666 373.04C232.721 373.063 232.779 373.074 232.838 373.074C232.897 373.074 232.955 373.063 233.01 373.04C233.064 373.017 233.114 372.984 233.155 372.943L236.894 369.204C237.115 368.983 237.115 368.628 236.894 368.407C236.674 368.187 236.318 368.187 236.098 368.407L232.836 371.665L229.574 368.403C229.358 368.187 228.998 368.187 228.782 368.407Z" fill="#9B9B9B" stroke="#9B9B9B" stroke-width="0.113664"/>
<path d="M53.1859 346.102V339.855H56.1503C57.196 339.855 57.9325 340.501 57.9325 341.41C57.9325 342.065 57.6052 342.474 57.0414 342.792C57.7689 343.147 58.1872 343.711 58.1872 344.402C58.1872 345.402 57.387 346.102 56.2685 346.102H53.1859ZM54.1043 342.456H55.923C56.5504 342.456 56.996 342.083 56.996 341.565C56.996 341.046 56.5504 340.664 55.923 340.664H54.1043V342.456ZM54.1043 345.293H56.0594C56.7595 345.293 57.2506 344.865 57.2506 344.265C57.2506 343.665 56.7595 343.238 56.0594 343.238H54.1043V345.293ZM62.5471 341.401H63.4473V346.102H62.5471V345.42C62.2652 345.884 61.6923 346.211 61.0558 346.211C60.0192 346.211 59.2918 345.456 59.2918 344.393V341.401H60.1738V344.238C60.1738 344.938 60.6194 345.429 61.2559 345.429C61.9106 345.429 62.4743 345.002 62.5471 344.447V341.401ZM66.4538 346.211C65.7627 346.211 65.008 345.966 64.4442 345.511L64.8716 344.865C65.3717 345.229 65.9082 345.438 66.4629 345.438C66.9903 345.438 67.354 345.193 67.354 344.829C67.354 344.393 66.8721 344.256 66.2901 344.092C65.208 343.792 64.6715 343.483 64.6715 342.719C64.6625 341.856 65.3808 341.292 66.381 341.292C66.9903 341.292 67.6086 341.501 68.1178 341.837L67.7177 342.501C67.2631 342.219 66.7902 342.065 66.381 342.065C65.9173 342.065 65.5536 342.265 65.5536 342.619C65.5536 342.983 65.8446 343.092 66.6357 343.338C67.4086 343.565 68.236 343.82 68.236 344.756C68.236 345.647 67.4813 346.211 66.4538 346.211ZM69.7277 340.619C69.4186 340.619 69.1822 340.364 69.1822 340.073C69.1822 339.791 69.4186 339.537 69.7277 339.537C70.0187 339.537 70.2642 339.791 70.2642 340.073C70.2642 340.364 70.0187 340.619 69.7277 340.619ZM69.2731 346.102V341.401H70.1733V346.102H69.2731ZM73.867 341.292C74.9036 341.292 75.6311 342.047 75.6311 343.11V346.102H74.7491V343.265C74.7491 342.565 74.3035 342.074 73.667 342.074C73.0123 342.074 72.4485 342.501 72.3758 343.056V346.102H71.4755V341.401H72.3758V342.083C72.6576 341.619 73.2305 341.292 73.867 341.292ZM79.0741 345.411C79.5651 345.411 80.1379 345.193 80.4198 344.902L80.9836 345.484C80.5653 345.929 79.7469 346.211 79.0831 346.211C77.7737 346.211 76.6644 345.184 76.6644 343.738C76.6644 342.328 77.7101 341.292 79.0104 341.292C80.4471 341.292 81.2746 342.383 81.2746 344.065H77.5737C77.6919 344.847 78.2648 345.411 79.0741 345.411ZM79.0468 342.092C78.3193 342.092 77.7283 342.583 77.5828 343.347H80.4016C80.3016 342.619 79.8561 342.092 79.0468 342.092ZM84.0184 346.211C83.3274 346.211 82.5726 345.966 82.0089 345.511L82.4362 344.865C82.9364 345.229 83.4728 345.438 84.0275 345.438C84.5549 345.438 84.9187 345.193 84.9187 344.829C84.9187 344.393 84.4367 344.256 83.8548 344.092C82.7727 343.792 82.2362 343.483 82.2362 342.719C82.2271 341.856 82.9454 341.292 83.9457 341.292C84.5549 341.292 85.1733 341.501 85.6825 341.837L85.2824 342.501C84.8277 342.219 84.3549 342.065 83.9457 342.065C83.4819 342.065 83.1182 342.265 83.1182 342.619C83.1182 342.983 83.4092 343.092 84.2003 343.338C84.9732 343.565 85.8007 343.82 85.8007 344.756C85.8007 345.647 85.046 346.211 84.0184 346.211ZM88.5472 346.211C87.8562 346.211 87.1014 345.966 86.5377 345.511L86.965 344.865C87.4652 345.229 88.0016 345.438 88.5563 345.438C89.0837 345.438 89.4475 345.193 89.4475 344.829C89.4475 344.393 88.9655 344.256 88.3836 344.092C87.3015 343.792 86.765 343.483 86.765 342.719C86.7559 341.856 87.4742 341.292 88.4745 341.292C89.0837 341.292 89.7021 341.501 90.2113 341.837L89.8112 342.501C89.3565 342.219 88.8837 342.065 88.4745 342.065C88.0107 342.065 87.647 342.265 87.647 342.619C87.647 342.983 87.938 343.092 88.7291 343.338C89.502 343.565 90.3295 343.82 90.3295 344.756C90.3295 345.647 89.5748 346.211 88.5472 346.211ZM97.5965 339.746H98.4876V346.102H97.5965V345.284C97.2328 345.866 96.6508 346.211 95.9234 346.211C94.6867 346.211 93.7592 345.193 93.7592 343.747C93.7592 342.31 94.6867 341.292 95.9234 341.292C96.6508 341.292 97.2328 341.637 97.5965 342.21V339.746ZM96.1416 345.429C96.9873 345.429 97.5965 344.729 97.5965 343.747C97.5965 342.765 96.9873 342.074 96.1416 342.074C95.2778 342.074 94.6685 342.765 94.6685 343.747C94.6685 344.729 95.2778 345.429 96.1416 345.429ZM100.284 340.619C99.9747 340.619 99.7382 340.364 99.7382 340.073C99.7382 339.791 99.9747 339.537 100.284 339.537C100.575 339.537 100.82 339.791 100.82 340.073C100.82 340.364 100.575 340.619 100.284 340.619ZM99.8292 346.102V341.401H100.729V346.102H99.8292ZM103.732 346.211C103.041 346.211 102.286 345.966 101.722 345.511L102.15 344.865C102.65 345.229 103.186 345.438 103.741 345.438C104.269 345.438 104.632 345.193 104.632 344.829C104.632 344.393 104.15 344.256 103.568 344.092C102.486 343.792 101.95 343.483 101.95 342.719C101.941 341.856 102.659 341.292 103.659 341.292C104.269 341.292 104.887 341.501 105.396 341.837L104.996 342.501C104.541 342.219 104.068 342.065 103.659 342.065C103.196 342.065 102.832 342.265 102.832 342.619C102.832 342.983 103.123 343.092 103.914 343.338C104.687 343.565 105.514 343.82 105.514 344.756C105.514 345.647 104.76 346.211 103.732 346.211ZM108.761 345.256L109.088 345.875C108.834 346.084 108.488 346.211 108.152 346.211C107.424 346.211 106.915 345.684 106.915 344.929V342.165H106.206V341.401H106.915V340.11H107.797V341.401H108.906V342.165H107.797V344.865C107.797 345.193 108.015 345.429 108.279 345.429C108.479 345.429 108.661 345.356 108.761 345.256ZM110.952 342.301C111.252 341.683 111.888 341.292 112.697 341.292V342.074C111.724 342.074 111.033 342.61 110.952 343.429V346.102H110.051V341.401H110.952V342.301ZM114.021 340.619C113.712 340.619 113.476 340.364 113.476 340.073C113.476 339.791 113.712 339.537 114.021 339.537C114.312 339.537 114.558 339.791 114.558 340.073C114.558 340.364 114.312 340.619 114.021 340.619ZM113.567 346.102V341.401H114.467V346.102H113.567ZM117.988 346.211C116.651 346.211 115.514 345.084 115.514 343.747C115.514 342.41 116.651 341.292 117.997 341.292C118.67 341.292 119.279 341.574 119.724 342.019L119.115 342.583C118.833 342.265 118.424 342.074 117.988 342.074C117.133 342.074 116.424 342.838 116.424 343.747C116.424 344.665 117.133 345.429 117.997 345.429C118.433 345.429 118.852 345.229 119.143 344.902L119.752 345.456C119.297 345.92 118.688 346.211 117.988 346.211ZM122.916 345.256L123.243 345.875C122.988 346.084 122.643 346.211 122.306 346.211C121.579 346.211 121.07 345.684 121.07 344.929V342.165H120.361V341.401H121.07V340.11H121.952V341.401H123.061V342.165H121.952V344.865C121.952 345.193 122.17 345.429 122.434 345.429C122.634 345.429 122.816 345.356 122.916 345.256Z" fill="#222222" fill-opacity="0.8"/>
<rect x="52.6791" y="290.92" width="194.365" height="31.2576" rx="4.2624" fill="#F9F9F9" stroke="#E8ECF4" stroke-width="0.56832"/>
<path d="M64.0103 308.522C63.1112 308.522 62.4031 308.195 61.8541 307.654L62.244 307.169C62.7054 307.63 63.2703 307.957 64.0342 307.957C64.8776 307.957 65.3072 307.495 65.3072 307.002C65.3072 306.421 64.79 306.19 63.8353 305.968C62.7373 305.713 62.0451 305.371 62.0451 304.424C62.0451 303.549 62.8248 302.865 63.875 302.865C64.6866 302.865 65.2913 303.183 65.7926 303.644L65.4106 304.13C64.9571 303.692 64.4161 303.429 63.8432 303.429C63.1669 303.429 62.6736 303.875 62.6736 304.376C62.6736 304.941 63.2147 305.14 64.1456 305.363C65.1879 305.61 65.9358 305.983 65.9358 306.946C65.9358 307.813 65.2833 308.522 64.0103 308.522ZM68.8262 307.996C69.3116 307.996 69.8685 307.782 70.1231 307.503L70.4891 307.893C70.1311 308.283 69.407 308.53 68.8342 308.53C67.7362 308.53 66.7496 307.63 66.7496 306.365C66.7496 305.14 67.6725 304.225 68.7785 304.225C70.0197 304.225 70.7278 305.164 70.7278 306.604H67.3622C67.4497 307.408 68.0146 307.996 68.8262 307.996ZM68.8023 304.758C68.0703 304.758 67.4816 305.275 67.3702 306.071H70.139C70.0595 305.331 69.6219 304.758 68.8023 304.758ZM71.7043 308.434V302.873H72.301V308.434H71.7043ZM75.3608 307.996C75.8461 307.996 76.4031 307.782 76.6577 307.503L77.0237 307.893C76.6656 308.283 75.9416 308.53 75.3687 308.53C74.2707 308.53 73.2841 307.63 73.2841 306.365C73.2841 305.14 74.2071 304.225 75.313 304.225C76.5543 304.225 77.2624 305.164 77.2624 306.604H73.8968C73.9843 307.408 74.5492 307.996 75.3608 307.996ZM75.3369 304.758C74.6049 304.758 74.0161 305.275 73.9047 306.071H76.6736C76.594 305.331 76.1564 304.758 75.3369 304.758ZM80.1484 308.53C78.9947 308.53 78.0161 307.543 78.0161 306.373C78.0161 305.204 78.9947 304.225 80.1484 304.225C80.7054 304.225 81.2225 304.456 81.6124 304.83L81.1987 305.236C80.9281 304.941 80.5542 304.758 80.1484 304.758C79.3289 304.758 78.6446 305.498 78.6446 306.373C78.6446 307.257 79.3289 307.996 80.1484 307.996C80.5621 307.996 80.9441 307.806 81.2225 307.495L81.6363 307.901C81.2464 308.291 80.7213 308.53 80.1484 308.53ZM84.3573 307.829L84.6517 308.267C84.4369 308.434 84.1664 308.53 83.8879 308.53C83.2991 308.53 82.8854 308.092 82.8854 307.479V304.854H82.2409V304.321H82.8854V303.191H83.4821V304.321H84.4926V304.854H83.4821V307.479C83.4821 307.782 83.689 307.996 83.9277 307.996C84.1107 307.996 84.2698 307.925 84.3573 307.829ZM88.4164 309.866C88.1777 309.866 87.9549 309.819 87.7639 309.731L87.9072 309.222C88.0504 309.293 88.2175 309.325 88.3925 309.325C88.6551 309.325 88.8301 309.238 88.9892 308.959L89.2279 308.45L87.4377 304.321H88.0981L89.5382 307.742L90.8988 304.321H91.5433L89.6655 308.896C89.3791 309.596 88.9813 309.858 88.4164 309.866ZM94.2743 308.53C93.1206 308.53 92.1419 307.543 92.1419 306.373C92.1419 305.204 93.1206 304.225 94.2743 304.225C95.428 304.225 96.3986 305.204 96.3986 306.373C96.3986 307.543 95.428 308.53 94.2743 308.53ZM94.2743 307.996C95.0858 307.996 95.7701 307.257 95.7701 306.373C95.7701 305.498 95.0858 304.758 94.2743 304.758C93.4547 304.758 92.7705 305.498 92.7705 306.373C92.7705 307.257 93.4547 307.996 94.2743 307.996ZM100.28 304.321H100.877V308.434H100.28V307.774C100.042 308.211 99.5085 308.53 98.9277 308.53C98.0206 308.53 97.3841 307.869 97.3841 306.938V304.321H97.9809V306.859C97.9809 307.527 98.4026 307.996 99.0073 307.996C99.6995 307.996 100.28 307.511 100.28 306.938V304.321ZM102.745 305.124C102.992 304.575 103.581 304.225 104.336 304.225V304.758C103.406 304.758 102.745 305.331 102.745 306.135V308.434H102.148V304.321H102.745V305.124ZM108.52 308.434L107.143 304.321H107.78L108.806 307.638L109.928 304.321H110.445L111.567 307.638L112.594 304.321H113.23L111.846 308.434H111.281L110.191 305.148L109.085 308.434H108.52ZM115.852 308.53C114.698 308.53 113.719 307.543 113.719 306.373C113.719 305.204 114.698 304.225 115.852 304.225C117.005 304.225 117.976 305.204 117.976 306.373C117.976 307.543 117.005 308.53 115.852 308.53ZM115.852 307.996C116.663 307.996 117.347 307.257 117.347 306.373C117.347 305.498 116.663 304.758 115.852 304.758C115.032 304.758 114.348 305.498 114.348 306.373C114.348 307.257 115.032 307.996 115.852 307.996ZM119.614 305.124C119.86 304.575 120.449 304.225 121.205 304.225V304.758C120.274 304.758 119.614 305.331 119.614 306.135V308.434H119.017V304.321H119.614V305.124ZM125.635 304.321L123.781 306.206L125.531 308.434H124.784L123.359 306.612L122.619 307.344V308.434H122.023V302.873H122.619V306.596L124.871 304.321H125.635ZM130.568 308.53C129.414 308.53 128.436 307.543 128.436 306.373C128.436 305.204 129.414 304.225 130.568 304.225C131.125 304.225 131.642 304.456 132.032 304.83L131.618 305.236C131.348 304.941 130.974 304.758 130.568 304.758C129.748 304.758 129.064 305.498 129.064 306.373C129.064 307.257 129.748 307.996 130.568 307.996C130.982 307.996 131.364 307.806 131.642 307.495L132.056 307.901C131.666 308.291 131.141 308.53 130.568 308.53ZM134.642 304.225C135.763 304.225 136.312 304.933 136.312 305.928V308.434H135.716V307.79C135.421 308.275 134.809 308.53 134.268 308.53C133.4 308.53 132.764 308.028 132.764 307.217C132.764 306.397 133.496 305.848 134.379 305.848C134.825 305.848 135.294 305.944 135.716 306.079V305.928C135.716 305.371 135.493 304.734 134.602 304.734C134.188 304.734 133.774 304.917 133.4 305.108L133.162 304.623C133.75 304.329 134.244 304.225 134.642 304.225ZM134.371 308.004C134.912 308.004 135.557 307.726 135.716 307.145V306.517C135.342 306.413 134.92 306.349 134.475 306.349C133.862 306.349 133.345 306.7 133.345 307.193C133.345 307.702 133.79 308.004 134.371 308.004ZM139.338 307.829L139.632 308.267C139.417 308.434 139.147 308.53 138.868 308.53C138.28 308.53 137.866 308.092 137.866 307.479V304.854H137.221V304.321H137.866V303.191H138.463V304.321H139.473V304.854H138.463V307.479C138.463 307.782 138.669 307.996 138.908 307.996C139.091 307.996 139.25 307.925 139.338 307.829ZM142.33 307.996C142.816 307.996 143.373 307.782 143.627 307.503L143.993 307.893C143.635 308.283 142.911 308.53 142.338 308.53C141.24 308.53 140.254 307.63 140.254 306.365C140.254 305.14 141.177 304.225 142.283 304.225C143.524 304.225 144.232 305.164 144.232 306.604H140.866C140.954 307.408 141.519 307.996 142.33 307.996ZM142.307 304.758C141.575 304.758 140.986 305.275 140.874 306.071H143.643C143.564 305.331 143.126 304.758 142.307 304.758ZM148.407 304.321H149.004V307.996C149.004 309.055 148.168 309.803 146.983 309.803C146.314 309.803 145.694 309.572 145.32 309.254L145.582 308.784C145.901 309.087 146.394 309.27 146.903 309.27C147.85 309.27 148.407 308.8 148.407 307.996V307.328C148.089 307.829 147.564 308.132 146.911 308.132C145.805 308.132 145.018 307.32 145.018 306.174C145.018 305.029 145.805 304.225 146.911 304.225C147.564 304.225 148.089 304.527 148.407 305.029V304.321ZM147.023 307.599C147.834 307.599 148.407 307.01 148.407 306.174C148.407 305.347 147.834 304.758 147.023 304.758C146.219 304.758 145.646 305.347 145.646 306.174C145.646 307.01 146.219 307.599 147.023 307.599ZM152.176 308.53C151.023 308.53 150.044 307.543 150.044 306.373C150.044 305.204 151.023 304.225 152.176 304.225C153.33 304.225 154.301 305.204 154.301 306.373C154.301 307.543 153.33 308.53 152.176 308.53ZM152.176 307.996C152.988 307.996 153.672 307.257 153.672 306.373C153.672 305.498 152.988 304.758 152.176 304.758C151.357 304.758 150.673 305.498 150.673 306.373C150.673 307.257 151.357 307.996 152.176 307.996ZM155.939 305.124C156.185 304.575 156.774 304.225 157.53 304.225V304.758C156.599 304.758 155.939 305.331 155.939 306.135V308.434H155.342V304.321H155.939V305.124ZM158.968 309.866C158.729 309.866 158.506 309.819 158.316 309.731L158.459 309.222C158.602 309.293 158.769 309.325 158.944 309.325C159.207 309.325 159.382 309.238 159.541 308.959L159.78 308.45L157.989 304.321H158.65L160.09 307.742L161.45 304.321H162.095L160.217 308.896C159.931 309.596 159.533 309.858 158.968 309.866Z" fill="#9B9B9B"/>
<path d="M228.782 304.755C228.73 304.807 228.688 304.869 228.66 304.937C228.631 305.006 228.617 305.079 228.617 305.153C228.617 305.227 228.631 305.3 228.66 305.368C228.688 305.437 228.73 305.499 228.782 305.551L232.521 309.29C232.563 309.332 232.612 309.365 232.666 309.387C232.721 309.41 232.779 309.421 232.838 309.421C232.897 309.421 232.955 309.41 233.01 309.387C233.064 309.365 233.114 309.332 233.155 309.29L236.894 305.551C237.115 305.331 237.115 304.975 236.894 304.755C236.674 304.534 236.318 304.534 236.098 304.755L232.836 308.012L229.574 304.75C229.358 304.534 228.998 304.534 228.782 304.755Z" fill="#9B9B9B" stroke="#9B9B9B" stroke-width="0.113664"/>
<path d="M53.1858 282.451V276.204H56.1502C57.1959 276.204 57.9325 276.849 57.9325 277.759C57.9325 278.413 57.6051 278.823 57.0413 279.141C57.7688 279.495 58.1871 280.059 58.1871 280.75C58.1871 281.751 57.3869 282.451 56.2684 282.451H53.1858ZM54.1043 278.804H55.9229C56.5503 278.804 56.9959 278.432 56.9959 277.913C56.9959 277.395 56.5503 277.013 55.9229 277.013H54.1043V278.804ZM54.1043 281.641H56.0593C56.7594 281.641 57.2505 281.214 57.2505 280.614C57.2505 280.014 56.7594 279.586 56.0593 279.586H54.1043V281.641ZM62.547 277.75H63.4472V282.451H62.547V281.769C62.2651 282.232 61.6922 282.56 61.0557 282.56C60.0191 282.56 59.2917 281.805 59.2917 280.741V277.75H60.1737V280.587C60.1737 281.287 60.6193 281.778 61.2558 281.778C61.9105 281.778 62.4743 281.35 62.547 280.796V277.75ZM66.4537 282.56C65.7626 282.56 65.0079 282.314 64.4441 281.86L64.8715 281.214C65.3716 281.578 65.9081 281.787 66.4628 281.787C66.9902 281.787 67.3539 281.541 67.3539 281.178C67.3539 280.741 66.872 280.605 66.29 280.441C65.2079 280.141 64.6715 279.832 64.6715 279.068C64.6624 278.204 65.3807 277.64 66.381 277.64C66.9902 277.64 67.6085 277.85 68.1177 278.186L67.7176 278.85C67.263 278.568 66.7901 278.413 66.381 278.413C65.9172 278.413 65.5535 278.613 65.5535 278.968C65.5535 279.332 65.8445 279.441 66.6356 279.686C67.4085 279.914 68.236 280.168 68.236 281.105C68.236 281.996 67.4812 282.56 66.4537 282.56ZM69.7277 276.968C69.4185 276.968 69.1821 276.713 69.1821 276.422C69.1821 276.14 69.4185 275.885 69.7277 275.885C70.0186 275.885 70.2641 276.14 70.2641 276.422C70.2641 276.713 70.0186 276.968 69.7277 276.968ZM69.273 282.451V277.75H70.1732V282.451H69.273ZM73.8669 277.64C74.9036 277.64 75.631 278.395 75.631 279.459V282.451H74.749V279.614C74.749 278.913 74.3034 278.422 73.6669 278.422C73.0122 278.422 72.4484 278.85 72.3757 279.404V282.451H71.4754V277.75H72.3757V278.432C72.6576 277.968 73.2304 277.64 73.8669 277.64ZM79.074 281.76C79.565 281.76 80.1379 281.541 80.4197 281.25L80.9835 281.832C80.5652 282.278 79.7468 282.56 79.0831 282.56C77.7736 282.56 76.6643 281.532 76.6643 280.086C76.6643 278.677 77.71 277.64 79.0103 277.64C80.447 277.64 81.2745 278.732 81.2745 280.414H77.5736C77.6918 281.196 78.2647 281.76 79.074 281.76ZM79.0467 278.441C78.3192 278.441 77.7282 278.932 77.5827 279.695H80.4016C80.3015 278.968 79.856 278.441 79.0467 278.441ZM84.0183 282.56C83.3273 282.56 82.5725 282.314 82.0088 281.86L82.4361 281.214C82.9363 281.578 83.4728 281.787 84.0274 281.787C84.5548 281.787 84.9186 281.541 84.9186 281.178C84.9186 280.741 84.4366 280.605 83.8547 280.441C82.7726 280.141 82.2361 279.832 82.2361 279.068C82.227 278.204 82.9454 277.64 83.9456 277.64C84.5548 277.64 85.1732 277.85 85.6824 278.186L85.2823 278.85C84.8276 278.568 84.3548 278.413 83.9456 278.413C83.4818 278.413 83.1181 278.613 83.1181 278.968C83.1181 279.332 83.4091 279.441 84.2002 279.686C84.9731 279.914 85.8006 280.168 85.8006 281.105C85.8006 281.996 85.0459 282.56 84.0183 282.56ZM88.5471 282.56C87.8561 282.56 87.1013 282.314 86.5376 281.86L86.9649 281.214C87.4651 281.578 88.0016 281.787 88.5562 281.787C89.0836 281.787 89.4474 281.541 89.4474 281.178C89.4474 280.741 88.9654 280.605 88.3835 280.441C87.3014 280.141 86.7649 279.832 86.7649 279.068C86.7558 278.204 87.4742 277.64 88.4744 277.64C89.0836 277.64 89.702 277.85 90.2112 278.186L89.8111 278.85C89.3564 278.568 88.8836 278.413 88.4744 278.413C88.0106 278.413 87.6469 278.613 87.6469 278.968C87.6469 279.332 87.9379 279.441 88.729 279.686C89.5019 279.914 90.3294 280.168 90.3294 281.105C90.3294 281.996 89.5747 282.56 88.5471 282.56ZM96.1961 282.56C94.8594 282.56 93.7228 281.432 93.7228 280.096C93.7228 278.759 94.8594 277.64 96.2052 277.64C96.8781 277.64 97.4873 277.922 97.9329 278.368L97.3236 278.932C97.0417 278.613 96.6326 278.422 96.1961 278.422C95.3413 278.422 94.6321 279.186 94.6321 280.096C94.6321 281.014 95.3413 281.778 96.2052 281.778C96.6417 281.778 97.0599 281.578 97.3509 281.25L97.9602 281.805C97.5055 282.269 96.8963 282.56 96.1961 282.56ZM100.897 277.64C102.161 277.64 102.861 278.441 102.861 279.605V282.451H101.979V281.805C101.633 282.296 100.988 282.56 100.415 282.56C99.4146 282.56 98.678 281.978 98.678 281.059C98.678 280.123 99.5237 279.495 100.56 279.495C101.024 279.495 101.524 279.595 101.979 279.75V279.605C101.979 279.013 101.706 278.386 100.769 278.386C100.306 278.386 99.851 278.568 99.4418 278.777L99.1145 278.113C99.7874 277.777 100.378 277.64 100.897 277.64ZM100.588 281.851C101.17 281.851 101.824 281.56 101.979 280.978V280.35C101.597 280.232 101.16 280.168 100.697 280.168C100.069 280.168 99.5419 280.523 99.5419 281.032C99.5419 281.541 99.9965 281.851 100.588 281.851ZM106.363 281.605L106.691 282.223C106.436 282.432 106.09 282.56 105.754 282.56C105.027 282.56 104.517 282.032 104.517 281.278V278.513H103.808V277.75H104.517V276.458H105.399V277.75H106.509V278.513H105.399V281.214C105.399 281.541 105.618 281.778 105.881 281.778C106.081 281.778 106.263 281.705 106.363 281.605ZM109.763 281.76C110.254 281.76 110.827 281.541 111.109 281.25L111.673 281.832C111.255 282.278 110.436 282.56 109.772 282.56C108.463 282.56 107.354 281.532 107.354 280.086C107.354 278.677 108.399 277.64 109.7 277.64C111.136 277.64 111.964 278.732 111.964 280.414H108.263C108.381 281.196 108.954 281.76 109.763 281.76ZM109.736 278.441C109.009 278.441 108.417 278.932 108.272 279.695H111.091C110.991 278.968 110.545 278.441 109.736 278.441ZM116.581 277.75H117.481V281.951C117.481 283.16 116.49 284.015 115.099 284.015C114.308 284.015 113.58 283.751 113.135 283.387L113.489 282.714C113.835 283.042 114.398 283.233 114.962 283.233C115.972 283.233 116.581 282.751 116.581 281.932V281.25C116.208 281.787 115.626 282.105 114.917 282.105C113.68 282.105 112.78 281.178 112.78 279.868C112.78 278.559 113.68 277.64 114.917 277.64C115.626 277.64 116.226 277.977 116.581 278.504V277.75ZM115.144 281.323C115.981 281.323 116.581 280.723 116.581 279.868C116.581 279.023 115.981 278.422 115.144 278.422C114.308 278.422 113.716 279.023 113.716 279.868C113.716 280.723 114.308 281.323 115.144 281.323ZM121.051 282.56C119.706 282.56 118.569 281.432 118.569 280.096C118.569 278.759 119.706 277.64 121.051 277.64C122.388 277.64 123.516 278.759 123.516 280.096C123.516 281.432 122.388 282.56 121.051 282.56ZM121.051 281.778C121.897 281.778 122.615 281.014 122.615 280.096C122.615 279.186 121.897 278.422 121.051 278.422C120.188 278.422 119.469 279.186 119.469 280.096C119.469 281.014 120.188 281.778 121.051 281.778ZM125.515 278.65C125.815 278.031 126.451 277.64 127.261 277.64V278.422C126.288 278.422 125.596 278.959 125.515 279.777V282.451H124.614V277.75H125.515V278.65ZM128.966 284.087C128.648 284.087 128.321 284.015 128.075 283.887L128.275 283.196C128.457 283.296 128.666 283.342 128.848 283.342C129.139 283.342 129.339 283.251 129.494 282.978L129.73 282.478L127.711 277.75H128.675L130.185 281.46L131.612 277.75H132.549L130.476 282.878C130.139 283.724 129.639 284.078 128.966 284.087Z" fill="#222222" fill-opacity="0.8"/>
<rect x="52.6791" y="418.224" width="194.365" height="31.2576" rx="4.2624" fill="#F9F9F9" stroke="#E8ECF4" stroke-width="0.56832"/>
<path d="M65.7209 432.73V433.438H64.2251V434.934H63.4931V433.438H62.0052V432.73H63.4931V431.219H64.2251V432.73H65.7209ZM68.6465 430.176C70.1662 430.176 70.8107 431.362 70.8107 432.921C70.8107 434.576 69.832 435.833 68.4953 435.833C67.827 435.833 67.3257 435.579 66.904 435.205L67.3178 434.584C67.6599 434.894 68.002 435.109 68.5033 435.109C69.3387 435.109 69.9673 434.21 69.9912 433.001C69.657 433.454 69.108 433.725 68.5033 433.725C67.5008 433.725 66.6653 433.096 66.6653 432.014C66.6653 430.964 67.4928 430.176 68.6465 430.176ZM68.6942 433.049C69.2989 433.049 69.7843 432.698 69.9275 432.165C69.7843 431.386 69.3944 430.86 68.6783 430.86C67.9384 430.86 67.4928 431.425 67.4928 431.974C67.4928 432.643 68.0259 433.049 68.6942 433.049ZM72.6954 435.738V431.226L71.7486 431.831L71.4144 431.25L72.8546 430.272H73.507V435.738H72.6954ZM78.9107 430.176C80.4304 430.176 81.0748 431.362 81.0748 432.921C81.0748 434.576 80.0962 435.833 78.7595 435.833C78.0912 435.833 77.5899 435.579 77.1682 435.205L77.5819 434.584C77.9241 434.894 78.2662 435.109 78.7675 435.109C79.6029 435.109 80.2315 434.21 80.2553 433.001C79.9211 433.454 79.3722 433.725 78.7675 433.725C77.7649 433.725 76.9295 433.096 76.9295 432.014C76.9295 430.964 77.757 430.176 78.9107 430.176ZM78.9584 433.049C79.5631 433.049 80.0485 432.698 80.1917 432.165C80.0485 431.386 79.6586 430.86 78.9425 430.86C78.2025 430.86 77.757 431.425 77.757 431.974C77.757 432.643 78.2901 433.049 78.9584 433.049ZM83.9382 435.833C82.7845 435.833 81.8775 435.237 81.8775 434.298C81.8775 433.621 82.3867 433.136 83.0392 432.913C82.4424 432.675 82.0207 432.261 82.0207 431.64C82.0207 430.709 82.9516 430.176 83.9382 430.176C84.9567 430.176 85.8637 430.733 85.8637 431.64C85.8637 432.293 85.4022 432.698 84.8453 432.913C85.4977 433.144 85.999 433.629 85.999 434.298C85.999 435.244 85.084 435.833 83.9382 435.833ZM83.9382 432.611C84.4395 432.579 85.0601 432.277 85.0601 431.728C85.0601 431.242 84.5668 430.884 83.9382 430.884C83.3097 430.884 82.8243 431.242 82.8243 431.728C82.8243 432.293 83.4529 432.579 83.9382 432.611ZM83.9382 435.125C84.6384 435.125 85.1874 434.759 85.1874 434.226C85.1874 433.645 84.4793 433.295 83.9382 433.279C83.4052 433.295 82.6891 433.645 82.6891 434.226C82.6891 434.759 83.2381 435.125 83.9382 435.125ZM87.4097 435.738L89.6852 431.02H86.813V430.272H90.6321V430.876L88.3326 435.738H87.4097ZM93.8909 432.285C94.8934 432.285 95.7289 432.913 95.7289 433.995C95.7289 435.046 94.9014 435.833 93.7477 435.833C92.228 435.833 91.5835 434.648 91.5835 433.088C91.5835 431.433 92.5622 430.176 93.8989 430.176C94.5672 430.176 95.0685 430.431 95.4902 430.805L95.0764 431.425C94.7343 431.115 94.3922 430.9 93.8909 430.9C93.0555 430.9 92.4269 431.799 92.4031 433.009C92.7372 432.555 93.2862 432.285 93.8909 432.285ZM93.7159 435.149C94.4558 435.149 94.9014 434.584 94.9014 434.035C94.9014 433.367 94.3683 432.961 93.7 432.961C93.0953 432.961 92.6099 433.311 92.4667 433.844C92.6099 434.624 92.9998 435.149 93.7159 435.149ZM98.5445 435.833C97.6773 435.833 97.0248 435.483 96.5554 434.974L97.0567 434.401C97.4784 434.839 97.9876 435.125 98.5684 435.125C99.2765 435.125 99.7539 434.648 99.7539 434.035C99.7539 433.407 99.2686 432.985 98.5604 432.985C98.1069 432.985 97.7171 433.136 97.3908 433.383L96.8259 433.128L96.9055 430.272H100.271V431.02H97.6693L97.6216 432.643C97.908 432.452 98.274 432.293 98.7594 432.293C99.738 432.293 100.565 432.913 100.565 434.003C100.565 435.109 99.73 435.833 98.5445 435.833ZM104.062 435.738V434.481H101.349L101.261 433.836L103.911 430.272H104.866V433.773H105.653V434.481H104.866V435.738H104.062ZM102.145 433.773H104.062V431.187L102.145 433.773ZM108.342 435.833C107.411 435.833 106.703 435.427 106.281 434.902L106.798 434.369C107.164 434.815 107.697 435.109 108.326 435.109C109.034 435.109 109.487 434.735 109.487 434.186C109.487 433.621 109.018 433.327 108.198 433.335H107.602V432.619L108.198 432.627C108.891 432.627 109.376 432.324 109.376 431.775C109.376 431.266 108.899 430.9 108.262 430.9C107.689 430.9 107.267 431.187 106.886 431.632L106.384 431.139C106.806 430.59 107.427 430.176 108.318 430.176C109.424 430.176 110.195 430.789 110.195 431.664C110.195 432.34 109.718 432.762 109.145 432.937C109.718 433.064 110.315 433.478 110.315 434.242C110.315 435.165 109.527 435.833 108.342 435.833ZM111.093 435.738V435.077L113.098 433.422C113.83 432.81 114.108 432.34 114.108 431.847C114.108 431.25 113.615 430.9 113.074 430.9C112.477 430.9 112.04 431.219 111.658 431.712L111.117 431.234C111.594 430.574 112.238 430.176 113.106 430.176C114.124 430.176 114.936 430.837 114.936 431.831C114.936 432.563 114.586 433.144 113.647 433.908L112.366 434.99H114.983V435.738H111.093ZM116.914 435.738V431.226L115.968 431.831L115.633 431.25L117.074 430.272H117.726V435.738H116.914ZM121.203 435.833C119.827 435.833 118.864 434.664 118.864 433.001C118.864 431.346 119.827 430.176 121.203 430.176C122.564 430.176 123.534 431.346 123.534 433.001C123.534 434.664 122.564 435.833 121.203 435.833ZM121.203 435.093C122.086 435.093 122.707 434.226 122.707 433.001C122.707 431.775 122.086 430.916 121.203 430.916C120.312 430.916 119.684 431.775 119.684 433.001C119.684 434.226 120.312 435.093 121.203 435.093Z" fill="#222222"/>
<path d="M53.077 409.753V403.506H55.7049C57.0234 403.506 58.0237 404.352 58.0237 405.543C58.0237 406.735 57.0234 407.58 55.7049 407.58H53.9954V409.753H53.077ZM53.9954 406.725H55.5776C56.4779 406.725 57.0871 406.28 57.0871 405.543C57.0871 404.807 56.4779 404.361 55.5776 404.361H53.9954V406.725ZM61.3464 404.943C62.3831 404.943 63.1105 405.698 63.1105 406.762V409.753H62.2285V406.916C62.2285 406.216 61.7829 405.725 61.1464 405.725C60.4371 405.725 59.8461 406.225 59.8461 406.835V409.753H58.955V403.397H59.8461V405.752C60.128 405.28 60.7008 404.943 61.3464 404.943ZM66.6262 409.863C65.2804 409.863 64.1438 408.735 64.1438 407.398C64.1438 406.062 65.2804 404.943 66.6262 404.943C67.9629 404.943 69.0904 406.062 69.0904 407.398C69.0904 408.735 67.9629 409.863 66.6262 409.863ZM66.6262 409.081C67.4719 409.081 68.1902 408.317 68.1902 407.398C68.1902 406.489 67.4719 405.725 66.6262 405.725C65.7624 405.725 65.044 406.489 65.044 407.398C65.044 408.317 65.7624 409.081 66.6262 409.081ZM72.5352 404.943C73.5719 404.943 74.2993 405.698 74.2993 406.762V409.753H73.4173V406.916C73.4173 406.216 72.9717 405.725 72.3352 405.725C71.6805 405.725 71.1167 406.153 71.044 406.707V409.753H70.1438V405.052H71.044V405.734C71.3259 405.271 71.8987 404.943 72.5352 404.943ZM77.7423 409.062C78.2333 409.062 78.8062 408.844 79.088 408.553L79.6518 409.135C79.2335 409.581 78.4152 409.863 77.7514 409.863C76.4419 409.863 75.3326 408.835 75.3326 407.389C75.3326 405.98 76.3783 404.943 77.6786 404.943C79.1153 404.943 79.9428 406.034 79.9428 407.717H76.2419C76.3601 408.499 76.933 409.062 77.7423 409.062ZM77.715 405.743C76.9875 405.743 76.3965 406.234 76.251 406.998H79.0699C78.9698 406.271 78.5243 405.743 77.715 405.743Z" fill="#222222" fill-opacity="0.8"/>
<rect opacity="0.5" width="213.12" height="61.9469" transform="matrix(-1 0 0 1 256.422 67.2866)" fill="url(#paint0_linear_618_847)"/>
<rect x="57.2257" y="99.397" width="22.7328" height="22.7328" rx="6.53568" fill="white" stroke="#F9F9F9" stroke-width="0.56832"/>
<path d="M70.1027 106.71C70.0505 106.657 69.9884 106.616 69.9201 106.587C69.8518 106.559 69.7785 106.544 69.7045 106.544C69.6306 106.544 69.5573 106.559 69.489 106.587C69.4207 106.616 69.3586 106.657 69.3064 106.71L65.5675 110.448C65.5258 110.49 65.4927 110.54 65.4701 110.594C65.4476 110.648 65.4359 110.707 65.4359 110.766C65.4359 110.825 65.4476 110.883 65.4701 110.937C65.4927 110.992 65.5258 111.041 65.5675 111.083L69.3064 114.822C69.5268 115.042 69.8823 115.042 70.1027 114.822C70.3232 114.601 70.3232 114.246 70.1027 114.025L66.8453 110.763L70.1072 107.502C70.3232 107.286 70.3232 106.926 70.1027 106.71Z" fill="#222222" stroke="#222222" stroke-width="0.113664"/>
<path d="M96.0875 113.763L95.4965 112.354H91.7228L91.1318 113.763H89.5518L92.814 105.954H94.3939L97.6561 113.763H96.0875ZM92.2343 111.126H94.985L93.6096 107.841L92.2343 111.126ZM103.111 105.818H104.498V113.763H103.111V112.854C102.645 113.513 101.941 113.9 101.077 113.9C99.5196 113.9 98.383 112.627 98.383 110.819C98.383 109.023 99.5196 107.75 101.077 107.75C101.941 107.75 102.645 108.137 103.111 108.796V105.818ZM101.452 112.717C102.429 112.717 103.111 111.922 103.111 110.819C103.111 109.717 102.429 108.932 101.452 108.932C100.463 108.932 99.7583 109.717 99.7583 110.819C99.7583 111.922 100.463 112.717 101.452 112.717ZM108.026 113.763L105.502 107.887H106.969L108.673 112.161L110.344 107.887H111.822L109.333 113.763H108.026ZM115.148 112.672C115.693 112.672 116.341 112.422 116.671 112.081L117.546 112.99C117.035 113.536 116.012 113.9 115.159 113.9C113.477 113.9 112.09 112.615 112.09 110.808C112.09 109.046 113.409 107.75 115.08 107.75C116.898 107.75 117.955 109.126 117.955 111.297H113.522C113.693 112.104 114.307 112.672 115.148 112.672ZM115.136 108.978C114.363 108.978 113.738 109.467 113.534 110.24H116.625C116.466 109.501 115.966 108.978 115.136 108.978ZM120.578 109.023C120.953 108.239 121.715 107.75 122.681 107.75V108.932C121.419 108.932 120.578 109.683 120.578 110.797V113.763H119.191V107.887H120.578V109.023ZM126.641 112.502L127.039 113.434C126.709 113.718 126.232 113.9 125.788 113.9C124.811 113.9 124.129 113.195 124.129 112.206V109.035H123.276V107.887H124.129V106.273H125.481V107.887H126.811V109.035H125.481V112.035C125.481 112.433 125.731 112.717 126.061 112.717C126.3 112.717 126.516 112.627 126.641 112.502ZM128.82 107C128.376 107 128.024 106.625 128.024 106.205C128.024 105.784 128.376 105.42 128.82 105.42C129.252 105.42 129.604 105.784 129.604 106.205C129.604 106.625 129.252 107 128.82 107ZM128.115 113.763V107.887H129.502V113.763H128.115ZM133.205 113.9C132.307 113.9 131.341 113.581 130.636 113.013L131.262 112.047C131.83 112.456 132.489 112.729 133.228 112.729C133.785 112.729 134.171 112.49 134.171 112.126C134.171 111.672 133.66 111.524 132.989 111.342C131.716 111.013 130.909 110.649 130.898 109.603C130.898 108.501 131.807 107.75 133.114 107.75C133.921 107.75 134.728 108.035 135.365 108.455L134.785 109.467C134.228 109.114 133.626 108.932 133.114 108.932C132.626 108.932 132.25 109.126 132.25 109.455C132.25 109.83 132.557 109.944 133.455 110.206C134.444 110.478 135.513 110.819 135.513 112.047C135.513 113.172 134.581 113.9 133.205 113.9ZM139.457 112.672C140.002 112.672 140.65 112.422 140.98 112.081L141.855 112.99C141.344 113.536 140.321 113.9 139.468 113.9C137.786 113.9 136.399 112.615 136.399 110.808C136.399 109.046 137.718 107.75 139.389 107.75C141.207 107.75 142.264 109.126 142.264 111.297H137.831C138.002 112.104 138.616 112.672 139.457 112.672ZM139.445 108.978C138.672 108.978 138.047 109.467 137.843 110.24H140.934C140.775 109.501 140.275 108.978 139.445 108.978ZM150.252 107.75C151.48 107.75 152.4 108.694 152.4 110.024V113.763H151.048V110.251C151.048 109.478 150.582 108.932 149.911 108.932C149.149 108.932 148.627 109.444 148.627 110.16V113.763H147.274V110.251C147.274 109.478 146.808 108.932 146.126 108.932C145.376 108.932 144.842 109.444 144.842 110.16V113.763H143.455V107.887H144.842V108.682C145.137 108.114 145.74 107.75 146.478 107.75C147.308 107.75 147.99 108.171 148.354 108.864C148.638 108.182 149.377 107.75 150.252 107.75ZM156.64 112.672C157.185 112.672 157.833 112.422 158.163 112.081L159.038 112.99C158.526 113.536 157.503 113.9 156.651 113.9C154.969 113.9 153.582 112.615 153.582 110.808C153.582 109.046 154.9 107.75 156.571 107.75C158.39 107.75 159.447 109.126 159.447 111.297H155.014C155.185 112.104 155.798 112.672 156.64 112.672ZM156.628 108.978C155.855 108.978 155.23 109.467 155.025 110.24H158.117C157.958 109.501 157.458 108.978 156.628 108.978ZM163.854 107.75C165.139 107.75 166.037 108.694 166.037 110.024V113.763H164.695V110.296C164.695 109.501 164.184 108.932 163.457 108.932C162.729 108.932 162.127 109.421 162.036 110.046V113.763H160.649V107.887H162.036V108.671C162.399 108.125 163.081 107.75 163.854 107.75ZM170.475 112.502L170.872 113.434C170.543 113.718 170.065 113.9 169.622 113.9C168.645 113.9 167.963 113.195 167.963 112.206V109.035H167.11V107.887H167.963V106.273H169.315V107.887H170.645V109.035H169.315V112.035C169.315 112.433 169.565 112.717 169.895 112.717C170.134 112.717 170.35 112.627 170.475 112.502Z" fill="#222222"/>
<path opacity="0.35" d="M234.542 78.6532C234.542 77.9732 235.093 77.4219 235.773 77.4219H245.245C245.925 77.4219 246.476 77.9732 246.476 78.6532V82.0631C246.476 82.7432 245.925 83.2945 245.245 83.2945H235.773C235.093 83.2945 234.542 82.7432 234.542 82.0631V78.6532Z" stroke="#222222" stroke-width="0.56832"/>
<path opacity="0.4" d="M247.329 79.2217V81.495C247.786 81.3024 248.084 80.8545 248.084 80.3583C248.084 79.8621 247.786 79.4142 247.329 79.2217Z" fill="#222222"/>
<path d="M235.394 79.0322C235.394 78.6137 235.733 78.2744 236.152 78.2744H244.866C245.285 78.2744 245.624 78.6137 245.624 79.0322V81.6843C245.624 82.1028 245.285 82.4421 244.866 82.4421H236.152C235.733 82.4421 235.394 82.1028 235.394 81.6843V79.0322Z" fill="#222222"/>
<path fill-rule="evenodd" clip-rule="evenodd" d="M227.057 78.43C228.316 78.43 229.527 78.9139 230.44 79.7816C230.509 79.8486 230.619 79.8478 230.686 79.7798L231.343 79.1167C231.378 79.0822 231.397 79.0355 231.397 78.9868C231.396 78.9382 231.377 78.8917 231.342 78.8576C228.946 76.5618 225.167 76.5618 222.772 78.8576C222.737 78.8916 222.717 78.9381 222.717 78.9868C222.717 79.0354 222.736 79.0822 222.77 79.1167L223.427 79.7798C223.495 79.8479 223.605 79.8487 223.673 79.7816C224.586 78.9139 225.797 78.43 227.057 78.43ZM227.057 80.587C227.749 80.587 228.416 80.8442 228.929 81.3086C228.998 81.3745 229.108 81.3731 229.175 81.3054L229.831 80.6424C229.866 80.6076 229.885 80.5604 229.885 80.5114C229.884 80.4623 229.864 80.4156 229.829 80.3815C228.267 78.9286 225.848 78.9286 224.286 80.3815C224.251 80.4156 224.231 80.4624 224.231 80.5114C224.23 80.5604 224.249 80.6076 224.284 80.6424L224.94 81.3054C225.008 81.3731 225.117 81.3745 225.186 81.3086C225.699 80.8445 226.365 80.5873 227.057 80.587ZM228.371 82.0384C228.372 82.0876 228.353 82.135 228.318 82.1694L227.183 83.315C227.15 83.3486 227.104 83.3676 227.057 83.3676C227.01 83.3676 226.964 83.3486 226.931 83.315L225.796 82.1694C225.761 82.135 225.741 82.0875 225.742 82.0384C225.743 81.9892 225.765 81.9427 225.801 81.9097C226.526 81.2965 227.588 81.2965 228.313 81.9097C228.349 81.9427 228.37 81.9893 228.371 82.0384Z" fill="#222222"/>
<path fill-rule="evenodd" clip-rule="evenodd" d="M219.292 77.3271H218.723C218.409 77.3271 218.155 77.5816 218.155 77.8955V82.8209C218.155 83.1348 218.409 83.3892 218.723 83.3892H219.292C219.605 83.3892 219.86 83.1348 219.86 82.8209V77.8955C219.86 77.5816 219.605 77.3271 219.292 77.3271ZM216.071 78.6532H216.639C216.953 78.6532 217.208 78.9076 217.208 79.2215V82.8209C217.208 83.1347 216.953 83.3892 216.639 83.3892H216.071C215.757 83.3892 215.503 83.1347 215.503 82.8209V79.2215C215.503 78.9076 215.757 78.6532 216.071 78.6532ZM213.987 79.9794H213.419C213.105 79.9794 212.851 80.2338 212.851 80.5477V82.821C212.851 83.1348 213.105 83.3893 213.419 83.3893H213.987C214.301 83.3893 214.556 83.1348 214.556 82.821V80.5477C214.556 80.2338 214.301 79.9794 213.987 79.9794ZM211.335 81.116H210.767C210.453 81.116 210.198 81.3704 210.198 81.6843V82.821C210.198 83.1348 210.453 83.3893 210.767 83.3893H211.335C211.649 83.3893 211.903 83.1348 211.903 82.821V81.6843C211.903 81.3704 211.649 81.116 211.335 81.116Z" fill="#222222"/>
<path d="M64.537 77.0868C65.819 77.0868 66.9346 77.9984 66.9346 80.1629V80.1712C66.9346 82.1942 66.023 83.393 64.512 83.393C63.4089 83.393 62.5847 82.7395 62.3933 81.8196L62.3849 81.7738H63.4422L63.4547 81.8154C63.6129 82.2358 63.9833 82.5106 64.512 82.5106C65.4652 82.5106 65.869 81.5782 65.9147 80.4293C65.9147 80.3835 65.9189 80.3377 65.9189 80.292H65.8357C65.615 80.7665 65.0906 81.1869 64.2664 81.1869C63.1134 81.1869 62.3059 80.3461 62.3059 79.2055V79.1972C62.3059 77.9776 63.2341 77.0868 64.537 77.0868ZM64.5328 80.3627C65.2113 80.3627 65.7316 79.8715 65.7316 79.1931V79.1847C65.7316 78.4979 65.2113 77.961 64.5453 77.961C63.8834 77.961 63.3548 78.4896 63.3548 79.1598V79.1681C63.3548 79.8632 63.8501 80.3627 64.5328 80.3627ZM68.6538 79.3512C68.2751 79.3512 67.992 79.0599 67.992 78.6936C67.992 78.3231 68.2751 78.0359 68.6538 78.0359C69.0368 78.0359 69.3157 78.3231 69.3157 78.6936C69.3157 79.0599 69.0368 79.3512 68.6538 79.3512ZM68.6538 82.4398C68.2751 82.4398 67.992 82.1526 67.992 81.7821C67.992 81.4117 68.2751 81.1245 68.6538 81.1245C69.0368 81.1245 69.3157 81.4117 69.3157 81.7821C69.3157 82.1526 69.0368 82.4398 68.6538 82.4398ZM73.2869 83.2432V82.0902H70.3481V81.2119C71.1265 79.8591 71.9798 78.4771 72.7957 77.2367H74.315V81.2035H75.1225V82.0902H74.315V83.2432H73.2869ZM71.3471 81.2285H73.3035V78.0942H73.2411C72.625 79.0349 71.9299 80.1463 71.3471 81.1661V81.2285ZM77.4412 83.2432V78.294H77.3704L75.8761 79.3512V78.3397L77.4454 77.2367H78.5151V83.2432H77.4412Z" fill="#222222"/>
</g>
</g>
<g filter="url(#filter2_ii_618_847)">
<path d="M30 221.387C30 220.915 30.3821 220.533 30.8533 220.533H32.3571V252.844H30.8533C30.3821 252.844 30 252.462 30 251.991V221.387Z" fill="#2C2C2C"/>
</g>
<g filter="url(#filter3_ii_618_847)">
<path d="M30 178.96C30 178.488 30.3821 178.106 30.8533 178.106H31.7173V211.03H30.8533C30.382 211.03 30 210.648 30 210.177V178.96Z" fill="#2C2C2C"/>
</g>
<g filter="url(#filter4_ii_618_847)">
<path d="M30 146.713C30 146.241 30.3821 145.859 30.8533 145.859H31.7067V162.8H30.8533C30.3821 162.8 30 162.418 30 161.947V146.713Z" fill="#2C2C2C"/>
</g>
<g filter="url(#filter5_ii_618_847)">
<path d="M267.199 189.527H268.053C268.524 189.527 268.906 189.909 268.906 190.381V239.227C268.906 239.698 268.524 240.08 268.053 240.08H267.199V189.527Z" fill="#2C2C2C"/>
</g>
<rect x="116.827" y="72.9463" width="60.8" height="16.0861" rx="7.63408" fill="#2C2C2C"/>
</g>
<defs>
<filter id="filter0_ii_618_847" x="30.4371" y="56.9324" width="237.206" height="485.973" filterUnits="userSpaceOnUse" color-interpolation-filters="sRGB">
<feFlood flood-opacity="0" result="BackgroundImageFix"/>
<feBlend mode="normal" in="SourceGraphic" in2="BackgroundImageFix" result="shape"/>
<feColorMatrix in="SourceAlpha" type="matrix" values="0 0 0 0 0 0 0 0 0 0 0 0 0 0 0 0 0 0 127 0" result="hardAlpha"/>
<feMorphology radius="3.2" operator="dilate" in="SourceAlpha" result="effect1_innerShadow_618_847"/>
<feOffset dx="-2.13333"/>
<feGaussianBlur stdDeviation="2.56"/>
<feComposite in2="hardAlpha" operator="arithmetic" k2="-1" k3="1"/>
<feColorMatrix type="matrix" values="0 0 0 0 0.129412 0 0 0 0 0.129412 0 0 0 0 0.129412 0 0 0 1 0"/>
<feBlend mode="normal" in2="shape" result="effect1_innerShadow_618_847"/>
<feColorMatrix in="SourceAlpha" type="matrix" values="0 0 0 0 0 0 0 0 0 0 0 0 0 0 0 0 0 0 127 0" result="hardAlpha"/>
<feOffset dy="-1.06667"/>
<feGaussianBlur stdDeviation="2.13333"/>
<feComposite in2="hardAlpha" operator="arithmetic" k2="-1" k3="1"/>
<feColorMatrix type="matrix" values="0 0 0 0 0.129167 0 0 0 0 0.129167 0 0 0 0 0.129167 0 0 0 1 0"/>
<feBlend mode="normal" in2="effect1_innerShadow_618_847" result="effect2_innerShadow_618_847"/>
</filter>
<filter id="filter1_d_618_847" x="43.3019" y="475.701" width="213.12" height="77.2917" filterUnits="userSpaceOnUse" color-interpolation-filters="sRGB">
<feFlood flood-opacity="0" result="BackgroundImageFix"/>
<feColorMatrix in="SourceAlpha" type="matrix" values="0 0 0 0 0 0 0 0 0 0 0 0 0 0 0 0 0 0 127 0" result="hardAlpha"/>
<feOffset dy="0.56832"/>
<feGaussianBlur stdDeviation="4.54656"/>
<feComposite in2="hardAlpha" operator="out"/>
<feColorMatrix type="matrix" values="0 0 0 0 0.133333 0 0 0 0 0.133333 0 0 0 0 0.133333 0 0 0 0.06 0"/>
<feBlend mode="normal" in2="BackgroundImageFix" result="effect1_dropShadow_618_847"/>
<feBlend mode="normal" in="SourceGraphic" in2="effect1_dropShadow_618_847" result="shape"/>
</filter>
<filter id="filter2_ii_618_847" x="29.7867" y="220.533" width="2.78381" height="32.311" filterUnits="userSpaceOnUse" color-interpolation-filters="sRGB">
<feFlood flood-opacity="0" result="BackgroundImageFix"/>
<feBlend mode="normal" in="SourceGraphic" in2="BackgroundImageFix" result="shape"/>
<feColorMatrix in="SourceAlpha" type="matrix" values="0 0 0 0 0 0 0 0 0 0 0 0 0 0 0 0 0 0 127 0" result="hardAlpha"/>
<feOffset dx="-0.213333"/>
<feGaussianBlur stdDeviation="0.533333"/>
<feComposite in2="hardAlpha" operator="arithmetic" k2="-1" k3="1"/>
<feColorMatrix type="matrix" values="0 0 0 0 0.0862745 0 0 0 0 0.0862745 0 0 0 0 0.0862745 0 0 0 1 0"/>
<feBlend mode="normal" in2="shape" result="effect1_innerShadow_618_847"/>
<feColorMatrix in="SourceAlpha" type="matrix" values="0 0 0 0 0 0 0 0 0 0 0 0 0 0 0 0 0 0 127 0" result="hardAlpha"/>
<feOffset dx="0.213333"/>
<feGaussianBlur stdDeviation="0.213333"/>
<feComposite in2="hardAlpha" operator="arithmetic" k2="-1" k3="1"/>
<feColorMatrix type="matrix" values="0 0 0 0 0.192157 0 0 0 0 0.192157 0 0 0 0 0.192157 0 0 0 1 0"/>
<feBlend mode="normal" in2="effect1_innerShadow_618_847" result="effect2_innerShadow_618_847"/>
</filter>
<filter id="filter3_ii_618_847" x="29.7867" y="178.106" width="2.144" height="32.9238" filterUnits="userSpaceOnUse" color-interpolation-filters="sRGB">
<feFlood flood-opacity="0" result="BackgroundImageFix"/>
<feBlend mode="normal" in="SourceGraphic" in2="BackgroundImageFix" result="shape"/>
<feColorMatrix in="SourceAlpha" type="matrix" values="0 0 0 0 0 0 0 0 0 0 0 0 0 0 0 0 0 0 127 0" result="hardAlpha"/>
<feOffset dx="-0.213333"/>
<feGaussianBlur stdDeviation="0.533333"/>
<feComposite in2="hardAlpha" operator="arithmetic" k2="-1" k3="1"/>
<feColorMatrix type="matrix" values="0 0 0 0 0.0862745 0 0 0 0 0.0862745 0 0 0 0 0.0862745 0 0 0 1 0"/>
<feBlend mode="normal" in2="shape" result="effect1_innerShadow_618_847"/>
<feColorMatrix in="SourceAlpha" type="matrix" values="0 0 0 0 0 0 0 0 0 0 0 0 0 0 0 0 0 0 127 0" result="hardAlpha"/>
<feOffset dx="0.213333"/>
<feGaussianBlur stdDeviation="0.213333"/>
<feComposite in2="hardAlpha" operator="arithmetic" k2="-1" k3="1"/>
<feColorMatrix type="matrix" values="0 0 0 0 0.192157 0 0 0 0 0.192157 0 0 0 0 0.192157 0 0 0 1 0"/>
<feBlend mode="normal" in2="effect1_innerShadow_618_847" result="effect2_innerShadow_618_847"/>
</filter>
<filter id="filter4_ii_618_847" x="29.7867" y="145.859" width="2.13333" height="16.9404" filterUnits="userSpaceOnUse" color-interpolation-filters="sRGB">
<feFlood flood-opacity="0" result="BackgroundImageFix"/>
<feBlend mode="normal" in="SourceGraphic" in2="BackgroundImageFix" result="shape"/>
<feColorMatrix in="SourceAlpha" type="matrix" values="0 0 0 0 0 0 0 0 0 0 0 0 0 0 0 0 0 0 127 0" result="hardAlpha"/>
<feOffset dx="-0.213333"/>
<feGaussianBlur stdDeviation="0.533333"/>
<feComposite in2="hardAlpha" operator="arithmetic" k2="-1" k3="1"/>
<feColorMatrix type="matrix" values="0 0 0 0 0.0862745 0 0 0 0 0.0862745 0 0 0 0 0.0862745 0 0 0 1 0"/>
<feBlend mode="normal" in2="shape" result="effect1_innerShadow_618_847"/>
<feColorMatrix in="SourceAlpha" type="matrix" values="0 0 0 0 0 0 0 0 0 0 0 0 0 0 0 0 0 0 127 0" result="hardAlpha"/>
<feOffset dx="0.213333"/>
<feGaussianBlur stdDeviation="0.213333"/>
<feComposite in2="hardAlpha" operator="arithmetic" k2="-1" k3="1"/>
<feColorMatrix type="matrix" values="0 0 0 0 0.192157 0 0 0 0 0.192157 0 0 0 0 0.192157 0 0 0 1 0"/>
<feBlend mode="normal" in2="effect1_innerShadow_618_847" result="effect2_innerShadow_618_847"/>
</filter>
<filter id="filter5_ii_618_847" x="266.986" y="189.527" width="2.13333" height="50.5527" filterUnits="userSpaceOnUse" color-interpolation-filters="sRGB">
<feFlood flood-opacity="0" result="BackgroundImageFix"/>
<feBlend mode="normal" in="SourceGraphic" in2="BackgroundImageFix" result="shape"/>
<feColorMatrix in="SourceAlpha" type="matrix" values="0 0 0 0 0 0 0 0 0 0 0 0 0 0 0 0 0 0 127 0" result="hardAlpha"/>
<feOffset dx="0.213333"/>
<feGaussianBlur stdDeviation="0.533333"/>
<feComposite in2="hardAlpha" operator="arithmetic" k2="-1" k3="1"/>
<feColorMatrix type="matrix" values="0 0 0 0 0.0875 0 0 0 0 0.0875 0 0 0 0 0.0875 0 0 0 1 0"/>
<feBlend mode="normal" in2="shape" result="effect1_innerShadow_618_847"/>
<feColorMatrix in="SourceAlpha" type="matrix" values="0 0 0 0 0 0 0 0 0 0 0 0 0 0 0 0 0 0 127 0" result="hardAlpha"/>
<feOffset dx="-0.213333"/>
<feGaussianBlur stdDeviation="0.213333"/>
<feComposite in2="hardAlpha" operator="arithmetic" k2="-1" k3="1"/>
<feColorMatrix type="matrix" values="0 0 0 0 0.191667 0 0 0 0 0.191667 0 0 0 0 0.191667 0 0 0 1 0"/>
<feBlend mode="normal" in2="effect1_innerShadow_618_847" result="effect2_innerShadow_618_847"/>
</filter>
<linearGradient id="paint0_linear_618_847" x1="106.56" y1="-11.2145" x2="106.56" y2="76.3655" gradientUnits="userSpaceOnUse">
<stop stop-color="#DAFFED"/>
<stop offset="0.575354" stop-color="#DAFFED" stop-opacity="0.486384"/>
<stop offset="1" stop-color="#DAFFED" stop-opacity="0"/>
</linearGradient>
<clipPath id="clip0_618_847">
<rect width="300" height="600" fill="white"/>
</clipPath>
<clipPath id="clip1_618_847">
<rect width="213.12" height="545.019" fill="white" transform="translate(43.3019 67.2856)"/>
</clipPath>
<clipPath id="clip2_618_847">
<rect width="122.189" height="16" fill="white" transform="translate(91.0408 178.427)"/>
</clipPath>
<clipPath id="clip3_618_847">
<rect width="15.913" height="15.913" fill="white" transform="translate(66.0347 178.469)"/>
</clipPath>
<clipPath id="clip4_618_847">
<rect width="122.189" height="16" fill="white" transform="translate(91.0408 229.575)"/>
</clipPath>
<clipPath id="clip5_618_847">
<rect width="15.913" height="15.913" fill="white" transform="translate(66.0347 229.62)"/>
</clipPath>
</defs>
</svg>
