<svg width="300" height="600" viewBox="0 0 300 600" fill="none" xmlns="http://www.w3.org/2000/svg">
<g clip-path="url(#clip0_601_5585)">
<rect width="300" height="600" fill="#F9F9F9"/>
<rect x="12.3" y="147.2" width="274.4" height="70.4" rx="12.8" fill="#FFFBFB"/>
<path d="M103.718 182.39V181.264H107.353V184.771C106.521 185.616 105.138 186.154 103.897 186.154C101.426 186.154 99.3144 184.067 99.3144 181.597C99.3144 179.126 101.426 177.053 103.897 177.053C105.138 177.053 106.521 177.578 107.353 178.435L106.444 179.306C105.842 178.653 104.806 178.243 103.897 178.243C102.13 178.243 100.646 179.779 100.646 181.597C100.646 183.427 102.13 184.963 103.897 184.963C104.639 184.963 105.471 184.694 106.073 184.234V182.39H103.718ZM112.18 185.027C112.871 185.027 113.678 184.72 114.075 184.31L114.868 185.13C114.279 185.757 113.127 186.154 112.193 186.154C110.35 186.154 108.788 184.707 108.788 182.672C108.788 180.688 110.26 179.229 112.091 179.229C114.113 179.229 115.278 180.765 115.278 183.133H110.068C110.235 184.234 111.041 185.027 112.18 185.027ZM112.142 180.355C111.118 180.355 110.286 181.046 110.081 182.122H114.049C113.908 181.098 113.281 180.355 112.142 180.355ZM120.113 179.229C121.572 179.229 122.596 180.291 122.596 181.789V186H121.355V182.006C121.355 181.021 120.727 180.33 119.831 180.33C118.91 180.33 118.116 180.931 118.014 181.712V186H116.747V179.382H118.014V180.342C118.411 179.69 119.217 179.229 120.113 179.229ZM127.443 185.027C128.134 185.027 128.94 184.72 129.337 184.31L130.131 185.13C129.542 185.757 128.39 186.154 127.456 186.154C125.612 186.154 124.051 184.707 124.051 182.672C124.051 180.688 125.523 179.229 127.353 179.229C129.376 179.229 130.54 180.765 130.54 183.133H125.331C125.497 184.234 126.304 185.027 127.443 185.027ZM127.404 180.355C126.38 180.355 125.548 181.046 125.344 182.122H129.312C129.171 181.098 128.544 180.355 127.404 180.355ZM133.34 180.65C133.763 179.779 134.659 179.229 135.798 179.229V180.33C134.428 180.33 133.456 181.085 133.34 182.237V186H132.073V179.382H133.34V180.65ZM139.812 179.229C141.591 179.229 142.577 180.355 142.577 181.994V186H141.335V185.091C140.849 185.782 139.94 186.154 139.133 186.154C137.725 186.154 136.689 185.334 136.689 184.042C136.689 182.723 137.879 181.84 139.338 181.84C139.991 181.84 140.695 181.981 141.335 182.198V181.994C141.335 181.162 140.951 180.278 139.633 180.278C138.98 180.278 138.34 180.534 137.764 180.829L137.303 179.894C138.25 179.421 139.082 179.229 139.812 179.229ZM139.377 185.155C140.196 185.155 141.117 184.746 141.335 183.926V183.043C140.797 182.877 140.183 182.787 139.53 182.787C138.647 182.787 137.905 183.286 137.905 184.003C137.905 184.72 138.545 185.155 139.377 185.155ZM144.409 186V177.053H145.664V186H144.409Z" fill="#9B9B9B"/>
<circle cx="55.5" cy="182.4" r="24" fill="#EDFFF7"/>
<g clip-path="url(#clip1_601_5585)">
<path d="M49.4507 183.199C49.7806 183.2 50.0976 183.07 50.3322 182.838L51.6745 181.509L51.1384 180.914L49.7693 182.27C49.6788 182.356 49.558 182.402 49.4333 182.399C49.3086 182.396 49.1902 182.344 49.1042 182.253L43.6429 176.738C43.5828 176.678 43.5396 176.603 43.5174 176.522C43.4953 176.44 43.495 176.354 43.5168 176.272L44.725 171.893C44.7454 171.818 44.7854 171.749 44.8409 171.694C44.8965 171.639 44.9657 171.6 45.0414 171.58L49.4312 170.415C49.47 170.405 49.5099 170.4 49.55 170.4C49.6145 170.4 49.6783 170.413 49.7377 170.438C49.7971 170.463 49.851 170.5 49.8962 170.546L55.3574 176.061C55.4467 176.148 55.498 176.267 55.4998 176.392C55.5017 176.517 55.4541 176.637 55.3673 176.727L54.0383 178.043L54.6286 178.584L55.9302 177.295C56.1675 177.056 56.3002 176.733 56.2994 176.396C56.2986 176.059 56.1643 175.736 55.9259 175.498L50.4648 169.983C50.3065 169.822 50.1086 169.706 49.8911 169.646C49.6736 169.587 49.4442 169.585 49.2259 169.642L44.8363 170.807C44.6259 170.863 44.4338 170.973 44.2791 171.126C44.1243 171.28 44.0122 171.471 43.9539 171.68L42.7457 176.059C42.6866 176.276 42.6859 176.506 42.7436 176.724C42.8014 176.942 42.9155 177.141 43.0745 177.301L48.5357 182.816C48.6553 182.937 48.7977 183.034 48.9548 183.099C49.1119 183.165 49.2804 183.199 49.4507 183.199Z" fill="#2BCBBA"/>
<path d="M58.8135 182.638C58.7405 182.563 58.6532 182.503 58.5567 182.462C58.4603 182.421 58.3566 182.4 58.2518 182.4C58.0815 182.403 57.9161 182.458 57.7785 182.558L50.986 176.329C50.7814 176.141 50.5123 176.04 50.2347 176.045C49.9571 176.05 49.6921 176.162 49.4949 176.358C49.2977 176.553 49.1833 176.817 49.1755 177.095C49.1676 177.372 49.267 177.642 49.4529 177.849L55.6365 184.711C55.5347 184.864 55.488 185.046 55.5042 185.229C55.5203 185.411 55.5984 185.583 55.7254 185.715L64.4735 194.843C64.5826 194.956 64.7131 195.045 64.8574 195.106C65.0016 195.168 65.1566 195.199 65.3133 195.2H65.3192C65.4747 195.2 65.6287 195.17 65.7723 195.11C65.9158 195.05 66.0461 194.963 66.1555 194.852L67.9502 193.06C68.1735 192.833 68.2985 192.528 68.2982 192.21C68.2979 191.892 68.1723 191.587 67.9487 191.361L58.8135 182.638ZM62.8951 192.04L56.3002 185.157L56.3004 185.157L58.2512 183.207L65.1451 189.79L62.8951 192.04Z" fill="#2BCBBA"/>
<path d="M54.7235 184.894L52.7493 182.703L45.2399 191.534C45.2304 191.545 45.2212 191.556 45.2123 191.568C44.9667 191.906 44.8602 192.326 44.9148 192.74C44.9694 193.154 45.1809 193.532 45.5057 193.794C45.5158 193.803 45.5261 193.811 45.5366 193.818L46.9401 194.855C47.2171 195.077 47.5608 195.199 47.9158 195.202C48.1561 195.202 48.3928 195.143 48.6055 195.031C48.8182 194.919 49.0005 194.758 49.1369 194.56L55.1706 186.293L55.1473 186.268C54.9734 186.089 54.8444 185.871 54.7708 185.632C54.6971 185.393 54.6809 185.14 54.7235 184.894Z" fill="#2BCBBA"/>
<path d="M53.7487 171.187C55.935 171.607 57.9553 172.633 59.7219 173.876C59.681 174.06 59.7063 174.252 59.7935 174.419L55.5402 179.421L55.8727 179.726L56.1302 179.962L57.7299 181.429L57.9474 181.629C58.1 181.599 58.2561 181.592 58.4106 181.608L58.4135 181.609C58.4665 181.614 58.5191 181.623 58.5712 181.633L62.4112 176.372C62.4757 176.39 62.5424 176.399 62.6094 176.4C62.6511 176.4 62.6927 176.397 62.734 176.39L62.7377 176.389C64.263 177.859 65.6331 179.482 66.8264 181.232C66.9294 181.392 67.0861 181.511 67.2686 181.566C67.451 181.621 67.6471 181.609 67.8215 181.532C67.996 181.456 68.1374 181.319 68.2202 181.148C68.3031 180.976 68.3219 180.78 68.2734 180.596C67.5202 177.735 66.2318 175.619 64.7269 174.052L64.7404 174.034C64.8654 173.867 64.9201 173.658 64.8924 173.451C64.8646 173.245 64.7568 173.058 64.5922 172.93L62.4424 171.347C62.3601 171.287 62.2667 171.244 62.1677 171.22C62.0687 171.197 61.9659 171.193 61.8654 171.209C61.6657 171.243 61.4849 171.348 61.3562 171.504C59.0921 170.308 56.5806 169.656 54.0208 169.6C53.9243 169.6 53.8733 169.602 53.8733 169.602C53.6768 169.608 53.4897 169.687 53.3477 169.823C53.2057 169.959 53.1187 170.143 53.1033 170.339C53.0879 170.535 53.1452 170.729 53.2642 170.886C53.3833 171.042 53.5557 171.149 53.7487 171.187ZM60.5076 174.035L61.9642 172.018L64.0963 173.558C64.095 173.561 64.0935 173.563 64.0918 173.565L62.6353 175.581C62.6306 175.588 62.6243 175.594 62.617 175.598L60.5015 174.04C60.5035 174.04 60.5054 174.038 60.5076 174.035Z" fill="#2BCBBA"/>
</g>
<path d="M28.588 125.536H26.924L26.22 128.304H27.9L27.532 129.744H25.868L25.196 132.4H23.708L24.38 129.744H22.348L21.676 132.4H20.172L20.844 129.744H19.244L19.596 128.304H21.196L21.9 125.536H20.268L20.62 124.096H22.268L22.94 121.408H24.444L23.772 124.096H25.804L26.476 121.408H27.964L27.292 124.096H28.94L28.588 125.536ZM24.732 128.304L25.436 125.536H23.404L22.7 128.304H24.732Z" fill="#222222"/>
<rect x="12.3" y="278.4" width="274.4" height="70.4" rx="12.8" fill="#FFFBFB"/>
<path d="M99.8136 317.2V308.407H103.986C105.458 308.407 106.495 309.315 106.495 310.595C106.495 311.517 106.034 312.093 105.241 312.541C106.265 313.04 106.854 313.834 106.854 314.807C106.854 316.215 105.727 317.2 104.153 317.2H99.8136ZM101.106 312.067H103.666C104.55 312.067 105.177 311.543 105.177 310.813C105.177 310.083 104.55 309.546 103.666 309.546H101.106V312.067ZM101.106 316.061H103.858C104.844 316.061 105.535 315.459 105.535 314.615C105.535 313.77 104.844 313.168 103.858 313.168H101.106V316.061ZM111.212 310.429C112.991 310.429 113.976 311.555 113.976 313.194V317.2H112.735V316.291C112.248 316.983 111.34 317.354 110.533 317.354C109.125 317.354 108.088 316.535 108.088 315.242C108.088 313.923 109.279 313.04 110.738 313.04C111.391 313.04 112.095 313.181 112.735 313.399V313.194C112.735 312.362 112.351 311.479 111.032 311.479C110.38 311.479 109.74 311.735 109.164 312.029L108.703 311.095C109.65 310.621 110.482 310.429 111.212 310.429ZM110.776 316.355C111.596 316.355 112.517 315.946 112.735 315.127V314.243C112.197 314.077 111.583 313.987 110.93 313.987C110.047 313.987 109.304 314.487 109.304 315.203C109.304 315.92 109.944 316.355 110.776 316.355ZM118.203 317.354C117.23 317.354 116.167 317.008 115.374 316.368L115.975 315.459C116.679 315.971 117.435 316.266 118.215 316.266C118.958 316.266 119.47 315.92 119.47 315.408C119.47 314.794 118.791 314.602 117.972 314.371C116.449 313.949 115.694 313.514 115.694 312.439C115.681 311.223 116.692 310.429 118.1 310.429C118.958 310.429 119.828 310.723 120.545 311.197L119.982 312.131C119.342 311.735 118.676 311.517 118.1 311.517C117.447 311.517 116.935 311.799 116.935 312.298C116.935 312.81 117.345 312.963 118.459 313.309C119.547 313.629 120.711 313.987 120.711 315.306C120.711 316.56 119.649 317.354 118.203 317.354ZM125.218 316.227C125.909 316.227 126.715 315.92 127.112 315.511L127.906 316.33C127.317 316.957 126.165 317.354 125.23 317.354C123.387 317.354 121.826 315.907 121.826 313.872C121.826 311.888 123.298 310.429 125.128 310.429C127.15 310.429 128.315 311.965 128.315 314.333H123.106C123.272 315.434 124.078 316.227 125.218 316.227ZM125.179 311.555C124.155 311.555 123.323 312.247 123.118 313.322H127.086C126.946 312.298 126.318 311.555 125.179 311.555ZM137.182 310.429C138.565 310.429 139.563 311.491 139.563 312.989V317.2H138.322V313.181C138.322 312.208 137.746 311.53 136.914 311.53C135.966 311.53 135.301 312.157 135.301 313.066V317.2H134.059V313.181C134.059 312.208 133.483 311.53 132.651 311.53C131.704 311.53 131.038 312.157 131.038 313.066V317.2H129.771V310.583H131.038V311.504C131.371 310.851 132.062 310.429 132.907 310.429C133.867 310.429 134.648 310.941 135.032 311.76C135.339 310.941 136.184 310.429 137.182 310.429ZM144.418 316.227C145.109 316.227 145.915 315.92 146.312 315.511L147.106 316.33C146.517 316.957 145.365 317.354 144.43 317.354C142.587 317.354 141.026 315.907 141.026 313.872C141.026 311.888 142.498 310.429 144.328 310.429C146.35 310.429 147.515 311.965 147.515 314.333H142.306C142.472 315.434 143.278 316.227 144.418 316.227ZM144.379 311.555C143.355 311.555 142.523 312.247 142.318 313.322H146.286C146.146 312.298 145.518 311.555 144.379 311.555ZM152.35 310.429C153.81 310.429 154.834 311.491 154.834 312.989V317.2H153.592V313.207C153.592 312.221 152.965 311.53 152.069 311.53C151.147 311.53 150.354 312.131 150.251 312.912V317.2H148.984V310.583H150.251V311.543C150.648 310.89 151.454 310.429 152.35 310.429ZM159.744 316.01L160.205 316.88C159.847 317.175 159.36 317.354 158.887 317.354C157.863 317.354 157.146 316.611 157.146 315.549V311.658H156.147V310.583H157.146V308.765H158.387V310.583H159.949V311.658H158.387V315.459C158.387 315.92 158.695 316.253 159.066 316.253C159.347 316.253 159.603 316.151 159.744 316.01Z" fill="#9B9B9B"/>
<circle cx="55.5" cy="313.6" r="24" fill="#E6F2EA"/>
<g clip-path="url(#clip2_601_5585)">
<path d="M55.7321 300.8C60.7222 300.8 64.7674 304.845 64.7674 309.835V325.647C64.7674 326.063 64.4303 326.4 64.0145 326.4H47.4498C47.034 326.4 46.6969 326.063 46.6969 325.647V309.835C46.6969 304.845 50.7421 300.8 55.7321 300.8ZM48.2027 323.388V324.894H63.2615V322.635H48.9557C48.5398 322.635 48.2027 322.972 48.2027 323.388ZM51.591 319.624V321.129H63.2615V318.871H52.3439C51.9281 318.871 51.591 319.208 51.591 319.624ZM54.9792 315.859V317.365H63.2615V315.106H55.7321C55.3163 315.106 54.9792 315.443 54.9792 315.859ZM58.3674 312.094V313.6H63.2615V311.341H59.1204C58.7045 311.341 58.3674 311.678 58.3674 312.094Z" fill="#28B446"/>
</g>
<path d="M19.98 263.6V252.608H25.372C27.276 252.608 28.62 253.76 28.62 255.36C28.62 256.48 28.044 257.264 27.068 257.792C28.332 258.4 29.084 259.408 29.084 260.608C29.084 262.368 27.628 263.6 25.58 263.6H19.98ZM21.964 257.104H24.892C25.868 257.104 26.572 256.528 26.572 255.728C26.572 254.912 25.868 254.336 24.892 254.336H21.964V257.104ZM21.964 261.872H25.18C26.268 261.872 27.036 261.216 27.036 260.304C27.036 259.392 26.268 258.736 25.18 258.736H21.964V261.872Z" fill="#222222"/>
<rect x="12.3" y="361.6" width="274.4" height="70.4" rx="12.8" fill="#FFFBFB"/>
<path d="M99.8136 400.4V391.606H103.986C105.458 391.606 106.495 392.515 106.495 393.795C106.495 394.716 106.034 395.292 105.241 395.74C106.265 396.24 106.854 397.033 106.854 398.006C106.854 399.414 105.727 400.4 104.153 400.4H99.8136ZM101.106 395.267H103.666C104.55 395.267 105.177 394.742 105.177 394.012C105.177 393.283 104.55 392.745 103.666 392.745H101.106V395.267ZM101.106 399.26H103.858C104.844 399.26 105.535 398.659 105.535 397.814C105.535 396.969 104.844 396.368 103.858 396.368H101.106V399.26ZM109.765 395.049C110.188 394.179 111.084 393.628 112.223 393.628V394.729C110.853 394.729 109.881 395.484 109.765 396.636V400.4H108.498V393.782H109.765V395.049ZM114.086 392.681C113.651 392.681 113.318 392.323 113.318 391.913C113.318 391.516 113.651 391.158 114.086 391.158C114.496 391.158 114.842 391.516 114.842 391.913C114.842 392.323 114.496 392.681 114.086 392.681ZM113.446 400.4V393.782H114.714V400.4H113.446ZM119.67 400.553C117.788 400.553 116.188 398.966 116.188 397.084C116.188 395.203 117.788 393.628 119.683 393.628C120.63 393.628 121.487 394.025 122.115 394.652L121.257 395.446C120.86 394.998 120.284 394.729 119.67 394.729C118.467 394.729 117.468 395.804 117.468 397.084C117.468 398.377 118.467 399.452 119.683 399.452C120.297 399.452 120.886 399.171 121.295 398.71L122.153 399.491C121.513 400.144 120.655 400.553 119.67 400.553ZM129.525 393.782L126.671 396.777L129.397 400.4H127.887L125.813 397.622L124.751 398.697V400.4H123.496V391.452H124.751V397.161L127.989 393.782H129.525ZM135.463 399.196H140.122V400.4H134.157V391.606H135.463V399.196ZM144.224 393.628C146.003 393.628 146.989 394.755 146.989 396.393V400.4H145.747V399.491C145.261 400.182 144.352 400.553 143.546 400.553C142.138 400.553 141.101 399.734 141.101 398.441C141.101 397.123 142.291 396.24 143.751 396.24C144.403 396.24 145.107 396.38 145.747 396.598V396.393C145.747 395.561 145.363 394.678 144.045 394.678C143.392 394.678 142.752 394.934 142.176 395.228L141.715 394.294C142.663 393.82 143.495 393.628 144.224 393.628ZM143.789 399.555C144.608 399.555 145.53 399.145 145.747 398.326V397.443C145.21 397.276 144.595 397.187 143.943 397.187C143.059 397.187 142.317 397.686 142.317 398.403C142.317 399.12 142.957 399.555 143.789 399.555ZM149.986 402.704C149.538 402.704 149.078 402.601 148.732 402.422L149.014 401.449C149.27 401.59 149.564 401.654 149.82 401.654C150.23 401.654 150.511 401.526 150.729 401.142L151.062 400.438L148.22 393.782H149.577L151.702 399.004L153.711 393.782H155.03L152.111 401.001C151.638 402.192 150.934 402.691 149.986 402.704ZM157.074 392.681C156.639 392.681 156.306 392.323 156.306 391.913C156.306 391.516 156.639 391.158 157.074 391.158C157.483 391.158 157.829 391.516 157.829 391.913C157.829 392.323 157.483 392.681 157.074 392.681ZM156.434 400.4V393.782H157.701V400.4H156.434ZM162.901 393.628C164.36 393.628 165.384 394.691 165.384 396.188V400.4H164.142V396.406C164.142 395.42 163.515 394.729 162.619 394.729C161.697 394.729 160.904 395.331 160.801 396.112V400.4H159.534V393.782H160.801V394.742C161.198 394.089 162.005 393.628 162.901 393.628ZM172.227 393.782H173.494V399.696C173.494 401.398 172.099 402.601 170.141 402.601C169.027 402.601 168.003 402.23 167.376 401.718L167.875 400.771C168.361 401.232 169.155 401.5 169.949 401.5C171.369 401.5 172.227 400.822 172.227 399.67V398.71C171.702 399.465 170.883 399.913 169.885 399.913C168.144 399.913 166.877 398.608 166.877 396.764C166.877 394.921 168.144 393.628 169.885 393.628C170.883 393.628 171.728 394.102 172.227 394.844V393.782ZM170.205 398.812C171.382 398.812 172.227 397.968 172.227 396.764C172.227 395.574 171.382 394.729 170.205 394.729C169.027 394.729 168.195 395.574 168.195 396.764C168.195 397.968 169.027 398.812 170.205 398.812Z" fill="#9B9B9B"/>
<circle cx="55.5" cy="396.8" r="24" fill="#E6F2EA"/>
<g clip-path="url(#clip3_601_5585)">
<path d="M53.6192 387.534C55.6482 386.986 57.3751 387.496 57.3751 387.496C57.4143 387.46 57.8149 387.094 57.7758 387.129C57.8514 385.546 56.7595 384.983 56.7595 384.983C56.2006 385.585 56.1164 386.913 56.0908 386.993C55.9973 385.378 56.609 384.74 56.6272 384.7C55.3085 383.997 54.402 384.7 54.402 384.7C55.0373 385.547 54.9043 386.95 54.912 386.989C54.6941 385.588 54.3585 385.269 54.2243 385.043C53.0343 385.723 53.2496 387.129 53.2496 387.129C53.2849 387.169 53.6549 387.573 53.6192 387.534Z" fill="#28B446"/>
<path d="M53.5905 388.128C53.9609 388.808 54.6785 389.269 55.5062 389.269C56.3301 389.269 57.0442 388.812 57.4181 388.136C57.5391 388.11 57.607 388.091 57.607 388.091L58.0526 387.615V387.433L57.8222 387.452C57.7842 387.491 57.3913 387.891 57.4293 387.853C55.3813 387.275 53.5866 387.853 53.5866 387.853C53.5478 387.815 53.3997 387.677 53.1747 387.452L52.9594 387.433V387.656L53.4241 388.09C53.4807 388.105 53.5339 388.117 53.5905 388.128Z" fill="#28B446"/>
<path d="M46.7466 395.209C46.7466 395.209 46.7505 395.209 46.7505 395.213L47.1287 393.735C46.8607 393.739 46.5969 393.881 46.4549 394.133C46.2381 394.511 46.3681 394.992 46.7466 395.209Z" fill="#28B446"/>
<path d="M48.5882 394.215L48.2375 395.76C49.5307 395.98 50.9577 395.456 52.1105 393.731C52.6667 400.966 52.4747 398.471 52.5162 399.011H57.6855V396.068H58.7176C58.7207 396.029 58.974 392.705 58.9581 392.916C58.9981 392.954 60.3262 394.238 60.2428 394.157L59.6873 395.185C59.5256 395.477 59.5772 395.827 59.7781 396.068C60.1427 396.478 60.7784 396.441 61.0744 395.934L61.9138 394.381C62.0833 394.07 62.0239 393.684 61.7679 393.44C60.3995 391.881 58.4116 390.047 56.3779 389.665C53.8847 389.15 51.699 390.883 51.5395 391.371C51.1051 392.676 50.0191 394.372 48.5882 394.215Z" fill="#28B446"/>
<path d="M50.3584 407.056H43.3688V409.212H50.3584V407.056Z" fill="#28B446"/>
<path d="M57.824 407.056H50.8344V409.212H57.824V407.056Z" fill="#28B446"/>
<path d="M65.2907 407.056H58.2969V409.212H65.2907V407.056Z" fill="#28B446"/>
<path d="M52.7084 404.503H45.7188V406.663H52.7084V404.503Z" fill="#28B446"/>
<path d="M60.172 404.503H53.1782V406.663H60.172V404.503Z" fill="#28B446"/>
<path d="M67.6365 404.503H60.6469V406.663H67.6365V404.503Z" fill="#28B446"/>
<path d="M50.3584 401.954H43.3688V404.11H50.3584V401.954Z" fill="#28B446"/>
<path d="M57.824 401.954H50.8344V404.11H57.824V401.954Z" fill="#28B446"/>
<path d="M65.2907 401.954H58.2969V404.11H65.2907V401.954Z" fill="#28B446"/>
<path d="M52.7243 401.56C52.6928 401.481 52.7157 401.385 52.7084 399.405C51.1347 399.405 47.6039 399.405 45.7188 399.405V401.56C49.6515 401.56 48.7504 401.56 52.7243 401.56Z" fill="#28B446"/>
<path d="M53.1782 399.405V401.56C54.8391 401.56 58.5289 401.56 60.172 401.56V399.405C58.1628 399.405 55.4721 399.405 53.1782 399.405Z" fill="#28B446"/>
<path d="M67.6365 399.405H60.6469V401.56H67.6365V399.405Z" fill="#28B446"/>
<path d="M63.5308 396.462H61.143C60.6678 396.867 59.984 396.8 59.6221 396.462C59.5348 396.462 57.9569 396.462 58.0578 396.462V398.617C58.7087 398.617 62.371 398.617 63.5308 398.617V396.462Z" fill="#28B446"/>
<path d="M48.2132 391.82L48.032 391.777C48.0223 391.815 47.1573 395.222 46.8657 396.371L47.6577 396.564C47.6666 396.524 48.7162 391.892 48.7058 391.938L48.5246 391.895L48.6666 391.3L49.9276 391.898L49.2891 388.045L46.9646 391.189L48.3555 391.229L48.2132 391.82Z" fill="#28B446"/>
</g>
<path d="M25.196 478.192C22.06 478.192 19.42 475.584 19.42 472.496C19.42 469.408 22.06 466.816 25.196 466.816C26.812 466.816 28.284 467.504 29.34 468.592L27.916 469.92C27.244 469.136 26.252 468.64 25.196 468.64C23.164 468.64 21.452 470.4 21.452 472.496C21.452 474.608 23.164 476.368 25.196 476.368C26.268 476.368 27.244 475.872 27.932 475.088L29.34 476.4C28.284 477.504 26.812 478.192 25.196 478.192Z" fill="#222222"/>
<rect x="12.3" y="492.8" width="274.4" height="70.4" rx="12.8" fill="#FFFBFB"/>
<path d="M103.884 531.754C101.414 531.754 99.3144 529.667 99.3144 527.197C99.3144 524.726 101.414 522.653 103.884 522.653C105.138 522.653 106.29 523.178 107.122 524.035L106.214 524.906C105.625 524.266 104.793 523.843 103.884 523.843C102.13 523.843 100.646 525.379 100.646 527.197C100.646 529.027 102.13 530.563 103.884 530.563C104.793 530.563 105.625 530.141 106.214 529.501L107.122 530.371C106.29 531.216 105.138 531.754 103.884 531.754ZM111.162 524.829C112.941 524.829 113.927 525.955 113.927 527.594V531.6H112.685V530.691C112.199 531.382 111.29 531.754 110.483 531.754C109.075 531.754 108.039 530.934 108.039 529.642C108.039 528.323 109.229 527.44 110.688 527.44C111.341 527.44 112.045 527.581 112.685 527.798V527.594C112.685 526.762 112.301 525.878 110.983 525.878C110.33 525.878 109.69 526.134 109.114 526.429L108.653 525.494C109.6 525.021 110.432 524.829 111.162 524.829ZM110.727 530.755C111.546 530.755 112.467 530.346 112.685 529.526V528.643C112.147 528.477 111.533 528.387 110.88 528.387C109.997 528.387 109.255 528.886 109.255 529.603C109.255 530.32 109.895 530.755 110.727 530.755ZM117.09 526.25C117.513 525.379 118.409 524.829 119.548 524.829V525.93C118.178 525.93 117.206 526.685 117.09 527.837V531.6H115.823V524.982H117.09V526.25ZM124.458 524.829C126.199 524.829 127.504 526.262 127.504 528.285C127.504 530.32 126.199 531.754 124.458 531.754C123.434 531.754 122.615 531.267 122.103 530.448V533.802H120.848V524.982H122.103V526.122C122.615 525.315 123.434 524.829 124.458 524.829ZM124.151 530.653C125.367 530.653 126.224 529.667 126.224 528.285C126.224 526.902 125.367 525.93 124.151 525.93C122.96 525.93 122.103 526.902 122.103 528.285C122.103 529.667 122.96 530.653 124.151 530.653ZM132.068 530.627C132.759 530.627 133.565 530.32 133.962 529.91L134.756 530.73C134.167 531.357 133.015 531.754 132.081 531.754C130.237 531.754 128.676 530.307 128.676 528.272C128.676 526.288 130.148 524.829 131.978 524.829C134.001 524.829 135.165 526.365 135.165 528.733H129.956C130.122 529.834 130.929 530.627 132.068 530.627ZM132.029 525.955C131.005 525.955 130.173 526.646 129.969 527.722H133.937C133.796 526.698 133.169 525.955 132.029 525.955ZM140.001 524.829C141.46 524.829 142.484 525.891 142.484 527.389V531.6H141.242V527.606C141.242 526.621 140.615 525.93 139.719 525.93C138.797 525.93 138.004 526.531 137.901 527.312V531.6H136.634V524.982H137.901V525.942C138.298 525.29 139.105 524.829 140.001 524.829ZM147.394 530.41L147.855 531.28C147.497 531.574 147.01 531.754 146.537 531.754C145.513 531.754 144.796 531.011 144.796 529.949V526.058H143.797V524.982H144.796V523.165H146.037V524.982H147.599V526.058H146.037V529.859C146.037 530.32 146.345 530.653 146.716 530.653C146.997 530.653 147.253 530.55 147.394 530.41Z" fill="#9B9B9B"/>
<circle cx="55.5" cy="528" r="24" fill="#FFE9E5"/>
<g clip-path="url(#clip4_601_5585)">
<path d="M64.2571 527.014L64.5656 526.705H64.1325L64.4343 526.182L64.016 526.295L64.1722 525.711L63.7972 525.928V525.324L63.4909 525.631L63.3346 525.048L63.1181 525.423L62.8163 524.9L62.7042 525.318L62.2774 524.891V525.324L61.7547 525.023L61.8667 525.441L61.2836 525.285L61.5002 525.66H60.8965L61.2028 525.966L60.6197 526.122L60.9948 526.339L60.472 526.641L60.8904 526.753L60.6294 527.014H59.0357H53.392C53.3689 527.1 53.3366 527.185 53.2921 527.266C53.0904 527.636 52.7034 527.866 52.2819 527.866C52.0908 527.866 51.9008 527.817 51.7321 527.725L50.4276 527.014H50.2353V527.77L49.1816 527.153C49.1298 527.277 49.08 527.402 49.0345 527.527L52.3924 530.519C52.8915 530.964 53.0731 531.659 52.8552 532.291L50.7346 538.441C50.8183 539.005 51.2433 539.483 51.8342 539.604C51.9285 539.623 52.0224 539.632 52.115 539.632C52.764 539.632 53.3456 539.177 53.4805 538.516L54.8943 531.596C55.0137 531.011 54.7477 530.414 54.2326 530.112L51.1032 528.279H58.0475V539.502H66.9814V528.279H68.3V527.014H64.2571ZM61.1402 526.942C61.1402 526.183 61.7556 525.568 62.5146 525.568C63.2736 525.568 63.8889 526.183 63.8889 526.942C63.8889 526.967 63.8866 526.99 63.8854 527.014H63.6551C63.6565 526.99 63.6587 526.967 63.6587 526.942C63.6587 526.311 63.1464 525.798 62.5146 525.798C61.8827 525.798 61.3705 526.311 61.3705 526.942C61.3705 526.967 61.3726 526.99 61.374 527.014H61.1438C61.1426 526.99 61.1402 526.966 61.1402 526.942ZM61.9704 526.942C61.9704 526.642 62.2141 526.398 62.5146 526.398C62.815 526.398 63.0587 526.642 63.0587 526.942C63.0587 526.967 63.0547 526.99 63.0516 527.014H61.9777C61.9744 526.99 61.9704 526.967 61.9704 526.942ZM59.2145 530.697C58.9988 530.697 58.8239 530.522 58.8239 530.306C58.8239 530.091 58.9988 529.916 59.2145 529.916C59.4303 529.916 59.6052 530.091 59.6052 530.306C59.6052 530.522 59.4303 530.697 59.2145 530.697ZM59.2145 529.358C58.9988 529.358 58.8239 529.183 58.8239 528.967C58.8239 528.751 58.9988 528.576 59.2145 528.576C59.4303 528.576 59.6052 528.751 59.6052 528.967C59.6052 529.183 59.4303 529.358 59.2145 529.358ZM62.1507 532.971C61.4641 532.285 61.4641 531.172 62.1507 530.485C62.7951 529.841 63.815 529.801 64.5056 530.367L65.0195 529.853L65.2695 530.103L64.7556 530.617C65.3207 531.307 65.2813 532.327 64.6369 532.971C63.9503 533.658 62.8371 533.658 62.1507 532.971ZM65.8303 538.52H63.7933V534.864H65.8303V538.52Z" fill="#F8644A"/>
<path d="M62.5169 530.851C62.0319 531.336 62.0319 532.122 62.5169 532.607C63.0019 533.092 63.7881 533.092 64.273 532.607C64.758 532.122 64.758 531.336 64.273 530.851C63.788 530.366 63.0019 530.366 62.5169 530.851ZM63.6186 531.952C63.495 532.076 63.2949 532.076 63.1713 531.952C63.0478 531.829 63.0478 531.629 63.1713 531.505C63.2949 531.381 63.495 531.381 63.6186 531.505C63.742 531.628 63.742 531.829 63.6186 531.952Z" fill="#F8644A"/>
<path d="M57.6412 528.707H56.525V533.255H57.6412V528.707Z" fill="#F8644A"/>
<path d="M65.5663 535.18H64.0594V536.148H65.5663V535.18Z" fill="#F8644A"/>
<path d="M58.1101 520.723C58.4116 520.4 57.8705 519.405 56.9016 518.501C56.8684 518.47 56.8349 518.441 56.8015 518.41C56.776 517.773 56.5096 517.145 56.0064 516.675C54.9925 515.729 53.4033 515.784 52.4568 516.798C51.5103 517.812 51.5652 519.401 52.579 520.347C53.5091 521.215 54.9212 521.239 55.8792 520.455C55.722 520.292 55.5644 520.112 55.4114 519.917C54.6079 518.893 54.2269 517.849 54.5422 517.553C54.403 517.951 54.9282 518.847 55.8099 519.67C56.4753 520.291 57.1693 520.708 57.6364 520.804C57.8496 520.847 58.0157 520.824 58.1101 520.723Z" fill="#F8644A"/>
<path d="M63.8847 524.884C63.8867 524.883 64.1343 524.865 64.3094 525.015C64.423 525.113 64.4857 525.265 64.4962 525.466C64.4993 525.526 64.5486 525.572 64.6076 525.572C64.6096 525.572 64.6115 525.572 64.6135 525.572C64.6751 525.569 64.7224 525.516 64.7192 525.455C64.7054 525.19 64.6166 524.986 64.4552 524.846C64.2063 524.632 63.8776 524.66 63.8634 524.662C63.802 524.668 63.7572 524.722 63.7631 524.783C63.7688 524.845 63.8241 524.89 63.8847 524.884Z" fill="#F8644A"/>
<path d="M65.0988 525.492C65.0993 525.492 65.0998 525.492 65.1004 525.492C65.162 525.491 65.2113 525.441 65.2105 525.379C65.2051 524.985 65.0868 524.675 64.8585 524.459C64.511 524.131 64.0387 524.147 64.0195 524.148C63.9579 524.15 63.9101 524.202 63.9127 524.264C63.9152 524.325 63.97 524.372 64.0288 524.371C64.0329 524.371 64.4257 524.357 64.7052 524.621C64.8879 524.794 64.9827 525.05 64.9872 525.382C64.9881 525.443 65.0379 525.492 65.0988 525.492Z" fill="#F8644A"/>
<path d="M60.3905 525.478C60.3914 525.478 60.3923 525.478 60.393 525.478C60.4533 525.478 60.503 525.43 60.5047 525.369C60.5047 525.367 60.5134 525.118 60.6854 524.961C60.7955 524.86 60.9538 524.816 61.1532 524.828C61.2137 524.832 61.2676 524.785 61.2716 524.724C61.2754 524.662 61.2287 524.609 61.1671 524.605C60.9035 524.589 60.6894 524.654 60.5326 524.798C60.2906 525.021 60.2816 525.351 60.2813 525.365C60.2803 525.426 60.3291 525.477 60.3905 525.478Z" fill="#F8644A"/>
<path d="M59.8911 525.27C59.8938 525.27 59.8966 525.27 59.8992 525.27C59.9573 525.27 60.0062 525.225 60.0104 525.167C60.0108 525.163 60.0423 524.771 60.3369 524.523C60.5296 524.362 60.7938 524.297 61.1249 524.33C61.1873 524.337 61.2409 524.292 61.2473 524.23C61.2535 524.169 61.2088 524.114 61.1474 524.108C60.7557 524.068 60.4339 524.15 60.1934 524.352C59.8274 524.66 59.7893 525.131 59.7879 525.15C59.7834 525.212 59.8296 525.265 59.8911 525.27Z" fill="#F8644A"/>
<path d="M46.6561 524.506C46.5849 524.18 46.6584 523.84 46.8579 523.573L48.8299 520.931C49.0459 520.642 49.3903 520.469 49.7518 520.469C50.001 520.469 50.2387 520.548 50.4389 520.698C50.685 520.881 50.8449 521.15 50.8889 521.454C50.933 521.758 50.8562 522.061 50.6726 522.307L49.4936 523.886L50.4194 524.391C50.5867 524.137 50.7521 523.891 50.9113 523.658L51.2435 524.714C51.2616 524.772 51.2863 524.827 51.3154 524.88L51.4424 524.949H55.7891C55.7802 524.945 55.772 524.941 55.7631 524.937L52.8196 523.773L51.9106 520.881C51.8354 520.574 51.6787 520.307 51.429 520.12C50.6426 519.531 49.1687 519.473 48.0172 520.762C46.7492 522.198 46.0365 523.314 45.4438 524.949H46.8584C46.7613 524.819 46.6915 524.668 46.6561 524.506Z" fill="#F8644A"/>
<path d="M52.2224 530.711L48.7359 527.605C48.8031 527.407 48.8795 527.21 48.9621 527.014H44.9594C44.9667 527.211 44.9948 527.391 45.0422 527.553C45.0748 527.89 45.2283 528.217 45.5013 528.46L49.6722 532.176L47.7428 537.772C47.4916 538.5 47.8785 539.295 48.6069 539.546C48.7576 539.598 48.9111 539.622 49.0619 539.622C49.6406 539.622 50.1816 539.259 50.3808 538.681L52.6132 532.208C52.7967 531.676 52.6426 531.086 52.2224 530.711Z" fill="#F8644A"/>
<path d="M52.832 525.707C53.202 525.909 53.4156 526.285 53.4291 526.679H58.6997V525.284H52.0563L52.832 525.707Z" fill="#F8644A"/>
<path d="M49.8136 526.679L47.2557 525.283H42.7V526.679H49.8136Z" fill="#F8644A"/>
<path d="M51.8548 527.5C51.9906 527.574 52.1371 527.609 52.2816 527.609C52.5978 527.609 52.9042 527.441 53.0663 527.144C53.3024 526.711 53.143 526.169 52.71 525.932L49.1119 523.97L50.4679 522.153C50.7629 521.758 50.6817 521.198 50.2864 520.903C49.8912 520.608 49.3317 520.689 49.0367 521.085L47.0648 523.726C46.91 523.934 46.8529 524.198 46.9081 524.451C46.9634 524.704 47.1256 524.92 47.3528 525.044L51.8548 527.5Z" fill="#F8644A"/>
</g>
<rect x="12.3" y="576" width="274.4" height="70.4" rx="12.8" fill="#FFFBFB"/>
<circle cx="55.5" cy="611.2" r="24" fill="#FFE9E5"/>
<g clip-path="url(#clip5_601_5585)">
<path d="M47.956 600.7L53.1172 601.967C53.31 602.014 53.5065 601.895 53.5539 601.702C53.6013 601.509 53.4822 601.313 53.2893 601.265L53.1326 601.227C53.2916 599.977 52.4915 598.78 51.2387 598.472C49.9859 598.165 48.7223 598.856 48.2849 600.038L48.1281 599.999C47.9353 599.952 47.7388 600.071 47.6914 600.264C47.644 600.457 47.7631 600.653 47.956 600.7Z" fill="#F8644A"/>
</g>
<rect opacity="0.5" width="300" height="87.2" transform="matrix(-1 0 0 1 299.5 0)" fill="url(#paint0_linear_601_5585)"/>
<rect x="19.1" y="45.1998" width="32" height="32" rx="9.2" fill="white" stroke="#F9F9F9" stroke-width="0.8"/>
<path d="M37.2255 55.4936C37.152 55.4198 37.0646 55.3614 36.9684 55.3214C36.8723 55.2815 36.7691 55.261 36.665 55.261C36.5609 55.261 36.4578 55.2815 36.3616 55.3214C36.2654 55.3614 36.1781 55.4198 36.1045 55.4936L30.8415 60.7566C30.7828 60.8152 30.7362 60.8848 30.7044 60.9614C30.6727 61.038 30.6563 61.1201 30.6563 61.2031C30.6563 61.286 30.6727 61.3681 30.7044 61.4448C30.7362 61.5214 30.7828 61.591 30.8415 61.6496L36.1045 66.9126C36.4148 67.2229 36.9152 67.2229 37.2255 66.9126C37.5358 66.6022 37.5358 66.1019 37.2255 65.7916L32.6402 61.1999L37.2318 56.6082C37.5358 56.3042 37.5358 55.7976 37.2255 55.4936Z" fill="#222222" stroke="#222222" stroke-width="0.16"/>
<path d="M72.924 54.2077H74.924V65.1997H72.924V60.5117H67.436V65.1997H65.436V54.2077H67.436V58.6877H72.924V54.2077ZM78.1296 55.6797C77.5056 55.6797 77.0096 55.1517 77.0096 54.5597C77.0096 53.9677 77.5056 53.4557 78.1296 53.4557C78.7376 53.4557 79.2336 53.9677 79.2336 54.5597C79.2336 55.1517 78.7376 55.6797 78.1296 55.6797ZM77.1376 65.1997V56.9277H79.0896V65.1997H77.1376ZM83.247 58.5277C83.775 57.4237 84.847 56.7357 86.207 56.7357V58.3997C84.431 58.3997 83.247 59.4557 83.247 61.0237V65.1997H81.295V56.9277H83.247V58.5277ZM91.5092 63.6637C92.2772 63.6637 93.1892 63.3117 93.6532 62.8317L94.8852 64.1117C94.1652 64.8797 92.7252 65.3917 91.5252 65.3917C89.1572 65.3917 87.2052 63.5837 87.2052 61.0397C87.2052 58.5597 89.0612 56.7357 91.4132 56.7357C93.9732 56.7357 95.4612 58.6717 95.4612 61.7277H89.2212C89.4612 62.8637 90.3252 63.6637 91.5092 63.6637ZM91.4932 58.4637C90.4052 58.4637 89.5252 59.1517 89.2372 60.2397H93.5892C93.3652 59.1997 92.6612 58.4637 91.4932 58.4637ZM101.748 65.1997V54.2077H106.532C108.884 54.2077 110.644 55.7117 110.644 57.8557C110.644 59.9997 108.884 61.5037 106.532 61.5037H103.748V65.1997H101.748ZM103.748 59.6637H106.308C107.668 59.6637 108.612 58.9757 108.612 57.8557C108.612 56.7357 107.668 56.0477 106.308 56.0477H103.748V59.6637ZM114.153 58.5277C114.681 57.4237 115.753 56.7357 117.113 56.7357V58.3997C115.337 58.3997 114.153 59.4557 114.153 61.0237V65.1997H112.201V56.9277H114.153V58.5277ZM122.356 65.3917C119.956 65.3917 117.924 63.4077 117.924 61.0557C117.924 58.7037 119.956 56.7357 122.356 56.7357C124.756 56.7357 126.788 58.7037 126.788 61.0557C126.788 63.4077 124.756 65.3917 122.356 65.3917ZM122.356 63.7277C123.716 63.7277 124.868 62.5117 124.868 61.0557C124.868 59.6157 123.716 58.3997 122.356 58.3997C120.98 58.3997 119.828 59.6157 119.828 61.0557C119.828 62.5117 120.98 63.7277 122.356 63.7277ZM130.977 56.2397V56.9277H132.849V58.5437H130.977V65.1997H129.073V58.5437H127.873V56.9277H129.073V56.0637C129.073 54.6717 130.033 53.6797 131.409 53.6797C132.033 53.6797 132.705 53.9357 133.169 54.3357L132.609 55.5837C132.433 55.4077 132.129 55.2797 131.793 55.2797C131.329 55.2797 130.977 55.6797 130.977 56.2397ZM138.259 63.6637C139.027 63.6637 139.939 63.3117 140.403 62.8317L141.635 64.1117C140.915 64.8797 139.475 65.3917 138.275 65.3917C135.907 65.3917 133.955 63.5837 133.955 61.0397C133.955 58.5597 135.811 56.7357 138.163 56.7357C140.723 56.7357 142.211 58.6717 142.211 61.7277H135.971C136.211 62.8637 137.075 63.6637 138.259 63.6637ZM138.243 58.4637C137.155 58.4637 136.275 59.1517 135.987 60.2397H140.339C140.115 59.1997 139.411 58.4637 138.243 58.4637ZM146.959 65.3917C145.695 65.3917 144.335 64.9437 143.343 64.1437L144.223 62.7837C145.023 63.3597 145.951 63.7437 146.991 63.7437C147.775 63.7437 148.319 63.4077 148.319 62.8957C148.319 62.2557 147.599 62.0477 146.655 61.7917C144.863 61.3277 143.727 60.8157 143.711 59.3437C143.711 57.7917 144.991 56.7357 146.831 56.7357C147.967 56.7357 149.103 57.1357 149.999 57.7277L149.183 59.1517C148.399 58.6557 147.551 58.3997 146.831 58.3997C146.143 58.3997 145.615 58.6717 145.615 59.1357C145.615 59.6637 146.047 59.8237 147.311 60.1917C148.703 60.5757 150.207 61.0557 150.207 62.7837C150.207 64.3677 148.895 65.3917 146.959 65.3917ZM154.959 65.3917C153.695 65.3917 152.335 64.9437 151.343 64.1437L152.223 62.7837C153.023 63.3597 153.951 63.7437 154.991 63.7437C155.775 63.7437 156.319 63.4077 156.319 62.8957C156.319 62.2557 155.599 62.0477 154.655 61.7917C152.863 61.3277 151.727 60.8157 151.711 59.3437C151.711 57.7917 152.991 56.7357 154.831 56.7357C155.967 56.7357 157.103 57.1357 157.999 57.7277L157.183 59.1517C156.399 58.6557 155.551 58.3997 154.831 58.3997C154.143 58.3997 153.615 58.6717 153.615 59.1357C153.615 59.6637 154.047 59.8237 155.311 60.1917C156.703 60.5757 158.207 61.0557 158.207 62.7837C158.207 64.3677 156.895 65.3917 154.959 65.3917ZM160.895 55.6797C160.271 55.6797 159.775 55.1517 159.775 54.5597C159.775 53.9677 160.271 53.4557 160.895 53.4557C161.503 53.4557 161.999 53.9677 161.999 54.5597C161.999 55.1517 161.503 55.6797 160.895 55.6797ZM159.903 65.1997V56.9277H161.855V65.1997H159.903ZM168.013 65.3917C165.613 65.3917 163.581 63.4077 163.581 61.0557C163.581 58.7037 165.613 56.7357 168.013 56.7357C170.413 56.7357 172.445 58.7037 172.445 61.0557C172.445 63.4077 170.413 65.3917 168.013 65.3917ZM168.013 63.7277C169.373 63.7277 170.525 62.5117 170.525 61.0557C170.525 59.6157 169.373 58.3997 168.013 58.3997C166.637 58.3997 165.485 59.6157 165.485 61.0557C165.485 62.5117 166.637 63.7277 168.013 63.7277ZM178.65 56.7357C180.458 56.7357 181.722 58.0637 181.722 59.9357V65.1997H179.834V60.3197C179.834 59.1997 179.114 58.3997 178.09 58.3997C177.066 58.3997 176.218 59.0877 176.09 59.9677V65.1997H174.138V56.9277H176.09V58.0317C176.602 57.2637 177.562 56.7357 178.65 56.7357ZM187.441 56.7357C189.633 56.7357 190.993 58.1277 190.993 60.2237V65.1997H189.089V64.2077C188.481 64.9757 187.441 65.3917 186.481 65.3917C184.721 65.3917 183.393 64.3517 183.393 62.7517C183.393 61.1197 184.913 59.9997 186.769 59.9997C187.521 59.9997 188.337 60.1597 189.089 60.4477V60.2237C189.089 59.2637 188.561 58.3357 187.057 58.3357C186.273 58.3357 185.521 58.6077 184.817 58.9597L184.145 57.5997C185.313 57.0237 186.401 56.7357 187.441 56.7357ZM186.913 63.9677C187.857 63.9677 188.865 63.4877 189.089 62.6077V61.6797C188.481 61.4717 187.793 61.3597 187.057 61.3597C186.081 61.3597 185.297 61.9037 185.297 62.6877C185.297 63.4717 185.985 63.9677 186.913 63.9677ZM193.106 65.1997V54.0157H195.058V65.1997H193.106ZM200.272 65.3917C199.008 65.3917 197.648 64.9437 196.656 64.1437L197.536 62.7837C198.336 63.3597 199.264 63.7437 200.304 63.7437C201.088 63.7437 201.632 63.4077 201.632 62.8957C201.632 62.2557 200.912 62.0477 199.968 61.7917C198.176 61.3277 197.04 60.8157 197.024 59.3437C197.024 57.7917 198.304 56.7357 200.144 56.7357C201.28 56.7357 202.416 57.1357 203.312 57.7277L202.496 59.1517C201.712 58.6557 200.864 58.3997 200.144 58.3997C199.456 58.3997 198.928 58.6717 198.928 59.1357C198.928 59.6637 199.36 59.8237 200.624 60.1917C202.016 60.5757 203.52 61.0557 203.52 62.7837C203.52 64.3677 202.208 65.3917 200.272 65.3917Z" fill="#222222"/>
<path opacity="0.35" d="M268.7 16C268.7 15.0427 269.476 14.2667 270.433 14.2667H283.767C284.724 14.2667 285.5 15.0427 285.5 16V20.8C285.5 21.7573 284.724 22.5334 283.767 22.5334H270.433C269.476 22.5334 268.7 21.7573 268.7 20.8V16Z" stroke="#222222" stroke-width="0.8"/>
<path opacity="0.4" d="M286.7 16.8V20C287.344 19.729 287.762 19.0986 287.762 18.4C287.762 17.7015 287.344 17.0711 286.7 16.8Z" fill="#222222"/>
<path d="M269.9 16.5332C269.9 15.9441 270.378 15.4666 270.967 15.4666H283.233C283.822 15.4666 284.3 15.9441 284.3 16.5332V20.2666C284.3 20.8557 283.822 21.3332 283.233 21.3332H270.967C270.378 21.3332 269.9 20.8557 269.9 20.2666V16.5332Z" fill="#222222"/>
<path fill-rule="evenodd" clip-rule="evenodd" d="M258.164 15.6864C259.937 15.6864 261.642 16.3676 262.927 17.589C263.023 17.6833 263.178 17.6821 263.273 17.5864L264.198 16.653C264.246 16.6045 264.273 16.5387 264.273 16.4702C264.272 16.4017 264.245 16.3362 264.196 16.2882C260.824 13.0566 255.504 13.0566 252.132 16.2882C252.083 16.3362 252.055 16.4017 252.055 16.4701C252.055 16.5386 252.081 16.6044 252.13 16.653L253.055 17.5864C253.15 17.6823 253.305 17.6835 253.401 17.589C254.686 16.3675 256.391 15.6864 258.164 15.6864ZM258.164 18.7228C259.138 18.7227 260.077 19.0847 260.799 19.7385C260.897 19.8313 261.051 19.8293 261.146 19.734L262.07 18.8006C262.119 18.7517 262.145 18.6853 262.145 18.6163C262.144 18.5472 262.116 18.4814 262.066 18.4334C259.868 16.3883 256.463 16.3883 254.264 18.4334C254.215 18.4814 254.186 18.5473 254.186 18.6163C254.185 18.6853 254.212 18.7518 254.261 18.8006L255.184 19.734C255.279 19.8293 255.433 19.8313 255.531 19.7385C256.252 19.0852 257.191 18.7232 258.164 18.7228ZM260.015 20.7658C260.016 20.835 259.989 20.9018 259.939 20.9502L258.342 22.5628C258.295 22.6102 258.231 22.6368 258.164 22.6368C258.098 22.6368 258.034 22.6102 257.987 22.5628L256.389 20.9502C256.339 20.9017 256.312 20.835 256.314 20.7658C256.315 20.6966 256.345 20.631 256.397 20.5846C257.417 19.7215 258.912 19.7215 259.932 20.5846C259.983 20.6311 260.013 20.6966 260.015 20.7658Z" fill="#222222"/>
<path fill-rule="evenodd" clip-rule="evenodd" d="M247.233 14.1333H246.433C245.991 14.1333 245.633 14.4915 245.633 14.9333V21.8666C245.633 22.3085 245.991 22.6666 246.433 22.6666H247.233C247.675 22.6666 248.033 22.3085 248.033 21.8666V14.9333C248.033 14.4915 247.675 14.1333 247.233 14.1333ZM242.7 15.9999H243.5C243.942 15.9999 244.3 16.3581 244.3 16.7999V21.8666C244.3 22.3084 243.942 22.6666 243.5 22.6666H242.7C242.258 22.6666 241.9 22.3084 241.9 21.8666V16.7999C241.9 16.3581 242.258 15.9999 242.7 15.9999ZM239.767 17.8667H238.967C238.525 17.8667 238.167 18.2249 238.167 18.6667V21.8667C238.167 22.3085 238.525 22.6667 238.967 22.6667H239.767C240.208 22.6667 240.567 22.3085 240.567 21.8667V18.6667C240.567 18.2249 240.208 17.8667 239.767 17.8667ZM236.033 19.4667H235.233C234.791 19.4667 234.433 19.8249 234.433 20.2667V21.8667C234.433 22.3085 234.791 22.6667 235.233 22.6667H236.033C236.475 22.6667 236.833 22.3085 236.833 21.8667V20.2667C236.833 19.8249 236.475 19.4667 236.033 19.4667Z" fill="#222222"/>
<path d="M29.3917 14.5339C31.1964 14.5339 32.7667 15.8171 32.7667 18.864V18.8757C32.7667 21.7234 31.4835 23.4109 29.3566 23.4109C27.8038 23.4109 26.6437 22.491 26.3742 21.196L26.3624 21.1316H27.8507L27.8683 21.1902C28.091 21.782 28.6124 22.1687 29.3566 22.1687C30.6984 22.1687 31.2667 20.8562 31.3312 19.239C31.3312 19.1746 31.3371 19.1101 31.3371 19.0457H31.2199C30.9093 19.7136 30.171 20.3054 29.0109 20.3054C27.3878 20.3054 26.2511 19.1218 26.2511 17.5164V17.5046C26.2511 15.7878 27.5578 14.5339 29.3917 14.5339ZM29.3859 19.1453C30.341 19.1453 31.0734 18.4539 31.0734 17.4988V17.4871C31.0734 16.5203 30.341 15.7644 29.4035 15.7644C28.4718 15.7644 27.7277 16.5085 27.7277 17.4519V17.4636C27.7277 18.4421 28.4249 19.1453 29.3859 19.1453ZM35.1869 17.7214C34.6537 17.7214 34.2553 17.3113 34.2553 16.7957C34.2553 16.2742 34.6537 15.8699 35.1869 15.8699C35.726 15.8699 36.1185 16.2742 36.1185 16.7957C36.1185 17.3113 35.726 17.7214 35.1869 17.7214ZM35.1869 22.0691C34.6537 22.0691 34.2553 21.6648 34.2553 21.1433C34.2553 20.6218 34.6537 20.2175 35.1869 20.2175C35.726 20.2175 36.1185 20.6218 36.1185 21.1433C36.1185 21.6648 35.726 22.0691 35.1869 22.0691ZM41.7086 23.2V21.5769H37.5719V20.3406C38.6676 18.4363 39.8688 16.491 41.0172 14.7449H43.1559V20.3289H44.2926V21.5769H43.1559V23.2H41.7086ZM38.9781 20.364H41.732V15.9519H41.6442C40.777 17.2761 39.7985 18.8406 38.9781 20.2761V20.364ZM47.5565 23.2V16.2332H47.4569L45.3534 17.7214V16.2976L47.5624 14.7449H49.0682V23.2H47.5565Z" fill="#222222"/>
<rect width="300" height="27.2" transform="translate(0.5 573)" fill="#F9F9F9"/>
<path fill-rule="evenodd" clip-rule="evenodd" d="M97.3 591C97.3 589.895 98.1954 589 99.3 589H202.5C203.605 589 204.5 589.895 204.5 591C204.5 592.105 203.605 593 202.5 593H99.3C98.1954 593 97.3 592.105 97.3 591Z" fill="#222222"/>
</g>
<defs>
<linearGradient id="paint0_linear_601_5585" x1="150" y1="-15.7862" x2="150" y2="107.497" gradientUnits="userSpaceOnUse">
<stop stop-color="#DAFFED"/>
<stop offset="0.575354" stop-color="#DAFFED" stop-opacity="0.486384"/>
<stop offset="1" stop-color="#DAFFED" stop-opacity="0"/>
</linearGradient>
<clipPath id="clip0_601_5585">
<rect width="300" height="600" fill="white"/>
</clipPath>
<clipPath id="clip1_601_5585">
<rect width="25.6" height="25.6" fill="white" transform="translate(42.7 169.6)"/>
</clipPath>
<clipPath id="clip2_601_5585">
<rect width="18.0705" height="25.6" fill="white" transform="translate(46.7 300.8)"/>
</clipPath>
<clipPath id="clip3_601_5585">
<rect width="25.6" height="25.6" fill="white" transform="translate(42.7 384)"/>
</clipPath>
<clipPath id="clip4_601_5585">
<rect width="25.6" height="23.6323" fill="white" transform="translate(42.7 516)"/>
</clipPath>
<clipPath id="clip5_601_5585">
<rect width="24.8658" height="25.6" fill="white" transform="translate(42.7 598.399)"/>
</clipPath>
</defs>
</svg>
