<svg width="300" height="600" viewBox="0 0 300 600" fill="none" xmlns="http://www.w3.org/2000/svg">
<g clip-path="url(#clip0_601_6059)">
<rect width="300" height="600" fill="#F9F9F9"/>
<rect x="13.7" y="266" width="273.6" height="44" rx="6" fill="#F9F9F9" stroke="#E8ECF4" stroke-width="0.8"/>
<path d="M32.0584 286.566V287.563H29.9528V289.669H28.9224V287.563H26.828V286.566H28.9224V284.438H29.9528V286.566H32.0584ZM36.1767 282.971C38.3159 282.971 39.2231 284.64 39.2231 286.835C39.2231 289.165 37.8455 290.934 35.9639 290.934C35.0231 290.934 34.3175 290.576 33.7239 290.05L34.3063 289.176C34.7879 289.613 35.2695 289.915 35.9751 289.915C37.1511 289.915 38.0359 288.65 38.0695 286.947C37.5991 287.586 36.8263 287.966 35.9751 287.966C34.5639 287.966 33.3879 287.082 33.3879 285.558C33.3879 284.08 34.5527 282.971 36.1767 282.971ZM36.2439 287.014C37.0951 287.014 37.7783 286.522 37.9799 285.771C37.7783 284.674 37.2295 283.934 36.2215 283.934C35.1799 283.934 34.5527 284.73 34.5527 285.502C34.5527 286.443 35.3031 287.014 36.2439 287.014ZM41.8762 290.8V284.45L40.5434 285.301L40.073 284.483L42.1002 283.106H43.0186V290.8H41.8762ZM50.6251 282.971C52.7643 282.971 53.6715 284.64 53.6715 286.835C53.6715 289.165 52.2939 290.934 50.4123 290.934C49.4715 290.934 48.7659 290.576 48.1723 290.05L48.7547 289.176C49.2363 289.613 49.7179 289.915 50.4235 289.915C51.5995 289.915 52.4843 288.65 52.5179 286.947C52.0475 287.586 51.2747 287.966 50.4235 287.966C49.0123 287.966 47.8363 287.082 47.8363 285.558C47.8363 284.08 49.0011 282.971 50.6251 282.971ZM50.6923 287.014C51.5435 287.014 52.2267 286.522 52.4283 285.771C52.2267 284.674 51.6779 283.934 50.6699 283.934C49.6283 283.934 49.0011 284.73 49.0011 285.502C49.0011 286.443 49.7515 287.014 50.6923 287.014ZM57.7022 290.934C56.0782 290.934 54.8014 290.094 54.8014 288.773C54.8014 287.821 55.5182 287.138 56.4366 286.824C55.5966 286.488 55.003 285.906 55.003 285.032C55.003 283.722 56.3134 282.971 57.7022 282.971C59.1358 282.971 60.4126 283.755 60.4126 285.032C60.4126 285.95 59.763 286.522 58.979 286.824C59.8974 287.149 60.603 287.832 60.603 288.773C60.603 290.106 59.315 290.934 57.7022 290.934ZM57.7022 286.398C58.4078 286.354 59.2814 285.928 59.2814 285.155C59.2814 284.472 58.587 283.968 57.7022 283.968C56.8174 283.968 56.1342 284.472 56.1342 285.155C56.1342 285.95 57.019 286.354 57.7022 286.398ZM57.7022 289.938C58.6878 289.938 59.4606 289.422 59.4606 288.672C59.4606 287.854 58.4638 287.362 57.7022 287.339C56.9518 287.362 55.9438 287.854 55.9438 288.672C55.9438 289.422 56.7166 289.938 57.7022 289.938ZM62.5889 290.8L65.7921 284.158H61.7489V283.106H67.1249V283.957L63.8881 290.8H62.5889ZM71.7122 285.939C73.1234 285.939 74.2994 286.824 74.2994 288.347C74.2994 289.826 73.1346 290.934 71.5106 290.934C69.3714 290.934 68.4642 289.266 68.4642 287.07C68.4642 284.741 69.8418 282.971 71.7234 282.971C72.6642 282.971 73.3698 283.33 73.9634 283.856L73.381 284.73C72.8994 284.293 72.4178 283.99 71.7122 283.99C70.5362 283.99 69.6514 285.256 69.6178 286.958C70.0882 286.32 70.861 285.939 71.7122 285.939ZM71.4658 289.971C72.5074 289.971 73.1346 289.176 73.1346 288.403C73.1346 287.462 72.3842 286.891 71.4434 286.891C70.5922 286.891 69.909 287.384 69.7074 288.134C69.909 289.232 70.4578 289.971 71.4658 289.971ZM82.4293 283.106L79.5285 286.947L82.4293 290.8H81.0517L78.8341 287.854L76.6165 290.8H75.2613L78.1621 286.958L75.2613 283.106H76.6277L78.8453 286.051L81.0741 283.106H82.4293ZM90.2934 283.106L87.3926 286.947L90.2934 290.8H88.9158L86.6982 287.854L84.4806 290.8H83.1254L86.0262 286.958L83.1254 283.106H84.4918L86.7094 286.051L88.9382 283.106H90.2934ZM98.1574 283.106L95.2566 286.947L98.1574 290.8H96.7798L94.5622 287.854L92.3446 290.8H90.9894L93.8902 286.958L90.9894 283.106H92.3558L94.5734 286.051L96.8022 283.106H98.1574ZM106.021 283.106L103.121 286.947L106.021 290.8H104.644L102.426 287.854L100.209 290.8H98.8535L101.754 286.958L98.8535 283.106H100.22L102.437 286.051L104.666 283.106H106.021ZM113.886 283.106L110.985 286.947L113.886 290.8H112.508L110.29 287.854L108.073 290.8H106.718L109.618 286.958L106.718 283.106H108.084L110.302 286.051L112.53 283.106H113.886ZM121.75 283.106L118.849 286.947L121.75 290.8H120.372L118.154 287.854L115.937 290.8H114.582L117.482 286.958L114.582 283.106H115.948L118.166 286.051L120.394 283.106H121.75Z" fill="#222222"/>
<path d="M14.26 253V244.206H17.9592C19.8152 244.206 21.2232 245.397 21.2232 247.074C21.2232 248.75 19.8152 249.941 17.9592 249.941H15.5528V253H14.26ZM15.5528 248.738H17.78C19.0472 248.738 19.9048 248.11 19.9048 247.074C19.9048 246.037 19.0472 245.41 17.78 245.41H15.5528V248.738ZM25.9005 246.229C27.3597 246.229 28.3837 247.291 28.3837 248.789V253H27.1421V249.006C27.1421 248.021 26.5149 247.33 25.6189 247.33C24.6205 247.33 23.7885 248.034 23.7885 248.891V253H22.5341V244.053H23.7885V247.368C24.1853 246.702 24.9917 246.229 25.9005 246.229ZM33.3326 253.154C31.4382 253.154 29.8382 251.566 29.8382 249.685C29.8382 247.803 31.4382 246.229 33.3326 246.229C35.2142 246.229 36.8014 247.803 36.8014 249.685C36.8014 251.566 35.2142 253.154 33.3326 253.154ZM33.3326 252.053C34.523 252.053 35.5342 250.978 35.5342 249.685C35.5342 248.405 34.523 247.33 33.3326 247.33C32.1166 247.33 31.1054 248.405 31.1054 249.685C31.1054 250.978 32.1166 252.053 33.3326 252.053ZM41.6505 246.229C43.1097 246.229 44.1337 247.291 44.1337 248.789V253H42.8921V249.006C42.8921 248.021 42.2649 247.33 41.3689 247.33C40.4473 247.33 39.6537 247.931 39.5513 248.712V253H38.2841V246.382H39.5513V247.342C39.9481 246.69 40.7545 246.229 41.6505 246.229ZM48.9802 252.027C49.6714 252.027 50.4778 251.72 50.8746 251.31L51.6682 252.13C51.0794 252.757 49.9274 253.154 48.993 253.154C47.1498 253.154 45.5882 251.707 45.5882 249.672C45.5882 247.688 47.0602 246.229 48.8906 246.229C50.913 246.229 52.0778 247.765 52.0778 250.133H46.8682C47.0346 251.234 47.841 252.027 48.9802 252.027ZM48.9418 247.355C47.9178 247.355 47.0858 248.046 46.881 249.122H50.849C50.7082 248.098 50.081 247.355 48.9418 247.355Z" fill="#222222" fill-opacity="0.8"/>
<path d="M16.5896 485L13.6968 476.207H15.1304L17.2936 482.914L19.4952 476.207H20.9288L23.1304 482.914L25.2936 476.207H26.7272L23.8344 485H22.5416L20.2248 477.999L17.8824 485H16.5896ZM30.4951 485.154C28.6007 485.154 27.0007 483.567 27.0007 481.685C27.0007 479.803 28.6007 478.229 30.4951 478.229C32.3767 478.229 33.9639 479.803 33.9639 481.685C33.9639 483.567 32.3767 485.154 30.4951 485.154ZM30.4951 484.053C31.6855 484.053 32.6967 482.978 32.6967 481.685C32.6967 480.405 31.6855 479.33 30.4951 479.33C29.2791 479.33 28.2679 480.405 28.2679 481.685C28.2679 482.978 29.2791 484.053 30.4951 484.053ZM36.7778 479.65C37.2002 478.779 38.0962 478.229 39.2354 478.229V479.33C37.8658 479.33 36.893 480.085 36.7778 481.237V485H35.5106V478.383H36.7778V479.65ZM46.4876 478.383L43.6332 481.378L46.3596 485H44.8492L42.7756 482.223L41.7132 483.298V485H40.4588V476.053H41.7132V481.762L44.9516 478.383H46.4876ZM53.9743 478.229C55.7535 478.229 56.7391 479.355 56.7391 480.994V485H55.4975V484.091C55.0111 484.783 54.1023 485.154 53.2959 485.154C51.8879 485.154 50.8511 484.335 50.8511 483.042C50.8511 481.723 52.0415 480.84 53.5007 480.84C54.1535 480.84 54.8575 480.981 55.4975 481.199V480.994C55.4975 480.162 55.1135 479.279 53.7951 479.279C53.1423 479.279 52.5023 479.535 51.9263 479.829L51.4655 478.895C52.4127 478.421 53.2447 478.229 53.9743 478.229ZM53.5391 484.155C54.3583 484.155 55.2799 483.746 55.4975 482.927V482.043C54.9599 481.877 54.3455 481.787 53.6927 481.787C52.8095 481.787 52.0671 482.287 52.0671 483.003C52.0671 483.72 52.7071 484.155 53.5391 484.155ZM59.9029 479.65C60.3253 478.779 61.2213 478.229 62.3605 478.229V479.33C60.9909 479.33 60.0181 480.085 59.9029 481.237V485H58.6357V478.383H59.9029V479.65ZM66.6302 484.027C67.3214 484.027 68.1278 483.72 68.5246 483.311L69.3182 484.13C68.7294 484.757 67.5774 485.154 66.643 485.154C64.7998 485.154 63.2382 483.707 63.2382 481.672C63.2382 479.688 64.7102 478.229 66.5406 478.229C68.563 478.229 69.7278 479.765 69.7278 482.133H64.5182C64.6846 483.234 65.491 484.027 66.6302 484.027ZM66.5918 479.355C65.5678 479.355 64.7358 480.047 64.531 481.122H68.499C68.3582 480.098 67.731 479.355 66.5918 479.355ZM73.9743 478.229C75.7535 478.229 76.7391 479.355 76.7391 480.994V485H75.4975V484.091C75.0111 484.783 74.1023 485.154 73.2959 485.154C71.8879 485.154 70.8511 484.335 70.8511 483.042C70.8511 481.723 72.0415 480.84 73.5007 480.84C74.1535 480.84 74.8575 480.981 75.4975 481.199V480.994C75.4975 480.162 75.1135 479.279 73.7951 479.279C73.1423 479.279 72.5023 479.535 71.9263 479.829L71.4655 478.895C72.4127 478.421 73.2447 478.229 73.9743 478.229ZM73.5391 484.155C74.3583 484.155 75.2799 483.746 75.4975 482.927V482.043C74.9599 481.877 74.3455 481.787 73.6927 481.787C72.8095 481.787 72.0671 482.287 72.0671 483.003C72.0671 483.72 72.7071 484.155 73.5391 484.155ZM80.6852 486.904C79.1844 485.65 78.3444 483.959 78.3444 482.032C78.3444 480.095 79.1844 478.415 80.6852 477.16L81.1332 477.631C79.9124 478.885 79.2404 480.195 79.2404 482.032C79.2404 483.858 79.9124 485.179 81.1332 486.423L80.6852 486.904ZM82.9188 478.157C82.6052 478.157 82.3588 477.899 82.3588 477.597C82.3588 477.306 82.6052 477.048 82.9188 477.048C83.2212 477.048 83.4676 477.306 83.4676 477.597C83.4676 477.899 83.2212 478.157 82.9188 478.157ZM82.4932 485V479.21H83.3332V485H82.4932ZM87.7752 479.075C89.052 479.075 89.948 480.005 89.948 481.315V485H89.108V481.427C89.108 480.487 88.5144 479.826 87.6632 479.826C86.6888 479.826 85.8712 480.509 85.8712 481.315V485H85.0312V479.21H85.8712V480.139C86.2072 479.523 86.9576 479.075 87.7752 479.075ZM96.9462 485.135C96.1398 485.135 95.2438 484.832 94.5494 484.272L94.9862 483.656C95.647 484.138 96.3078 484.384 96.9462 484.384C97.7078 484.384 98.223 484.026 98.223 483.477C98.223 482.85 97.551 482.648 96.767 482.424C95.367 482.021 94.8294 481.607 94.8294 480.778C94.8294 479.725 95.703 479.075 96.8566 479.075C97.5734 479.075 98.3126 479.322 98.9286 479.725L98.5254 480.375C97.943 480.005 97.3718 479.826 96.8566 479.826C96.207 479.826 95.6694 480.117 95.6694 480.677C95.6694 481.181 96.095 481.338 97.1702 481.685C98.0998 481.976 99.063 482.29 99.063 483.387C99.063 484.451 98.1446 485.135 96.9462 485.135ZM104.978 479.21H105.818V486.927H104.978V483.914C104.541 484.675 103.802 485.135 102.872 485.135C101.349 485.135 100.206 483.88 100.206 482.099C100.206 480.33 101.349 479.075 102.872 479.075C103.802 479.075 104.541 479.535 104.978 480.296V479.21ZM103.029 484.384C104.171 484.384 104.978 483.432 104.978 482.099C104.978 480.767 104.171 479.826 103.029 479.826C101.898 479.826 101.091 480.767 101.091 482.099C101.091 483.432 101.898 484.384 103.029 484.384ZM112.154 478.415V479.21H113.576V479.96H112.154V485H111.314V479.96H110.407V479.21H111.314V478.415C111.314 477.552 111.896 476.936 112.725 476.936C113.117 476.936 113.498 477.071 113.8 477.306L113.386 477.922C113.263 477.787 113.039 477.687 112.781 477.687C112.445 477.687 112.154 477.989 112.154 478.415ZM117.312 484.149L117.727 484.765C117.424 485 117.044 485.135 116.652 485.135C115.823 485.135 115.24 484.519 115.24 483.656V479.96H114.333V479.21H115.24V477.619H116.08V479.21H117.503V479.96H116.08V483.656C116.08 484.082 116.372 484.384 116.708 484.384C116.965 484.384 117.189 484.283 117.312 484.149ZM119.027 486.904L118.579 486.423C119.8 485.179 120.472 483.858 120.472 482.032C120.472 480.195 119.8 478.885 118.579 477.631L119.027 477.16C120.528 478.415 121.368 480.095 121.368 482.032C121.368 483.959 120.528 485.65 119.027 486.904Z" fill="#222222" fill-opacity="0.8"/>
<rect x="132.9" y="459.6" width="82.4" height="44" rx="6" fill="#F9F9F9" stroke="#E8ECF4" stroke-width="0.8"/>
<path d="M147.35 484.4V478.05L146.017 478.901L145.546 478.083L147.574 476.706H148.492V484.4H147.35ZM150.016 484.4V483.471L152.838 481.141C153.868 480.279 154.26 479.618 154.26 478.923C154.26 478.083 153.566 477.591 152.804 477.591C151.964 477.591 151.348 478.039 150.811 478.733L150.049 478.061C150.721 477.131 151.628 476.571 152.849 476.571C154.283 476.571 155.425 477.501 155.425 478.901C155.425 479.931 154.932 480.749 153.611 481.824L151.808 483.347H155.492V484.4H150.016ZM160.059 484.535C158.121 484.535 156.766 482.888 156.766 480.547C156.766 478.218 158.121 476.571 160.059 476.571C161.974 476.571 163.34 478.218 163.34 480.547C163.34 482.888 161.974 484.535 160.059 484.535ZM160.059 483.493C161.302 483.493 162.175 482.272 162.175 480.547C162.175 478.823 161.302 477.613 160.059 477.613C158.804 477.613 157.919 478.823 157.919 480.547C157.919 482.272 158.804 483.493 160.059 483.493ZM167.846 484.535C165.908 484.535 164.553 482.888 164.553 480.547C164.553 478.218 165.908 476.571 167.846 476.571C169.761 476.571 171.128 478.218 171.128 480.547C171.128 482.888 169.761 484.535 167.846 484.535ZM167.846 483.493C169.089 483.493 169.963 482.272 169.963 480.547C169.963 478.823 169.089 477.613 167.846 477.613C166.592 477.613 165.707 478.823 165.707 480.547C165.707 482.272 166.592 483.493 167.846 483.493Z" fill="#222222"/>
<rect x="13.7" y="355.6" width="273.6" height="84" rx="6" fill="#F9F9F9" stroke="#E8ECF4" stroke-width="0.8"/>
<path d="M32.9992 375.706H34.2536L30.9496 383.4H29.6952L26.3912 375.706H27.6456L30.3224 381.944L32.9992 375.706ZM37.4196 377.475C38.9764 377.475 39.8388 378.461 39.8388 379.895V383.4H38.7524V382.605C38.3268 383.21 37.5316 383.535 36.826 383.535C35.594 383.535 34.6868 382.818 34.6868 381.687C34.6868 380.533 35.7284 379.76 37.0052 379.76C37.5764 379.76 38.1924 379.883 38.7524 380.074V379.895C38.7524 379.167 38.4164 378.394 37.2628 378.394C36.6916 378.394 36.1316 378.618 35.6276 378.875L35.2244 378.058C36.0532 377.643 36.7812 377.475 37.4196 377.475ZM37.0388 382.661C37.7556 382.661 38.562 382.303 38.7524 381.586V380.813C38.282 380.667 37.7444 380.589 37.1732 380.589C36.4004 380.589 35.7508 381.026 35.7508 381.653C35.7508 382.28 36.3108 382.661 37.0388 382.661ZM41.4424 383.4V375.571H42.54V383.4H41.4424ZM44.7037 376.647C44.3229 376.647 44.0317 376.333 44.0317 375.975C44.0317 375.627 44.3229 375.314 44.7037 375.314C45.0621 375.314 45.3645 375.627 45.3645 375.975C45.3645 376.333 45.0621 376.647 44.7037 376.647ZM44.1437 383.4V377.61H45.2525V383.4H44.1437ZM47.8756 385.416C47.4836 385.416 47.0804 385.327 46.778 385.17L47.0244 384.319C47.2484 384.442 47.506 384.498 47.73 384.498C48.0884 384.498 48.3348 384.386 48.5252 384.05L48.8164 383.434L46.33 377.61H47.5172L49.3764 382.179L51.1348 377.61H52.2884L49.7348 383.927C49.3204 384.968 48.7044 385.405 47.8756 385.416ZM55.9587 377.475C57.5155 377.475 58.3779 378.461 58.3779 379.895V383.4H57.2915V382.605C56.8659 383.21 56.0707 383.535 55.3651 383.535C54.1331 383.535 53.2259 382.818 53.2259 381.687C53.2259 380.533 54.2675 379.76 55.5443 379.76C56.1155 379.76 56.7315 379.883 57.2915 380.074V379.895C57.2915 379.167 56.9555 378.394 55.8019 378.394C55.2307 378.394 54.6707 378.618 54.1667 378.875L53.7635 378.058C54.5923 377.643 55.3203 377.475 55.9587 377.475ZM55.5779 382.661C56.2947 382.661 57.1011 382.303 57.2915 381.586V380.813C56.8211 380.667 56.2835 380.589 55.7123 380.589C54.9395 380.589 54.2899 381.026 54.2899 381.653C54.2899 382.28 54.8499 382.661 55.5779 382.661ZM61.9078 383.4L59.4214 377.61H60.6198L62.423 382.112L64.1926 377.61H65.391L62.9494 383.4H61.9078ZM68.7171 382.549C69.3219 382.549 70.0275 382.28 70.3747 381.922L71.0691 382.639C70.5539 383.187 69.5459 383.535 68.7283 383.535C67.1155 383.535 65.7491 382.269 65.7491 380.488C65.7491 378.752 67.0371 377.475 68.6387 377.475C70.4083 377.475 71.4275 378.819 71.4275 380.891H66.8691C67.0147 381.855 67.7203 382.549 68.7171 382.549ZM68.6835 378.461C67.7875 378.461 67.0595 379.066 66.8803 380.007H70.3523C70.2291 379.111 69.6803 378.461 68.6835 378.461ZM75.3671 382.549C75.9719 382.549 76.6775 382.28 77.0247 381.922L77.7191 382.639C77.2039 383.187 76.1959 383.535 75.3783 383.535C73.7655 383.535 72.3991 382.269 72.3991 380.488C72.3991 378.752 73.6871 377.475 75.2887 377.475C77.0583 377.475 78.0775 378.819 78.0775 380.891H73.5191C73.6647 381.855 74.3703 382.549 75.3671 382.549ZM75.3335 378.461C74.4375 378.461 73.7095 379.066 73.5303 380.007H77.0023C76.8791 379.111 76.3303 378.461 75.3335 378.461ZM82.0731 382.359L82.4763 383.12C82.1627 383.378 81.7371 383.535 81.3227 383.535C80.4267 383.535 79.7995 382.885 79.7995 381.955V378.551H78.9259V377.61H79.7995V376.019H80.8859V377.61H82.2523V378.551H80.8859V381.877C80.8859 382.28 81.1547 382.571 81.4795 382.571C81.7259 382.571 81.9499 382.482 82.0731 382.359ZM86.3168 382.359L86.72 383.12C86.4064 383.378 85.9808 383.535 85.5664 383.535C84.6704 383.535 84.0432 382.885 84.0432 381.955V378.551H83.1696V377.61H84.0432V376.019H85.1296V377.61H86.496V378.551H85.1296V381.877C85.1296 382.28 85.3984 382.571 85.7232 382.571C85.9696 382.571 86.1936 382.482 86.3168 382.359ZM88.399 376.647C88.0182 376.647 87.727 376.333 87.727 375.975C87.727 375.627 88.0182 375.314 88.399 375.314C88.7574 375.314 89.0598 375.627 89.0598 375.975C89.0598 376.333 88.7574 376.647 88.399 376.647ZM87.839 383.4V377.61H88.9478V383.4H87.839ZM90.5517 383.4V375.571H91.6493V383.4H90.5517ZM33.6152 394.706L30.7144 398.547L33.6152 402.4H32.2376L30.02 399.455L27.8024 402.4H26.4472L29.348 398.559L26.4472 394.706H27.8136L30.0312 397.651L32.26 394.706H33.6152ZM41.4793 394.706L38.5785 398.547L41.4793 402.4H40.1017L37.8841 399.455L35.6665 402.4H34.3113L37.2121 398.559L34.3113 394.706H35.6777L37.8953 397.651L40.1241 394.706H41.4793ZM49.3434 394.706L46.4426 398.547L49.3434 402.4H47.9658L45.7482 399.455L43.5306 402.4H42.1754L45.0762 398.559L42.1754 394.706H43.5418L45.7594 397.651L47.9882 394.706H49.3434ZM57.2074 394.706L54.3066 398.547L57.2074 402.4H55.8298L53.6122 399.455L51.3946 402.4H50.0394L52.9402 398.559L50.0394 394.706H51.4058L53.6234 397.651L55.8522 394.706H57.2074ZM65.0715 394.706L62.1707 398.547L65.0715 402.4H63.6939L61.4763 399.455L59.2587 402.4H57.9035L60.8043 398.559L57.9035 394.706H59.2699L61.4875 397.651L63.7163 394.706H65.0715ZM72.9355 394.706L70.0347 398.547L72.9355 402.4H71.5579L69.3403 399.455L67.1227 402.4H65.7675L68.6683 398.559L65.7675 394.706H67.1339L69.3515 397.651L71.5803 394.706H72.9355ZM80.7996 394.706L77.8988 398.547L80.7996 402.4H79.422L77.2044 399.455L74.9868 402.4H73.6316L76.5324 398.559L73.6316 394.706H74.998L77.2156 397.651L79.4444 394.706H80.7996ZM91.8684 394.706L88.9676 398.547L91.8684 402.4H90.4908L88.2732 399.455L86.0556 402.4H84.7004L87.6012 398.559L84.7004 394.706H86.0668L88.2844 397.651L90.5132 394.706H91.8684ZM99.7324 394.706L96.8316 398.547L99.7324 402.4H98.3548L96.1372 399.455L93.9196 402.4H92.5644L95.4652 398.559L92.5644 394.706H93.9308L96.1484 397.651L98.3772 394.706H99.7324ZM107.596 394.706L104.696 398.547L107.596 402.4H106.219L104.001 399.455L101.784 402.4H100.428L103.329 398.559L100.428 394.706H101.795L104.012 397.651L106.241 394.706H107.596ZM115.461 394.706L112.56 398.547L115.461 402.4H114.083L111.865 399.455L109.648 402.4H108.293L111.193 398.559L108.293 394.706H109.659L111.877 397.651L114.105 394.706H115.461ZM126.529 394.706L123.628 398.547L126.529 402.4H125.152L122.934 399.455L120.716 402.4H119.361L122.262 398.559L119.361 394.706H120.728L122.945 397.651L125.174 394.706H126.529ZM134.393 394.706L131.493 398.547L134.393 402.4H133.016L130.798 399.455L128.581 402.4H127.225L130.126 398.559L127.225 394.706H128.592L130.809 397.651L133.038 394.706H134.393ZM33.6152 413.706L30.7144 417.547L33.6152 421.4H32.2376L30.02 418.455L27.8024 421.4H26.4472L29.348 417.559L26.4472 413.706H27.8136L30.0312 416.651L32.26 413.706H33.6152ZM41.4793 413.706L38.5785 417.547L41.4793 421.4H40.1017L37.8841 418.455L35.6665 421.4H34.3113L37.2121 417.559L34.3113 413.706H35.6777L37.8953 416.651L40.1241 413.706H41.4793ZM49.3434 413.706L46.4426 417.547L49.3434 421.4H47.9658L45.7482 418.455L43.5306 421.4H42.1754L45.0762 417.559L42.1754 413.706H43.5418L45.7594 416.651L47.9882 413.706H49.3434ZM57.2074 413.706L54.3066 417.547L57.2074 421.4H55.8298L53.6122 418.455L51.3946 421.4H50.0394L52.9402 417.559L50.0394 413.706H51.4058L53.6234 416.651L55.8522 413.706H57.2074ZM65.0715 413.706L62.1707 417.547L65.0715 421.4H63.6939L61.4763 418.455L59.2587 421.4H57.9035L60.8043 417.559L57.9035 413.706H59.2699L61.4875 416.651L63.7163 413.706H65.0715ZM72.9355 413.706L70.0347 417.547L72.9355 421.4H71.5579L69.3403 418.455L67.1227 421.4H65.7675L68.6683 417.559L65.7675 413.706H67.1339L69.3515 416.651L71.5803 413.706H72.9355ZM80.7996 413.706L77.8988 417.547L80.7996 421.4H79.422L77.2044 418.455L74.9868 421.4H73.6316L76.5324 417.559L73.6316 413.706H74.998L77.2156 416.651L79.4444 413.706H80.7996ZM91.8684 413.706L88.9676 417.547L91.8684 421.4H90.4908L88.2732 418.455L86.0556 421.4H84.7004L87.6012 417.559L84.7004 413.706H86.0668L88.2844 416.651L90.5132 413.706H91.8684ZM99.7324 413.706L96.8316 417.547L99.7324 421.4H98.3548L96.1372 418.455L93.9196 421.4H92.5644L95.4652 417.559L92.5644 413.706H93.9308L96.1484 416.651L98.3772 413.706H99.7324ZM107.596 413.706L104.696 417.547L107.596 421.4H106.219L104.001 418.455L101.784 421.4H100.428L103.329 417.559L100.428 413.706H101.795L104.012 416.651L106.241 413.706H107.596ZM115.461 413.706L112.56 417.547L115.461 421.4H114.083L111.865 418.455L109.648 421.4H108.293L111.193 417.559L108.293 413.706H109.659L111.877 416.651L114.105 413.706H115.461ZM123.325 413.706L120.424 417.547L123.325 421.4H121.947L119.729 418.455L117.512 421.4H116.157L119.057 417.559L116.157 413.706H117.523L119.741 416.651L121.969 413.706H123.325Z" fill="#222222"/>
<path d="M16.5896 342.6L13.6968 333.806H15.1304L17.2936 340.514L19.4952 333.806H20.9288L23.1304 340.514L25.2936 333.806H26.7272L23.8344 342.6H22.5416L20.2248 335.598L17.8824 342.6H16.5896ZM30.4951 342.754C28.6007 342.754 27.0007 341.166 27.0007 339.285C27.0007 337.403 28.6007 335.829 30.4951 335.829C32.3767 335.829 33.9639 337.403 33.9639 339.285C33.9639 341.166 32.3767 342.754 30.4951 342.754ZM30.4951 341.653C31.6855 341.653 32.6967 340.578 32.6967 339.285C32.6967 338.005 31.6855 336.93 30.4951 336.93C29.2791 336.93 28.2679 338.005 28.2679 339.285C28.2679 340.578 29.2791 341.653 30.4951 341.653ZM36.7778 337.25C37.2002 336.379 38.0962 335.829 39.2354 335.829V336.93C37.8658 336.93 36.893 337.685 36.7778 338.837V342.6H35.5106V335.982H36.7778V337.25ZM46.4876 335.982L43.6332 338.978L46.3596 342.6H44.8492L42.7756 339.822L41.7132 340.898V342.6H40.4588V333.653H41.7132V339.362L44.9516 335.982H46.4876ZM53.9743 335.829C55.7535 335.829 56.7391 336.955 56.7391 338.594V342.6H55.4975V341.691C55.0111 342.382 54.1023 342.754 53.2959 342.754C51.8879 342.754 50.8511 341.934 50.8511 340.642C50.8511 339.323 52.0415 338.44 53.5007 338.44C54.1535 338.44 54.8575 338.581 55.4975 338.798V338.594C55.4975 337.762 55.1135 336.878 53.7951 336.878C53.1423 336.878 52.5023 337.134 51.9263 337.429L51.4655 336.494C52.4127 336.021 53.2447 335.829 53.9743 335.829ZM53.5391 341.755C54.3583 341.755 55.2799 341.346 55.4975 340.526V339.643C54.9599 339.477 54.3455 339.387 53.6927 339.387C52.8095 339.387 52.0671 339.886 52.0671 340.603C52.0671 341.32 52.7071 341.755 53.5391 341.755ZM63.6661 333.653H64.9205V342.6H63.6661V341.448C63.1541 342.267 62.3349 342.754 61.3109 342.754C59.5701 342.754 58.2645 341.32 58.2645 339.285C58.2645 337.262 59.5701 335.829 61.3109 335.829C62.3349 335.829 63.1541 336.315 63.6661 337.122V333.653ZM61.6181 341.653C62.8085 341.653 63.6661 340.667 63.6661 339.285C63.6661 337.902 62.8085 336.93 61.6181 336.93C60.4021 336.93 59.5445 337.902 59.5445 339.285C59.5445 340.667 60.4021 341.653 61.6181 341.653ZM71.9161 333.653H73.1705V342.6H71.9161V341.448C71.4041 342.267 70.5849 342.754 69.5609 342.754C67.8201 342.754 66.5145 341.32 66.5145 339.285C66.5145 337.262 67.8201 335.829 69.5609 335.829C70.5849 335.829 71.4041 336.315 71.9161 337.122V333.653ZM69.8681 341.653C71.0585 341.653 71.9161 340.667 71.9161 339.285C71.9161 337.902 71.0585 336.93 69.8681 336.93C68.6521 336.93 67.7945 337.902 67.7945 339.285C67.7945 340.667 68.6521 341.653 69.8681 341.653ZM76.4029 337.25C76.8253 336.379 77.7213 335.829 78.8605 335.829V336.93C77.4909 336.93 76.5181 337.685 76.4029 338.837V342.6H75.1357V335.982H76.4029V337.25ZM83.1302 341.627C83.8214 341.627 84.6278 341.32 85.0246 340.91L85.8182 341.73C85.2294 342.357 84.0774 342.754 83.143 342.754C81.2998 342.754 79.7382 341.307 79.7382 339.272C79.7382 337.288 81.2102 335.829 83.0406 335.829C85.063 335.829 86.2278 337.365 86.2278 339.733H81.0182C81.1846 340.834 81.991 341.627 83.1302 341.627ZM83.0918 336.955C82.0678 336.955 81.2358 337.646 81.031 338.722H84.999C84.8582 337.698 84.231 336.955 83.0918 336.955ZM90.0902 342.754C89.1174 342.754 88.055 342.408 87.2614 341.768L87.863 340.859C88.567 341.371 89.3222 341.666 90.103 341.666C90.8454 341.666 91.3574 341.32 91.3574 340.808C91.3574 340.194 90.679 340.002 89.8598 339.771C88.3366 339.349 87.5814 338.914 87.5814 337.838C87.5686 336.622 88.5798 335.829 89.9878 335.829C90.8454 335.829 91.7158 336.123 92.4326 336.597L91.8694 337.531C91.2294 337.134 90.5638 336.917 89.9878 336.917C89.335 336.917 88.823 337.198 88.823 337.698C88.823 338.21 89.2326 338.363 90.3462 338.709C91.4342 339.029 92.599 339.387 92.599 340.706C92.599 341.96 91.5366 342.754 90.0902 342.754ZM96.4652 342.754C95.4924 342.754 94.43 342.408 93.6364 341.768L94.238 340.859C94.942 341.371 95.6972 341.666 96.478 341.666C97.2204 341.666 97.7324 341.32 97.7324 340.808C97.7324 340.194 97.054 340.002 96.2348 339.771C94.7116 339.349 93.9564 338.914 93.9564 337.838C93.9436 336.622 94.9548 335.829 96.3628 335.829C97.2204 335.829 98.0908 336.123 98.8076 336.597L98.2444 337.531C97.6044 337.134 96.9388 336.917 96.3628 336.917C95.71 336.917 95.198 337.198 95.198 337.698C95.198 338.21 95.6076 338.363 96.7212 338.709C97.8092 339.029 98.974 339.387 98.974 340.706C98.974 341.96 97.9116 342.754 96.4652 342.754Z" fill="#222222" fill-opacity="0.8"/>
<rect x="13.7" y="176.4" width="273.6" height="44" rx="6" fill="#F9F9F9" stroke="#E8ECF4" stroke-width="0.8"/>
<path d="M32.2712 193.506H33.4024V201.2H32.2712V197.806H28.0712V201.2H26.94V193.506H28.0712V196.754H32.2712V193.506ZM37.4743 195.275C39.0311 195.275 39.8935 196.261 39.8935 197.694V201.2H38.8071V200.405C38.3815 201.01 37.5863 201.334 36.8807 201.334C35.6487 201.334 34.7415 200.618 34.7415 199.486C34.7415 198.333 35.7831 197.56 37.0599 197.56C37.6311 197.56 38.2471 197.683 38.8071 197.874V197.694C38.8071 196.966 38.4711 196.194 37.3175 196.194C36.7463 196.194 36.1863 196.418 35.6823 196.675L35.2791 195.858C36.1079 195.443 36.8359 195.275 37.4743 195.275ZM37.0935 200.461C37.8103 200.461 38.6167 200.102 38.8071 199.386V198.613C38.3367 198.467 37.7991 198.389 37.2279 198.389C36.4551 198.389 35.8055 198.826 35.8055 199.453C35.8055 200.08 36.3655 200.461 37.0935 200.461ZM42.6619 196.518C43.0315 195.757 43.8155 195.275 44.8123 195.275V196.238C43.6139 196.238 42.7627 196.899 42.6619 197.907V201.2H41.5531V195.41H42.6619V196.518ZM46.4427 194.446C46.0619 194.446 45.7707 194.133 45.7707 193.774C45.7707 193.427 46.0619 193.114 46.4427 193.114C46.8011 193.114 47.1035 193.427 47.1035 193.774C47.1035 194.133 46.8011 194.446 46.4427 194.446ZM45.8827 201.2V195.41H46.9915V201.2H45.8827Z" fill="#222222"/>
<path d="M14.4136 163.4V154.606H15.7064L20.7624 161.275V154.606H22.0552V163.4H20.7624L15.7064 156.731V163.4H14.4136ZM26.8742 156.629C28.6534 156.629 29.639 157.755 29.639 159.394V163.4H28.3974V162.491C27.911 163.182 27.0022 163.554 26.1958 163.554C24.7878 163.554 23.751 162.734 23.751 161.442C23.751 160.123 24.9414 159.24 26.4006 159.24C27.0534 159.24 27.7574 159.381 28.3974 159.598V159.394C28.3974 158.562 28.0134 157.678 26.695 157.678C26.0422 157.678 25.4022 157.934 24.8262 158.229L24.3654 157.294C25.3126 156.821 26.1446 156.629 26.8742 156.629ZM26.439 162.555C27.2582 162.555 28.1798 162.146 28.3974 161.326V160.443C27.8598 160.277 27.2454 160.187 26.5926 160.187C25.7094 160.187 24.967 160.686 24.967 161.403C24.967 162.12 25.607 162.555 26.439 162.555ZM38.87 156.629C40.2524 156.629 41.2508 157.691 41.2508 159.189V163.4H40.0092V159.381C40.0092 158.408 39.4332 157.73 38.6012 157.73C37.654 157.73 36.9884 158.357 36.9884 159.266V163.4H35.7468V159.381C35.7468 158.408 35.1708 157.73 34.3388 157.73C33.3916 157.73 32.726 158.357 32.726 159.266V163.4H31.4588V156.782H32.726V157.704C33.0588 157.051 33.75 156.629 34.5948 156.629C35.5548 156.629 36.3356 157.141 36.7196 157.96C37.0268 157.141 37.8716 156.629 38.87 156.629ZM46.1052 162.427C46.7964 162.427 47.6028 162.12 47.9996 161.71L48.7932 162.53C48.2044 163.157 47.0524 163.554 46.118 163.554C44.2748 163.554 42.7132 162.107 42.7132 160.072C42.7132 158.088 44.1852 156.629 46.0156 156.629C48.038 156.629 49.2028 158.165 49.2028 160.533H43.9932C44.1596 161.634 44.966 162.427 46.1052 162.427ZM46.0668 157.755C45.0428 157.755 44.2108 158.446 44.006 159.522H47.974C47.8332 158.498 47.206 157.755 46.0668 157.755Z" fill="#222222" fill-opacity="0.8"/>
<path d="M16.5896 550.3L13.6968 541.507H15.1304L17.2936 548.214L19.4952 541.507H20.9288L23.1304 548.214L25.2936 541.507H26.7272L23.8344 550.3H22.5416L20.2248 543.299L17.8824 550.3H16.5896ZM30.4951 550.454C28.6007 550.454 27.0007 548.867 27.0007 546.985C27.0007 545.103 28.6007 543.529 30.4951 543.529C32.3767 543.529 33.9639 545.103 33.9639 546.985C33.9639 548.867 32.3767 550.454 30.4951 550.454ZM30.4951 549.353C31.6855 549.353 32.6967 548.278 32.6967 546.985C32.6967 545.705 31.6855 544.63 30.4951 544.63C29.2791 544.63 28.2679 545.705 28.2679 546.985C28.2679 548.278 29.2791 549.353 30.4951 549.353ZM36.7778 544.95C37.2002 544.079 38.0962 543.529 39.2354 543.529V544.63C37.8658 544.63 36.893 545.385 36.7778 546.537V550.3H35.5106V543.683H36.7778V544.95ZM46.4876 543.683L43.6332 546.678L46.3596 550.3H44.8492L42.7756 547.523L41.7132 548.598V550.3H40.4588V541.353H41.7132V547.062L44.9516 543.683H46.4876ZM53.5903 550.454C52.6175 550.454 51.5551 550.108 50.7615 549.468L51.3631 548.559C52.0671 549.071 52.8223 549.366 53.6031 549.366C54.3455 549.366 54.8575 549.02 54.8575 548.508C54.8575 547.894 54.1791 547.702 53.3599 547.471C51.8367 547.049 51.0815 546.614 51.0815 545.539C51.0687 544.323 52.0799 543.529 53.4879 543.529C54.3455 543.529 55.2159 543.823 55.9327 544.297L55.3695 545.231C54.7295 544.835 54.0639 544.617 53.4879 544.617C52.8351 544.617 52.3231 544.899 52.3231 545.398C52.3231 545.91 52.7327 546.063 53.8463 546.409C54.9343 546.729 56.0991 547.087 56.0991 548.406C56.0991 549.66 55.0367 550.454 53.5903 550.454ZM58.1989 542.582C57.7637 542.582 57.4309 542.223 57.4309 541.814C57.4309 541.417 57.7637 541.059 58.1989 541.059C58.6085 541.059 58.9541 541.417 58.9541 541.814C58.9541 542.223 58.6085 542.582 58.1989 542.582ZM57.5589 550.3V543.683H58.8261V550.3H57.5589ZM63.7567 549.11L64.2175 549.98C63.8591 550.275 63.3727 550.454 62.8991 550.454C61.8751 550.454 61.1583 549.711 61.1583 548.649V544.758H60.1599V543.683H61.1583V541.865H62.3999V543.683H63.9615V544.758H62.3999V548.559C62.3999 549.02 62.7071 549.353 63.0783 549.353C63.3599 549.353 63.6159 549.251 63.7567 549.11ZM68.5428 549.327C69.234 549.327 70.0404 549.02 70.4372 548.611L71.2308 549.43C70.642 550.057 69.49 550.454 68.5556 550.454C66.7124 550.454 65.1508 549.007 65.1508 546.972C65.1508 544.988 66.6228 543.529 68.4532 543.529C70.4756 543.529 71.6404 545.065 71.6404 547.433H66.4308C66.5972 548.534 67.4036 549.327 68.5428 549.327ZM68.5044 544.655C67.4804 544.655 66.6484 545.347 66.4436 546.422H70.4116C70.2708 545.398 69.6436 544.655 68.5044 544.655ZM80.4452 543.529C82.186 543.529 83.4916 544.963 83.4916 546.985C83.4916 549.02 82.186 550.454 80.4452 550.454C79.4212 550.454 78.602 549.967 78.09 549.148V552.502H76.8356V543.683H78.09V544.822C78.602 544.015 79.4212 543.529 80.4452 543.529ZM80.138 549.353C81.354 549.353 82.2116 548.367 82.2116 546.985C82.2116 545.603 81.354 544.63 80.138 544.63C78.9476 544.63 78.09 545.603 78.09 546.985C78.09 548.367 78.9476 549.353 80.138 549.353ZM88.3881 543.529C89.8473 543.529 90.8713 544.591 90.8713 546.089V550.3H89.6297V546.307C89.6297 545.321 89.0025 544.63 88.1065 544.63C87.1081 544.63 86.2761 545.334 86.2761 546.191V550.3H85.0217V541.353H86.2761V544.668C86.6729 544.003 87.4793 543.529 88.3881 543.529ZM95.8202 550.454C93.9258 550.454 92.3258 548.867 92.3258 546.985C92.3258 545.103 93.9258 543.529 95.8202 543.529C97.7018 543.529 99.289 545.103 99.289 546.985C99.289 548.867 97.7018 550.454 95.8202 550.454ZM95.8202 549.353C97.0106 549.353 98.0218 548.278 98.0218 546.985C98.0218 545.705 97.0106 544.63 95.8202 544.63C94.6042 544.63 93.593 545.705 93.593 546.985C93.593 548.278 94.6042 549.353 95.8202 549.353ZM103.869 549.11L104.33 549.98C103.972 550.275 103.485 550.454 103.012 550.454C101.988 550.454 101.271 549.711 101.271 548.649V544.758H100.272V543.683H101.271V541.865H102.512V543.683H104.074V544.758H102.512V548.559C102.512 549.02 102.82 549.353 103.191 549.353C103.472 549.353 103.728 549.251 103.869 549.11ZM108.758 550.454C106.863 550.454 105.263 548.867 105.263 546.985C105.263 545.103 106.863 543.529 108.758 543.529C110.639 543.529 112.226 545.103 112.226 546.985C112.226 548.867 110.639 550.454 108.758 550.454ZM108.758 549.353C109.948 549.353 110.959 548.278 110.959 546.985C110.959 545.705 109.948 544.63 108.758 544.63C107.542 544.63 106.53 545.705 106.53 546.985C106.53 548.278 107.542 549.353 108.758 549.353ZM116.103 550.454C115.13 550.454 114.068 550.108 113.274 549.468L113.876 548.559C114.58 549.071 115.335 549.366 116.116 549.366C116.858 549.366 117.37 549.02 117.37 548.508C117.37 547.894 116.692 547.702 115.872 547.471C114.349 547.049 113.594 546.614 113.594 545.539C113.581 544.323 114.592 543.529 116 543.529C116.858 543.529 117.728 543.823 118.445 544.297L117.882 545.231C117.242 544.835 116.576 544.617 116 544.617C115.348 544.617 114.836 544.899 114.836 545.398C114.836 545.91 115.245 546.063 116.359 546.409C117.447 546.729 118.612 547.087 118.612 548.406C118.612 549.66 117.549 550.454 116.103 550.454ZM21.4408 569.916L20.3272 570.428C19.9304 570.031 19.572 569.66 19.252 569.327C18.5224 570.031 17.6648 570.454 16.6024 570.454C14.9896 570.454 13.7736 569.507 13.7736 567.945C13.7736 566.806 14.388 566.012 15.7448 565.411C15.2456 564.719 15.0408 564.169 15.0408 563.516C15.0408 562.339 16.0264 561.404 17.3704 561.404C18.6248 561.404 19.572 562.339 19.572 563.503C19.572 564.604 18.7784 565.142 17.4728 565.705C17.9976 566.307 18.548 566.921 19.2648 567.663C19.636 567.126 19.956 566.499 20.212 565.82L21.2232 566.281C20.852 567.087 20.4552 567.817 20.0072 568.444L21.4408 569.916ZM17.3704 562.415C16.7176 562.415 16.2184 562.838 16.2184 563.516C16.2184 563.964 16.4232 564.412 16.8584 564.975C17.9464 564.54 18.3944 564.195 18.3944 563.516C18.3944 562.902 17.972 562.415 17.3704 562.415ZM16.7048 569.404C17.3576 569.404 17.972 569.084 18.5224 568.572C17.5496 567.561 16.8968 566.844 16.3464 566.179C15.5016 566.614 15.028 567.164 15.028 567.894C15.028 568.841 15.796 569.404 16.7048 569.404ZM29.6838 570.441C28.2118 570.441 26.9958 569.929 26.0614 569.033L26.8422 568.073C27.623 568.815 28.5446 569.302 29.735 569.302C30.951 569.302 31.5782 568.662 31.5782 567.958C31.5782 567.126 30.8486 566.806 29.3766 566.473C27.5846 566.051 26.3942 565.513 26.3942 563.926C26.3942 562.454 27.6742 561.34 29.4406 561.34C30.7974 561.34 31.8086 561.839 32.6534 562.582L31.911 563.555C31.1686 562.876 30.2854 562.479 29.3894 562.479C28.4038 562.479 27.7126 563.107 27.7126 563.811C27.7126 564.63 28.4678 564.911 29.9142 565.257C31.6678 565.667 32.8839 566.255 32.8839 567.83C32.8839 569.315 31.7574 570.441 29.6838 570.441ZM35.0613 562.582C34.6261 562.582 34.2933 562.223 34.2933 561.814C34.2933 561.417 34.6261 561.059 35.0613 561.059C35.4709 561.059 35.8165 561.417 35.8165 561.814C35.8165 562.223 35.4709 562.582 35.0613 562.582ZM34.4213 570.3V563.683H35.6885V570.3H34.4213ZM40.6193 569.11L41.0801 569.98C40.7217 570.275 40.2353 570.454 39.7617 570.454C38.7377 570.454 38.0209 569.711 38.0209 568.649V564.758H37.0224V563.683H38.0209V561.865H39.2625V563.683H40.8241V564.758H39.2625V568.559C39.2625 569.02 39.5697 569.353 39.9409 569.353C40.2225 569.353 40.4785 569.251 40.6193 569.11ZM45.4052 569.327C46.0964 569.327 46.9028 569.02 47.2996 568.611L48.0932 569.43C47.5044 570.057 46.3524 570.454 45.418 570.454C43.5748 570.454 42.0132 569.007 42.0132 566.972C42.0132 564.988 43.4852 563.529 45.3156 563.529C47.338 563.529 48.5028 565.065 48.5028 567.433H43.2932C43.4596 568.534 44.266 569.327 45.4052 569.327ZM45.3668 564.655C44.3428 564.655 43.5108 565.347 43.306 566.422H47.274C47.1332 565.398 46.506 564.655 45.3668 564.655ZM56.0277 570.454C55.0549 570.454 53.9925 570.108 53.1989 569.468L53.8005 568.559C54.5045 569.071 55.2597 569.366 56.0405 569.366C56.7829 569.366 57.2949 569.02 57.2949 568.508C57.2949 567.894 56.6165 567.702 55.7973 567.471C54.2741 567.049 53.5189 566.614 53.5189 565.539C53.5061 564.323 54.5173 563.529 55.9253 563.529C56.7829 563.529 57.6533 563.823 58.3701 564.297L57.8069 565.231C57.1669 564.835 56.5013 564.617 55.9253 564.617C55.2725 564.617 54.7605 564.899 54.7605 565.398C54.7605 565.91 55.1701 566.063 56.2837 566.409C57.3717 566.729 58.5365 567.087 58.5365 568.406C58.5365 569.66 57.4741 570.454 56.0277 570.454ZM66.0251 563.683L63.1707 566.678L65.8971 570.3H64.3867L62.3131 567.523L61.2507 568.598V570.3H59.9963V561.353H61.2507V567.062L64.4891 563.683H66.0251ZM70.1052 569.327C70.7964 569.327 71.6028 569.02 71.9996 568.611L72.7932 569.43C72.2044 570.057 71.0524 570.454 70.118 570.454C68.2748 570.454 66.7132 569.007 66.7132 566.972C66.7132 564.988 68.1852 563.529 70.0156 563.529C72.038 563.529 73.2028 565.065 73.2028 567.433H67.9932C68.1596 568.534 68.966 569.327 70.1052 569.327ZM70.0668 564.655C69.0428 564.655 68.2108 565.347 68.006 566.422H71.974C71.8332 565.398 71.206 564.655 70.0668 564.655ZM77.7692 569.11L78.23 569.98C77.8716 570.275 77.3852 570.454 76.9116 570.454C75.8876 570.454 75.1708 569.711 75.1708 568.649V564.758H74.1724V563.683H75.1708V561.865H76.4124V563.683H77.974V564.758H76.4124V568.559C76.4124 569.02 76.7196 569.353 77.0908 569.353C77.3724 569.353 77.6284 569.251 77.7692 569.11ZM82.6449 570.454C80.7633 570.454 79.1633 568.867 79.1633 566.985C79.1633 565.103 80.7633 563.529 82.6577 563.529C83.6049 563.529 84.4625 563.926 85.0897 564.553L84.2321 565.347C83.8353 564.899 83.2593 564.63 82.6449 564.63C81.4417 564.63 80.4433 565.705 80.4433 566.985C80.4433 568.278 81.4417 569.353 82.6577 569.353C83.2721 569.353 83.8609 569.071 84.2705 568.611L85.1281 569.391C84.4881 570.044 83.6305 570.454 82.6449 570.454ZM89.8505 563.529C91.3097 563.529 92.3337 564.591 92.3337 566.089V570.3H91.0921V566.307C91.0921 565.321 90.4649 564.63 89.5689 564.63C88.5705 564.63 87.7385 565.334 87.7385 566.191V570.3H86.4841V561.353H87.7385V564.668C88.1353 564.003 88.9417 563.529 89.8505 563.529ZM97.1803 569.327C97.8715 569.327 98.6779 569.02 99.0747 568.611L99.8683 569.43C99.2795 570.057 98.1275 570.454 97.1931 570.454C95.3499 570.454 93.7883 569.007 93.7883 566.972C93.7883 564.988 95.2603 563.529 97.0907 563.529C99.1131 563.529 100.278 565.065 100.278 567.433H95.0683C95.2347 568.534 96.0411 569.327 97.1803 569.327ZM97.1419 564.655C96.1179 564.655 95.2859 565.347 95.0811 566.422H99.0491C98.9083 565.398 98.2811 564.655 97.1419 564.655ZM104.14 570.454C103.167 570.454 102.105 570.108 101.311 569.468L101.913 568.559C102.617 569.071 103.372 569.366 104.153 569.366C104.895 569.366 105.407 569.02 105.407 568.508C105.407 567.894 104.729 567.702 103.91 567.471C102.387 567.049 101.631 566.614 101.631 565.539C101.619 564.323 102.63 563.529 104.038 563.529C104.895 563.529 105.766 563.823 106.483 564.297L105.919 565.231C105.279 564.835 104.614 564.617 104.038 564.617C103.385 564.617 102.873 564.899 102.873 565.398C102.873 565.91 103.283 566.063 104.396 566.409C105.484 566.729 106.649 567.087 106.649 568.406C106.649 569.66 105.587 570.454 104.14 570.454Z" fill="#222222" fill-opacity="0.8"/>
<g filter="url(#filter0_d_601_6059)">
<rect x="132.1" y="523.2" width="129.6" height="67.2" rx="12.8" fill="#FFFBFB"/>
<circle cx="165.7" cy="556.8" r="20.8" fill="#2BCBBA"/>
<g clip-path="url(#clip1_601_6059)">
<path d="M165.7 559.574C167.232 559.574 168.473 558.332 168.473 556.8C168.473 555.269 167.232 554.027 165.7 554.027C164.168 554.027 162.927 555.269 162.927 556.8C162.927 558.332 164.168 559.574 165.7 559.574Z" fill="#FFFBFB"/>
<path d="M163.1 548.134L161.514 549.867H158.767C157.813 549.867 157.033 550.647 157.033 551.6V562C157.033 562.954 157.813 563.734 158.767 563.734H172.633C173.587 563.734 174.367 562.954 174.367 562V551.6C174.367 550.647 173.587 549.867 172.633 549.867H169.886L168.3 548.134H163.1ZM165.7 561.134C163.308 561.134 161.367 559.192 161.367 556.8C161.367 554.408 163.308 552.467 165.7 552.467C168.092 552.467 170.033 554.408 170.033 556.8C170.033 559.192 168.092 561.134 165.7 561.134Z" fill="#FFFBFB"/>
</g>
<path d="M196.788 559.415C194.935 559.415 193.361 557.851 193.361 555.998C193.361 554.145 194.935 552.59 196.788 552.59C197.729 552.59 198.593 552.983 199.217 553.627L198.535 554.279C198.094 553.799 197.47 553.483 196.788 553.483C195.473 553.483 194.359 554.635 194.359 555.998C194.359 557.371 195.473 558.523 196.788 558.523C197.47 558.523 198.094 558.206 198.535 557.726L199.217 558.379C198.593 559.012 197.729 559.415 196.788 559.415ZM200.163 559.3V552.59H201.104V559.3H200.163ZM202.958 553.511C202.632 553.511 202.382 553.243 202.382 552.935C202.382 552.638 202.632 552.369 202.958 552.369C203.266 552.369 203.525 552.638 203.525 552.935C203.525 553.243 203.266 553.511 202.958 553.511ZM202.478 559.3V554.337H203.429V559.3H202.478ZM207.146 559.415C205.735 559.415 204.535 558.225 204.535 556.814C204.535 555.403 205.735 554.222 207.156 554.222C207.866 554.222 208.509 554.519 208.98 554.99L208.337 555.585C208.039 555.249 207.607 555.047 207.146 555.047C206.244 555.047 205.495 555.854 205.495 556.814C205.495 557.783 206.244 558.59 207.156 558.59C207.617 558.59 208.058 558.379 208.365 558.033L209.009 558.619C208.529 559.108 207.885 559.415 207.146 559.415ZM214.538 554.337L212.397 556.583L214.442 559.3H213.309L211.754 557.217L210.957 558.023V559.3H210.016V552.59H210.957V556.871L213.386 554.337H214.538ZM220.393 558.407L220.738 559.06C220.469 559.281 220.105 559.415 219.749 559.415C218.981 559.415 218.444 558.859 218.444 558.062V555.143H217.695V554.337H218.444V552.974H219.375V554.337H220.546V555.143H219.375V557.995C219.375 558.34 219.605 558.59 219.884 558.59C220.095 558.59 220.287 558.513 220.393 558.407ZM224.059 559.415C222.638 559.415 221.438 558.225 221.438 556.814C221.438 555.403 222.638 554.222 224.059 554.222C225.47 554.222 226.66 555.403 226.66 556.814C226.66 558.225 225.47 559.415 224.059 559.415ZM224.059 558.59C224.952 558.59 225.71 557.783 225.71 556.814C225.71 555.854 224.952 555.047 224.059 555.047C223.147 555.047 222.388 555.854 222.388 556.814C222.388 557.783 223.147 558.59 224.059 558.59ZM232.603 554.222C233.937 554.222 234.676 555.067 234.676 556.295V559.3H233.745V558.619C233.38 559.137 232.699 559.415 232.094 559.415C231.038 559.415 230.26 558.801 230.26 557.831C230.26 556.843 231.153 556.18 232.247 556.18C232.737 556.18 233.265 556.286 233.745 556.449V556.295C233.745 555.671 233.457 555.009 232.468 555.009C231.979 555.009 231.499 555.201 231.067 555.422L230.721 554.721C231.431 554.366 232.055 554.222 232.603 554.222ZM232.276 558.667C232.891 558.667 233.582 558.359 233.745 557.745V557.083C233.342 556.958 232.881 556.891 232.391 556.891C231.729 556.891 231.172 557.265 231.172 557.803C231.172 558.34 231.652 558.667 232.276 558.667ZM239.871 552.59H240.812V559.3H239.871V558.436C239.487 559.051 238.873 559.415 238.105 559.415C236.799 559.415 235.82 558.34 235.82 556.814C235.82 555.297 236.799 554.222 238.105 554.222C238.873 554.222 239.487 554.587 239.871 555.191V552.59ZM238.335 558.59C239.228 558.59 239.871 557.851 239.871 556.814C239.871 555.777 239.228 555.047 238.335 555.047C237.423 555.047 236.78 555.777 236.78 556.814C236.78 557.851 237.423 558.59 238.335 558.59ZM246.059 552.59H247V559.3H246.059V558.436C245.675 559.051 245.061 559.415 244.293 559.415C242.987 559.415 242.008 558.34 242.008 556.814C242.008 555.297 242.987 554.222 244.293 554.222C245.061 554.222 245.675 554.587 246.059 555.191V552.59ZM244.523 558.59C245.416 558.59 246.059 557.851 246.059 556.814C246.059 555.777 245.416 555.047 244.523 555.047C243.611 555.047 242.968 555.777 242.968 556.814C242.968 557.851 243.611 558.59 244.523 558.59Z" fill="#9B9B9B"/>
</g>
<g filter="url(#filter1_d_601_6059)">
</g>
<g filter="url(#filter2_d_601_6059)">
</g>
<g clip-path="url(#clip2_601_6059)">
<rect width="300" height="31.2" transform="translate(0.5 100)" fill="#F9F9F9"/>
<g clip-path="url(#clip3_601_6059)">
<rect width="157.2" height="32" transform="translate(0.799988 100)" fill="#F9F9F9"/>
<path d="M27.7407 112.9V102.427H34.4498V104.018H29.6379V106.861H33.9896V108.451H29.6379V112.9H27.7407ZM36.0964 112.9V105.045H37.9475V112.9H36.0964ZM37.0271 103.931C36.7339 103.931 36.4816 103.833 36.2703 103.639C36.0589 103.441 35.9532 103.204 35.9532 102.928C35.9532 102.649 36.0589 102.412 36.2703 102.218C36.4816 102.02 36.7339 101.921 37.0271 101.921C37.3237 101.921 37.576 102.02 37.7839 102.218C37.9953 102.412 38.101 102.649 38.101 102.928C38.101 103.204 37.9953 103.441 37.7839 103.639C37.576 103.833 37.3237 103.931 37.0271 103.931ZM41.7022 102.427V112.9H39.8511V102.427H41.7022ZM45.4569 102.427V112.9H43.6058V102.427H45.4569ZM54.8545 105.045V106.477H50.3392V105.045H54.8545ZM51.4539 103.164H53.3051V110.537C53.3051 110.786 53.3426 110.977 53.4176 111.11C53.496 111.24 53.5983 111.328 53.7244 111.376C53.8505 111.424 53.9903 111.448 54.1437 111.448C54.2596 111.448 54.3653 111.439 54.4608 111.422C54.5596 111.405 54.6346 111.39 54.6858 111.376L54.9977 112.823C54.8988 112.857 54.7573 112.895 54.5733 112.936C54.3926 112.977 54.171 113 53.9085 113.007C53.4448 113.021 53.0272 112.951 52.6556 112.798C52.2841 112.641 51.9892 112.399 51.771 112.071C51.5562 111.744 51.4505 111.335 51.4539 110.844V103.164ZM59.7956 113.053C59.0081 113.053 58.3279 112.89 57.7552 112.562C57.1859 112.232 56.7478 111.765 56.441 111.161C56.1342 110.554 55.9808 109.84 55.9808 109.019C55.9808 108.211 56.1342 107.502 56.441 106.891C56.7512 106.278 57.1842 105.8 57.7399 105.46C58.2956 105.115 58.9484 104.943 59.6984 104.943C60.1825 104.943 60.6393 105.021 61.0689 105.178C61.5018 105.332 61.8836 105.57 62.2143 105.894C62.5484 106.218 62.8109 106.631 63.0018 107.132C63.1927 107.629 63.2882 108.223 63.2882 108.911V109.479H56.8501V108.231H61.5137C61.5103 107.877 61.4336 107.561 61.2836 107.285C61.1336 107.006 60.924 106.786 60.6547 106.625C60.3887 106.465 60.0785 106.385 59.724 106.385C59.3456 106.385 59.0132 106.477 58.7268 106.661C58.4404 106.842 58.2172 107.081 58.0569 107.377C57.9001 107.67 57.82 107.993 57.8166 108.344V109.433C57.8166 109.89 57.9001 110.282 58.0672 110.609C58.2342 110.933 58.4677 111.182 58.7677 111.356C59.0677 111.526 59.4189 111.611 59.8211 111.611C60.0904 111.611 60.3342 111.574 60.5524 111.499C60.7706 111.42 60.9598 111.306 61.12 111.156C61.2802 111.006 61.4012 110.82 61.4831 110.599L63.2115 110.793C63.1024 111.25 62.8944 111.649 62.5876 111.99C62.2842 112.327 61.8956 112.59 61.4217 112.777C60.9478 112.961 60.4058 113.053 59.7956 113.053ZM66.7054 108.298V112.9H64.8542V105.045H66.6235V106.38H66.7156C66.8963 105.94 67.1843 105.591 67.5798 105.332C67.9787 105.073 68.4713 104.943 69.0576 104.943C69.5997 104.943 70.0718 105.059 70.4741 105.291C70.8798 105.523 71.1934 105.858 71.415 106.298C71.64 106.738 71.7508 107.271 71.7474 107.899V112.9H69.8963V108.185C69.8963 107.66 69.7599 107.249 69.4872 106.953C69.2179 106.656 68.8446 106.508 68.3673 106.508C68.0434 106.508 67.7554 106.579 67.5031 106.723C67.2542 106.862 67.0582 107.065 66.915 107.331C66.7752 107.597 66.7054 107.919 66.7054 108.298ZM76.544 113.038C75.927 113.038 75.3747 112.879 74.8872 112.562C74.3997 112.245 74.0145 111.785 73.7315 111.182C73.4485 110.578 73.3071 109.845 73.3071 108.983C73.3071 108.11 73.4502 107.374 73.7366 106.774C74.0264 106.17 74.4167 105.715 74.9076 105.408C75.3985 105.098 75.9457 104.943 76.5491 104.943C77.0093 104.943 77.3877 105.021 77.6843 105.178C77.9809 105.332 78.2162 105.518 78.39 105.736C78.5639 105.95 78.6985 106.153 78.794 106.344H78.8707V102.427H80.727V112.9H78.9065V111.662H78.794C78.6985 111.853 78.5605 112.056 78.3798 112.271C78.1991 112.482 77.9605 112.663 77.6639 112.813C77.3673 112.963 76.994 113.038 76.544 113.038ZM77.0605 111.519C77.4525 111.519 77.7866 111.414 78.0627 111.202C78.3389 110.987 78.5485 110.689 78.6917 110.307C78.8349 109.925 78.9065 109.481 78.9065 108.973C78.9065 108.465 78.8349 108.023 78.6917 107.648C78.552 107.273 78.344 106.982 78.0679 106.774C77.7951 106.566 77.4593 106.462 77.0605 106.462C76.648 106.462 76.3037 106.569 76.0275 106.784C75.7514 106.999 75.5434 107.295 75.4037 107.674C75.2639 108.052 75.194 108.485 75.194 108.973C75.194 109.464 75.2639 109.902 75.4037 110.287C75.5468 110.669 75.7565 110.97 76.0326 111.192C76.3122 111.41 76.6548 111.519 77.0605 111.519ZM86.1768 113.053C85.3893 113.053 84.7092 112.89 84.1365 112.562C83.5672 112.232 83.1291 111.765 82.8223 111.161C82.5154 110.554 82.362 109.84 82.362 109.019C82.362 108.211 82.5154 107.502 82.8223 106.891C83.1325 106.278 83.5654 105.8 84.1211 105.46C84.6768 105.115 85.3297 104.943 86.0797 104.943C86.5637 104.943 87.0206 105.021 87.4501 105.178C87.8831 105.332 88.2649 105.57 88.5956 105.894C88.9297 106.218 89.1922 106.631 89.3831 107.132C89.574 107.629 89.6694 108.223 89.6694 108.911V109.479H83.2314V108.231H87.895C87.8916 107.877 87.8149 107.561 87.6649 107.285C87.5149 107.006 87.3052 106.786 87.0359 106.625C86.77 106.465 86.4598 106.385 86.1052 106.385C85.7268 106.385 85.3944 106.477 85.1081 106.661C84.8217 106.842 84.5984 107.081 84.4382 107.377C84.2814 107.67 84.2012 107.993 84.1978 108.344V109.433C84.1978 109.89 84.2814 110.282 84.4484 110.609C84.6154 110.933 84.849 111.182 85.149 111.356C85.449 111.526 85.8001 111.611 86.2024 111.611C86.4717 111.611 86.7154 111.574 86.9336 111.499C87.1518 111.42 87.341 111.306 87.5012 111.156C87.6615 111.006 87.7825 110.82 87.8643 110.599L89.5927 110.793C89.4836 111.25 89.2757 111.649 88.9689 111.99C88.6654 112.327 88.2768 112.59 87.8029 112.777C87.3291 112.961 86.787 113.053 86.1768 113.053ZM91.2355 112.9V105.045H93.0304V106.354H93.1122C93.2554 105.901 93.5008 105.552 93.8485 105.306C94.1997 105.057 94.6002 104.933 95.0502 104.933C95.1525 104.933 95.2667 104.938 95.3929 104.948C95.5224 104.955 95.6298 104.967 95.715 104.984V106.687C95.6366 106.66 95.5122 106.636 95.3417 106.615C95.1747 106.591 95.0127 106.579 94.8559 106.579C94.5184 106.579 94.215 106.653 93.9457 106.799C93.6798 106.943 93.4701 107.142 93.3167 107.398C93.1633 107.653 93.0866 107.948 93.0866 108.282V112.9H91.2355ZM104.495 105.045V106.477H99.852V105.045H104.495ZM101.013 112.9V104.304C101.013 103.775 101.122 103.336 101.34 102.985C101.562 102.633 101.858 102.371 102.23 102.197C102.601 102.023 103.014 101.936 103.467 101.936C103.788 101.936 104.072 101.962 104.321 102.013C104.57 102.064 104.754 102.11 104.874 102.151L104.505 103.583C104.427 103.559 104.328 103.535 104.209 103.511C104.089 103.484 103.957 103.47 103.81 103.47C103.466 103.47 103.222 103.554 103.079 103.721C102.939 103.885 102.869 104.12 102.869 104.427V112.9H101.013ZM109.076 113.053C108.309 113.053 107.644 112.885 107.081 112.547C106.519 112.21 106.083 111.737 105.772 111.131C105.465 110.524 105.312 109.815 105.312 109.003C105.312 108.192 105.465 107.481 105.772 106.871C106.083 106.261 106.519 105.787 107.081 105.449C107.644 105.112 108.309 104.943 109.076 104.943C109.843 104.943 110.508 105.112 111.07 105.449C111.633 105.787 112.067 106.261 112.374 106.871C112.684 107.481 112.839 108.192 112.839 109.003C112.839 109.815 112.684 110.524 112.374 111.131C112.067 111.737 111.633 112.21 111.07 112.547C110.508 112.885 109.843 113.053 109.076 113.053ZM109.086 111.57C109.502 111.57 109.85 111.456 110.129 111.228C110.409 110.996 110.617 110.686 110.753 110.297C110.893 109.908 110.963 109.475 110.963 108.998C110.963 108.518 110.893 108.083 110.753 107.694C110.617 107.302 110.409 106.99 110.129 106.758C109.85 106.527 109.502 106.411 109.086 106.411C108.66 106.411 108.305 106.527 108.022 106.758C107.743 106.99 107.533 107.302 107.393 107.694C107.257 108.083 107.189 108.518 107.189 108.998C107.189 109.475 107.257 109.908 107.393 110.297C107.533 110.686 107.743 110.996 108.022 111.228C108.305 111.456 108.66 111.57 109.086 111.57ZM114.41 112.9V105.045H116.205V106.354H116.287C116.43 105.901 116.676 105.552 117.024 105.306C117.375 105.057 117.775 104.933 118.225 104.933C118.328 104.933 118.442 104.938 118.568 104.948C118.697 104.955 118.805 104.967 118.89 104.984V106.687C118.812 106.66 118.687 106.636 118.517 106.615C118.35 106.591 118.188 106.579 118.031 106.579C117.693 106.579 117.39 106.653 117.121 106.799C116.855 106.943 116.645 107.142 116.492 107.398C116.338 107.653 116.262 107.948 116.262 108.282V112.9H114.41ZM120.12 112.9V105.045H121.889V106.38H121.981C122.145 105.93 122.416 105.579 122.794 105.327C123.173 105.071 123.624 104.943 124.149 104.943C124.681 104.943 125.13 105.073 125.494 105.332C125.862 105.587 126.122 105.937 126.272 106.38H126.353C126.527 105.944 126.82 105.596 127.233 105.337C127.649 105.074 128.141 104.943 128.711 104.943C129.433 104.943 130.023 105.171 130.48 105.628C130.937 106.085 131.165 106.752 131.165 107.628V112.9H129.309V107.914C129.309 107.427 129.18 107.07 128.92 106.845C128.661 106.617 128.344 106.503 127.969 106.503C127.523 106.503 127.173 106.643 126.921 106.922C126.672 107.198 126.548 107.558 126.548 108.001V112.9H124.732V107.837C124.732 107.432 124.61 107.108 124.364 106.866C124.122 106.624 123.805 106.503 123.413 106.503C123.147 106.503 122.905 106.571 122.687 106.707C122.469 106.84 122.295 107.029 122.165 107.275C122.036 107.517 121.971 107.8 121.971 108.124V112.9H120.12Z" fill="#2BCBBA"/>
<g filter="url(#filter3_d_601_6059)">
<rect x="26.4" y="129.6" width="106" height="2.4" fill="#2BCBBA"/>
</g>
</g>
<g clip-path="url(#clip4_601_6059)">
<rect width="134.6" height="32" transform="translate(165.6 100)" fill="#F9F9F9"/>
<path d="M167.622 102.427L170.731 111.243H170.854L173.963 102.427H175.292L171.447 112.9H170.138L166.292 102.427H167.622ZM176.76 112.9V105.045H177.967V112.9H176.76ZM177.374 103.736C177.138 103.736 176.936 103.656 176.765 103.496C176.598 103.336 176.515 103.143 176.515 102.918C176.515 102.693 176.598 102.5 176.765 102.34C176.936 102.18 177.138 102.1 177.374 102.1C177.609 102.1 177.81 102.18 177.977 102.34C178.147 102.5 178.233 102.693 178.233 102.918C178.233 103.143 178.147 103.336 177.977 103.496C177.81 103.656 177.609 103.736 177.374 103.736ZM183.47 113.064C182.714 113.064 182.061 112.896 181.512 112.562C180.966 112.225 180.545 111.754 180.249 111.151C179.956 110.544 179.809 109.839 179.809 109.034C179.809 108.229 179.956 107.52 180.249 106.907C180.545 106.29 180.958 105.809 181.486 105.465C182.018 105.117 182.639 104.943 183.348 104.943C183.757 104.943 184.161 105.011 184.56 105.148C184.958 105.284 185.321 105.506 185.649 105.812C185.976 106.116 186.237 106.518 186.431 107.019C186.625 107.52 186.723 108.137 186.723 108.87V109.382H180.668V108.339H185.495C185.495 107.895 185.407 107.5 185.229 107.152C185.056 106.804 184.807 106.53 184.483 106.329C184.162 106.128 183.784 106.027 183.348 106.027C182.867 106.027 182.451 106.146 182.1 106.385C181.752 106.62 181.485 106.927 181.297 107.306C181.11 107.684 181.016 108.09 181.016 108.523V109.218C181.016 109.811 181.118 110.314 181.323 110.727C181.531 111.136 181.819 111.448 182.187 111.662C182.555 111.874 182.983 111.979 183.47 111.979C183.787 111.979 184.074 111.935 184.329 111.846C184.589 111.754 184.812 111.618 184.999 111.437C185.187 111.253 185.332 111.025 185.434 110.752L186.6 111.079C186.477 111.475 186.271 111.823 185.981 112.123C185.691 112.419 185.333 112.651 184.907 112.818C184.481 112.982 184.002 113.064 183.47 113.064ZM190.338 112.9L187.945 105.045H189.213L190.911 111.059H190.993L192.67 105.045H193.958L195.615 111.039H195.697L197.395 105.045H198.663L196.27 112.9H195.083L193.365 106.866H193.243L191.524 112.9H190.338ZM210.731 105.045L207.827 112.9H206.599L203.695 105.045H205.004L207.172 111.304H207.254L209.422 105.045H210.731ZM215.336 113.064C214.579 113.064 213.926 112.896 213.377 112.562C212.832 112.225 212.411 111.754 212.114 111.151C211.821 110.544 211.675 109.839 211.675 109.034C211.675 108.229 211.821 107.52 212.114 106.907C212.411 106.29 212.823 105.809 213.352 105.465C213.884 105.117 214.504 104.943 215.213 104.943C215.622 104.943 216.026 105.011 216.425 105.148C216.824 105.284 217.187 105.506 217.514 105.812C217.842 106.116 218.102 106.518 218.297 107.019C218.491 107.52 218.588 108.137 218.588 108.87V109.382H212.534V108.339H217.361C217.361 107.895 217.272 107.5 217.095 107.152C216.921 106.804 216.672 106.53 216.348 106.329C216.028 106.128 215.65 106.027 215.213 106.027C214.733 106.027 214.317 106.146 213.966 106.385C213.618 106.62 213.35 106.927 213.163 107.306C212.975 107.684 212.881 108.09 212.881 108.523V109.218C212.881 109.811 212.984 110.314 213.188 110.727C213.396 111.136 213.684 111.448 214.052 111.662C214.421 111.874 214.848 111.979 215.336 111.979C215.653 111.979 215.939 111.935 216.195 111.846C216.454 111.754 216.677 111.618 216.865 111.437C217.052 111.253 217.197 111.025 217.3 110.752L218.466 111.079C218.343 111.475 218.137 111.823 217.847 112.123C217.557 112.419 217.199 112.651 216.773 112.818C216.347 112.982 215.868 113.064 215.336 113.064ZM221.631 108.175V112.9H220.424V105.045H221.59V106.273H221.692C221.876 105.874 222.156 105.553 222.531 105.311C222.906 105.066 223.39 104.943 223.983 104.943C224.515 104.943 224.98 105.052 225.379 105.27C225.778 105.485 226.088 105.812 226.31 106.252C226.531 106.689 226.642 107.241 226.642 107.909V112.9H225.435V107.991C225.435 107.374 225.275 106.893 224.955 106.549C224.634 106.201 224.195 106.027 223.635 106.027C223.25 106.027 222.906 106.111 222.602 106.278C222.302 106.445 222.066 106.689 221.892 107.009C221.718 107.329 221.631 107.718 221.631 108.175ZM231.813 113.064C231.159 113.064 230.581 112.898 230.08 112.568C229.579 112.233 229.187 111.763 228.904 111.156C228.621 110.546 228.479 109.825 228.479 108.993C228.479 108.168 228.621 107.452 228.904 106.845C229.187 106.239 229.58 105.77 230.085 105.439C230.59 105.108 231.172 104.943 231.834 104.943C232.345 104.943 232.749 105.028 233.046 105.199C233.346 105.366 233.574 105.557 233.731 105.771C233.891 105.983 234.016 106.157 234.104 106.293H234.207V102.427H235.413V112.9H234.247V111.693H234.104C234.016 111.836 233.89 112.017 233.726 112.235C233.562 112.45 233.329 112.643 233.025 112.813C232.722 112.98 232.318 113.064 231.813 113.064ZM231.977 111.979C232.461 111.979 232.87 111.853 233.204 111.601C233.538 111.345 233.792 110.993 233.966 110.543C234.14 110.089 234.227 109.566 234.227 108.973C234.227 108.386 234.142 107.873 233.971 107.433C233.801 106.99 233.549 106.646 233.215 106.4C232.88 106.152 232.468 106.027 231.977 106.027C231.466 106.027 231.04 106.158 230.699 106.421C230.361 106.68 230.107 107.033 229.937 107.479C229.77 107.923 229.686 108.42 229.686 108.973C229.686 109.532 229.771 110.04 229.942 110.496C230.116 110.95 230.371 111.311 230.709 111.581C231.05 111.846 231.472 111.979 231.977 111.979ZM240.982 113.064C240.273 113.064 239.651 112.895 239.116 112.557C238.584 112.22 238.168 111.748 237.868 111.141C237.571 110.534 237.423 109.825 237.423 109.014C237.423 108.195 237.571 107.481 237.868 106.871C238.168 106.261 238.584 105.787 239.116 105.449C239.651 105.112 240.273 104.943 240.982 104.943C241.691 104.943 242.312 105.112 242.844 105.449C243.379 105.787 243.795 106.261 244.091 106.871C244.391 107.481 244.541 108.195 244.541 109.014C244.541 109.825 244.391 110.534 244.091 111.141C243.795 111.748 243.379 112.22 242.844 112.557C242.312 112.895 241.691 113.064 240.982 113.064ZM240.982 111.979C241.521 111.979 241.964 111.841 242.312 111.565C242.659 111.289 242.917 110.926 243.084 110.476C243.251 110.026 243.334 109.539 243.334 109.014C243.334 108.489 243.251 107.999 243.084 107.546C242.917 107.093 242.659 106.726 242.312 106.446C241.964 106.167 241.521 106.027 240.982 106.027C240.444 106.027 240 106.167 239.653 106.446C239.305 106.726 239.047 107.093 238.88 107.546C238.713 107.999 238.63 108.489 238.63 109.014C238.63 109.539 238.713 110.026 238.88 110.476C239.047 110.926 239.305 111.289 239.653 111.565C240 111.841 240.444 111.979 240.982 111.979ZM246.383 112.9V105.045H247.549V106.232H247.631C247.774 105.843 248.033 105.528 248.408 105.286C248.783 105.044 249.206 104.923 249.677 104.923C249.765 104.923 249.876 104.924 250.009 104.928C250.142 104.931 250.243 104.936 250.311 104.943V106.17C250.27 106.16 250.176 106.145 250.029 106.124C249.886 106.1 249.735 106.089 249.574 106.089C249.193 106.089 248.852 106.169 248.552 106.329C248.255 106.486 248.02 106.704 247.846 106.983C247.675 107.26 247.59 107.575 247.59 107.929V112.9H246.383ZM256.998 102.427V112.9H255.791V102.427H256.998ZM259.208 112.9V105.045H260.415V112.9H259.208ZM259.822 103.736C259.587 103.736 259.384 103.656 259.214 103.496C259.046 103.336 258.963 103.143 258.963 102.918C258.963 102.693 259.046 102.5 259.214 102.34C259.384 102.18 259.587 102.1 259.822 102.1C260.057 102.1 260.258 102.18 260.425 102.34C260.596 102.5 260.681 102.693 260.681 102.918C260.681 103.143 260.596 103.336 260.425 103.496C260.258 103.656 260.057 103.736 259.822 103.736ZM268.189 106.804L267.105 107.111C267.037 106.931 266.936 106.755 266.803 106.585C266.674 106.411 266.497 106.268 266.272 106.155C266.047 106.043 265.759 105.986 265.407 105.986C264.927 105.986 264.526 106.097 264.206 106.319C263.889 106.537 263.73 106.815 263.73 107.152C263.73 107.452 263.839 107.689 264.057 107.863C264.276 108.037 264.617 108.182 265.08 108.298L266.246 108.584C266.948 108.754 267.472 109.015 267.816 109.366C268.16 109.714 268.332 110.162 268.332 110.711C268.332 111.161 268.203 111.564 267.944 111.918C267.688 112.273 267.33 112.552 266.87 112.757C266.41 112.961 265.874 113.064 265.264 113.064C264.463 113.064 263.8 112.89 263.275 112.542C262.75 112.194 262.418 111.686 262.278 111.018L263.423 110.732C263.532 111.154 263.739 111.471 264.042 111.683C264.349 111.894 264.749 112 265.244 112C265.806 112 266.253 111.881 266.584 111.642C266.918 111.4 267.085 111.11 267.085 110.773C267.085 110.5 266.989 110.271 266.798 110.087C266.607 109.9 266.314 109.76 265.919 109.668L264.61 109.361C263.89 109.191 263.362 108.927 263.024 108.569C262.69 108.207 262.523 107.756 262.523 107.214C262.523 106.77 262.648 106.378 262.897 106.037C263.149 105.696 263.492 105.429 263.924 105.235C264.361 105.04 264.855 104.943 265.407 104.943C266.185 104.943 266.795 105.114 267.238 105.454C267.685 105.795 268.002 106.245 268.189 106.804ZM273.565 105.045V106.068H269.495V105.045H273.565ZM270.681 103.164H271.888V110.65C271.888 110.991 271.937 111.246 272.036 111.417C272.138 111.584 272.268 111.696 272.425 111.754C272.585 111.809 272.754 111.836 272.931 111.836C273.064 111.836 273.173 111.829 273.258 111.816C273.343 111.799 273.412 111.785 273.463 111.775L273.708 112.859C273.626 112.89 273.512 112.92 273.366 112.951C273.219 112.985 273.033 113.002 272.808 113.002C272.467 113.002 272.133 112.929 271.806 112.782C271.482 112.636 271.213 112.412 270.998 112.112C270.787 111.812 270.681 111.434 270.681 110.977V103.164Z" fill="#9B9B9B"/>
<rect x="165.6" y="129.6" width="109" height="2.4" fill="#F9F9F9"/>
</g>
</g>
<rect opacity="0.5" width="300" height="87.2" transform="matrix(-1 0 0 1 300.5 0)" fill="url(#paint0_linear_601_6059)"/>
<rect x="20.1" y="45.2" width="32" height="32" rx="9.2" fill="white" stroke="#F9F9F9" stroke-width="0.8"/>
<path d="M38.2255 55.4936C38.1519 55.4198 38.0646 55.3614 37.9684 55.3214C37.8722 55.2815 37.7691 55.261 37.665 55.261C37.5608 55.261 37.4577 55.2815 37.3615 55.3214C37.2654 55.3614 37.178 55.4198 37.1045 55.4936L31.8415 60.7566C31.7828 60.8152 31.7362 60.8848 31.7044 60.9614C31.6726 61.038 31.6562 61.1201 31.6562 61.2031C31.6562 61.286 31.6726 61.3681 31.7044 61.4448C31.7362 61.5214 31.7828 61.591 31.8415 61.6496L37.1045 66.9126C37.4148 67.2229 37.9151 67.2229 38.2255 66.9126C38.5358 66.6022 38.5358 66.1019 38.2255 65.7916L33.6401 61.1999L38.2318 56.6082C38.5358 56.3042 38.5358 55.7976 38.2255 55.4936Z" fill="#222222" stroke="#222222" stroke-width="0.16"/>
<path d="M66.564 65.2V54.208H68.564V59.584L73.38 54.208H75.828L71.428 59.056L76.148 65.2H73.684L70.052 60.464L68.564 62.064V65.2H66.564ZM81.1967 63.664C81.9647 63.664 82.8767 63.312 83.3407 62.832L84.5727 64.112C83.8527 64.88 82.4127 65.392 81.2127 65.392C78.8447 65.392 76.8927 63.584 76.8927 61.04C76.8927 58.56 78.7487 56.736 81.1007 56.736C83.6607 56.736 85.1487 58.672 85.1487 61.728H78.9087C79.1487 62.864 80.0127 63.664 81.1967 63.664ZM81.1807 58.464C80.0927 58.464 79.2127 59.152 78.9247 60.24H83.2767C83.0527 59.2 82.3487 58.464 81.1807 58.464ZM88.5207 68.08C87.8967 68.08 87.2087 67.92 86.7127 67.648L87.1287 66.24C87.4807 66.432 87.8807 66.544 88.1847 66.544C88.6487 66.544 89.0007 66.4 89.2407 66L89.5927 65.264L86.0887 56.928H88.1527L90.5687 63.104L92.8407 56.928H94.8567L91.3527 65.776C90.7287 67.344 89.7687 68.064 88.5207 68.08ZM108.502 54.208H110.502V65.2H108.502V60.512H103.014V65.2H101.014V54.208H103.014V58.688H108.502V54.208ZM116.316 56.736C118.508 56.736 119.868 58.128 119.868 60.224V65.2H117.964V64.208C117.356 64.976 116.316 65.392 115.356 65.392C113.596 65.392 112.268 64.352 112.268 62.752C112.268 61.12 113.788 60 115.644 60C116.396 60 117.212 60.16 117.964 60.448V60.224C117.964 59.264 117.436 58.336 115.932 58.336C115.148 58.336 114.396 58.608 113.692 58.96L113.02 57.6C114.188 57.024 115.276 56.736 116.316 56.736ZM115.788 63.968C116.732 63.968 117.74 63.488 117.964 62.608V61.68C117.356 61.472 116.668 61.36 115.932 61.36C114.956 61.36 114.172 61.904 114.172 62.688C114.172 63.472 114.86 63.968 115.788 63.968ZM126.493 56.736C128.301 56.736 129.565 58.064 129.565 59.936V65.2H127.677V60.32C127.677 59.2 126.957 58.4 125.933 58.4C124.909 58.4 124.061 59.088 123.933 59.968V65.2H121.981V56.928H123.933V58.032C124.445 57.264 125.405 56.736 126.493 56.736ZM137.972 54.016H139.924V65.2H137.972V63.92C137.316 64.848 136.324 65.392 135.108 65.392C132.916 65.392 131.316 63.6 131.316 61.056C131.316 58.528 132.916 56.736 135.108 56.736C136.324 56.736 137.316 57.28 137.972 58.208V54.016ZM135.636 63.728C137.012 63.728 137.972 62.608 137.972 61.056C137.972 59.504 137.012 58.4 135.636 58.4C134.244 58.4 133.252 59.504 133.252 61.056C133.252 62.608 134.244 63.728 135.636 63.728ZM146.122 65.392C143.722 65.392 141.69 63.408 141.69 61.056C141.69 58.704 143.722 56.736 146.122 56.736C148.522 56.736 150.554 58.704 150.554 61.056C150.554 63.408 148.522 65.392 146.122 65.392ZM146.122 63.728C147.482 63.728 148.634 62.512 148.634 61.056C148.634 59.616 147.482 58.4 146.122 58.4C144.746 58.4 143.594 59.616 143.594 61.056C143.594 62.512 144.746 63.728 146.122 63.728ZM154.64 65.2L151.088 56.928H153.152L155.552 62.944L157.904 56.928H159.984L156.48 65.2H154.64ZM164.665 63.664C165.433 63.664 166.345 63.312 166.809 62.832L168.041 64.112C167.321 64.88 165.881 65.392 164.681 65.392C162.313 65.392 160.361 63.584 160.361 61.04C160.361 58.56 162.217 56.736 164.569 56.736C167.129 56.736 168.617 58.672 168.617 61.728H162.377C162.617 62.864 163.481 63.664 164.665 63.664ZM164.649 58.464C163.561 58.464 162.681 59.152 162.393 60.24H166.745C166.521 59.2 165.817 58.464 164.649 58.464ZM172.309 58.528C172.837 57.424 173.909 56.736 175.269 56.736V58.4C173.493 58.4 172.309 59.456 172.309 61.024V65.2H170.357V56.928H172.309V58.528Z" fill="#222222"/>
<path opacity="0.35" d="M269.7 16C269.7 15.0427 270.476 14.2667 271.433 14.2667H284.767C285.724 14.2667 286.5 15.0427 286.5 16V20.8C286.5 21.7573 285.724 22.5334 284.767 22.5334H271.433C270.476 22.5334 269.7 21.7573 269.7 20.8V16Z" stroke="#222222" stroke-width="0.8"/>
<path opacity="0.4" d="M287.7 16.8V20C288.344 19.729 288.762 19.0986 288.762 18.4C288.762 17.7015 288.344 17.0711 287.7 16.8Z" fill="#222222"/>
<path d="M270.9 16.5332C270.9 15.9441 271.378 15.4666 271.967 15.4666H284.233C284.822 15.4666 285.3 15.9441 285.3 16.5332V20.2666C285.3 20.8557 284.822 21.3332 284.233 21.3332H271.967C271.378 21.3332 270.9 20.8557 270.9 20.2666V16.5332Z" fill="#222222"/>
<path fill-rule="evenodd" clip-rule="evenodd" d="M259.164 15.6864C260.937 15.6864 262.642 16.3676 263.927 17.589C264.023 17.6833 264.178 17.6821 264.273 17.5864L265.198 16.653C265.246 16.6045 265.273 16.5387 265.273 16.4702C265.272 16.4017 265.245 16.3362 265.196 16.2882C261.824 13.0566 256.504 13.0566 253.132 16.2882C253.083 16.3362 253.055 16.4017 253.055 16.4701C253.055 16.5386 253.081 16.6044 253.13 16.653L254.055 17.5864C254.15 17.6823 254.305 17.6835 254.401 17.589C255.686 16.3675 257.391 15.6864 259.164 15.6864ZM259.164 18.7228C260.138 18.7227 261.077 19.0847 261.799 19.7385C261.897 19.8313 262.051 19.8293 262.146 19.734L263.07 18.8006C263.119 18.7517 263.146 18.6853 263.145 18.6163C263.144 18.5472 263.116 18.4814 263.066 18.4334C260.868 16.3883 257.463 16.3883 255.264 18.4334C255.215 18.4814 255.186 18.5473 255.186 18.6163C255.185 18.6853 255.212 18.7518 255.261 18.8006L256.184 19.734C256.279 19.8293 256.433 19.8313 256.531 19.7385C257.252 19.0852 258.191 18.7232 259.164 18.7228ZM261.015 20.7658C261.016 20.835 260.989 20.9018 260.939 20.9502L259.342 22.5628C259.295 22.6102 259.231 22.6368 259.164 22.6368C259.098 22.6368 259.034 22.6102 258.987 22.5628L257.389 20.9502C257.339 20.9017 257.312 20.835 257.314 20.7658C257.315 20.6966 257.345 20.631 257.397 20.5846C258.417 19.7215 259.912 19.7215 260.932 20.5846C260.983 20.6311 261.013 20.6966 261.015 20.7658Z" fill="#222222"/>
<path fill-rule="evenodd" clip-rule="evenodd" d="M248.233 14.1333H247.433C246.992 14.1333 246.633 14.4915 246.633 14.9333V21.8666C246.633 22.3085 246.992 22.6666 247.433 22.6666H248.233C248.675 22.6666 249.033 22.3085 249.033 21.8666V14.9333C249.033 14.4915 248.675 14.1333 248.233 14.1333ZM243.7 15.9999H244.5C244.942 15.9999 245.3 16.3581 245.3 16.7999V21.8666C245.3 22.3084 244.942 22.6666 244.5 22.6666H243.7C243.258 22.6666 242.9 22.3084 242.9 21.8666V16.7999C242.9 16.3581 243.258 15.9999 243.7 15.9999ZM240.767 17.8667H239.967C239.525 17.8667 239.167 18.2249 239.167 18.6667V21.8667C239.167 22.3085 239.525 22.6667 239.967 22.6667H240.767C241.209 22.6667 241.567 22.3085 241.567 21.8667V18.6667C241.567 18.2249 241.209 17.8667 240.767 17.8667ZM237.033 19.4667H236.233C235.792 19.4667 235.433 19.8249 235.433 20.2667V21.8667C235.433 22.3085 235.792 22.6667 236.233 22.6667H237.033C237.475 22.6667 237.833 22.3085 237.833 21.8667V20.2667C237.833 19.8249 237.475 19.4667 237.033 19.4667Z" fill="#222222"/>
<path d="M30.3917 14.5339C32.1964 14.5339 33.7667 15.8171 33.7667 18.864V18.8757C33.7667 21.7234 32.4835 23.4109 30.3566 23.4109C28.8038 23.4109 27.6437 22.491 27.3741 21.196L27.3624 21.1316H28.8507L28.8683 21.1902C29.0909 21.782 29.6124 22.1687 30.3566 22.1687C31.6983 22.1687 32.2667 20.8562 32.3312 19.239C32.3312 19.1746 32.337 19.1101 32.337 19.0457H32.2198C31.9093 19.7136 31.171 20.3054 30.0108 20.3054C28.3878 20.3054 27.2511 19.1218 27.2511 17.5164V17.5046C27.2511 15.7878 28.5577 14.5339 30.3917 14.5339ZM30.3858 19.1453C31.3409 19.1453 32.0733 18.4539 32.0733 17.4988V17.4871C32.0733 16.5203 31.3409 15.7644 30.4034 15.7644C29.4718 15.7644 28.7276 16.5085 28.7276 17.4519V17.4636C28.7276 18.4421 29.4249 19.1453 30.3858 19.1453ZM36.1869 17.7214C35.6537 17.7214 35.2552 17.3113 35.2552 16.7957C35.2552 16.2742 35.6537 15.8699 36.1869 15.8699C36.7259 15.8699 37.1185 16.2742 37.1185 16.7957C37.1185 17.3113 36.7259 17.7214 36.1869 17.7214ZM36.1869 22.0691C35.6537 22.0691 35.2552 21.6648 35.2552 21.1433C35.2552 20.6218 35.6537 20.2175 36.1869 20.2175C36.7259 20.2175 37.1185 20.6218 37.1185 21.1433C37.1185 21.6648 36.7259 22.0691 36.1869 22.0691ZM42.7086 23.2V21.5769H38.5719V20.3406C39.6676 18.4363 40.8687 16.491 42.0172 14.7449H44.1558V20.3289H45.2926V21.5769H44.1558V23.2H42.7086ZM39.9781 20.364H42.732V15.9519H42.6441C41.7769 17.2761 40.7984 18.8406 39.9781 20.2761V20.364ZM48.5565 23.2V16.2332H48.4569L46.3533 17.7214V16.2976L48.5623 14.7449H50.0682V23.2H48.5565Z" fill="#222222"/>
<rect width="300" height="27.2" transform="translate(0.5 573)" fill="#F9F9F9"/>
<path fill-rule="evenodd" clip-rule="evenodd" d="M97.3 591C97.3 589.895 98.1954 589 99.3 589H202.5C203.605 589 204.5 589.895 204.5 591C204.5 592.105 203.605 593 202.5 593H99.3C98.1954 593 97.3 592.105 97.3 591Z" fill="#222222"/>
</g>
<defs>
<filter id="filter0_d_601_6059" x="119.3" y="511.2" width="155.2" height="92.8" filterUnits="userSpaceOnUse" color-interpolation-filters="sRGB">
<feFlood flood-opacity="0" result="BackgroundImageFix"/>
<feColorMatrix in="SourceAlpha" type="matrix" values="0 0 0 0 0 0 0 0 0 0 0 0 0 0 0 0 0 0 127 0" result="hardAlpha"/>
<feOffset dy="0.8"/>
<feGaussianBlur stdDeviation="6.4"/>
<feComposite in2="hardAlpha" operator="out"/>
<feColorMatrix type="matrix" values="0 0 0 0 0.133333 0 0 0 0 0.133333 0 0 0 0 0.133333 0 0 0 0.06 0"/>
<feBlend mode="normal" in2="BackgroundImageFix" result="effect1_dropShadow_601_6059"/>
<feBlend mode="normal" in="SourceGraphic" in2="effect1_dropShadow_601_6059" result="shape"/>
</filter>
<filter id="filter1_d_601_6059" x="119.7" y="597.6" width="96" height="108.8" filterUnits="userSpaceOnUse" color-interpolation-filters="sRGB">
<feFlood flood-opacity="0" result="BackgroundImageFix"/>
<feColorMatrix in="SourceAlpha" type="matrix" values="0 0 0 0 0 0 0 0 0 0 0 0 0 0 0 0 0 0 127 0" result="hardAlpha"/>
<feOffset dy="0.8"/>
<feGaussianBlur stdDeviation="6.4"/>
<feComposite in2="hardAlpha" operator="out"/>
<feColorMatrix type="matrix" values="0 0 0 0 0.133333 0 0 0 0 0.133333 0 0 0 0 0.133333 0 0 0 0.06 0"/>
<feBlend mode="normal" in2="BackgroundImageFix" result="effect1_dropShadow_601_6059"/>
<feBlend mode="normal" in="SourceGraphic" in2="effect1_dropShadow_601_6059" result="shape"/>
</filter>
<filter id="filter2_d_601_6059" x="196.5" y="597.6" width="96" height="108.8" filterUnits="userSpaceOnUse" color-interpolation-filters="sRGB">
<feFlood flood-opacity="0" result="BackgroundImageFix"/>
<feColorMatrix in="SourceAlpha" type="matrix" values="0 0 0 0 0 0 0 0 0 0 0 0 0 0 0 0 0 0 127 0" result="hardAlpha"/>
<feOffset dy="0.8"/>
<feGaussianBlur stdDeviation="6.4"/>
<feComposite in2="hardAlpha" operator="out"/>
<feColorMatrix type="matrix" values="0 0 0 0 0.133333 0 0 0 0 0.133333 0 0 0 0 0.133333 0 0 0 0.06 0"/>
<feBlend mode="normal" in2="BackgroundImageFix" result="effect1_dropShadow_601_6059"/>
<feBlend mode="normal" in="SourceGraphic" in2="effect1_dropShadow_601_6059" result="shape"/>
</filter>
<filter id="filter3_d_601_6059" x="26.4" y="129.6" width="106" height="3.1999" filterUnits="userSpaceOnUse" color-interpolation-filters="sRGB">
<feFlood flood-opacity="0" result="BackgroundImageFix"/>
<feColorMatrix in="SourceAlpha" type="matrix" values="0 0 0 0 0 0 0 0 0 0 0 0 0 0 0 0 0 0 127 0" result="hardAlpha"/>
<feOffset dy="0.8"/>
<feColorMatrix type="matrix" values="0 0 0 0 0.913725 0 0 0 0 0.341176 0 0 0 0 0.266667 0 0 0 1 0"/>
<feBlend mode="normal" in2="BackgroundImageFix" result="effect1_dropShadow_601_6059"/>
<feBlend mode="normal" in="SourceGraphic" in2="effect1_dropShadow_601_6059" result="shape"/>
</filter>
<linearGradient id="paint0_linear_601_6059" x1="150" y1="-15.7862" x2="150" y2="107.497" gradientUnits="userSpaceOnUse">
<stop stop-color="#DAFFED"/>
<stop offset="0.575354" stop-color="#DAFFED" stop-opacity="0.486384"/>
<stop offset="1" stop-color="#DAFFED" stop-opacity="0"/>
</linearGradient>
<clipPath id="clip0_601_6059">
<rect width="300" height="600" fill="white"/>
</clipPath>
<clipPath id="clip1_601_6059">
<rect width="20.8" height="20.8" fill="white" transform="translate(155.3 546.4)"/>
</clipPath>
<clipPath id="clip2_601_6059">
<rect width="300" height="31.2" fill="white" transform="translate(0.5 100)"/>
</clipPath>
<clipPath id="clip3_601_6059">
<rect width="157.2" height="32" fill="white" transform="translate(0.799988 100)"/>
</clipPath>
<clipPath id="clip4_601_6059">
<rect width="134.6" height="32" fill="white" transform="translate(165.6 100)"/>
</clipPath>
</defs>
</svg>
