<svg width="300" height="600" viewBox="0 0 300 600" fill="none" xmlns="http://www.w3.org/2000/svg">
<g clip-path="url(#clip0_601_6120)">
<rect width="300" height="600" fill="#F9F9F9"/>
<rect x="13.7" y="135.8" width="273.6" height="44" rx="6" fill="#F9F9F9" stroke="#E8ECF4" stroke-width="0.8"/>
<path d="M27.0632 160.6V152.906H28.1944V156.915L31.8232 152.906H33.268L30.1096 156.366L33.4808 160.6H32.0584L29.3144 157.15L28.1944 158.349V160.6H27.0632ZM37.1863 160.734C35.5287 160.734 34.1287 159.346 34.1287 157.699C34.1287 156.053 35.5287 154.675 37.1863 154.675C38.8327 154.675 40.2215 156.053 40.2215 157.699C40.2215 159.346 38.8327 160.734 37.1863 160.734ZM37.1863 159.771C38.2279 159.771 39.1127 158.83 39.1127 157.699C39.1127 156.579 38.2279 155.638 37.1863 155.638C36.1223 155.638 35.2375 156.579 35.2375 157.699C35.2375 158.83 36.1223 159.771 37.1863 159.771ZM41.2725 160.6V159.771L44.5205 155.806H41.3397V154.81H45.9765V155.638L42.7285 159.603H45.9989V160.6H41.2725ZM50.2832 154.675C51.56 154.675 52.456 155.605 52.456 156.915V160.6H51.3696V157.106C51.3696 156.243 50.8208 155.638 50.0368 155.638C49.1632 155.638 48.4352 156.254 48.4352 157.005V160.6H47.3376V152.771H48.4352V155.672C48.7824 155.09 49.488 154.675 50.2832 154.675ZM54.5911 153.846C54.2103 153.846 53.9191 153.533 53.9191 153.174C53.9191 152.827 54.2103 152.514 54.5911 152.514C54.9495 152.514 55.2519 152.827 55.2519 153.174C55.2519 153.533 54.9495 153.846 54.5911 153.846ZM54.0311 160.6V154.81H55.1399V160.6H54.0311ZM62.0079 154.81L59.5103 157.43L61.8959 160.6H60.5743L58.7599 158.17L57.8303 159.11V160.6H56.7327V152.771H57.8303V157.766L60.6639 154.81H62.0079ZM68.1876 154.81L65.69 157.43L68.0756 160.6H66.754L64.9396 158.17L64.01 159.11V160.6H62.9124V152.771H64.01V157.766L66.8436 154.81H68.1876ZM71.8473 160.734C70.1897 160.734 68.7897 159.346 68.7897 157.699C68.7897 156.053 70.1897 154.675 71.8473 154.675C73.4937 154.675 74.8825 156.053 74.8825 157.699C74.8825 159.346 73.4937 160.734 71.8473 160.734ZM71.8473 159.771C72.8889 159.771 73.7737 158.83 73.7737 157.699C73.7737 156.579 72.8889 155.638 71.8473 155.638C70.7833 155.638 69.8985 156.579 69.8985 157.699C69.8985 158.83 70.7833 159.771 71.8473 159.771ZM80.6374 152.771H81.735V160.6H80.6374V159.592C80.1894 160.309 79.4726 160.734 78.5766 160.734C77.0534 160.734 75.911 159.48 75.911 157.699C75.911 155.93 77.0534 154.675 78.5766 154.675C79.4726 154.675 80.1894 155.101 80.6374 155.806V152.771ZM78.8454 159.771C79.887 159.771 80.6374 158.909 80.6374 157.699C80.6374 156.49 79.887 155.638 78.8454 155.638C77.7814 155.638 77.031 156.49 77.031 157.699C77.031 158.909 77.7814 159.771 78.8454 159.771ZM86.053 159.749C86.6578 159.749 87.3634 159.48 87.7106 159.122L88.405 159.838C87.8898 160.387 86.8818 160.734 86.0642 160.734C84.4514 160.734 83.085 159.469 83.085 157.688C83.085 155.952 84.373 154.675 85.9746 154.675C87.7442 154.675 88.7634 156.019 88.7634 158.091H84.205C84.3506 159.054 85.0562 159.749 86.053 159.749ZM86.0194 155.661C85.1234 155.661 84.3954 156.266 84.2162 157.206H87.6882C87.565 156.31 87.0162 155.661 86.0194 155.661Z" fill="#222222"/>
<path d="M261.593 155.275C261.519 155.348 261.461 155.436 261.421 155.532C261.381 155.628 261.361 155.731 261.361 155.835C261.361 155.939 261.381 156.043 261.421 156.139C261.461 156.235 261.519 156.322 261.593 156.396L266.856 161.659C266.915 161.717 266.984 161.764 267.061 161.796C267.138 161.828 267.22 161.844 267.303 161.844C267.386 161.844 267.468 161.828 267.544 161.796C267.621 161.764 267.691 161.717 267.749 161.659L273.012 156.396C273.323 156.085 273.323 155.585 273.012 155.275C272.702 154.964 272.202 154.964 271.891 155.275L267.3 159.86L262.708 155.268C262.404 154.964 261.897 154.964 261.593 155.275Z" fill="#9B9B9B" stroke="#9B9B9B" stroke-width="0.16"/>
<path d="M14.4136 122.8V114.006H17.4472C20.2888 114.006 22.3112 115.824 22.3112 118.397C22.3112 120.97 20.2888 122.8 17.4472 122.8H14.4136ZM15.7064 121.622H17.524C19.5592 121.622 20.98 120.291 20.98 118.397C20.98 116.515 19.5592 115.184 17.524 115.184H15.7064V121.622ZM24.5988 115.082C24.1636 115.082 23.8308 114.723 23.8308 114.314C23.8308 113.917 24.1636 113.558 24.5988 113.558C25.0084 113.558 25.354 113.917 25.354 114.314C25.354 114.723 25.0084 115.082 24.5988 115.082ZM23.9588 122.8V116.182H25.226V122.8H23.9588ZM29.4527 122.954C28.4799 122.954 27.4175 122.608 26.6239 121.968L27.2255 121.059C27.9295 121.571 28.6847 121.866 29.4655 121.866C30.2079 121.866 30.7199 121.52 30.7199 121.008C30.7199 120.394 30.0415 120.202 29.2223 119.971C27.6991 119.549 26.9439 119.114 26.9439 118.038C26.9311 116.822 27.9423 116.029 29.3503 116.029C30.2079 116.029 31.0783 116.323 31.7951 116.797L31.2319 117.731C30.5919 117.334 29.9263 117.117 29.3503 117.117C28.6975 117.117 28.1855 117.398 28.1855 117.898C28.1855 118.41 28.5951 118.563 29.7087 118.909C30.7967 119.229 31.9615 119.587 31.9615 120.906C31.9615 122.16 30.8991 122.954 29.4527 122.954ZM36.5317 121.61L36.9925 122.48C36.6341 122.774 36.1477 122.954 35.6741 122.954C34.6501 122.954 33.9333 122.211 33.9333 121.149V117.258H32.9349V116.182H33.9333V114.365H35.1749V116.182H36.7365V117.258H35.1749V121.059C35.1749 121.52 35.4821 121.853 35.8533 121.853C36.1349 121.853 36.3909 121.75 36.5317 121.61ZM39.6153 117.45C40.0377 116.579 40.9337 116.029 42.0729 116.029V117.13C40.7033 117.13 39.7305 117.885 39.6153 119.037V122.8H38.3481V116.182H39.6153V117.45ZM43.9363 115.082C43.5011 115.082 43.1683 114.723 43.1683 114.314C43.1683 113.917 43.5011 113.558 43.9363 113.558C44.3459 113.558 44.6915 113.917 44.6915 114.314C44.6915 114.723 44.3459 115.082 43.9363 115.082ZM43.2963 122.8V116.182H44.5635V122.8H43.2963ZM49.5198 122.954C47.6382 122.954 46.0382 121.366 46.0382 119.485C46.0382 117.603 47.6382 116.029 49.5326 116.029C50.4798 116.029 51.3374 116.426 51.9646 117.053L51.107 117.846C50.7102 117.398 50.1342 117.13 49.5198 117.13C48.3166 117.13 47.3182 118.205 47.3182 119.485C47.3182 120.778 48.3166 121.853 49.5326 121.853C50.147 121.853 50.7358 121.571 51.1454 121.11L52.003 121.891C51.363 122.544 50.5054 122.954 49.5198 122.954ZM56.4567 121.61L56.9175 122.48C56.5591 122.774 56.0727 122.954 55.5991 122.954C54.5751 122.954 53.8583 122.211 53.8583 121.149V117.258H52.8599V116.182H53.8583V114.365H55.0999V116.182H56.6615V117.258H55.0999V121.059C55.0999 121.52 55.4071 121.853 55.7783 121.853C56.0599 121.853 56.3159 121.75 56.4567 121.61Z" fill="#222222" fill-opacity="0.8"/>
<rect x="13.7" y="219" width="273.6" height="44" rx="6" fill="#F9F9F9" stroke="#E8ECF4" stroke-width="0.8"/>
<path d="M27.0632 243.8V236.106H28.1944V240.115L31.8232 236.106H33.268L30.1096 239.566L33.4808 243.8H32.0584L29.3144 240.35L28.1944 241.549V243.8H27.0632ZM37.1863 243.934C35.5287 243.934 34.1287 242.546 34.1287 240.899C34.1287 239.253 35.5287 237.875 37.1863 237.875C38.8327 237.875 40.2215 239.253 40.2215 240.899C40.2215 242.546 38.8327 243.934 37.1863 243.934ZM37.1863 242.971C38.2279 242.971 39.1127 242.03 39.1127 240.899C39.1127 239.779 38.2279 238.838 37.1863 238.838C36.1223 238.838 35.2375 239.779 35.2375 240.899C35.2375 242.03 36.1223 242.971 37.1863 242.971ZM41.2725 243.8V242.971L44.5205 239.006H41.3397V238.01H45.9765V238.838L42.7285 242.803H45.9989V243.8H41.2725ZM50.2832 237.875C51.56 237.875 52.456 238.805 52.456 240.115V243.8H51.3696V240.306C51.3696 239.443 50.8208 238.838 50.0368 238.838C49.1632 238.838 48.4352 239.454 48.4352 240.205V243.8H47.3376V235.971H48.4352V238.872C48.7824 238.29 49.488 237.875 50.2832 237.875ZM54.5911 237.046C54.2103 237.046 53.9191 236.733 53.9191 236.374C53.9191 236.027 54.2103 235.714 54.5911 235.714C54.9495 235.714 55.2519 236.027 55.2519 236.374C55.2519 236.733 54.9495 237.046 54.5911 237.046ZM54.0311 243.8V238.01H55.1399V243.8H54.0311ZM62.0079 238.01L59.5103 240.63L61.8959 243.8H60.5743L58.7599 241.37L57.8303 242.31V243.8H56.7327V235.971H57.8303V240.966L60.6639 238.01H62.0079ZM68.1876 238.01L65.69 240.63L68.0756 243.8H66.754L64.9396 241.37L64.01 242.31V243.8H62.9124V235.971H64.01V240.966L66.8436 238.01H68.1876ZM71.8473 243.934C70.1897 243.934 68.7897 242.546 68.7897 240.899C68.7897 239.253 70.1897 237.875 71.8473 237.875C73.4937 237.875 74.8825 239.253 74.8825 240.899C74.8825 242.546 73.4937 243.934 71.8473 243.934ZM71.8473 242.971C72.8889 242.971 73.7737 242.03 73.7737 240.899C73.7737 239.779 72.8889 238.838 71.8473 238.838C70.7833 238.838 69.8985 239.779 69.8985 240.899C69.8985 242.03 70.7833 242.971 71.8473 242.971ZM80.6374 235.971H81.735V243.8H80.6374V242.792C80.1894 243.509 79.4726 243.934 78.5766 243.934C77.0534 243.934 75.911 242.68 75.911 240.899C75.911 239.13 77.0534 237.875 78.5766 237.875C79.4726 237.875 80.1894 238.301 80.6374 239.006V235.971ZM78.8454 242.971C79.887 242.971 80.6374 242.109 80.6374 240.899C80.6374 239.69 79.887 238.838 78.8454 238.838C77.7814 238.838 77.031 239.69 77.031 240.899C77.031 242.109 77.7814 242.971 78.8454 242.971ZM86.053 242.949C86.6578 242.949 87.3634 242.68 87.7106 242.322L88.405 243.038C87.8898 243.587 86.8818 243.934 86.0642 243.934C84.4514 243.934 83.085 242.669 83.085 240.888C83.085 239.152 84.373 237.875 85.9746 237.875C87.7442 237.875 88.7634 239.219 88.7634 241.291H84.205C84.3506 242.254 85.0562 242.949 86.053 242.949ZM86.0194 238.861C85.1234 238.861 84.3954 239.466 84.2162 240.406H87.6882C87.565 239.51 87.0162 238.861 86.0194 238.861Z" fill="#222222"/>
<path d="M261.593 238.475C261.519 238.548 261.461 238.636 261.421 238.732C261.381 238.828 261.361 238.931 261.361 239.035C261.361 239.139 261.381 239.242 261.421 239.339C261.461 239.435 261.519 239.522 261.593 239.596L266.856 244.859C266.915 244.917 266.984 244.964 267.061 244.996C267.138 245.028 267.22 245.044 267.303 245.044C267.386 245.044 267.468 245.028 267.544 244.996C267.621 244.964 267.691 244.917 267.749 244.859L273.012 239.596C273.323 239.285 273.323 238.785 273.012 238.475C272.702 238.164 272.202 238.164 271.891 238.475L267.3 243.06L262.708 238.468C262.404 238.164 261.897 238.164 261.593 238.475Z" fill="#9B9B9B" stroke="#9B9B9B" stroke-width="0.16"/>
<path d="M14.26 206V197.206H17.9592C19.8152 197.206 21.2232 198.397 21.2232 200.074C21.2232 201.75 19.8152 202.941 17.9592 202.941H15.5528V206H14.26ZM15.5528 201.738H17.78C19.0472 201.738 19.9048 201.11 19.9048 200.074C19.9048 199.037 19.0472 198.41 17.78 198.41H15.5528V201.738ZM25.3117 199.229C27.0909 199.229 28.0765 200.355 28.0765 201.994V206H26.8349V205.091C26.3485 205.782 25.4397 206.154 24.6333 206.154C23.2253 206.154 22.1885 205.334 22.1885 204.042C22.1885 202.723 23.3789 201.84 24.8381 201.84C25.4909 201.84 26.1949 201.981 26.8349 202.198V201.994C26.8349 201.162 26.4509 200.278 25.1325 200.278C24.4797 200.278 23.8397 200.534 23.2637 200.829L22.8029 199.894C23.7501 199.421 24.5821 199.229 25.3117 199.229ZM24.8765 205.155C25.6957 205.155 26.6173 204.746 26.8349 203.926V203.043C26.2973 202.877 25.6829 202.787 25.0301 202.787C24.1469 202.787 23.4045 203.286 23.4045 204.003C23.4045 204.72 24.0445 205.155 24.8765 205.155ZM33.2755 199.229C34.7347 199.229 35.7587 200.291 35.7587 201.789V206H34.5171V202.006C34.5171 201.021 33.8899 200.33 32.9939 200.33C32.0723 200.33 31.2787 200.931 31.1763 201.712V206H29.9091V199.382H31.1763V200.342C31.5731 199.69 32.3795 199.229 33.2755 199.229ZM40.6948 206.154C38.8132 206.154 37.2132 204.566 37.2132 202.685C37.2132 200.803 38.8132 199.229 40.7076 199.229C41.6548 199.229 42.5124 199.626 43.1396 200.253L42.282 201.046C41.8852 200.598 41.3092 200.33 40.6948 200.33C39.4916 200.33 38.4932 201.405 38.4932 202.685C38.4932 203.978 39.4916 205.053 40.7076 205.053C41.322 205.053 41.9108 204.771 42.3204 204.31L43.178 205.091C42.538 205.744 41.6804 206.154 40.6948 206.154ZM47.9005 199.229C49.3597 199.229 50.3837 200.291 50.3837 201.789V206H49.1421V202.006C49.1421 201.021 48.5149 200.33 47.6189 200.33C46.6205 200.33 45.7885 201.034 45.7885 201.891V206H44.5341V197.053H45.7885V200.368C46.1853 199.702 46.9917 199.229 47.9005 199.229ZM54.9742 199.229C56.7534 199.229 57.739 200.355 57.739 201.994V206H56.4974V205.091C56.011 205.782 55.1022 206.154 54.2958 206.154C52.8878 206.154 51.851 205.334 51.851 204.042C51.851 202.723 53.0414 201.84 54.5006 201.84C55.1534 201.84 55.8574 201.981 56.4974 202.198V201.994C56.4974 201.162 56.1134 200.278 54.795 200.278C54.1422 200.278 53.5022 200.534 52.9262 200.829L52.4654 199.894C53.4126 199.421 54.2446 199.229 54.9742 199.229ZM54.539 205.155C55.3582 205.155 56.2798 204.746 56.4974 203.926V203.043C55.9598 202.877 55.3454 202.787 54.6926 202.787C53.8094 202.787 53.067 203.286 53.067 204.003C53.067 204.72 53.707 205.155 54.539 205.155ZM60.7364 208.304C60.2884 208.304 59.8276 208.202 59.482 208.022L59.7636 207.05C60.0196 207.19 60.314 207.254 60.57 207.254C60.9796 207.254 61.2612 207.126 61.4788 206.742L61.8116 206.038L58.97 199.382H60.3268L62.4516 204.605L64.4612 199.382H65.7796L62.8612 206.602C62.3876 207.792 61.6836 208.291 60.7364 208.304ZM69.9742 199.229C71.7534 199.229 72.739 200.355 72.739 201.994V206H71.4974V205.091C71.011 205.782 70.1022 206.154 69.2958 206.154C67.8878 206.154 66.851 205.334 66.851 204.042C66.851 202.723 68.0414 201.84 69.5006 201.84C70.1534 201.84 70.8574 201.981 71.4974 202.198V201.994C71.4974 201.162 71.1134 200.278 69.795 200.278C69.1422 200.278 68.5022 200.534 67.9262 200.829L67.4654 199.894C68.4126 199.421 69.2446 199.229 69.9742 199.229ZM69.539 205.155C70.3582 205.155 71.2798 204.746 71.4974 203.926V203.043C70.9598 202.877 70.3454 202.787 69.6926 202.787C68.8094 202.787 68.067 203.286 68.067 204.003C68.067 204.72 68.707 205.155 69.539 205.155ZM77.6692 204.81L78.13 205.68C77.7716 205.974 77.2852 206.154 76.8116 206.154C75.7876 206.154 75.0708 205.411 75.0708 204.349V200.458H74.0724V199.382H75.0708V197.565H76.3124V199.382H77.874V200.458H76.3124V204.259C76.3124 204.72 76.6196 205.053 76.9908 205.053C77.2724 205.053 77.5284 204.95 77.6692 204.81ZM78.2568 206.947L82.724 196.49H84.1064L79.6392 206.947H78.2568ZM89.1965 206.154C86.7261 206.154 84.6269 204.067 84.6269 201.597C84.6269 199.126 86.7261 197.053 89.1965 197.053C90.4509 197.053 91.6029 197.578 92.4349 198.435L91.5261 199.306C90.9373 198.666 90.1053 198.243 89.1965 198.243C87.4429 198.243 85.9581 199.779 85.9581 201.597C85.9581 203.427 87.4429 204.963 89.1965 204.963C90.1053 204.963 90.9373 204.541 91.5261 203.901L92.4349 204.771C91.6029 205.616 90.4509 206.154 89.1965 206.154ZM96.8326 206.154C94.9382 206.154 93.3382 204.566 93.3382 202.685C93.3382 200.803 94.9382 199.229 96.8326 199.229C98.7142 199.229 100.301 200.803 100.301 202.685C100.301 204.566 98.7142 206.154 96.8326 206.154ZM96.8326 205.053C98.023 205.053 99.0342 203.978 99.0342 202.685C99.0342 201.405 98.023 200.33 96.8326 200.33C95.6166 200.33 94.6054 201.405 94.6054 202.685C94.6054 203.978 95.6166 205.053 96.8326 205.053ZM103.115 200.65C103.538 199.779 104.434 199.229 105.573 199.229V200.33C104.203 200.33 103.23 201.085 103.115 202.237V206H101.848V199.382H103.115V200.65ZM110.483 199.229C112.223 199.229 113.529 200.662 113.529 202.685C113.529 204.72 112.223 206.154 110.483 206.154C109.459 206.154 108.639 205.667 108.127 204.848V208.202H106.873V199.382H108.127V200.522C108.639 199.715 109.459 199.229 110.483 199.229ZM110.175 205.053C111.391 205.053 112.249 204.067 112.249 202.685C112.249 201.302 111.391 200.33 110.175 200.33C108.985 200.33 108.127 201.302 108.127 202.685C108.127 204.067 108.985 205.053 110.175 205.053ZM118.195 206.154C116.301 206.154 114.701 204.566 114.701 202.685C114.701 200.803 116.301 199.229 118.195 199.229C120.077 199.229 121.664 200.803 121.664 202.685C121.664 204.566 120.077 206.154 118.195 206.154ZM118.195 205.053C119.385 205.053 120.397 203.978 120.397 202.685C120.397 201.405 119.385 200.33 118.195 200.33C116.979 200.33 115.968 201.405 115.968 202.685C115.968 203.978 116.979 205.053 118.195 205.053ZM124.478 200.65C124.9 199.779 125.796 199.229 126.935 199.229V200.33C125.566 200.33 124.593 201.085 124.478 202.237V206H123.211V199.382H124.478V200.65ZM130.949 199.229C132.728 199.229 133.714 200.355 133.714 201.994V206H132.472V205.091C131.986 205.782 131.077 206.154 130.271 206.154C128.863 206.154 127.826 205.334 127.826 204.042C127.826 202.723 129.016 201.84 130.476 201.84C131.128 201.84 131.832 201.981 132.472 202.198V201.994C132.472 201.162 132.088 200.278 130.77 200.278C130.117 200.278 129.477 200.534 128.901 200.829L128.44 199.894C129.388 199.421 130.22 199.229 130.949 199.229ZM130.514 205.155C131.333 205.155 132.255 204.746 132.472 203.926V203.043C131.935 202.877 131.32 202.787 130.668 202.787C129.784 202.787 129.042 203.286 129.042 204.003C129.042 204.72 129.682 205.155 130.514 205.155ZM138.644 204.81L139.105 205.68C138.747 205.974 138.26 206.154 137.787 206.154C136.763 206.154 136.046 205.411 136.046 204.349V200.458H135.047V199.382H136.046V197.565H137.287V199.382H138.849V200.458H137.287V204.259C137.287 204.72 137.595 205.053 137.966 205.053C138.247 205.053 138.503 204.95 138.644 204.81ZM141.024 198.282C140.589 198.282 140.256 197.923 140.256 197.514C140.256 197.117 140.589 196.758 141.024 196.758C141.433 196.758 141.779 197.117 141.779 197.514C141.779 197.923 141.433 198.282 141.024 198.282ZM140.384 206V199.382H141.651V206H140.384ZM146.62 206.154C144.726 206.154 143.126 204.566 143.126 202.685C143.126 200.803 144.726 199.229 146.62 199.229C148.502 199.229 150.089 200.803 150.089 202.685C150.089 204.566 148.502 206.154 146.62 206.154ZM146.62 205.053C147.81 205.053 148.822 203.978 148.822 202.685C148.822 201.405 147.81 200.33 146.62 200.33C145.404 200.33 144.393 201.405 144.393 202.685C144.393 203.978 145.404 205.053 146.62 205.053ZM154.938 199.229C156.397 199.229 157.421 200.291 157.421 201.789V206H156.18V202.006C156.18 201.021 155.552 200.33 154.656 200.33C153.735 200.33 152.941 200.931 152.839 201.712V206H151.572V199.382H152.839V200.342C153.236 199.69 154.042 199.229 154.938 199.229Z" fill="#222222" fill-opacity="0.8"/>
<path d="M14.1648 282V275.68H16.98C18.0012 275.68 18.7188 276.333 18.7188 277.253C18.7188 277.924 18.3692 278.384 17.8172 278.66C18.5256 278.982 18.9672 279.58 18.9672 280.27C18.9672 281.282 18.1852 282 17.0904 282H14.1648ZM14.7536 278.421H16.888C17.6148 278.421 18.1208 277.961 18.1208 277.317C18.1208 276.682 17.5964 276.222 16.8512 276.222H14.7536V278.421ZM14.7536 281.457H16.9616C17.7896 281.457 18.3692 280.933 18.3692 280.206C18.3692 279.479 17.7896 278.964 16.9616 278.964H14.7536V281.457ZM20.815 283.656C20.5482 283.656 20.2814 283.601 20.0606 283.5L20.2078 282.994C20.3826 283.086 20.5942 283.132 20.7966 283.132C21.1462 283.132 21.3946 283.003 21.5694 282.69L21.8546 282.074L19.7662 277.244H20.3918L22.149 281.393L23.8142 277.244H24.4306L22.241 282.589C21.9374 283.343 21.4774 283.647 20.815 283.656ZM30.4108 282.11C29.0584 282.11 27.9728 281.006 27.9728 279.617C27.9728 278.228 29.0584 277.133 30.4108 277.133C31.0456 277.133 31.6344 277.4 32.076 277.832L31.6804 278.219C31.3492 277.869 30.8984 277.658 30.4108 277.658C29.3804 277.658 28.5708 278.522 28.5708 279.617C28.5708 280.721 29.3804 281.586 30.4108 281.586C30.9076 281.586 31.3676 281.365 31.6988 281.006L32.0944 281.393C31.6528 281.834 31.0548 282.11 30.4108 282.11ZM35.2975 277.133C36.3463 277.133 37.0823 277.888 37.0823 278.946V282H36.5119V279.019C36.5119 278.219 35.9783 277.658 35.2239 277.658C34.3867 277.658 33.7335 278.237 33.7335 278.973V282H33.1631V275.569H33.7335V278.026C33.9911 277.501 34.5983 277.133 35.2975 277.133ZM40.6896 282.11C39.3556 282.11 38.224 280.97 38.224 279.617C38.224 278.265 39.3556 277.133 40.6896 277.133C42.0236 277.133 43.146 278.265 43.146 279.617C43.146 280.97 42.0236 282.11 40.6896 282.11ZM40.6896 281.586C41.7016 281.586 42.548 280.694 42.548 279.617C42.548 278.55 41.7016 277.658 40.6896 277.658C39.6684 277.658 38.822 278.55 38.822 279.617C38.822 280.694 39.6684 281.586 40.6896 281.586ZM46.4935 282.11C45.1595 282.11 44.0279 280.97 44.0279 279.617C44.0279 278.265 45.1595 277.133 46.4935 277.133C47.8275 277.133 48.9499 278.265 48.9499 279.617C48.9499 280.97 47.8275 282.11 46.4935 282.11ZM46.4935 281.586C47.5055 281.586 48.3519 280.694 48.3519 279.617C48.3519 278.55 47.5055 277.658 46.4935 277.658C45.4723 277.658 44.6259 278.55 44.6259 279.617C44.6259 280.694 45.4723 281.586 46.4935 281.586ZM51.773 282.11C51.1014 282.11 50.3654 281.853 49.8042 281.402L50.1078 280.979C50.6598 281.374 51.2394 281.586 51.773 281.586C52.4262 281.586 52.9138 281.255 52.9138 280.795C52.9138 280.28 52.4078 280.059 51.6534 279.829C50.5126 279.498 50.0618 279.139 50.0618 278.467C50.0618 277.676 50.7794 277.133 51.6994 277.133C52.279 277.133 52.8954 277.336 53.4014 277.667L53.1162 278.108C52.6378 277.814 52.141 277.658 51.6994 277.658C51.1198 277.658 50.6322 277.943 50.6322 278.403C50.6322 278.835 51.0002 279.028 51.9294 279.332C52.8034 279.608 53.4842 279.912 53.4842 280.74C53.4842 281.549 52.7298 282.11 51.773 282.11ZM54.9025 276.314C54.6817 276.314 54.5069 276.14 54.5069 275.919C54.5069 275.707 54.6817 275.523 54.9025 275.523C55.1233 275.523 55.2981 275.707 55.2981 275.919C55.2981 276.14 55.1233 276.314 54.9025 276.314ZM54.6173 282V277.244H55.1877V282H54.6173ZM58.7197 277.133C59.7685 277.133 60.5045 277.888 60.5045 278.946V282H59.9341V279.019C59.9341 278.219 59.4005 277.658 58.6461 277.658C57.8089 277.658 57.1557 278.237 57.1557 278.973V282H56.5853V277.244H57.1557V278.026C57.4133 277.501 58.0205 277.133 58.7197 277.133ZM65.6023 277.244H66.1727V281.494C66.1727 282.718 65.2343 283.582 63.8911 283.582C63.1459 283.582 62.4007 283.316 61.9683 282.948L62.2259 282.488C62.6123 282.837 63.2287 283.058 63.8267 283.058C64.9123 283.058 65.6023 282.46 65.6023 281.494V280.629C65.2343 281.273 64.5811 281.65 63.7899 281.65C62.5571 281.65 61.6371 280.684 61.6371 279.387C61.6371 278.099 62.5571 277.133 63.7899 277.133C64.5903 277.133 65.2343 277.501 65.6023 278.145V277.244ZM63.8911 281.126C64.8847 281.126 65.6023 280.408 65.6023 279.387C65.6023 278.375 64.8847 277.658 63.8911 277.658C62.9435 277.658 62.2259 278.403 62.2259 279.387C62.2259 280.381 62.9435 281.126 63.8911 281.126ZM72.2087 277.133C73.4599 277.133 74.1131 277.952 74.1131 279.102V282H73.5427V281.246C73.1931 281.807 72.4387 282.11 71.7947 282.11C70.8011 282.11 70.0651 281.512 70.0651 280.592C70.0651 279.654 70.8839 279.01 71.9511 279.01C72.4663 279.01 73.0367 279.13 73.5427 279.295V279.102C73.5427 278.403 73.2299 277.639 72.1627 277.639C71.6843 277.639 71.1875 277.823 70.7551 278.062L70.5251 277.593C71.1507 277.262 71.7395 277.133 72.2087 277.133ZM71.8867 281.595C72.5491 281.595 73.3587 281.246 73.5427 280.51V279.746C73.0919 279.608 72.5675 279.507 72.0339 279.507C71.2427 279.507 70.6263 279.948 70.6263 280.565C70.6263 281.2 71.1783 281.595 71.8867 281.595ZM80.6029 277.133C81.8265 277.133 82.7741 278.2 82.7741 279.617C82.7741 281.043 81.8265 282.11 80.6029 282.11C79.8209 282.11 79.1953 281.715 78.8273 281.071V283.582H78.2569V277.244H78.8273V278.173C79.1953 277.529 79.8209 277.133 80.6029 277.133ZM80.5017 281.586C81.4585 281.586 82.1853 280.74 82.1853 279.617C82.1853 278.495 81.4585 277.658 80.5017 277.658C79.5173 277.658 78.8273 278.467 78.8273 279.617C78.8273 280.767 79.5173 281.586 80.5017 281.586ZM85.8739 277.133C87.1251 277.133 87.7783 277.952 87.7783 279.102V282H87.2079V281.246C86.8583 281.807 86.1039 282.11 85.4599 282.11C84.4663 282.11 83.7303 281.512 83.7303 280.592C83.7303 279.654 84.5491 279.01 85.6163 279.01C86.1315 279.01 86.7019 279.13 87.2079 279.295V279.102C87.2079 278.403 86.8951 277.639 85.8279 277.639C85.3495 277.639 84.8527 277.823 84.4203 278.062L84.1903 277.593C84.8159 277.262 85.4047 277.133 85.8739 277.133ZM85.5519 281.595C86.2143 281.595 87.0239 281.246 87.2079 280.51V279.746C86.7571 279.608 86.2327 279.507 85.6991 279.507C84.9079 279.507 84.2915 279.948 84.2915 280.565C84.2915 281.2 84.8435 281.595 85.5519 281.595ZM91.333 277.133C92.3818 277.133 93.1178 277.888 93.1178 278.946V282H92.5474V279.019C92.5474 278.219 92.0138 277.658 91.2594 277.658C90.4222 277.658 89.769 278.237 89.769 278.973V282H89.1986V277.244H89.769V278.026C90.0266 277.501 90.6338 277.133 91.333 277.133ZM96.6976 282.11C95.3452 282.11 94.2596 281.006 94.2596 279.617C94.2596 278.228 95.3452 277.133 96.6976 277.133C97.3324 277.133 97.9212 277.4 98.3628 277.832L97.9672 278.219C97.636 277.869 97.1852 277.658 96.6976 277.658C95.6672 277.658 94.8576 278.522 94.8576 279.617C94.8576 280.721 95.6672 281.586 96.6976 281.586C97.1944 281.586 97.6544 281.365 97.9856 281.006L98.3812 281.393C97.9396 281.834 97.3416 282.11 96.6976 282.11ZM101.584 277.133C102.633 277.133 103.369 277.888 103.369 278.946V282H102.799V279.019C102.799 278.219 102.265 277.658 101.511 277.658C100.673 277.658 100.02 278.237 100.02 278.973V282H99.4498V275.569H100.02V278.026C100.278 277.501 100.885 277.133 101.584 277.133ZM106.673 277.133C107.924 277.133 108.577 277.952 108.577 279.102V282H108.007V281.246C107.657 281.807 106.903 282.11 106.259 282.11C105.265 282.11 104.529 281.512 104.529 280.592C104.529 279.654 105.348 279.01 106.415 279.01C106.93 279.01 107.501 279.13 108.007 279.295V279.102C108.007 278.403 107.694 277.639 106.627 277.639C106.148 277.639 105.652 277.823 105.219 278.062L104.989 277.593C105.615 277.262 106.204 277.133 106.673 277.133ZM106.351 281.595C107.013 281.595 107.823 281.246 108.007 280.51V279.746C107.556 279.608 107.032 279.507 106.498 279.507C105.707 279.507 105.09 279.948 105.09 280.565C105.09 281.2 105.642 281.595 106.351 281.595ZM110.614 283.656C110.347 283.656 110.08 283.601 109.859 283.5L110.007 282.994C110.181 283.086 110.393 283.132 110.595 283.132C110.945 283.132 111.193 283.003 111.368 282.69L111.653 282.074L109.565 277.244H110.191L111.948 281.393L113.613 277.244H114.229L112.04 282.589C111.736 283.343 111.276 283.647 110.614 283.656ZM117.265 277.133C118.517 277.133 119.17 277.952 119.17 279.102V282H118.599V281.246C118.25 281.807 117.495 282.11 116.851 282.11C115.858 282.11 115.122 281.512 115.122 280.592C115.122 279.654 115.941 279.01 117.008 279.01C117.523 279.01 118.093 279.13 118.599 279.295V279.102C118.599 278.403 118.287 277.639 117.219 277.639C116.741 277.639 116.244 277.823 115.812 278.062L115.582 277.593C116.207 277.262 116.796 277.133 117.265 277.133ZM116.943 281.595C117.606 281.595 118.415 281.246 118.599 280.51V279.746C118.149 279.608 117.624 279.507 117.091 279.507C116.299 279.507 115.683 279.948 115.683 280.565C115.683 281.2 116.235 281.595 116.943 281.595ZM122.688 281.384L122.982 281.807C122.734 282 122.412 282.11 122.099 282.11C121.455 282.11 120.995 281.604 120.995 280.896V277.768H120.222V277.244H120.995V275.937H121.565V277.244H122.761V277.768H121.565V280.896C121.565 281.301 121.823 281.586 122.136 281.586C122.356 281.586 122.559 281.503 122.688 281.384ZM123.113 282.681L126.342 275.164H126.986L123.757 282.681H123.113ZM129.823 282.11C128.471 282.11 127.385 281.006 127.385 279.617C127.385 278.228 128.471 277.133 129.823 277.133C130.458 277.133 131.047 277.4 131.488 277.832L131.093 278.219C130.761 277.869 130.311 277.658 129.823 277.658C128.793 277.658 127.983 278.522 127.983 279.617C127.983 280.721 128.793 281.586 129.823 281.586C130.32 281.586 130.78 281.365 131.111 281.006L131.507 281.393C131.065 281.834 130.467 282.11 129.823 282.11ZM134.675 282.11C133.341 282.11 132.21 280.97 132.21 279.617C132.21 278.265 133.341 277.133 134.675 277.133C136.009 277.133 137.132 278.265 137.132 279.617C137.132 280.97 136.009 282.11 134.675 282.11ZM134.675 281.586C135.687 281.586 136.534 280.694 136.534 279.617C136.534 278.55 135.687 277.658 134.675 277.658C133.654 277.658 132.808 278.55 132.808 279.617C132.808 280.694 133.654 281.586 134.675 281.586ZM138.906 278.219C139.173 277.575 139.872 277.133 140.746 277.133V277.658C139.669 277.658 138.906 278.357 138.906 279.341V282H138.335V277.244H138.906V278.219ZM144.113 277.133C145.337 277.133 146.285 278.2 146.285 279.617C146.285 281.043 145.337 282.11 144.113 282.11C143.331 282.11 142.706 281.715 142.338 281.071V283.582H141.767V277.244H142.338V278.173C142.706 277.529 143.331 277.133 144.113 277.133ZM144.012 281.586C144.969 281.586 145.696 280.74 145.696 279.617C145.696 278.495 144.969 277.658 144.012 277.658C143.028 277.658 142.338 278.467 142.338 279.617C142.338 280.767 143.028 281.586 144.012 281.586ZM149.688 282.11C148.354 282.11 147.222 280.97 147.222 279.617C147.222 278.265 148.354 277.133 149.688 277.133C151.022 277.133 152.144 278.265 152.144 279.617C152.144 280.97 151.022 282.11 149.688 282.11ZM149.688 281.586C150.7 281.586 151.546 280.694 151.546 279.617C151.546 278.55 150.7 277.658 149.688 277.658C148.667 277.658 147.82 278.55 147.82 279.617C147.82 280.694 148.667 281.586 149.688 281.586ZM153.919 278.219C154.186 277.575 154.885 277.133 155.759 277.133V277.658C154.682 277.658 153.919 278.357 153.919 279.341V282H153.348V277.244H153.919V278.219ZM158.62 277.133C159.872 277.133 160.525 277.952 160.525 279.102V282H159.954V281.246C159.605 281.807 158.85 282.11 158.206 282.11C157.213 282.11 156.477 281.512 156.477 280.592C156.477 279.654 157.296 279.01 158.363 279.01C158.878 279.01 159.448 279.13 159.954 279.295V279.102C159.954 278.403 159.642 277.639 158.574 277.639C158.096 277.639 157.599 277.823 157.167 278.062L156.937 277.593C157.562 277.262 158.151 277.133 158.62 277.133ZM158.298 281.595C158.961 281.595 159.77 281.246 159.954 280.51V279.746C159.504 279.608 158.979 279.507 158.446 279.507C157.654 279.507 157.038 279.948 157.038 280.565C157.038 281.2 157.59 281.595 158.298 281.595ZM164.043 281.384L164.337 281.807C164.089 282 163.767 282.11 163.454 282.11C162.81 282.11 162.35 281.604 162.35 280.896V277.768H161.577V277.244H162.35V275.937H162.92V277.244H164.116V277.768H162.92V280.896C162.92 281.301 163.178 281.586 163.491 281.586C163.712 281.586 163.914 281.503 164.043 281.384ZM165.59 276.314C165.369 276.314 165.194 276.14 165.194 275.919C165.194 275.707 165.369 275.523 165.59 275.523C165.811 275.523 165.986 275.707 165.986 275.919C165.986 276.14 165.811 276.314 165.59 276.314ZM165.305 282V277.244H165.875V282H165.305ZM169.472 282.11C168.138 282.11 167.006 280.97 167.006 279.617C167.006 278.265 168.138 277.133 169.472 277.133C170.806 277.133 171.928 278.265 171.928 279.617C171.928 280.97 170.806 282.11 169.472 282.11ZM169.472 281.586C170.484 281.586 171.33 280.694 171.33 279.617C171.33 278.55 170.484 277.658 169.472 277.658C168.45 277.658 167.604 278.55 167.604 279.617C167.604 280.694 168.45 281.586 169.472 281.586ZM175.211 277.133C176.26 277.133 176.996 277.888 176.996 278.946V282H176.426V279.019C176.426 278.219 175.892 277.658 175.138 277.658C174.3 277.658 173.647 278.237 173.647 278.973V282H173.077V277.244H173.647V278.026C173.905 277.501 174.512 277.133 175.211 277.133ZM178.726 283.196L178.423 282.966C178.671 282.681 178.828 282.386 178.901 282.11C178.662 282.11 178.478 281.917 178.478 281.678C178.478 281.457 178.653 281.264 178.91 281.264C179.196 281.264 179.38 281.522 179.38 281.88C179.38 282.239 179.214 282.58 178.726 283.196ZM14.6248 296.656C14.358 296.656 14.0912 296.601 13.8704 296.5L14.0176 295.994C14.1924 296.086 14.404 296.132 14.6064 296.132C14.956 296.132 15.2044 296.003 15.3792 295.69L15.6644 295.074L13.576 290.244H14.2016L15.9588 294.393L17.624 290.244H18.2404L16.0508 295.589C15.7472 296.343 15.2872 296.647 14.6248 296.656ZM21.4002 295.11C20.0662 295.11 18.9346 293.97 18.9346 292.617C18.9346 291.265 20.0662 290.133 21.4002 290.133C22.7342 290.133 23.8566 291.265 23.8566 292.617C23.8566 293.97 22.7342 295.11 21.4002 295.11ZM21.4002 294.586C22.4122 294.586 23.2586 293.694 23.2586 292.617C23.2586 291.55 22.4122 290.658 21.4002 290.658C20.379 290.658 19.5326 291.55 19.5326 292.617C19.5326 293.694 20.379 294.586 21.4002 294.586ZM28.3449 290.244H28.9153V295H28.3449V294.218C28.0873 294.742 27.4801 295.11 26.7809 295.11C25.7321 295.11 24.9961 294.356 24.9961 293.298V290.244H25.5665V293.224C25.5665 294.025 26.1001 294.586 26.8545 294.586C27.6917 294.586 28.3449 294.006 28.3449 293.27V290.244ZM35.1726 295.11C33.8202 295.11 32.7346 294.006 32.7346 292.617C32.7346 291.228 33.8202 290.133 35.1726 290.133C35.8074 290.133 36.3962 290.4 36.8378 290.832L36.4422 291.219C36.111 290.869 35.6602 290.658 35.1726 290.658C34.1422 290.658 33.3326 291.522 33.3326 292.617C33.3326 293.721 34.1422 294.586 35.1726 294.586C35.6694 294.586 36.1294 294.365 36.4606 294.006L36.8562 294.393C36.4146 294.834 35.8166 295.11 35.1726 295.11ZM39.82 290.133C41.0712 290.133 41.7244 290.952 41.7244 292.102V295H41.154V294.246C40.8044 294.807 40.05 295.11 39.406 295.11C38.4124 295.11 37.6764 294.512 37.6764 293.592C37.6764 292.654 38.4952 292.01 39.5624 292.01C40.0776 292.01 40.648 292.13 41.154 292.295V292.102C41.154 291.403 40.8412 290.639 39.774 290.639C39.2956 290.639 38.7988 290.823 38.3664 291.062L38.1364 290.593C38.762 290.262 39.3508 290.133 39.82 290.133ZM39.498 294.595C40.1604 294.595 40.97 294.246 41.154 293.51V292.746C40.7032 292.608 40.1788 292.507 39.6452 292.507C38.854 292.507 38.2376 292.948 38.2376 293.565C38.2376 294.2 38.7896 294.595 39.498 294.595ZM45.2791 290.133C46.3279 290.133 47.0639 290.888 47.0639 291.946V295H46.4935V292.019C46.4935 291.219 45.9599 290.658 45.2055 290.658C44.3683 290.658 43.7151 291.237 43.7151 291.973V295H43.1447V290.244H43.7151V291.026C43.9727 290.501 44.5799 290.133 45.2791 290.133ZM53.312 295.11C51.9596 295.11 50.874 294.006 50.874 292.617C50.874 291.228 51.9596 290.133 53.312 290.133C53.9468 290.133 54.5356 290.4 54.9772 290.832L54.5816 291.219C54.2504 290.869 53.7996 290.658 53.312 290.658C52.2816 290.658 51.472 291.522 51.472 292.617C51.472 293.721 52.2816 294.586 53.312 294.586C53.8088 294.586 54.2688 294.365 54.6 294.006L54.9956 294.393C54.554 294.834 53.956 295.11 53.312 295.11ZM58.1642 295.11C56.8302 295.11 55.6986 293.97 55.6986 292.617C55.6986 291.265 56.8302 290.133 58.1642 290.133C59.4982 290.133 60.6206 291.265 60.6206 292.617C60.6206 293.97 59.4982 295.11 58.1642 295.11ZM58.1642 294.586C59.1762 294.586 60.0226 293.694 60.0226 292.617C60.0226 291.55 59.1762 290.658 58.1642 290.658C57.143 290.658 56.2966 291.55 56.2966 292.617C56.2966 293.694 57.143 294.586 58.1642 294.586ZM63.9037 290.133C64.9525 290.133 65.6885 290.888 65.6885 291.946V295H65.1181V292.019C65.1181 291.219 64.5845 290.658 63.8301 290.658C62.9929 290.658 62.3397 291.237 62.3397 291.973V295H61.7693V290.244H62.3397V291.026C62.5973 290.501 63.2045 290.133 63.9037 290.133ZM68.7163 295L66.6371 290.244H67.2719L68.9647 294.273L70.6483 290.244H71.2831L69.2223 295H68.7163ZM74.0287 294.586C74.6267 294.586 75.2799 294.347 75.6111 293.988L75.9699 294.374C75.5651 294.816 74.7279 295.11 74.0287 295.11C72.7591 295.11 71.6459 294.034 71.6459 292.608C71.6459 291.2 72.7039 290.133 73.9919 290.133C75.3995 290.133 76.2459 291.21 76.2459 292.847H72.2255C72.3267 293.832 73.0535 294.586 74.0287 294.586ZM74.0103 290.658C73.0811 290.658 72.3543 291.338 72.2347 292.323H75.6755C75.6019 291.366 75.0131 290.658 74.0103 290.658ZM79.5186 290.133C80.5674 290.133 81.3034 290.888 81.3034 291.946V295H80.733V292.019C80.733 291.219 80.1994 290.658 79.445 290.658C78.6078 290.658 77.9546 291.237 77.9546 291.973V295H77.3842V290.244H77.9546V291.026C78.2122 290.501 78.8194 290.133 79.5186 290.133ZM82.9787 289.314C82.7579 289.314 82.5831 289.14 82.5831 288.919C82.5831 288.707 82.7579 288.523 82.9787 288.523C83.1995 288.523 83.3743 288.707 83.3743 288.919C83.3743 289.14 83.1995 289.314 82.9787 289.314ZM82.6935 295V290.244H83.2639V295H82.6935ZM86.7775 294.586C87.3755 294.586 88.0287 294.347 88.3599 293.988L88.7187 294.374C88.3139 294.816 87.4767 295.11 86.7775 295.11C85.5079 295.11 84.3947 294.034 84.3947 292.608C84.3947 291.2 85.4527 290.133 86.7407 290.133C88.1483 290.133 88.9947 291.21 88.9947 292.847H84.9743C85.0755 293.832 85.8023 294.586 86.7775 294.586ZM86.7591 290.658C85.8299 290.658 85.1031 291.338 84.9835 292.323H88.4243C88.3507 291.366 87.7619 290.658 86.7591 290.658ZM92.2674 290.133C93.3162 290.133 94.0522 290.888 94.0522 291.946V295H93.4818V292.019C93.4818 291.219 92.9482 290.658 92.1938 290.658C91.3566 290.658 90.7034 291.237 90.7034 291.973V295H90.133V290.244H90.7034V291.026C90.961 290.501 91.5682 290.133 92.2674 290.133ZM97.5583 294.384L97.8527 294.807C97.6043 295 97.2823 295.11 96.9695 295.11C96.3255 295.11 95.8655 294.604 95.8655 293.896V290.768H95.0927V290.244H95.8655V288.937H96.4359V290.244H97.6319V290.768H96.4359V293.896C96.4359 294.301 96.6935 294.586 97.0063 294.586C97.2271 294.586 97.4295 294.503 97.5583 294.384ZM98.8297 295V288.569H99.4001V295H98.8297ZM101.423 296.656C101.156 296.656 100.889 296.601 100.668 296.5L100.816 295.994C100.99 296.086 101.202 296.132 101.404 296.132C101.754 296.132 102.002 296.003 102.177 295.69L102.462 295.074L100.374 290.244H101L102.757 294.393L104.422 290.244H105.038L102.849 295.589C102.545 296.343 102.085 296.647 101.423 296.656ZM108.838 295V288.569H109.409V295H108.838ZM113.014 295.11C111.68 295.11 110.548 293.97 110.548 292.617C110.548 291.265 111.68 290.133 113.014 290.133C114.348 290.133 115.47 291.265 115.47 292.617C115.47 293.97 114.348 295.11 113.014 295.11ZM113.014 294.586C114.026 294.586 114.872 293.694 114.872 292.617C114.872 291.55 114.026 290.658 113.014 290.658C111.993 290.658 111.146 291.55 111.146 292.617C111.146 293.694 111.993 294.586 113.014 294.586ZM118.79 295.11C117.438 295.11 116.352 294.006 116.352 292.617C116.352 291.228 117.438 290.133 118.79 290.133C119.425 290.133 120.014 290.4 120.455 290.832L120.06 291.219C119.729 290.869 119.278 290.658 118.79 290.658C117.76 290.658 116.95 291.522 116.95 292.617C116.95 293.721 117.76 294.586 118.79 294.586C119.287 294.586 119.747 294.365 120.078 294.006L120.474 294.393C120.032 294.834 119.434 295.11 118.79 295.11ZM123.438 290.133C124.689 290.133 125.342 290.952 125.342 292.102V295H124.772V294.246C124.422 294.807 123.668 295.11 123.024 295.11C122.03 295.11 121.294 294.512 121.294 293.592C121.294 292.654 122.113 292.01 123.18 292.01C123.695 292.01 124.266 292.13 124.772 292.295V292.102C124.772 291.403 124.459 290.639 123.392 290.639C122.913 290.639 122.416 290.823 121.984 291.062L121.754 290.593C122.38 290.262 122.968 290.133 123.438 290.133ZM123.116 294.595C123.778 294.595 124.588 294.246 124.772 293.51V292.746C124.321 292.608 123.796 292.507 123.263 292.507C122.472 292.507 121.855 292.948 121.855 293.565C121.855 294.2 122.407 294.595 123.116 294.595ZM128.86 294.384L129.154 294.807C128.906 295 128.584 295.11 128.271 295.11C127.627 295.11 127.167 294.604 127.167 293.896V290.768H126.394V290.244H127.167V288.937H127.737V290.244H128.933V290.768H127.737V293.896C127.737 294.301 127.995 294.586 128.308 294.586C128.529 294.586 128.731 294.503 128.86 294.384ZM132.256 294.586C132.854 294.586 133.508 294.347 133.839 293.988L134.198 294.374C133.793 294.816 132.956 295.11 132.256 295.11C130.987 295.11 129.874 294.034 129.874 292.608C129.874 291.2 130.932 290.133 132.22 290.133C133.627 290.133 134.474 291.21 134.474 292.847H130.453C130.554 293.832 131.281 294.586 132.256 294.586ZM132.238 290.658C131.309 290.658 130.582 291.338 130.462 292.323H133.903C133.83 291.366 133.241 290.658 132.238 290.658ZM140.378 294.384L140.672 294.807C140.424 295 140.102 295.11 139.789 295.11C139.145 295.11 138.685 294.604 138.685 293.896V290.768H137.912V290.244H138.685V288.937H139.255V290.244H140.451V290.768H139.255V293.896C139.255 294.301 139.513 294.586 139.826 294.586C140.047 294.586 140.249 294.503 140.378 294.384ZM143.793 290.133C144.842 290.133 145.578 290.888 145.578 291.946V295H145.007V292.019C145.007 291.219 144.474 290.658 143.719 290.658C142.882 290.658 142.229 291.237 142.229 291.973V295H141.658V288.569H142.229V291.026C142.486 290.501 143.094 290.133 143.793 290.133ZM149.102 294.586C149.7 294.586 150.353 294.347 150.685 293.988L151.043 294.374C150.639 294.816 149.801 295.11 149.102 295.11C147.833 295.11 146.719 294.034 146.719 292.608C146.719 291.2 147.777 290.133 149.065 290.133C150.473 290.133 151.319 291.21 151.319 292.847H147.299C147.4 293.832 148.127 294.586 149.102 294.586ZM149.084 290.658C148.155 290.658 147.428 291.338 147.308 292.323H150.749C150.675 291.366 150.087 290.658 149.084 290.658ZM157.26 290.133C158.309 290.133 159.045 290.888 159.045 291.946V295H158.475V292.019C158.475 291.219 157.941 290.658 157.187 290.658C156.35 290.658 155.696 291.237 155.696 291.973V295H155.126V290.244H155.696V291.026C155.954 290.501 156.561 290.133 157.26 290.133ZM162.57 294.586C163.168 294.586 163.821 294.347 164.152 293.988L164.511 294.374C164.106 294.816 163.269 295.11 162.57 295.11C161.3 295.11 160.187 294.034 160.187 292.608C160.187 291.2 161.245 290.133 162.533 290.133C163.941 290.133 164.787 291.21 164.787 292.847H160.767C160.868 293.832 161.595 294.586 162.57 294.586ZM162.551 290.658C161.622 290.658 160.895 291.338 160.776 292.323H164.217C164.143 291.366 163.554 290.658 162.551 290.658ZM167.82 290.133C169.072 290.133 169.725 290.952 169.725 292.102V295H169.154V294.246C168.805 294.807 168.05 295.11 167.406 295.11C166.413 295.11 165.677 294.512 165.677 293.592C165.677 292.654 166.496 292.01 167.563 292.01C168.078 292.01 168.648 292.13 169.154 292.295V292.102C169.154 291.403 168.842 290.639 167.774 290.639C167.296 290.639 166.799 290.823 166.367 291.062L166.137 290.593C166.762 290.262 167.351 290.133 167.82 290.133ZM167.498 294.595C168.161 294.595 168.97 294.246 169.154 293.51V292.746C168.704 292.608 168.179 292.507 167.646 292.507C166.854 292.507 166.238 292.948 166.238 293.565C166.238 294.2 166.79 294.595 167.498 294.595ZM171.771 291.219C172.038 290.575 172.737 290.133 173.611 290.133V290.658C172.534 290.658 171.771 291.357 171.771 292.341V295H171.2V290.244H171.771V291.219ZM176.693 294.586C177.291 294.586 177.944 294.347 178.276 293.988L178.634 294.374C178.23 294.816 177.392 295.11 176.693 295.11C175.424 295.11 174.31 294.034 174.31 292.608C174.31 291.2 175.368 290.133 176.656 290.133C178.064 290.133 178.91 291.21 178.91 292.847H174.89C174.991 293.832 175.718 294.586 176.693 294.586ZM176.675 290.658C175.746 290.658 175.019 291.338 174.899 292.323H178.34C178.266 291.366 177.678 290.658 176.675 290.658ZM181.723 295.11C181.051 295.11 180.315 294.853 179.754 294.402L180.058 293.979C180.61 294.374 181.189 294.586 181.723 294.586C182.376 294.586 182.864 294.255 182.864 293.795C182.864 293.28 182.358 293.059 181.603 292.829C180.463 292.498 180.012 292.139 180.012 291.467C180.012 290.676 180.729 290.133 181.649 290.133C182.229 290.133 182.845 290.336 183.351 290.667L183.066 291.108C182.588 290.814 182.091 290.658 181.649 290.658C181.07 290.658 180.582 290.943 180.582 291.403C180.582 291.835 180.95 292.028 181.879 292.332C182.753 292.608 183.434 292.912 183.434 293.74C183.434 294.549 182.68 295.11 181.723 295.11ZM186.683 294.384L186.978 294.807C186.729 295 186.407 295.11 186.095 295.11C185.451 295.11 184.991 294.604 184.991 293.896V290.768H184.218V290.244H184.991V288.937H185.561V290.244H186.757V290.768H185.561V293.896C185.561 294.301 185.819 294.586 186.131 294.586C186.352 294.586 186.555 294.503 186.683 294.384ZM192.527 290.133C193.779 290.133 194.432 290.952 194.432 292.102V295H193.861V294.246C193.512 294.807 192.757 295.11 192.113 295.11C191.12 295.11 190.384 294.512 190.384 293.592C190.384 292.654 191.203 292.01 192.27 292.01C192.785 292.01 193.355 292.13 193.861 292.295V292.102C193.861 291.403 193.549 290.639 192.481 290.639C192.003 290.639 191.506 290.823 191.074 291.062L190.844 290.593C191.469 290.262 192.058 290.133 192.527 290.133ZM192.205 294.595C192.868 294.595 193.677 294.246 193.861 293.51V292.746C193.411 292.608 192.886 292.507 192.353 292.507C191.561 292.507 190.945 292.948 190.945 293.565C190.945 294.2 191.497 294.595 192.205 294.595ZM197.471 295L195.392 290.244H196.027L197.72 294.273L199.403 290.244H200.038L197.977 295H197.471ZM202.518 290.133C203.769 290.133 204.422 290.952 204.422 292.102V295H203.852V294.246C203.502 294.807 202.748 295.11 202.104 295.11C201.11 295.11 200.374 294.512 200.374 293.592C200.374 292.654 201.193 292.01 202.26 292.01C202.776 292.01 203.346 292.13 203.852 292.295V292.102C203.852 291.403 203.539 290.639 202.472 290.639C201.994 290.639 201.497 290.823 201.064 291.062L200.834 290.593C201.46 290.262 202.049 290.133 202.518 290.133ZM202.196 294.595C202.858 294.595 203.668 294.246 203.852 293.51V292.746C203.401 292.608 202.877 292.507 202.343 292.507C201.552 292.507 200.936 292.948 200.936 293.565C200.936 294.2 201.488 294.595 202.196 294.595ZM206.11 289.314C205.889 289.314 205.714 289.14 205.714 288.919C205.714 288.707 205.889 288.523 206.11 288.523C206.33 288.523 206.505 288.707 206.505 288.919C206.505 289.14 206.33 289.314 206.11 289.314ZM205.824 295V290.244H206.395V295H205.824ZM207.783 295V288.569H208.354V295H207.783ZM211.655 290.133C212.906 290.133 213.56 290.952 213.56 292.102V295H212.989V294.246C212.64 294.807 211.885 295.11 211.241 295.11C210.248 295.11 209.512 294.512 209.512 293.592C209.512 292.654 210.33 292.01 211.398 292.01C211.913 292.01 212.483 292.13 212.989 292.295V292.102C212.989 291.403 212.676 290.639 211.609 290.639C211.131 290.639 210.634 290.823 210.202 291.062L209.972 290.593C210.597 290.262 211.186 290.133 211.655 290.133ZM211.333 294.595C211.996 294.595 212.805 294.246 212.989 293.51V292.746C212.538 292.608 212.014 292.507 211.48 292.507C210.689 292.507 210.073 292.948 210.073 293.565C210.073 294.2 210.625 294.595 211.333 294.595ZM217.381 290.133C218.605 290.133 219.552 291.2 219.552 292.617C219.552 294.043 218.605 295.11 217.381 295.11C216.599 295.11 215.973 294.715 215.605 294.071V295H215.035V288.569H215.605V291.173C215.973 290.529 216.599 290.133 217.381 290.133ZM217.28 294.586C218.237 294.586 218.963 293.74 218.963 292.617C218.963 291.495 218.237 290.658 217.28 290.658C216.295 290.658 215.605 291.467 215.605 292.617C215.605 293.767 216.295 294.586 217.28 294.586ZM220.748 295V288.569H221.318V295H220.748ZM224.84 294.586C225.438 294.586 226.092 294.347 226.423 293.988L226.782 294.374C226.377 294.816 225.54 295.11 224.84 295.11C223.571 295.11 222.458 294.034 222.458 292.608C222.458 291.2 223.516 290.133 224.804 290.133C226.211 290.133 227.058 291.21 227.058 292.847H223.037C223.138 293.832 223.865 294.586 224.84 294.586ZM224.822 290.658C223.893 290.658 223.166 291.338 223.046 292.323H226.487C226.414 291.366 225.825 290.658 224.822 290.658ZM230.855 295V288.569H231.425V295H230.855ZM234.727 290.133C235.978 290.133 236.631 290.952 236.631 292.102V295H236.061V294.246C235.711 294.807 234.957 295.11 234.313 295.11C233.319 295.11 232.583 294.512 232.583 293.592C232.583 292.654 233.402 292.01 234.469 292.01C234.985 292.01 235.555 292.13 236.061 292.295V292.102C236.061 291.403 235.748 290.639 234.681 290.639C234.203 290.639 233.706 290.823 233.273 291.062L233.043 290.593C233.669 290.262 234.258 290.133 234.727 290.133ZM234.405 294.595C235.067 294.595 235.877 294.246 236.061 293.51V292.746C235.61 292.608 235.086 292.507 234.552 292.507C233.761 292.507 233.145 292.948 233.145 293.565C233.145 294.2 233.697 294.595 234.405 294.595ZM240.453 290.133C241.677 290.133 242.624 291.2 242.624 292.617C242.624 294.043 241.677 295.11 240.453 295.11C239.671 295.11 239.045 294.715 238.677 294.071V295H238.107V288.569H238.677V291.173C239.045 290.529 239.671 290.133 240.453 290.133ZM240.352 294.586C241.309 294.586 242.035 293.74 242.035 292.617C242.035 291.495 241.309 290.658 240.352 290.658C239.367 290.658 238.677 291.467 238.677 292.617C238.677 293.767 239.367 294.586 240.352 294.586ZM246.028 295.11C244.694 295.11 243.562 293.97 243.562 292.617C243.562 291.265 244.694 290.133 246.028 290.133C247.362 290.133 248.484 291.265 248.484 292.617C248.484 293.97 247.362 295.11 246.028 295.11ZM246.028 294.586C247.04 294.586 247.886 293.694 247.886 292.617C247.886 291.55 247.04 290.658 246.028 290.658C245.006 290.658 244.16 291.55 244.16 292.617C244.16 293.694 245.006 294.586 246.028 294.586ZM252.972 290.244H253.543V295H252.972V294.218C252.715 294.742 252.107 295.11 251.408 295.11C250.359 295.11 249.623 294.356 249.623 293.298V290.244H250.194V293.224C250.194 294.025 250.727 294.586 251.482 294.586C252.319 294.586 252.972 294.006 252.972 293.27V290.244ZM255.586 291.219C255.853 290.575 256.552 290.133 257.426 290.133V290.658C256.35 290.658 255.586 291.357 255.586 292.341V295H255.016V290.244H255.586V291.219ZM262.036 289.59V290.244H263.26V290.768H262.036V295H261.466V290.768H260.693V290.244H261.466V289.59C261.466 288.882 261.926 288.376 262.57 288.376C262.892 288.376 263.195 288.486 263.453 288.68L263.158 289.103C263.03 288.974 262.836 288.9 262.606 288.9C262.294 288.9 262.036 289.186 262.036 289.59ZM266.458 295.11C265.124 295.11 263.992 293.97 263.992 292.617C263.992 291.265 265.124 290.133 266.458 290.133C267.792 290.133 268.914 291.265 268.914 292.617C268.914 293.97 267.792 295.11 266.458 295.11ZM266.458 294.586C267.47 294.586 268.316 293.694 268.316 292.617C268.316 291.55 267.47 290.658 266.458 290.658C265.437 290.658 264.59 291.55 264.59 292.617C264.59 293.694 265.437 294.586 266.458 294.586ZM270.689 291.219C270.955 290.575 271.655 290.133 272.529 290.133V290.658C271.452 290.658 270.689 291.357 270.689 292.341V295H270.118V290.244H270.689V291.219ZM275.666 295.11C274.314 295.11 273.228 294.006 273.228 292.617C273.228 291.228 274.314 290.133 275.666 290.133C276.301 290.133 276.89 290.4 277.332 290.832L276.936 291.219C276.605 290.869 276.154 290.658 275.666 290.658C274.636 290.658 273.826 291.522 273.826 292.617C273.826 293.721 274.636 294.586 275.666 294.586C276.163 294.586 276.623 294.365 276.954 294.006L277.35 294.393C276.908 294.834 276.31 295.11 275.666 295.11ZM280.535 294.586C281.133 294.586 281.786 294.347 282.117 293.988L282.476 294.374C282.071 294.816 281.234 295.11 280.535 295.11C279.265 295.11 278.152 294.034 278.152 292.608C278.152 291.2 279.21 290.133 280.498 290.133C281.905 290.133 282.752 291.21 282.752 292.847H278.731C278.833 293.832 279.559 294.586 280.535 294.586ZM280.516 290.658C279.587 290.658 278.86 291.338 278.741 292.323H282.181C282.108 291.366 281.519 290.658 280.516 290.658Z" fill="#9B9B9B"/>
<rect opacity="0.5" width="300" height="87.2" transform="matrix(-1 0 0 1 300.5 0.200195)" fill="url(#paint0_linear_601_6120)"/>
<rect x="20.1" y="45.4002" width="32" height="32" rx="9.2" fill="white" stroke="#F9F9F9" stroke-width="0.8"/>
<path d="M38.2255 55.6938C38.1519 55.62 38.0646 55.5615 37.9684 55.5216C37.8722 55.4817 37.7691 55.4612 37.665 55.4612C37.5608 55.4612 37.4577 55.4817 37.3615 55.5216C37.2654 55.5615 37.178 55.62 37.1045 55.6938L31.8415 60.9568C31.7828 61.0154 31.7362 61.085 31.7044 61.1616C31.6726 61.2382 31.6562 61.3203 31.6562 61.4033C31.6562 61.4862 31.6726 61.5683 31.7044 61.645C31.7362 61.7216 31.7828 61.7912 31.8415 61.8498L37.1045 67.1128C37.4148 67.4231 37.9151 67.4231 38.2255 67.1128C38.5358 66.8024 38.5358 66.3021 38.2255 65.9918L33.6401 61.4001L38.2318 56.8084C38.5358 56.5044 38.5358 55.9978 38.2255 55.6938Z" fill="#222222" stroke="#222222" stroke-width="0.16"/>
<path d="M68.324 63.5761H73.972V65.4001H66.34V54.4081H68.324V63.5761ZM79.5282 65.5921C77.1282 65.5921 75.0962 63.6081 75.0962 61.2561C75.0962 58.9041 77.1282 56.9361 79.5282 56.9361C81.9282 56.9361 83.9602 58.9041 83.9602 61.2561C83.9602 63.6081 81.9282 65.5921 79.5282 65.5921ZM79.5282 63.9281C80.8882 63.9281 82.0402 62.7121 82.0402 61.2561C82.0402 59.8161 80.8882 58.6001 79.5282 58.6001C78.1522 58.6001 77.0002 59.8161 77.0002 61.2561C77.0002 62.7121 78.1522 63.9281 79.5282 63.9281ZM89.6372 65.5921C87.2532 65.5921 85.2212 63.6081 85.2212 61.2561C85.2212 58.9041 87.2532 56.9361 89.6692 56.9361C90.9172 56.9361 92.0212 57.4641 92.8052 58.2801L91.4932 59.4321C91.0452 58.9361 90.3572 58.6001 89.6532 58.6001C88.2932 58.6001 87.1572 59.8161 87.1572 61.2561C87.1572 62.7121 88.2932 63.9281 89.6532 63.9281C90.3732 63.9281 91.0772 63.5921 91.5412 63.0641L92.8532 64.2001C92.0532 65.0481 90.9492 65.5921 89.6372 65.5921ZM97.9876 56.9361C100.18 56.9361 101.54 58.3281 101.54 60.4241V65.4001H99.6356V64.4081C99.0276 65.1761 97.9876 65.5921 97.0276 65.5921C95.2676 65.5921 93.9396 64.5521 93.9396 62.9521C93.9396 61.3201 95.4596 60.2001 97.3156 60.2001C98.0676 60.2001 98.8836 60.3601 99.6356 60.6481V60.4241C99.6356 59.4641 99.1076 58.5361 97.6036 58.5361C96.8196 58.5361 96.0676 58.8081 95.3636 59.1601L94.6916 57.8001C95.8596 57.2241 96.9476 56.9361 97.9876 56.9361ZM97.4596 64.1681C98.4036 64.1681 99.4116 63.6881 99.6356 62.8081V61.8801C99.0276 61.6721 98.3396 61.5601 97.6036 61.5601C96.6276 61.5601 95.8436 62.1041 95.8436 62.8881C95.8436 63.6721 96.5316 64.1681 97.4596 64.1681ZM107.781 63.6241L108.341 64.9361C107.877 65.3361 107.205 65.5921 106.581 65.5921C105.205 65.5921 104.245 64.6001 104.245 63.2081V58.7441H103.045V57.1281H104.245V54.8561H106.149V57.1281H108.021V58.7441H106.149V62.9681C106.149 63.5281 106.501 63.9281 106.965 63.9281C107.301 63.9281 107.605 63.8001 107.781 63.6241ZM110.848 55.8801C110.224 55.8801 109.728 55.3521 109.728 54.7601C109.728 54.1681 110.224 53.6561 110.848 53.6561C111.456 53.6561 111.952 54.1681 111.952 54.7601C111.952 55.3521 111.456 55.8801 110.848 55.8801ZM109.856 65.4001V57.1281H111.808V65.4001H109.856ZM117.966 65.5921C115.566 65.5921 113.534 63.6081 113.534 61.2561C113.534 58.9041 115.566 56.9361 117.966 56.9361C120.366 56.9361 122.398 58.9041 122.398 61.2561C122.398 63.6081 120.366 65.5921 117.966 65.5921ZM117.966 63.9281C119.326 63.9281 120.478 62.7121 120.478 61.2561C120.478 59.8161 119.326 58.6001 117.966 58.6001C116.59 58.6001 115.438 59.8161 115.438 61.2561C115.438 62.7121 116.59 63.9281 117.966 63.9281ZM128.603 56.9361C130.411 56.9361 131.675 58.2641 131.675 60.1361V65.4001H129.787V60.5201C129.787 59.4001 129.067 58.6001 128.043 58.6001C127.019 58.6001 126.171 59.2881 126.043 60.1681V65.4001H124.091V57.1281H126.043V58.2321C126.555 57.4641 127.515 56.9361 128.603 56.9361Z" fill="#222222"/>
<path opacity="0.35" d="M269.7 16.2002C269.7 15.2429 270.476 14.4669 271.433 14.4669H284.767C285.724 14.4669 286.5 15.2429 286.5 16.2002V21.0002C286.5 21.9575 285.724 22.7336 284.767 22.7336H271.433C270.476 22.7336 269.7 21.9575 269.7 21.0002V16.2002Z" stroke="#222222" stroke-width="0.8"/>
<path opacity="0.4" d="M287.7 17.0002V20.2002C288.344 19.9292 288.763 19.2988 288.763 18.6002C288.763 17.9017 288.344 17.2713 287.7 17.0002Z" fill="#222222"/>
<path d="M270.9 16.7334C270.9 16.1443 271.378 15.6667 271.967 15.6667H284.233C284.822 15.6667 285.3 16.1443 285.3 16.7334V20.4667C285.3 21.0559 284.822 21.5334 284.233 21.5334H271.967C271.378 21.5334 270.9 21.0559 270.9 20.4667V16.7334Z" fill="#222222"/>
<path fill-rule="evenodd" clip-rule="evenodd" d="M259.164 15.8866C260.937 15.8866 262.642 16.5678 263.927 17.7892C264.023 17.8835 264.178 17.8823 264.273 17.7866L265.198 16.8532C265.246 16.8046 265.273 16.7388 265.273 16.6704C265.272 16.6019 265.245 16.5364 265.196 16.4884C261.824 13.2568 256.504 13.2568 253.132 16.4884C253.083 16.5364 253.055 16.6019 253.055 16.6703C253.054 16.7388 253.081 16.8046 253.13 16.8532L254.055 17.7866C254.15 17.8825 254.305 17.8837 254.401 17.7892C255.686 16.5677 257.391 15.8866 259.164 15.8866ZM259.164 18.923C260.138 18.9229 261.077 19.2849 261.799 19.9387C261.897 20.0315 262.051 20.0295 262.146 19.9342L263.07 19.0008C263.118 18.9519 263.145 18.8855 263.145 18.8165C263.144 18.7474 263.116 18.6816 263.066 18.6336C260.868 16.5885 257.463 16.5885 255.264 18.6336C255.215 18.6816 255.186 18.7475 255.186 18.8165C255.185 18.8855 255.212 18.9519 255.261 19.0008L256.184 19.9342C256.279 20.0295 256.433 20.0315 256.531 19.9387C257.252 19.2854 258.191 18.9234 259.164 18.923ZM261.015 20.966C261.016 21.0352 260.989 21.1019 260.939 21.1504L259.342 22.763C259.295 22.8104 259.231 22.837 259.164 22.837C259.098 22.837 259.034 22.8104 258.987 22.763L257.389 21.1504C257.339 21.1019 257.312 21.0352 257.314 20.966C257.315 20.8968 257.345 20.8312 257.396 20.7848C258.417 19.9217 259.912 19.9217 260.932 20.7848C260.983 20.8313 261.013 20.8968 261.015 20.966Z" fill="#222222"/>
<path fill-rule="evenodd" clip-rule="evenodd" d="M248.233 14.3335H247.433C246.992 14.3335 246.633 14.6917 246.633 15.1335V22.0668C246.633 22.5087 246.992 22.8668 247.433 22.8668H248.233C248.675 22.8668 249.033 22.5087 249.033 22.0668V15.1335C249.033 14.6917 248.675 14.3335 248.233 14.3335ZM243.7 16.2001H244.5C244.942 16.2001 245.3 16.5583 245.3 17.0001V22.0668C245.3 22.5086 244.942 22.8668 244.5 22.8668H243.7C243.258 22.8668 242.9 22.5086 242.9 22.0668V17.0001C242.9 16.5583 243.258 16.2001 243.7 16.2001ZM240.767 18.0669H239.967C239.525 18.0669 239.167 18.4251 239.167 18.8669V22.0669C239.167 22.5087 239.525 22.8669 239.967 22.8669H240.767C241.209 22.8669 241.567 22.5087 241.567 22.0669V18.8669C241.567 18.4251 241.209 18.0669 240.767 18.0669ZM237.033 19.6669H236.233C235.792 19.6669 235.433 20.0251 235.433 20.4669V22.0669C235.433 22.5087 235.792 22.8669 236.233 22.8669H237.033C237.475 22.8669 237.833 22.5087 237.833 22.0669V20.4669C237.833 20.0251 237.475 19.6669 237.033 19.6669Z" fill="#222222"/>
<path d="M30.3917 14.7341C32.1964 14.7341 33.7667 16.0173 33.7667 19.0642V19.0759C33.7667 21.9236 32.4835 23.6111 30.3566 23.6111C28.8038 23.6111 27.6437 22.6912 27.3741 21.3962L27.3624 21.3318H28.8507L28.8683 21.3904C29.0909 21.9822 29.6124 22.3689 30.3566 22.3689C31.6983 22.3689 32.2667 21.0564 32.3312 19.4392C32.3312 19.3748 32.337 19.3103 32.337 19.2458H32.2198C31.9093 19.9138 31.171 20.5056 30.0108 20.5056C28.3878 20.5056 27.2511 19.322 27.2511 17.7166V17.7048C27.2511 15.988 28.5577 14.7341 30.3917 14.7341ZM30.3858 19.3455C31.3409 19.3455 32.0733 18.6541 32.0733 17.699V17.6873C32.0733 16.7205 31.3409 15.9646 30.4034 15.9646C29.4718 15.9646 28.7276 16.7087 28.7276 17.6521V17.6638C28.7276 18.6423 29.4249 19.3455 30.3858 19.3455ZM36.1869 17.9216C35.6537 17.9216 35.2552 17.5115 35.2552 16.9958C35.2552 16.4744 35.6537 16.0701 36.1869 16.0701C36.7259 16.0701 37.1185 16.4744 37.1185 16.9958C37.1185 17.5115 36.7259 17.9216 36.1869 17.9216ZM36.1869 22.2693C35.6537 22.2693 35.2552 21.865 35.2552 21.3435C35.2552 20.822 35.6537 20.4177 36.1869 20.4177C36.7259 20.4177 37.1185 20.822 37.1185 21.3435C37.1185 21.865 36.7259 22.2693 36.1869 22.2693ZM42.7086 23.4001V21.7771H38.5719V20.5408C39.6676 18.6365 40.8687 16.6912 42.0172 14.9451H44.1558V20.5291H45.2926V21.7771H44.1558V23.4001H42.7086ZM39.9781 20.5642H42.732V16.1521H42.6441C41.7769 17.4763 40.7984 19.0408 39.9781 20.4763V20.5642ZM48.5565 23.4001V16.4333H48.4569L46.3533 17.9216V16.4978L48.5623 14.9451H50.0682V23.4001H48.5565Z" fill="#222222"/>
<g filter="url(#filter0_d_601_6120)">
<rect x="13.3" y="518" width="274.4" height="38.4" rx="9.6" fill="#2BCBBA"/>
</g>
<path d="M97.2759 540.334C95.1143 540.334 93.2775 538.509 93.2775 536.347C93.2775 534.186 95.1143 532.371 97.2759 532.371C98.3735 532.371 99.3815 532.83 100.11 533.581L99.3143 534.342C98.7991 533.782 98.0711 533.413 97.2759 533.413C95.7415 533.413 94.4423 534.757 94.4423 536.347C94.4423 537.949 95.7415 539.293 97.2759 539.293C98.0711 539.293 98.7991 538.923 99.3143 538.363L100.11 539.125C99.3815 539.864 98.3735 540.334 97.2759 540.334ZM104.779 540.334C102.617 540.334 100.781 538.509 100.781 536.347C100.781 534.186 102.617 532.371 104.779 532.371C106.941 532.371 108.755 534.186 108.755 536.347C108.755 538.509 106.941 540.334 104.779 540.334ZM104.779 539.293C106.313 539.293 107.601 537.949 107.601 536.347C107.601 534.757 106.313 533.413 104.779 533.413C103.245 533.413 101.945 534.757 101.945 536.347C101.945 537.949 103.245 539.293 104.779 539.293ZM110.274 540.2V532.506H111.405L115.829 538.341V532.506H116.96V540.2H115.829L111.405 534.365V540.2H110.274ZM124.436 533.558H119.922V535.798H123.999V536.851H119.922V540.2H118.78V532.506H124.436V533.558ZM125.704 540.2V532.506H126.835V540.2H125.704ZM134.618 535.014C134.618 536.202 133.812 537.109 132.647 537.411L134.607 540.2H133.308L131.426 537.523H129.656V540.2H128.525V532.506H131.762C133.386 532.506 134.618 533.547 134.618 535.014ZM129.656 533.558V536.47H131.605C132.714 536.47 133.464 535.922 133.464 535.014C133.464 534.107 132.714 533.558 131.605 533.558H129.656ZM136.042 540.2V532.506H137.174L139.873 537.534L142.572 532.506H143.703V540.2H142.572V534.723L139.873 539.752L137.174 534.723V540.2H136.042ZM149.768 539.147H153.845V540.2H148.626V532.506H149.768V539.147ZM158.734 540.334C156.572 540.334 154.735 538.509 154.735 536.347C154.735 534.186 156.572 532.371 158.734 532.371C160.895 532.371 162.71 534.186 162.71 536.347C162.71 538.509 160.895 540.334 158.734 540.334ZM158.734 539.293C160.268 539.293 161.556 537.949 161.556 536.347C161.556 534.757 160.268 533.413 158.734 533.413C157.199 533.413 155.9 534.757 155.9 536.347C155.9 537.949 157.199 539.293 158.734 539.293ZM167.79 540.334C165.628 540.334 163.792 538.509 163.792 536.347C163.792 534.186 165.628 532.371 167.79 532.371C168.888 532.371 169.896 532.83 170.624 533.581L169.828 534.342C169.313 533.782 168.585 533.413 167.79 533.413C166.256 533.413 164.956 534.757 164.956 536.347C164.956 537.949 166.256 539.293 167.79 539.293C168.585 539.293 169.313 538.923 169.828 538.363L170.624 539.125C169.896 539.864 168.888 540.334 167.79 540.334ZM177.82 540.2L177.148 538.632H173.139L172.467 540.2H171.212L174.516 532.506H175.771L179.075 540.2H177.82ZM173.576 537.613H176.712L175.144 533.962L173.576 537.613ZM181.622 540.2V533.558H179.102V532.506H185.285V533.558H182.753V540.2H181.622ZM186.582 540.2V532.506H187.713V540.2H186.582ZM193.099 540.334C190.938 540.334 189.101 538.509 189.101 536.347C189.101 534.186 190.938 532.371 193.099 532.371C195.261 532.371 197.075 534.186 197.075 536.347C197.075 538.509 195.261 540.334 193.099 540.334ZM193.099 539.293C194.634 539.293 195.922 537.949 195.922 536.347C195.922 534.757 194.634 533.413 193.099 533.413C191.565 533.413 190.266 534.757 190.266 536.347C190.266 537.949 191.565 539.293 193.099 539.293ZM198.594 540.2V532.506H199.725L204.149 538.341V532.506H205.28V540.2H204.149L199.725 534.365V540.2H198.594Z" fill="white"/>
<path fill-rule="evenodd" clip-rule="evenodd" d="M97.3 590.4C97.3 589.295 98.1954 588.4 99.3 588.4H202.5C203.605 588.4 204.5 589.295 204.5 590.4C204.5 591.504 203.605 592.4 202.5 592.4H99.3C98.1954 592.4 97.3 591.504 97.3 590.4Z" fill="#222222"/>
</g>
<defs>
<filter id="filter0_d_601_6120" x="6.90005" y="514.8" width="287.2" height="51.1999" filterUnits="userSpaceOnUse" color-interpolation-filters="sRGB">
<feFlood flood-opacity="0" result="BackgroundImageFix"/>
<feColorMatrix in="SourceAlpha" type="matrix" values="0 0 0 0 0 0 0 0 0 0 0 0 0 0 0 0 0 0 127 0" result="hardAlpha"/>
<feOffset dy="3.2"/>
<feGaussianBlur stdDeviation="3.2"/>
<feColorMatrix type="matrix" values="0 0 0 0 0.0117647 0 0 0 0 0 0 0 0 0 0.282353 0 0 0 0.25 0"/>
<feBlend mode="normal" in2="BackgroundImageFix" result="effect1_dropShadow_601_6120"/>
<feBlend mode="normal" in="SourceGraphic" in2="effect1_dropShadow_601_6120" result="shape"/>
</filter>
<linearGradient id="paint0_linear_601_6120" x1="150" y1="-15.7862" x2="150" y2="107.497" gradientUnits="userSpaceOnUse">
<stop stop-color="#DAFFED"/>
<stop offset="0.575354" stop-color="#DAFFED" stop-opacity="0.486384"/>
<stop offset="1" stop-color="#DAFFED" stop-opacity="0"/>
</linearGradient>
<clipPath id="clip0_601_6120">
<rect width="300" height="600" fill="white"/>
</clipPath>
</defs>
</svg>
