<svg width="300" height="600" viewBox="0 0 300 600" fill="none" xmlns="http://www.w3.org/2000/svg">
<g clip-path="url(#clip0_601_6149)">
<rect width="300" height="600" fill="#F9F9F9"/>
<g clip-path="url(#clip1_601_6149)">
<g filter="url(#filter0_d_601_6149)">
<rect x="13.3" y="109.8" width="274.4" height="112" rx="12.8" fill="white"/>
</g>
<path d="M55.86 142.141C54.3496 142.141 53.0696 141.629 52.0968 140.72L53.0184 139.581C53.8248 140.31 54.7592 140.771 55.9112 140.771C56.9992 140.771 57.5624 140.234 57.5624 139.606C57.5624 138.877 56.9352 138.634 55.5272 138.301C53.7096 137.878 52.4424 137.354 52.4424 135.702C52.4424 134.166 53.748 133.04 55.604 133.04C56.9992 133.04 58.0488 133.514 58.932 134.269L58.0616 135.446C57.2936 134.781 56.4104 134.41 55.54 134.41C54.6568 134.41 54.0552 134.947 54.0552 135.562C54.0552 136.278 54.708 136.534 56.1032 136.854C57.9336 137.264 59.1624 137.853 59.1624 139.453C59.1624 141.027 57.9592 142.141 55.86 142.141ZM63.6549 140.771C64.2693 140.771 64.9989 140.49 65.3701 140.106L66.3557 141.13C65.7797 141.744 64.6277 142.154 63.6677 142.154C61.7733 142.154 60.2117 140.707 60.2117 138.672C60.2117 136.688 61.6965 135.229 63.5781 135.229C65.6261 135.229 66.8165 136.778 66.8165 139.222H61.8245C62.0165 140.131 62.7077 140.771 63.6549 140.771ZM63.6421 136.611C62.7717 136.611 62.0677 137.162 61.8373 138.032H65.3189C65.1397 137.2 64.5765 136.611 63.6421 136.611ZM68.1701 142V133.053H69.7317V142H68.1701ZM74.5424 140.771C75.1568 140.771 75.8864 140.49 76.2576 140.106L77.2432 141.13C76.6672 141.744 75.5152 142.154 74.5552 142.154C72.6608 142.154 71.0992 140.707 71.0992 138.672C71.0992 136.688 72.584 135.229 74.4656 135.229C76.5136 135.229 77.704 136.778 77.704 139.222H72.712C72.904 140.131 73.5952 140.771 74.5424 140.771ZM74.5296 136.611C73.6592 136.611 72.9552 137.162 72.7248 138.032H76.2064C76.0272 137.2 75.464 136.611 74.5296 136.611ZM82.2448 142.154C80.3376 142.154 78.712 140.566 78.712 138.685C78.712 136.803 80.3376 135.229 82.2704 135.229C83.2688 135.229 84.152 135.651 84.7792 136.304L83.7296 137.226C83.3712 136.829 82.8208 136.56 82.2576 136.56C81.1696 136.56 80.2608 137.533 80.2608 138.685C80.2608 139.85 81.1696 140.822 82.2576 140.822C82.8336 140.822 83.3968 140.554 83.768 140.131L84.8176 141.04C84.1776 141.718 83.2944 142.154 82.2448 142.154ZM89.3475 140.579L89.7955 141.629C89.4243 141.949 88.8867 142.154 88.3875 142.154C87.2867 142.154 86.5187 141.36 86.5187 140.246V136.675H85.5587V135.382H86.5187V133.565H88.0419V135.382H89.5395V136.675H88.0419V140.054C88.0419 140.502 88.3235 140.822 88.6947 140.822C88.9635 140.822 89.2067 140.72 89.3475 140.579ZM94.0924 140.771C94.7068 140.771 95.4364 140.49 95.8076 140.106L96.7932 141.13C96.2172 141.744 95.0652 142.154 94.1052 142.154C92.2108 142.154 90.6492 140.707 90.6492 138.672C90.6492 136.688 92.134 135.229 94.0156 135.229C96.0636 135.229 97.254 136.778 97.254 139.222H92.262C92.454 140.131 93.1452 140.771 94.0924 140.771ZM94.0796 136.611C93.2092 136.611 92.5052 137.162 92.2748 138.032H95.7564C95.5772 137.2 95.014 136.611 94.0796 136.611ZM103.638 133.053H105.2V142H103.638V140.976C103.113 141.718 102.32 142.154 101.347 142.154C99.5932 142.154 98.3132 140.72 98.3132 138.685C98.3132 136.662 99.5932 135.229 101.347 135.229C102.32 135.229 103.113 135.664 103.638 136.406V133.053ZM101.769 140.822C102.87 140.822 103.638 139.926 103.638 138.685C103.638 137.443 102.87 136.56 101.769 136.56C100.656 136.56 99.862 137.443 99.862 138.685C99.862 139.926 100.656 140.822 101.769 140.822ZM110.583 142V133.053H112.144V142H110.583ZM117.07 142.154C115.15 142.154 113.524 140.566 113.524 138.685C113.524 136.803 115.15 135.229 117.07 135.229C118.99 135.229 120.616 136.803 120.616 138.685C120.616 140.566 118.99 142.154 117.07 142.154ZM117.07 140.822C118.158 140.822 119.08 139.85 119.08 138.685C119.08 137.533 118.158 136.56 117.07 136.56C115.969 136.56 115.048 137.533 115.048 138.685C115.048 139.85 115.969 140.822 117.07 140.822ZM125.157 142.154C123.25 142.154 121.624 140.566 121.624 138.685C121.624 136.803 123.25 135.229 125.183 135.229C126.181 135.229 127.064 135.651 127.692 136.304L126.642 137.226C126.284 136.829 125.733 136.56 125.17 136.56C124.082 136.56 123.173 137.533 123.173 138.685C123.173 139.85 124.082 140.822 125.17 140.822C125.746 140.822 126.309 140.554 126.68 140.131L127.73 141.04C127.09 141.718 126.207 142.154 125.157 142.154ZM131.838 135.229C133.591 135.229 134.679 136.342 134.679 138.019V142H133.156V141.206C132.67 141.821 131.838 142.154 131.07 142.154C129.662 142.154 128.599 141.322 128.599 140.042C128.599 138.736 129.815 137.84 131.3 137.84C131.902 137.84 132.554 137.968 133.156 138.198V138.019C133.156 137.251 132.734 136.509 131.53 136.509C130.903 136.509 130.302 136.726 129.738 137.008L129.201 135.92C130.135 135.459 131.006 135.229 131.838 135.229ZM131.415 141.014C132.17 141.014 132.977 140.63 133.156 139.926V139.184C132.67 139.018 132.119 138.928 131.53 138.928C130.75 138.928 130.122 139.363 130.122 139.99C130.122 140.618 130.673 141.014 131.415 141.014ZM139.672 140.579L140.12 141.629C139.749 141.949 139.212 142.154 138.712 142.154C137.612 142.154 136.844 141.36 136.844 140.246V136.675H135.884V135.382H136.844V133.565H138.367V135.382H139.864V136.675H138.367V140.054C138.367 140.502 138.648 140.822 139.02 140.822C139.288 140.822 139.532 140.72 139.672 140.579ZM142.126 134.384C141.627 134.384 141.23 133.962 141.23 133.488C141.23 133.014 141.627 132.605 142.126 132.605C142.613 132.605 143.009 133.014 143.009 133.488C143.009 133.962 142.613 134.384 142.126 134.384ZM141.333 142V135.382H142.894V142H141.333ZM147.82 142.154C145.9 142.154 144.274 140.566 144.274 138.685C144.274 136.803 145.9 135.229 147.82 135.229C149.74 135.229 151.366 136.803 151.366 138.685C151.366 140.566 149.74 142.154 147.82 142.154ZM147.82 140.822C148.908 140.822 149.83 139.85 149.83 138.685C149.83 137.533 148.908 136.56 147.82 136.56C146.719 136.56 145.798 137.533 145.798 138.685C145.798 139.85 146.719 140.822 147.82 140.822ZM156.33 135.229C157.776 135.229 158.787 136.291 158.787 137.789V142H157.277V138.096C157.277 137.2 156.701 136.56 155.882 136.56C155.062 136.56 154.384 137.11 154.282 137.814V142H152.72V135.382H154.282V136.266C154.691 135.651 155.459 135.229 156.33 135.229Z" fill="#222222"/>
<path d="M27.1528 169.4V161.706H29.7512C32.1928 161.706 33.9176 163.296 33.9176 165.547C33.9176 167.798 32.1928 169.4 29.7512 169.4H27.1528ZM28.0264 168.605H29.7512C31.6776 168.605 33.0328 167.339 33.0328 165.547C33.0328 163.766 31.6776 162.501 29.7512 162.501H28.0264V168.605ZM35.8968 162.557C35.5832 162.557 35.3368 162.299 35.3368 161.997C35.3368 161.706 35.5832 161.448 35.8968 161.448C36.1992 161.448 36.4456 161.706 36.4456 161.997C36.4456 162.299 36.1992 162.557 35.8968 162.557ZM35.4712 169.4V163.61H36.3112V169.4H35.4712ZM40.0477 169.534C39.2413 169.534 38.3453 169.232 37.6509 168.672L38.0877 168.056C38.7485 168.538 39.4093 168.784 40.0477 168.784C40.8093 168.784 41.3245 168.426 41.3245 167.877C41.3245 167.25 40.6525 167.048 39.8685 166.824C38.4685 166.421 37.9309 166.006 37.9309 165.178C37.9309 164.125 38.8045 163.475 39.9581 163.475C40.6749 163.475 41.4141 163.722 42.0301 164.125L41.6269 164.774C41.0445 164.405 40.4733 164.226 39.9581 164.226C39.3085 164.226 38.7709 164.517 38.7709 165.077C38.7709 165.581 39.1965 165.738 40.2717 166.085C41.2013 166.376 42.1645 166.69 42.1645 167.787C42.1645 168.851 41.2461 169.534 40.0477 169.534ZM46.0967 168.549L46.5111 169.165C46.2087 169.4 45.8279 169.534 45.4359 169.534C44.6071 169.534 44.0247 168.918 44.0247 168.056V164.36H43.1175V163.61H44.0247V162.019H44.8647V163.61H46.2871V164.36H44.8647V168.056C44.8647 168.482 45.1559 168.784 45.4919 168.784C45.7495 168.784 45.9735 168.683 46.0967 168.549ZM48.618 164.741C48.9652 163.968 49.794 163.475 50.858 163.475V164.226C49.5476 164.226 48.618 165.032 48.618 166.163V169.4H47.778V163.61H48.618V164.741ZM52.4343 162.557C52.1207 162.557 51.8743 162.299 51.8743 161.997C51.8743 161.706 52.1207 161.448 52.4343 161.448C52.7367 161.448 52.9831 161.706 52.9831 161.997C52.9831 162.299 52.7367 162.557 52.4343 162.557ZM52.0087 169.4V163.61H52.8487V169.4H52.0087ZM57.2236 169.534C55.5996 169.534 54.222 168.146 54.222 166.499C54.222 164.853 55.5996 163.475 57.2236 163.475C58.0076 163.475 58.7356 163.8 59.2844 164.326L58.702 164.898C58.3212 164.483 57.7948 164.226 57.2236 164.226C56.07 164.226 55.1068 165.267 55.1068 166.499C55.1068 167.742 56.07 168.784 57.2236 168.784C57.806 168.784 58.3436 168.515 58.7356 168.078L59.318 168.65C58.7692 169.198 58.03 169.534 57.2236 169.534ZM63.1483 168.549L63.5627 169.165C63.2603 169.4 62.8795 169.534 62.4875 169.534C61.6587 169.534 61.0763 168.918 61.0763 168.056V164.36H60.1691V163.61H61.0763V162.019H61.9163V163.61H63.3387V164.36H61.9163V168.056C61.9163 168.482 62.2075 168.784 62.5435 168.784C62.8011 168.784 63.0251 168.683 63.1483 168.549ZM146.545 164.886C146.197 164.886 145.929 164.606 145.929 164.27C145.929 163.957 146.197 163.677 146.545 163.677C146.869 163.677 147.138 163.957 147.138 164.27C147.138 164.606 146.869 164.886 146.545 164.886ZM146.545 169.534C146.197 169.534 145.929 169.254 145.929 168.918C145.929 168.605 146.197 168.325 146.545 168.325C146.869 168.325 147.138 168.605 147.138 168.918C147.138 169.254 146.869 169.534 146.545 169.534Z" fill="#9B9B9B"/>
<path d="M152.155 169.4V161.706H153.287V165.715L156.915 161.706H158.36L155.202 165.166L158.573 169.4H157.151L154.407 165.95L153.287 167.149V169.4H152.155ZM162.279 169.534C160.621 169.534 159.221 168.146 159.221 166.499C159.221 164.853 160.621 163.475 162.279 163.475C163.925 163.475 165.314 164.853 165.314 166.499C165.314 168.146 163.925 169.534 162.279 169.534ZM162.279 168.571C163.32 168.571 164.205 167.63 164.205 166.499C164.205 165.379 163.32 164.438 162.279 164.438C161.215 164.438 160.33 165.379 160.33 166.499C160.33 167.63 161.215 168.571 162.279 168.571ZM166.365 169.4V168.571L169.613 164.606H166.432V163.61H171.069V164.438L167.821 168.403H171.091V169.4H166.365ZM175.375 163.475C176.652 163.475 177.548 164.405 177.548 165.715V169.4H176.462V165.906C176.462 165.043 175.913 164.438 175.129 164.438C174.255 164.438 173.527 165.054 173.527 165.805V169.4H172.43V161.571H173.527V164.472C173.875 163.89 174.58 163.475 175.375 163.475ZM179.683 162.646C179.302 162.646 179.011 162.333 179.011 161.974C179.011 161.627 179.302 161.314 179.683 161.314C180.042 161.314 180.344 161.627 180.344 161.974C180.344 162.333 180.042 162.646 179.683 162.646ZM179.123 169.4V163.61H180.232V169.4H179.123ZM187.1 163.61L184.602 166.23L186.988 169.4H185.666L183.852 166.97L182.922 167.91V169.4H181.825V161.571H182.922V166.566L185.756 163.61H187.1ZM193.28 163.61L190.782 166.23L193.168 169.4H191.846L190.032 166.97L189.102 167.91V169.4H188.005V161.571H189.102V166.566L191.936 163.61H193.28ZM196.939 169.534C195.282 169.534 193.882 168.146 193.882 166.499C193.882 164.853 195.282 163.475 196.939 163.475C198.586 163.475 199.975 164.853 199.975 166.499C199.975 168.146 198.586 169.534 196.939 169.534ZM196.939 168.571C197.981 168.571 198.866 167.63 198.866 166.499C198.866 165.379 197.981 164.438 196.939 164.438C195.875 164.438 194.991 165.379 194.991 166.499C194.991 167.63 195.875 168.571 196.939 168.571ZM205.73 161.571H206.827V169.4H205.73V168.392C205.282 169.109 204.565 169.534 203.669 169.534C202.146 169.534 201.003 168.28 201.003 166.499C201.003 164.73 202.146 163.475 203.669 163.475C204.565 163.475 205.282 163.901 205.73 164.606V161.571ZM203.938 168.571C204.979 168.571 205.73 167.709 205.73 166.499C205.73 165.29 204.979 164.438 203.938 164.438C202.874 164.438 202.123 165.29 202.123 166.499C202.123 167.709 202.874 168.571 203.938 168.571ZM211.145 168.549C211.75 168.549 212.456 168.28 212.803 167.922L213.497 168.638C212.982 169.187 211.974 169.534 211.156 169.534C209.544 169.534 208.177 168.269 208.177 166.488C208.177 164.752 209.465 163.475 211.067 163.475C212.836 163.475 213.856 164.819 213.856 166.891H209.297C209.443 167.854 210.148 168.549 211.145 168.549ZM211.112 164.461C210.216 164.461 209.488 165.066 209.308 166.006H212.78C212.657 165.11 212.108 164.461 211.112 164.461Z" fill="#222222"/>
<path d="M26.9848 188.8V181.105H30.1096C31.7 181.105 32.9432 182.125 32.9432 183.569C32.9432 185.014 31.7 186.033 30.1096 186.033H27.8584V188.8H26.9848ZM27.8584 185.205H29.9528C31.2072 185.205 32.0584 184.6 32.0584 183.569C32.0584 182.539 31.2072 181.934 29.9528 181.934H27.8584V185.205ZM36.511 182.875C38.0902 182.875 38.863 183.872 38.863 185.272V188.8H38.023V187.893C37.6086 188.576 36.7462 188.934 35.9846 188.934C34.7638 188.934 33.8678 188.229 33.8678 187.086C33.8678 185.933 34.8982 185.16 36.1414 185.16C36.7686 185.16 37.4294 185.294 38.023 185.485V185.272C38.023 184.488 37.7094 183.592 36.455 183.592C35.8726 183.592 35.2902 183.849 34.7638 184.118L34.4278 183.435C35.2566 183.021 35.951 182.875 36.511 182.875ZM36.1302 188.195C36.8918 188.195 37.799 187.803 38.023 186.985V186.101C37.4966 185.955 36.903 185.865 36.2758 185.865C35.4134 185.865 34.6854 186.358 34.6854 187.053C34.6854 187.769 35.3126 188.195 36.1302 188.195ZM43.3345 182.875C44.6113 182.875 45.5073 183.805 45.5073 185.115V188.8H44.6673V185.227C44.6673 184.286 44.0737 183.625 43.2225 183.625C42.2481 183.625 41.4305 184.309 41.4305 185.115V188.8H40.5905V183.009H41.4305V183.939C41.7665 183.323 42.5169 182.875 43.3345 182.875ZM49.8954 188.934C48.2714 188.934 46.8938 187.545 46.8938 185.899C46.8938 184.253 48.2714 182.875 49.8954 182.875C50.6794 182.875 51.4074 183.2 51.9562 183.726L51.3738 184.297C50.993 183.883 50.4666 183.625 49.8954 183.625C48.7418 183.625 47.7786 184.667 47.7786 185.899C47.7786 187.142 48.7418 188.184 49.8954 188.184C50.4778 188.184 51.0154 187.915 51.4074 187.478L51.9898 188.049C51.441 188.598 50.7018 188.934 49.8954 188.934ZM56.0329 182.875C57.3097 182.875 58.2057 183.805 58.2057 185.115V188.8H57.3657V185.227C57.3657 184.286 56.7721 183.625 55.9209 183.625C54.9465 183.625 54.1289 184.309 54.1289 185.115V188.8H53.2889V180.971H54.1289V183.939C54.4649 183.323 55.2153 182.875 56.0329 182.875ZM62.2579 182.875C63.8371 182.875 64.6099 183.872 64.6099 185.272V188.8H63.7699V187.893C63.3555 188.576 62.4931 188.934 61.7315 188.934C60.5107 188.934 59.6147 188.229 59.6147 187.086C59.6147 185.933 60.6451 185.16 61.8883 185.16C62.5155 185.16 63.1763 185.294 63.7699 185.485V185.272C63.7699 184.488 63.4563 183.592 62.2019 183.592C61.6195 183.592 61.0371 183.849 60.5107 184.118L60.1747 183.435C61.0035 183.021 61.6979 182.875 62.2579 182.875ZM61.8771 188.195C62.6387 188.195 63.5459 187.803 63.7699 186.985V186.101C63.2435 185.955 62.6499 185.865 62.0227 185.865C61.1603 185.865 60.4323 186.358 60.4323 187.053C60.4323 187.769 61.0595 188.195 61.8771 188.195ZM67.1886 190.816C66.8526 190.816 66.539 190.749 66.2702 190.625L66.4718 189.909C66.6734 190.009 66.9086 190.054 67.155 190.054C67.5246 190.054 67.771 189.931 67.995 189.539L68.331 188.822L65.811 183.009H66.7406L68.7678 187.825L70.683 183.009H71.5902L68.947 189.449C68.5438 190.435 67.9838 190.805 67.1886 190.816ZM75.3172 182.875C76.8964 182.875 77.6692 183.872 77.6692 185.272V188.8H76.8292V187.893C76.4148 188.576 75.5524 188.934 74.7908 188.934C73.57 188.934 72.674 188.229 72.674 187.086C72.674 185.933 73.7044 185.16 74.9476 185.16C75.5748 185.16 76.2356 185.294 76.8292 185.485V185.272C76.8292 184.488 76.5156 183.592 75.2612 183.592C74.6788 183.592 74.0964 183.849 73.57 184.118L73.234 183.435C74.0628 183.021 74.7572 182.875 75.3172 182.875ZM74.9364 188.195C75.698 188.195 76.6052 187.803 76.8292 186.985V186.101C76.3028 185.955 75.7092 185.865 75.082 185.865C74.2196 185.865 73.4916 186.358 73.4916 187.053C73.4916 187.769 74.1188 188.195 74.9364 188.195ZM81.9279 187.949L82.3423 188.565C82.0399 188.8 81.6591 188.934 81.2671 188.934C80.4383 188.934 79.8559 188.318 79.8559 187.456V183.76H78.9487V183.009H79.8559V181.419H80.6959V183.009H82.1183V183.76H80.6959V187.456C80.6959 187.881 80.9871 188.184 81.3231 188.184C81.5807 188.184 81.8047 188.083 81.9279 187.949ZM85.7489 189.629L89.6801 180.478H90.6321L86.7009 189.629H85.7489ZM95.1013 188.934C92.9733 188.934 91.1589 187.109 91.1589 184.947C91.1589 182.785 92.9733 180.971 95.1013 180.971C96.1653 180.971 97.1509 181.419 97.8677 182.147L97.2741 182.752C96.7141 182.158 95.9413 181.777 95.1013 181.777C93.4437 181.777 92.0437 183.233 92.0437 184.947C92.0437 186.672 93.4437 188.128 95.1013 188.128C95.9413 188.128 96.7141 187.747 97.2741 187.153L97.8677 187.758C97.1509 188.475 96.1653 188.934 95.1013 188.934ZM101.728 188.934C100.104 188.934 98.7266 187.545 98.7266 185.899C98.7266 184.253 100.104 182.875 101.728 182.875C103.352 182.875 104.719 184.253 104.719 185.899C104.719 187.545 103.352 188.934 101.728 188.934ZM101.728 188.184C102.871 188.184 103.834 187.142 103.834 185.899C103.834 184.667 102.871 183.625 101.728 183.625C100.575 183.625 99.6114 184.667 99.6114 185.899C99.6114 187.142 100.575 188.184 101.728 188.184ZM107.024 184.141C107.371 183.368 108.2 182.875 109.264 182.875V183.625C107.954 183.625 107.024 184.432 107.024 185.563V188.8H106.184V183.009H107.024V184.141ZM113.45 182.875C114.973 182.875 116.116 184.129 116.116 185.899C116.116 187.68 114.973 188.934 113.45 188.934C112.521 188.934 111.781 188.475 111.345 187.713V190.726H110.505V183.009H111.345V184.096C111.781 183.334 112.521 182.875 113.45 182.875ZM113.293 188.184C114.425 188.184 115.231 187.232 115.231 185.899C115.231 184.566 114.425 183.625 113.293 183.625C112.151 183.625 111.345 184.566 111.345 185.899C111.345 187.232 112.151 188.184 113.293 188.184ZM120.256 188.934C118.632 188.934 117.255 187.545 117.255 185.899C117.255 184.253 118.632 182.875 120.256 182.875C121.88 182.875 123.247 184.253 123.247 185.899C123.247 187.545 121.88 188.934 120.256 188.934ZM120.256 188.184C121.399 188.184 122.362 187.142 122.362 185.899C122.362 184.667 121.399 183.625 120.256 183.625C119.103 183.625 118.14 184.667 118.14 185.899C118.14 187.142 119.103 188.184 120.256 188.184ZM125.216 188.934C124.869 188.934 124.6 188.654 124.6 188.318C124.6 188.005 124.869 187.725 125.216 187.725C125.541 187.725 125.81 188.005 125.81 188.318C125.81 188.654 125.541 188.934 125.216 188.934ZM128.049 188.934C127.702 188.934 127.433 188.654 127.433 188.318C127.433 188.005 127.702 187.725 128.049 187.725C128.374 187.725 128.643 188.005 128.643 188.318C128.643 188.654 128.374 188.934 128.049 188.934ZM130.882 188.934C130.535 188.934 130.266 188.654 130.266 188.318C130.266 188.005 130.535 187.725 130.882 187.725C131.207 187.725 131.476 188.005 131.476 188.318C131.476 188.654 131.207 188.934 130.882 188.934ZM146.709 184.286C146.361 184.286 146.093 184.006 146.093 183.67C146.093 183.357 146.361 183.077 146.709 183.077C147.033 183.077 147.302 183.357 147.302 183.67C147.302 184.006 147.033 184.286 146.709 184.286ZM146.709 188.934C146.361 188.934 146.093 188.654 146.093 188.318C146.093 188.005 146.361 187.725 146.709 187.725C147.033 187.725 147.302 188.005 147.302 188.318C147.302 188.654 147.033 188.934 146.709 188.934Z" fill="#9B9B9B"/>
<path d="M152.319 188.8V181.105H153.451V185.115L157.079 181.105H158.524L155.366 184.566L158.737 188.8H157.315L154.571 185.35L153.451 186.549V188.8H152.319ZM162.443 188.934C160.785 188.934 159.385 187.545 159.385 185.899C159.385 184.253 160.785 182.875 162.443 182.875C164.089 182.875 165.478 184.253 165.478 185.899C165.478 187.545 164.089 188.934 162.443 188.934ZM162.443 187.971C163.484 187.971 164.369 187.03 164.369 185.899C164.369 184.779 163.484 183.838 162.443 183.838C161.379 183.838 160.494 184.779 160.494 185.899C160.494 187.03 161.379 187.971 162.443 187.971ZM166.529 188.8V187.971L169.777 184.006H166.596V183.009H171.233V183.838L167.985 187.803H171.255V188.8H166.529ZM175.539 182.875C176.816 182.875 177.712 183.805 177.712 185.115V188.8H176.626V185.305C176.626 184.443 176.077 183.838 175.293 183.838C174.419 183.838 173.691 184.454 173.691 185.205V188.8H172.594V180.971H173.691V183.872C174.039 183.289 174.744 182.875 175.539 182.875ZM179.847 182.046C179.467 182.046 179.175 181.733 179.175 181.374C179.175 181.027 179.467 180.713 179.847 180.713C180.206 180.713 180.508 181.027 180.508 181.374C180.508 181.733 180.206 182.046 179.847 182.046ZM179.287 188.8V183.009H180.396V188.8H179.287ZM187.264 183.009L184.767 185.63L187.152 188.8H185.831L184.016 186.369L183.087 187.31V188.8H181.989V180.971H183.087V185.966L185.92 183.009H187.264ZM193.444 183.009L190.946 185.63L193.332 188.8H192.01L190.196 186.369L189.266 187.31V188.8H188.169V180.971H189.266V185.966L192.1 183.009H193.444ZM197.104 188.934C195.446 188.934 194.046 187.545 194.046 185.899C194.046 184.253 195.446 182.875 197.104 182.875C198.75 182.875 200.139 184.253 200.139 185.899C200.139 187.545 198.75 188.934 197.104 188.934ZM197.104 187.971C198.145 187.971 199.03 187.03 199.03 185.899C199.03 184.779 198.145 183.838 197.104 183.838C196.04 183.838 195.155 184.779 195.155 185.899C195.155 187.03 196.04 187.971 197.104 187.971ZM205.894 180.971H206.991V188.8H205.894V187.792C205.446 188.509 204.729 188.934 203.833 188.934C202.31 188.934 201.167 187.68 201.167 185.899C201.167 184.129 202.31 182.875 203.833 182.875C204.729 182.875 205.446 183.301 205.894 184.006V180.971ZM204.102 187.971C205.143 187.971 205.894 187.109 205.894 185.899C205.894 184.689 205.143 183.838 204.102 183.838C203.038 183.838 202.287 184.689 202.287 185.899C202.287 187.109 203.038 187.971 204.102 187.971ZM211.309 187.949C211.914 187.949 212.62 187.68 212.967 187.321L213.661 188.038C213.146 188.587 212.138 188.934 211.32 188.934C209.708 188.934 208.341 187.669 208.341 185.888C208.341 184.152 209.629 182.875 211.231 182.875C213 182.875 214.02 184.219 214.02 186.291H209.461C209.607 187.254 210.312 187.949 211.309 187.949ZM211.276 183.861C210.38 183.861 209.652 184.465 209.472 185.406H212.944C212.821 184.51 212.272 183.861 211.276 183.861Z" fill="#222222"/>
<path d="M243.351 141.115C241.498 141.115 239.923 139.55 239.923 137.698C239.923 135.845 241.498 134.29 243.351 134.29C244.291 134.29 245.155 134.683 245.779 135.326L245.098 135.979C244.656 135.499 244.032 135.182 243.351 135.182C242.035 135.182 240.922 136.334 240.922 137.698C240.922 139.07 242.035 140.222 243.351 140.222C244.032 140.222 244.656 139.906 245.098 139.426L245.779 140.078C245.155 140.712 244.291 141.115 243.351 141.115ZM249.25 135.922C250.345 135.922 251.113 136.718 251.113 137.842V141H250.182V138.005C250.182 137.266 249.711 136.747 249.039 136.747C248.29 136.747 247.666 137.275 247.666 137.918V141H246.726V134.29H247.666V136.776C247.964 136.277 248.569 135.922 249.25 135.922ZM254.556 135.922C255.89 135.922 256.629 136.766 256.629 137.995V141H255.698V140.318C255.333 140.837 254.652 141.115 254.047 141.115C252.991 141.115 252.213 140.501 252.213 139.531C252.213 138.542 253.106 137.88 254.2 137.88C254.69 137.88 255.218 137.986 255.698 138.149V137.995C255.698 137.371 255.41 136.709 254.421 136.709C253.932 136.709 253.452 136.901 253.02 137.122L252.674 136.421C253.384 136.066 254.008 135.922 254.556 135.922ZM254.229 140.366C254.844 140.366 255.535 140.059 255.698 139.445V138.782C255.295 138.658 254.834 138.59 254.344 138.59C253.682 138.59 253.125 138.965 253.125 139.502C253.125 140.04 253.605 140.366 254.229 140.366ZM260.529 135.922C261.623 135.922 262.391 136.718 262.391 137.842V141H261.46V138.005C261.46 137.266 260.989 136.747 260.317 136.747C259.626 136.747 259.031 137.198 258.954 137.784V141H258.004V136.037H258.954V136.757C259.252 136.267 259.857 135.922 260.529 135.922ZM267.523 136.037H268.474V140.472C268.474 141.749 267.427 142.651 265.959 142.651C265.123 142.651 264.355 142.373 263.885 141.989L264.259 141.278C264.624 141.624 265.219 141.826 265.815 141.826C266.88 141.826 267.523 141.317 267.523 140.453V139.733C267.13 140.299 266.515 140.635 265.767 140.635C264.461 140.635 263.511 139.656 263.511 138.274C263.511 136.891 264.461 135.922 265.767 135.922C266.515 135.922 267.149 136.277 267.523 136.834V136.037ZM266.007 139.81C266.89 139.81 267.523 139.176 267.523 138.274C267.523 137.381 266.89 136.747 266.007 136.747C265.123 136.747 264.499 137.381 264.499 138.274C264.499 139.176 265.123 139.81 266.007 139.81ZM272.166 140.27C272.685 140.27 273.29 140.04 273.587 139.733L274.182 140.347C273.741 140.818 272.877 141.115 272.176 141.115C270.794 141.115 269.622 140.03 269.622 138.504C269.622 137.016 270.726 135.922 272.099 135.922C273.616 135.922 274.49 137.074 274.49 138.85H270.582C270.707 139.675 271.312 140.27 272.166 140.27ZM272.138 136.766C271.37 136.766 270.746 137.285 270.592 138.091H273.568C273.462 137.323 272.992 136.766 272.138 136.766Z" fill="#2BCBBA"/>
<path d="M39.75 126.754L40.0953 127.24L44.8995 124.719L43.8331 122.85L39.75 126.754Z" fill="#2BCBBA"/>
<path d="M38.6472 125.143L39.2237 125.704L44.1554 120.252L42.2485 118.9L38.6472 125.143Z" fill="#2BCBBA"/>
<path d="M33.7347 142.995C33.6977 143.041 33.6562 143.083 33.6107 143.12C33.2497 143.417 32.7199 143.361 32.4262 142.995C30.3745 140.432 28.8408 138.211 27.8208 136.331C26.7985 134.446 26.3037 132.922 26.3037 131.75C26.3037 127.955 29.3402 124.883 33.0805 124.883C36.8207 124.883 39.8573 127.955 39.8573 131.75C39.8573 132.922 39.3624 134.446 38.3401 136.331C37.3201 138.211 35.7864 140.432 33.7347 142.995Z" fill="white" stroke="#222222" stroke-width="0.407357"/>
<path fill-rule="evenodd" clip-rule="evenodd" d="M27.8995 134.84C28.0669 135.214 28.2618 135.611 28.4856 136.03C29.4388 137.812 30.8811 139.933 32.8258 142.396C32.9426 142.544 33.1457 142.563 33.2848 142.447C33.3028 142.432 33.3195 142.415 33.3345 142.396C35.2791 139.933 36.7214 137.812 37.6746 136.03C38.6355 134.232 39.0634 132.844 39.0634 131.829C39.0634 129.319 37.6084 127.17 35.5288 126.208C35.2497 127.16 34.8685 128.068 34.398 128.921C35.5244 129.429 36.3092 130.569 36.3092 131.894C36.3092 133.692 34.8635 135.149 33.0801 135.149C31.8788 135.149 30.8306 134.488 30.2745 133.507C29.5337 134.026 28.7387 134.473 27.8995 134.84Z" fill="#2BCBBA"/>
<path d="M29.6647 142.723C29.7754 142.704 29.8492 142.598 29.8295 142.487C29.8098 142.377 29.7041 142.303 29.5933 142.322L29.6647 142.723ZM28.2075 142.645C28.0997 142.677 28.0383 142.79 28.0704 142.898C28.1025 143.006 28.2159 143.067 28.3237 143.035L28.2075 142.645ZM27.5186 143.322C27.6221 143.278 27.67 143.158 27.6257 143.055C27.5815 142.951 27.4618 142.903 27.3583 142.948L27.5186 143.322ZM36.6713 142.341C36.5607 142.321 36.4544 142.394 36.4339 142.505C36.4134 142.615 36.4865 142.722 36.5971 142.742L36.6713 142.341ZM29.5933 142.322C29.0913 142.412 28.6261 142.52 28.2075 142.645L28.3237 143.035C28.7255 142.915 29.1755 142.811 29.6647 142.723L29.5933 142.322ZM27.3583 142.948C26.9255 143.133 26.5672 143.345 26.3139 143.584C26.0605 143.823 25.8963 144.104 25.8963 144.419H26.3037C26.3037 144.255 26.3879 144.074 26.5932 143.88C26.7988 143.687 27.1097 143.497 27.5186 143.322L27.3583 142.948ZM25.8963 144.419C25.8963 144.815 26.1529 145.155 26.5275 145.432C26.9062 145.712 27.4411 145.955 28.0838 146.156C29.3716 146.558 31.1381 146.804 33.0805 146.804V146.397C31.1676 146.397 29.4439 146.154 28.2053 145.767C27.5847 145.573 27.0974 145.347 26.7696 145.104C26.4378 144.859 26.3037 144.625 26.3037 144.419H25.8963ZM33.0805 146.804C35.0228 146.804 36.7894 146.558 38.0771 146.156C38.7198 145.955 39.2547 145.712 39.6334 145.432C40.0081 145.155 40.2646 144.815 40.2646 144.419H39.8573C39.8573 144.625 39.7232 144.859 39.3914 145.104C39.0636 145.347 38.5762 145.573 37.9557 145.767C36.717 146.154 34.9933 146.397 33.0805 146.397V146.804ZM40.2646 144.419C40.2646 143.897 39.822 143.47 39.2131 143.144C38.5872 142.808 37.7079 142.533 36.6713 142.341L36.5971 142.742C37.6119 142.93 38.4459 143.195 39.0206 143.503C39.6122 143.82 39.8573 144.143 39.8573 144.419H40.2646Z" fill="#222222"/>
<path d="M36.2679 131.817C36.2679 133.565 34.8423 134.984 33.0811 134.984C31.3199 134.984 29.8942 133.565 29.8942 131.817C29.8942 130.069 31.3199 128.65 33.0811 128.65C34.8423 128.65 36.2679 130.069 36.2679 131.817Z" stroke="#2BCBBA" stroke-width="0.407357"/>
</g>
<path d="M26.8456 317.4L26.0728 315.653H21.7832L21.0104 317.4H20.0584L23.452 309.706H24.404L27.7976 317.4H26.8456ZM22.1416 314.824H25.7144L23.9336 310.781L22.1416 314.824ZM29.2298 317.4V309.571H30.0698V317.4H29.2298ZM33.4697 317.4L31.5321 311.61H32.4281L33.8729 316.28L35.4521 311.61H36.1801L37.7593 316.28L39.2041 311.61H40.1001L38.1513 317.4H37.3561L35.8217 312.775L34.2649 317.4H33.4697ZM41.9594 310.557C41.6458 310.557 41.3994 310.299 41.3994 309.997C41.3994 309.706 41.6458 309.448 41.9594 309.448C42.2618 309.448 42.5082 309.706 42.5082 309.997C42.5082 310.299 42.2618 310.557 41.9594 310.557ZM41.5338 317.4V311.61H42.3738V317.4H41.5338Z" fill="#222222"/>
<path d="M20.7528 338.4V330.706H24.2808C25.524 330.706 26.3976 331.501 26.3976 332.621C26.3976 333.439 25.9944 333.909 25.3 334.312C26.1848 334.76 26.7 335.455 26.7 336.295C26.7 337.527 25.748 338.4 24.4152 338.4H20.7528ZM21.6264 333.965H24.0568C24.908 333.965 25.5128 333.45 25.5128 332.733C25.5128 332.016 24.908 331.501 24.0568 331.501H21.6264V333.965ZM21.6264 337.605H24.1912C25.1432 337.605 25.8152 337.011 25.8152 336.183C25.8152 335.354 25.1432 334.76 24.1912 334.76H21.6264V337.605ZM28.4431 338.4V330.706H29.3167V338.4H28.4431ZM31.482 338.4V330.706H35.01C36.2532 330.706 37.1268 331.501 37.1268 332.621C37.1268 333.439 36.7236 333.909 36.0292 334.312C36.914 334.76 37.4292 335.455 37.4292 336.295C37.4292 337.527 36.4772 338.4 35.1444 338.4H31.482ZM32.3556 333.965H34.786C35.6372 333.965 36.242 333.45 36.242 332.733C36.242 332.016 35.6372 331.501 34.786 331.501H32.3556V333.965ZM32.3556 337.605H34.9204C35.8724 337.605 36.5444 337.011 36.5444 336.183C36.5444 335.354 35.8724 334.76 34.9204 334.76H32.3556V337.605ZM45.4332 338.4L44.6604 336.653H40.3708L39.598 338.4H38.646L42.0396 330.706H42.9916L46.3852 338.4H45.4332ZM40.7292 335.824H44.302L42.5212 331.781L40.7292 335.824ZM48.0191 338.4V330.706H50.6175C53.0591 330.706 54.7839 332.296 54.7839 334.547C54.7839 336.799 53.0591 338.4 50.6175 338.4H48.0191ZM48.8927 337.605H50.6175C52.5439 337.605 53.8991 336.339 53.8991 334.547C53.8991 332.767 52.5439 331.501 50.6175 331.501H48.8927V337.605ZM63.7188 338.535C61.5908 338.535 59.7764 336.709 59.7764 334.547C59.7764 332.386 61.5908 330.571 63.7188 330.571C64.7828 330.571 65.7684 331.019 66.4852 331.747L65.8916 332.352C65.3316 331.759 64.5588 331.378 63.7188 331.378C62.0612 331.378 60.6612 332.834 60.6612 334.547C60.6612 336.272 62.0612 337.728 63.7188 337.728C64.5588 337.728 65.3316 337.347 65.8916 336.754L66.4852 337.359C65.7684 338.075 64.7828 338.535 63.7188 338.535ZM71.3912 338.535C69.2632 338.535 67.4488 336.709 67.4488 334.547C67.4488 332.386 69.2632 330.571 71.3912 330.571C73.5304 330.571 75.3224 332.386 75.3224 334.547C75.3224 336.709 73.5304 338.535 71.3912 338.535ZM71.3912 337.728C73.0488 337.728 74.4376 336.272 74.4376 334.547C74.4376 332.834 73.0488 331.378 71.3912 331.378C69.7336 331.378 68.3336 332.834 68.3336 334.547C68.3336 336.272 69.7336 337.728 71.3912 337.728ZM77.1776 338.4V330.706H78.0512L82.8224 336.967V330.706H83.696V338.4H82.8224L78.0512 332.139V338.4H77.1776ZM88.5179 338.523C87.2523 338.523 86.2555 338.064 85.4827 337.303L86.0315 336.619C86.6811 337.269 87.4763 337.728 88.5515 337.728C89.7387 337.728 90.3435 337.079 90.3435 336.384C90.3435 335.567 89.6155 335.242 88.2715 334.928C86.7259 334.57 85.7515 334.088 85.7515 332.755C85.7515 331.523 86.8491 330.56 88.3275 330.56C89.4699 330.56 90.3211 331.008 91.0267 331.658L90.4891 332.341C89.8507 331.725 89.0891 331.355 88.2827 331.355C87.3307 331.355 86.6363 331.983 86.6363 332.688C86.6363 333.483 87.3979 333.763 88.7083 334.077C90.1755 334.424 91.2283 334.951 91.2283 336.306C91.2283 337.527 90.3099 338.523 88.5179 338.523ZM96.5851 338.535C94.4571 338.535 92.6427 336.709 92.6427 334.547C92.6427 332.386 94.4571 330.571 96.5851 330.571C98.7243 330.571 100.516 332.386 100.516 334.547C100.516 336.709 98.7243 338.535 96.5851 338.535ZM96.5851 337.728C98.2427 337.728 99.6315 336.272 99.6315 334.547C99.6315 332.834 98.2427 331.378 96.5851 331.378C94.9275 331.378 93.5275 332.834 93.5275 334.547C93.5275 336.272 94.9275 337.728 96.5851 337.728ZM108.162 333.17C108.162 334.379 107.288 335.298 106.067 335.555L108.061 338.4H107.064L105.115 335.634H103.077V338.4H102.203V330.706H105.328C106.919 330.706 108.162 331.725 108.162 333.17ZM103.077 331.535V334.805H105.171C106.426 334.805 107.277 334.2 107.277 333.17C107.277 332.139 106.426 331.535 105.171 331.535H103.077ZM111.918 338.4V331.535H109.331V330.706H115.379V331.535H112.792V338.4H111.918ZM116.99 338.4V330.706H117.864V338.4H116.99ZM123.154 338.535C121.273 338.535 119.94 337.157 119.94 335.208V330.706H120.813V335.208C120.813 336.687 121.788 337.739 123.154 337.739C124.521 337.739 125.495 336.687 125.495 335.208V330.706H126.369V335.208C126.369 337.157 125.036 338.535 123.154 338.535ZM128.61 338.4V330.706H129.483L132.339 336.071L135.195 330.706H136.069V338.4H135.195V332.587L132.339 337.952L129.483 332.587V338.4H128.61ZM141.697 338.4V330.706H144.822C146.413 330.706 147.656 331.725 147.656 333.17C147.656 334.615 146.413 335.634 144.822 335.634H142.571V338.4H141.697ZM142.571 334.805H144.665C145.92 334.805 146.771 334.2 146.771 333.17C146.771 332.139 145.92 331.535 144.665 331.535H142.571V334.805ZM155.39 330.706H156.342L152.948 338.4H151.996L148.603 330.706H149.555L152.478 337.325L155.39 330.706ZM160.014 338.4V331.535H157.427V330.706H163.475V331.535H160.888V338.4H160.014ZM169.309 337.571H173.509V338.4H168.436V330.706H169.309V337.571ZM176.896 338.4V331.535H174.309V330.706H180.357V331.535H177.769V338.4H176.896ZM182.136 338.4V330.706H184.734C187.176 330.706 188.901 332.296 188.901 334.547C188.901 336.799 187.176 338.4 184.734 338.4H182.136ZM183.01 337.605H184.734C186.661 337.605 188.016 336.339 188.016 334.547C188.016 332.767 186.661 331.501 184.734 331.501H183.01V337.605ZM191.272 338.535C190.925 338.535 190.656 338.255 190.656 337.919C190.656 337.605 190.925 337.325 191.272 337.325C191.597 337.325 191.866 337.605 191.866 337.919C191.866 338.255 191.597 338.535 191.272 338.535Z" fill="#9B9B9B"/>
<g clip-path="url(#clip2_601_6149)">
<path d="M276.633 316H263.566C262.53 316 261.7 316.84 261.7 317.867V330.933C261.7 331.96 262.53 332.8 263.566 332.8H276.633C277.669 332.8 278.5 331.96 278.5 330.933V317.867C278.5 316.84 277.669 316 276.633 316ZM268.233 329.067L263.566 324.4L264.882 323.084L268.233 326.425L275.317 319.341L276.633 320.667L268.233 329.067Z" fill="#2BCBBA"/>
</g>
<line x1="19.7" y1="361" x2="281.3" y2="361" stroke="#E7E7E8" stroke-width="0.8"/>
<path d="M20.7528 391.4V383.706H21.6264L24.4824 389.071L27.3384 383.706H28.212V391.4H27.3384V385.587L24.4824 390.952L21.6264 385.587V391.4H20.7528ZM34.4113 385.61H35.2513V391.4H34.4113V390.471C34.0753 391.087 33.3249 391.535 32.5073 391.535C31.2305 391.535 30.3345 390.605 30.3345 389.295V385.61H31.1745V389.183C31.1745 390.123 31.7681 390.784 32.6193 390.784C33.5937 390.784 34.4113 390.101 34.4113 389.295V385.61ZM39.9419 385.475C41.2187 385.475 42.1147 386.405 42.1147 387.715V391.4H41.2747V387.827C41.2747 386.887 40.6811 386.226 39.8299 386.226C38.8555 386.226 38.0379 386.909 38.0379 387.715V391.4H37.1979V385.61H38.0379V386.539C38.3739 385.923 39.1243 385.475 39.9419 385.475ZM46.6484 390.784C47.3316 390.784 48.1156 390.482 48.474 390.09L48.9892 390.639C48.4852 391.187 47.466 391.535 46.6596 391.535C45.114 391.535 43.7252 390.269 43.7252 388.488C43.7252 386.763 45.0244 385.475 46.5812 385.475C48.3284 385.475 49.3252 386.797 49.3252 388.824H44.5876C44.7108 389.955 45.506 390.784 46.6484 390.784ZM46.6148 386.226C45.5844 386.226 44.7556 386.954 44.5988 388.074H48.4964C48.3844 387.032 47.7684 386.226 46.6148 386.226ZM53.5333 390.784C54.2165 390.784 55.0005 390.482 55.3589 390.09L55.8741 390.639C55.3701 391.187 54.3509 391.535 53.5445 391.535C51.9989 391.535 50.6101 390.269 50.6101 388.488C50.6101 386.763 51.9093 385.475 53.4661 385.475C55.2133 385.475 56.2101 386.797 56.2101 388.824H51.4725C51.5957 389.955 52.3909 390.784 53.5333 390.784ZM53.4997 386.226C52.4693 386.226 51.6405 386.954 51.4837 388.074H55.3813C55.2693 387.032 54.6533 386.226 53.4997 386.226ZM58.7271 386.741C59.0743 385.968 59.9031 385.475 60.9671 385.475V386.226C59.6567 386.226 58.7271 387.032 58.7271 388.163V391.4H57.8871V385.61H58.7271V386.741Z" fill="#222222"/>
<path d="M20.7528 412.4V404.706H24.2808C25.524 404.706 26.3976 405.501 26.3976 406.621C26.3976 407.439 25.9944 407.909 25.3 408.312C26.1848 408.76 26.7 409.455 26.7 410.295C26.7 411.527 25.748 412.4 24.4152 412.4H20.7528ZM21.6264 407.965H24.0568C24.908 407.965 25.5128 407.45 25.5128 406.733C25.5128 406.016 24.908 405.501 24.0568 405.501H21.6264V407.965ZM21.6264 411.605H24.1912C25.1432 411.605 25.8152 411.011 25.8152 410.183C25.8152 409.354 25.1432 408.76 24.1912 408.76H21.6264V411.605ZM34.7039 412.4L33.9311 410.653H29.6415L28.8687 412.4H27.9167L31.3103 404.706H32.2623L35.6559 412.4H34.7039ZM29.9999 409.824H33.5727L31.7919 405.781L29.9999 409.824ZM37.2898 412.4V404.706H38.1634L42.9346 410.967V404.706H43.8082V412.4H42.9346L38.1634 406.139V412.4H37.2898ZM52.2254 412.4L51.4526 410.653H47.163L46.3902 412.4H45.4382L48.8318 404.706H49.7838L53.1774 412.4H52.2254ZM47.5214 409.824H51.0942L49.3134 405.781L47.5214 409.824ZM58.2832 412.535C56.1552 412.535 54.3408 410.709 54.3408 408.547C54.3408 406.386 56.1552 404.571 58.2832 404.571C59.3472 404.571 60.3328 405.019 61.0496 405.747L60.456 406.352C59.896 405.759 59.1232 405.378 58.2832 405.378C56.6256 405.378 55.2256 406.834 55.2256 408.547C55.2256 410.272 56.6256 411.728 58.2832 411.728C59.1232 411.728 59.896 411.347 60.456 410.754L61.0496 411.359C60.3328 412.075 59.3472 412.535 58.2832 412.535ZM62.4798 412.4V404.706H63.3534V412.4H62.4798ZM67.557 412.4V405.535H64.9698V404.706H71.0178V405.535H68.4306V412.4H67.557ZM75.0485 412.4V409.264L71.9461 404.706H73.0325L75.5077 408.435L78.0053 404.706H79.0581L75.9669 409.264V412.4H75.0485ZM83.8398 412.4V404.706H86.9646C88.555 404.706 89.7982 405.725 89.7982 407.17C89.7982 408.615 88.555 409.634 86.9646 409.634H84.7134V412.4H83.8398ZM84.7134 408.805H86.8078C88.0622 408.805 88.9134 408.2 88.9134 407.17C88.9134 406.139 88.0622 405.535 86.8078 405.535H84.7134V408.805ZM97.5324 404.706H98.4844L95.0908 412.4H94.1388L90.7452 404.706H91.6972L94.6204 411.325L97.5324 404.706ZM102.157 412.4V405.535H99.5695V404.706H105.618V405.535H103.03V412.4H102.157ZM111.452 411.571H115.652V412.4H110.578V404.706H111.452V411.571ZM119.038 412.4V405.535H116.451V404.706H122.499V405.535H119.912V412.4H119.038ZM124.278 412.4V404.706H126.877C129.318 404.706 131.043 406.296 131.043 408.547C131.043 410.799 129.318 412.4 126.877 412.4H124.278ZM125.152 411.605H126.877C128.803 411.605 130.158 410.339 130.158 408.547C130.158 406.767 128.803 405.501 126.877 405.501H125.152V411.605ZM133.414 412.535C133.067 412.535 132.798 412.255 132.798 411.919C132.798 411.605 133.067 411.325 133.414 411.325C133.739 411.325 134.008 411.605 134.008 411.919C134.008 412.255 133.739 412.535 133.414 412.535Z" fill="#9B9B9B"/>
<g clip-path="url(#clip3_601_6149)">
<path d="M276.633 390H263.566C262.53 390 261.7 390.84 261.7 391.867V404.933C261.7 405.96 262.53 406.8 263.566 406.8H276.633C277.669 406.8 278.5 405.96 278.5 404.933V391.867C278.5 390.84 277.669 390 276.633 390ZM268.233 403.067L263.566 398.4L264.882 397.084L268.233 400.425L275.317 393.341L276.633 394.667L268.233 403.067Z" fill="#2BCBBA"/>
</g>
<g clip-path="url(#clip4_601_6149)">
<path d="M80.651 384.714L77.4772 384.253L76.0585 381.376C76.0197 381.298 75.956 381.234 75.8772 381.195C75.6797 381.098 75.4397 381.179 75.341 381.376L73.9222 384.253L70.7485 384.714C70.661 384.726 70.581 384.768 70.5197 384.83C70.4457 384.906 70.4049 385.009 70.4063 385.115C70.4077 385.221 70.4512 385.322 70.5272 385.396L72.8235 387.635L72.281 390.796C72.2683 390.87 72.2764 390.945 72.3045 391.015C72.3325 391.084 72.3794 391.144 72.4398 391.188C72.5002 391.231 72.5717 391.257 72.6461 391.263C72.7205 391.268 72.795 391.252 72.861 391.218L75.6997 389.725L78.5385 391.218C78.616 391.259 78.706 391.273 78.7922 391.258C79.0097 391.22 79.156 391.014 79.1185 390.796L78.576 387.635L80.8722 385.396C80.9347 385.335 80.976 385.255 80.9885 385.168C81.0222 384.949 80.8697 384.746 80.651 384.714ZM77.6097 387.32L78.061 389.949L75.6997 388.709L73.3385 389.95L73.7897 387.321L71.8797 385.459L74.5197 385.075L75.6997 382.684L76.8797 385.075L79.5197 385.459L77.6097 387.32Z" fill="#2BCBBA"/>
<path d="M88.5769 390.2V388.293H84.2377L84.0841 387.051L88.2569 381.406H90.1641V386.923H91.3801V388.293H90.1641V390.2H88.5769ZM85.7865 386.923H88.5769V383.147L85.7865 386.923ZM93.9484 390.354C93.3596 390.354 92.9244 389.893 92.9244 389.33C92.9244 388.805 93.3596 388.344 93.9484 388.344C94.486 388.344 94.934 388.805 94.934 389.33C94.934 389.893 94.486 390.354 93.9484 390.354ZM99.764 390.354C98.228 390.354 97.0504 389.726 96.3336 388.869L97.3064 387.819C97.9208 388.51 98.7656 388.933 99.7128 388.933C100.762 388.933 101.415 388.408 101.415 387.64C101.415 386.859 100.762 386.45 99.5208 386.45L98.5352 386.462V385.08H99.5208C100.558 385.093 101.236 384.67 101.236 383.902C101.236 383.186 100.545 382.686 99.5976 382.686C98.7272 382.686 98.0616 383.109 97.46 383.774L96.5128 382.802C97.2168 381.918 98.2408 381.253 99.7384 381.253C101.607 381.253 102.849 382.251 102.849 383.646C102.849 384.709 102.132 385.4 101.185 385.682C102.119 385.899 103.041 386.578 103.041 387.768C103.041 389.278 101.748 390.354 99.764 390.354Z" fill="#2BCBBA"/>
</g>
<line x1="19.7" y1="435" x2="281.3" y2="435" stroke="#E7E7E8" stroke-width="0.8"/>
<path d="M20.7528 465.4V457.706H21.6264L26.3976 463.967V457.706H27.2712V465.4H26.3976L21.6264 459.139V465.4H20.7528ZM32.0819 465.535C30.4579 465.535 29.0803 464.146 29.0803 462.499C29.0803 460.853 30.4579 459.475 32.0819 459.475C33.7059 459.475 35.0723 460.853 35.0723 462.499C35.0723 464.146 33.7059 465.535 32.0819 465.535ZM32.0819 464.784C33.2243 464.784 34.1875 463.743 34.1875 462.499C34.1875 461.267 33.2243 460.226 32.0819 460.226C30.9283 460.226 29.9651 461.267 29.9651 462.499C29.9651 463.743 30.9283 464.784 32.0819 464.784ZM40.7603 459.61H41.6003V465.4H40.7603V464.471C40.4243 465.087 39.6739 465.535 38.8563 465.535C37.5795 465.535 36.6835 464.605 36.6835 463.295V459.61H37.5235V463.183C37.5235 464.123 38.1171 464.784 38.9683 464.784C39.9427 464.784 40.7603 464.101 40.7603 463.295V459.61ZM45.5853 465.535C44.7789 465.535 43.8829 465.232 43.1885 464.672L43.6253 464.056C44.2861 464.538 44.9469 464.784 45.5853 464.784C46.3469 464.784 46.8621 464.426 46.8621 463.877C46.8621 463.25 46.1901 463.048 45.4061 462.824C44.0061 462.421 43.4685 462.007 43.4685 461.178C43.4685 460.125 44.3421 459.475 45.4957 459.475C46.2125 459.475 46.9517 459.722 47.5677 460.125L47.1645 460.775C46.5821 460.405 46.0109 460.226 45.4957 460.226C44.8461 460.226 44.3085 460.517 44.3085 461.077C44.3085 461.581 44.7341 461.738 45.8093 462.085C46.7389 462.376 47.7021 462.69 47.7021 463.787C47.7021 464.851 46.7837 465.535 45.5853 465.535ZM52.0711 459.475C53.3479 459.475 54.2439 460.405 54.2439 461.715V465.4H53.4039V461.827C53.4039 460.887 52.8103 460.226 51.9591 460.226C50.9847 460.226 50.1671 460.909 50.1671 461.715V465.4H49.3271V457.571H50.1671V460.539C50.5031 459.923 51.2535 459.475 52.0711 459.475ZM58.52 459.475C60.0992 459.475 60.872 460.472 60.872 461.872V465.4H60.032V464.493C59.6176 465.176 58.7552 465.535 57.9936 465.535C56.7728 465.535 55.8768 464.829 55.8768 463.687C55.8768 462.533 56.9072 461.76 58.1504 461.76C58.7776 461.76 59.4384 461.895 60.032 462.085V461.872C60.032 461.088 59.7184 460.192 58.464 460.192C57.8816 460.192 57.2992 460.45 56.7728 460.719L56.4368 460.035C57.2656 459.621 57.96 459.475 58.52 459.475ZM58.1392 464.795C58.9008 464.795 59.808 464.403 60.032 463.586V462.701C59.5056 462.555 58.912 462.466 58.2848 462.466C57.4224 462.466 56.6944 462.959 56.6944 463.653C56.6944 464.37 57.3216 464.795 58.1392 464.795ZM67.3371 457.571H68.1771V465.4H67.3371V464.314C66.9003 465.075 66.1611 465.535 65.2315 465.535C63.7083 465.535 62.5659 464.28 62.5659 462.499C62.5659 460.73 63.7083 459.475 65.2315 459.475C66.1611 459.475 66.9003 459.935 67.3371 460.696V457.571ZM65.3883 464.784C66.5307 464.784 67.3371 463.832 67.3371 462.499C67.3371 461.167 66.5307 460.226 65.3883 460.226C64.2571 460.226 63.4507 461.167 63.4507 462.499C63.4507 463.832 64.2571 464.784 65.3883 464.784Z" fill="#222222"/>
<path d="M20.7528 486.4V478.706H21.6264L26.3976 484.967V478.706H27.2712V486.4H26.3976L21.6264 480.139V486.4H20.7528ZM33.0675 486.535C30.9395 486.535 29.1251 484.709 29.1251 482.547C29.1251 480.386 30.9395 478.571 33.0675 478.571C35.2067 478.571 36.9987 480.386 36.9987 482.547C36.9987 484.709 35.2067 486.535 33.0675 486.535ZM33.0675 485.728C34.7251 485.728 36.1139 484.272 36.1139 482.547C36.1139 480.834 34.7251 479.378 33.0675 479.378C31.4099 479.378 30.0099 480.834 30.0099 482.547C30.0099 484.272 31.4099 485.728 33.0675 485.728ZM41.9787 486.535C40.0971 486.535 38.7643 485.157 38.7643 483.208V478.706H39.6379V483.208C39.6379 484.687 40.6123 485.739 41.9787 485.739C43.3451 485.739 44.3195 484.687 44.3195 483.208V478.706H45.1931V483.208C45.1931 485.157 43.8603 486.535 41.9787 486.535ZM49.9317 486.523C48.6661 486.523 47.6693 486.064 46.8965 485.303L47.4453 484.619C48.0949 485.269 48.8901 485.728 49.9653 485.728C51.1525 485.728 51.7573 485.079 51.7573 484.384C51.7573 483.567 51.0293 483.242 49.6853 482.928C48.1397 482.57 47.1653 482.088 47.1653 480.755C47.1653 479.523 48.2629 478.56 49.7413 478.56C50.8837 478.56 51.7349 479.008 52.4405 479.658L51.9029 480.341C51.2645 479.725 50.5029 479.355 49.6965 479.355C48.7445 479.355 48.0501 479.983 48.0501 480.688C48.0501 481.483 48.8117 481.763 50.1221 482.077C51.5893 482.424 52.6421 482.951 52.6421 484.306C52.6421 485.527 51.7237 486.523 49.9317 486.523ZM59.7685 478.706H60.6421V486.4H59.7685V482.895H55.2325V486.4H54.3589V478.706H55.2325V482.066H59.7685V478.706ZM68.8937 486.4L68.1209 484.653H63.8313L63.0585 486.4H62.1065L65.5001 478.706H66.4521L69.8457 486.4H68.8937ZM64.1897 483.824H67.7625L65.9817 479.781L64.1897 483.824ZM71.4796 486.4V478.706H74.078C76.5196 478.706 78.2444 480.296 78.2444 482.547C78.2444 484.799 76.5196 486.4 74.078 486.4H71.4796ZM72.3532 485.605H74.078C76.0044 485.605 77.3596 484.339 77.3596 482.547C77.3596 480.767 76.0044 479.501 74.078 479.501H72.3532V485.605ZM89.8 486.4L89.0272 484.653H84.7376L83.9648 486.4H83.0128L86.4064 478.706H87.3584L90.752 486.4H89.8ZM85.096 483.824H88.6688L86.888 479.781L85.096 483.824ZM94.8835 486.523C93.6179 486.523 92.6211 486.064 91.8483 485.303L92.3971 484.619C93.0467 485.269 93.8419 485.728 94.9171 485.728C96.1043 485.728 96.7091 485.079 96.7091 484.384C96.7091 483.567 95.9811 483.242 94.6371 482.928C93.0915 482.57 92.1171 482.088 92.1171 480.755C92.1171 479.523 93.2147 478.56 94.6931 478.56C95.8355 478.56 96.6867 479.008 97.3923 479.658L96.8547 480.341C96.2163 479.725 95.4547 479.355 94.6483 479.355C93.6963 479.355 93.0019 479.983 93.0019 480.688C93.0019 481.483 93.7635 481.763 95.0739 482.077C96.5411 482.424 97.5939 482.951 97.5939 484.306C97.5939 485.527 96.6755 486.523 94.8835 486.523ZM101.976 486.523C100.711 486.523 99.7139 486.064 98.9411 485.303L99.4899 484.619C100.139 485.269 100.935 485.728 102.01 485.728C103.197 485.728 103.802 485.079 103.802 484.384C103.802 483.567 103.074 483.242 101.73 482.928C100.184 482.57 99.2099 482.088 99.2099 480.755C99.2099 479.523 100.307 478.56 101.786 478.56C102.928 478.56 103.779 479.008 104.485 479.658L103.947 480.341C103.309 479.725 102.547 479.355 101.741 479.355C100.789 479.355 100.095 479.983 100.095 480.688C100.095 481.483 100.856 481.763 102.167 482.077C103.634 482.424 104.687 482.951 104.687 484.306C104.687 485.527 103.768 486.523 101.976 486.523ZM110.043 486.535C107.915 486.535 106.101 484.709 106.101 482.547C106.101 480.386 107.915 478.571 110.043 478.571C112.183 478.571 113.975 480.386 113.975 482.547C113.975 484.709 112.183 486.535 110.043 486.535ZM110.043 485.728C111.701 485.728 113.09 484.272 113.09 482.547C113.09 480.834 111.701 479.378 110.043 479.378C108.386 479.378 106.986 480.834 106.986 482.547C106.986 484.272 108.386 485.728 110.043 485.728ZM118.327 486.523C117.062 486.523 116.065 486.064 115.292 485.303L115.841 484.619C116.491 485.269 117.286 485.728 118.361 485.728C119.548 485.728 120.153 485.079 120.153 484.384C120.153 483.567 119.425 483.242 118.081 482.928C116.535 482.57 115.561 482.088 115.561 480.755C115.561 479.523 116.659 478.56 118.137 478.56C119.279 478.56 120.131 479.008 120.836 479.658L120.299 480.341C119.66 479.725 118.899 479.355 118.092 479.355C117.14 479.355 116.446 479.983 116.446 480.688C116.446 481.483 117.207 481.763 118.518 482.077C119.985 482.424 121.038 482.951 121.038 484.306C121.038 485.527 120.119 486.523 118.327 486.523ZM122.755 486.4V478.706H123.628V486.4H122.755ZM131.886 486.4L131.113 484.653H126.824L126.051 486.4H125.099L128.493 478.706H129.445L132.838 486.4H131.886ZM127.182 483.824H130.755L128.974 479.781L127.182 483.824ZM135.821 486.4V479.535H133.234V478.706H139.282V479.535H136.695V486.4H135.821ZM146.415 479.535H141.779V482.066H145.956V482.895H141.779V485.571H146.415V486.4H140.894V478.706H146.415V479.535ZM150.805 486.523C149.54 486.523 148.543 486.064 147.77 485.303L148.319 484.619C148.968 485.269 149.764 485.728 150.839 485.728C152.026 485.728 152.631 485.079 152.631 484.384C152.631 483.567 151.903 483.242 150.559 482.928C149.013 482.57 148.039 482.088 148.039 480.755C148.039 479.523 149.136 478.56 150.615 478.56C151.757 478.56 152.608 479.008 153.314 479.658L152.776 480.341C152.138 479.725 151.376 479.355 150.57 479.355C149.618 479.355 148.924 479.983 148.924 480.688C148.924 481.483 149.685 481.763 150.996 482.077C152.463 482.424 153.516 482.951 153.516 484.306C153.516 485.527 152.597 486.523 150.805 486.523Z" fill="#9B9B9B"/>
<g clip-path="url(#clip5_601_6149)">
<rect x="262.5" y="464.8" width="15.2" height="15.2" rx="0.8" stroke="#2BCBBA" stroke-width="1.6"/>
</g>
<line x1="19.7" y1="509" x2="281.3" y2="509" stroke="#E7E7E8" stroke-width="0.8"/>
<path d="M23.2504 539.523C21.9848 539.523 20.988 539.064 20.2152 538.303L20.764 537.619C21.4136 538.269 22.2088 538.728 23.284 538.728C24.4712 538.728 25.076 538.079 25.076 537.384C25.076 536.567 24.348 536.242 23.004 535.928C21.4584 535.57 20.484 535.088 20.484 533.755C20.484 532.523 21.5816 531.56 23.06 531.56C24.2024 531.56 25.0536 532.008 25.7592 532.658L25.2216 533.341C24.5832 532.725 23.8216 532.355 23.0152 532.355C22.0632 532.355 21.3688 532.983 21.3688 533.688C21.3688 534.483 22.1304 534.763 23.4408 535.077C24.908 535.424 25.9608 535.951 25.9608 537.306C25.9608 538.527 25.0424 539.523 23.2504 539.523ZM31.7207 533.61H32.5607V539.4H31.7207V538.471C31.3847 539.087 30.6343 539.535 29.8167 539.535C28.5399 539.535 27.6439 538.605 27.6439 537.295V533.61H28.4839V537.183C28.4839 538.123 29.0775 538.784 29.9287 538.784C30.9031 538.784 31.7207 538.101 31.7207 537.295V533.61ZM35.4144 534.741C35.7616 533.968 36.5904 533.475 37.6544 533.475V534.226C36.344 534.226 35.4144 535.032 35.4144 536.163V539.4H34.5744V533.61H35.4144V534.741ZM41.6499 538.784C42.3331 538.784 43.1171 538.482 43.4755 538.09L43.9907 538.639C43.4867 539.187 42.4675 539.535 41.6611 539.535C40.1155 539.535 38.7267 538.269 38.7267 536.488C38.7267 534.763 40.0259 533.475 41.5827 533.475C43.3299 533.475 44.3267 534.797 44.3267 536.824H39.5891C39.7123 537.955 40.5075 538.784 41.6499 538.784ZM41.6163 534.226C40.5859 534.226 39.7571 534.954 39.6003 536.074H43.4979C43.3859 535.032 42.7699 534.226 41.6163 534.226ZM47.9749 539.535C47.1685 539.535 46.2725 539.232 45.5781 538.672L46.0149 538.056C46.6757 538.538 47.3365 538.784 47.9749 538.784C48.7365 538.784 49.2517 538.426 49.2517 537.877C49.2517 537.25 48.5797 537.048 47.7957 536.824C46.3957 536.421 45.8581 536.007 45.8581 535.178C45.8581 534.125 46.7317 533.475 47.8853 533.475C48.6021 533.475 49.3413 533.722 49.9573 534.125L49.5541 534.775C48.9717 534.405 48.4005 534.226 47.8853 534.226C47.2357 534.226 46.6981 534.517 46.6981 535.077C46.6981 535.581 47.1237 535.738 48.1989 536.085C49.1285 536.376 50.0917 536.69 50.0917 537.787C50.0917 538.851 49.1733 539.535 47.9749 539.535ZM54.4607 533.475C55.7375 533.475 56.6335 534.405 56.6335 535.715V539.4H55.7935V535.827C55.7935 534.887 55.1999 534.226 54.3487 534.226C53.3743 534.226 52.5567 534.909 52.5567 535.715V539.4H51.7167V531.571H52.5567V534.539C52.8927 533.923 53.6431 533.475 54.4607 533.475ZM62.2317 539.4V531.706H65.7597C67.0029 531.706 67.8765 532.501 67.8765 533.621C67.8765 534.439 67.4733 534.909 66.7789 535.312C67.6637 535.76 68.1789 536.455 68.1789 537.295C68.1789 538.527 67.2269 539.4 65.8941 539.4H62.2317ZM63.1053 534.965H65.5357C66.3869 534.965 66.9917 534.45 66.9917 533.733C66.9917 533.016 66.3869 532.501 65.5357 532.501H63.1053V534.965ZM63.1053 538.605H65.6701C66.6221 538.605 67.2941 538.011 67.2941 537.183C67.2941 536.354 66.6221 535.76 65.6701 535.76H63.1053V538.605ZM72.2405 533.475C73.8197 533.475 74.5925 534.472 74.5925 535.872V539.4H73.7525V538.493C73.3381 539.176 72.4757 539.535 71.7141 539.535C70.4933 539.535 69.5973 538.829 69.5973 537.687C69.5973 536.533 70.6277 535.76 71.8709 535.76C72.4981 535.76 73.1589 535.895 73.7525 536.085V535.872C73.7525 535.088 73.4389 534.192 72.1845 534.192C71.6021 534.192 71.0197 534.45 70.4933 534.719L70.1573 534.035C70.9861 533.621 71.6805 533.475 72.2405 533.475ZM71.8597 538.795C72.6213 538.795 73.5285 538.403 73.7525 537.586V536.701C73.2261 536.555 72.6325 536.466 72.0053 536.466C71.1429 536.466 70.4149 536.959 70.4149 537.653C70.4149 538.37 71.0421 538.795 71.8597 538.795ZM79.5568 533.475C81.08 533.475 82.2224 534.73 82.2224 536.499C82.2224 538.28 81.08 539.535 79.5568 539.535C78.6272 539.535 77.888 539.075 77.4512 538.314V539.4H76.6112V531.571H77.4512V534.696C77.888 533.935 78.6272 533.475 79.5568 533.475ZM79.4 538.784C80.5312 538.784 81.3376 537.832 81.3376 536.499C81.3376 535.167 80.5312 534.226 79.4 534.226C78.2576 534.226 77.4512 535.167 77.4512 536.499C77.4512 537.832 78.2576 538.784 79.4 538.784ZM87.9758 533.61H88.8158V539.4H87.9758V538.471C87.6398 539.087 86.8894 539.535 86.0718 539.535C84.795 539.535 83.899 538.605 83.899 537.295V533.61H84.739V537.183C84.739 538.123 85.3326 538.784 86.1838 538.784C87.1582 538.784 87.9758 538.101 87.9758 537.295V533.61ZM94.4027 539.4V531.706H95.2763V535.962L99.1739 531.706H100.328L97.0907 535.223L100.54 539.4H99.4091L96.4859 535.816L95.2763 537.093V539.4H94.4027Z" fill="#222222"/>
<path d="M20.7528 560.4V552.706H24.2808C25.524 552.706 26.3976 553.501 26.3976 554.621C26.3976 555.439 25.9944 555.909 25.3 556.312C26.1848 556.76 26.7 557.455 26.7 558.295C26.7 559.527 25.748 560.4 24.4152 560.4H20.7528ZM21.6264 555.965H24.0568C24.908 555.965 25.5128 555.45 25.5128 554.733C25.5128 554.016 24.908 553.501 24.0568 553.501H21.6264V555.965ZM21.6264 559.605H24.1912C25.1432 559.605 25.8152 559.011 25.8152 558.183C25.8152 557.354 25.1432 556.76 24.1912 556.76H21.6264V559.605ZM34.7039 560.4L33.9311 558.653H29.6415L28.8687 560.4H27.9167L31.3103 552.706H32.2623L35.6559 560.4H34.7039ZM29.9999 557.824H33.5727L31.7919 553.781L29.9999 557.824ZM37.2898 560.4V552.706H40.8178C42.061 552.706 42.9346 553.501 42.9346 554.621C42.9346 555.439 42.5314 555.909 41.837 556.312C42.7218 556.76 43.237 557.455 43.237 558.295C43.237 559.527 42.285 560.4 40.9522 560.4H37.2898ZM38.1634 555.965H40.5938C41.445 555.965 42.0498 555.45 42.0498 554.733C42.0498 554.016 41.445 553.501 40.5938 553.501H38.1634V555.965ZM38.1634 559.605H40.7282C41.6802 559.605 42.3522 559.011 42.3522 558.183C42.3522 557.354 41.6802 556.76 40.7282 556.76H38.1634V559.605ZM48.273 560.535C46.3914 560.535 45.0586 559.157 45.0586 557.208V552.706H45.9322V557.208C45.9322 558.687 46.9066 559.739 48.273 559.739C49.6394 559.739 50.6138 558.687 50.6138 557.208V552.706H51.4874V557.208C51.4874 559.157 50.1546 560.535 48.273 560.535ZM53.9748 555.405L53.5604 555.091C53.8628 554.744 54.0532 554.397 54.1428 554.05C53.8068 554.05 53.538 553.77 53.538 553.434C53.538 553.12 53.7956 552.84 54.154 552.84C54.5796 552.84 54.8372 553.221 54.8372 553.736C54.8372 554.184 54.6468 554.565 53.9748 555.405ZM59.4032 560.523C58.1376 560.523 57.1408 560.064 56.368 559.303L56.9168 558.619C57.5664 559.269 58.3616 559.728 59.4368 559.728C60.624 559.728 61.2288 559.079 61.2288 558.384C61.2288 557.567 60.5008 557.242 59.1568 556.928C57.6112 556.57 56.6368 556.088 56.6368 554.755C56.6368 553.523 57.7344 552.56 59.2128 552.56C60.3552 552.56 61.2064 553.008 61.912 553.658L61.3744 554.341C60.736 553.725 59.9744 553.355 59.168 553.355C58.216 553.355 57.5216 553.983 57.5216 554.688C57.5216 555.483 58.2832 555.763 59.5936 556.077C61.0608 556.424 62.1136 556.951 62.1136 558.306C62.1136 559.527 61.1952 560.523 59.4032 560.523ZM70.9427 560.535C68.8147 560.535 67.0003 558.709 67.0003 556.547C67.0003 554.386 68.8147 552.571 70.9427 552.571C72.0067 552.571 72.9923 553.019 73.7091 553.747L73.1156 554.352C72.5555 553.759 71.7827 553.378 70.9427 553.378C69.2851 553.378 67.8851 554.834 67.8851 556.547C67.8851 558.272 69.2851 559.728 70.9427 559.728C71.7827 559.728 72.5555 559.347 73.1156 558.754L73.7091 559.359C72.9923 560.075 72.0067 560.535 70.9427 560.535ZM78.6152 560.535C76.4872 560.535 74.6728 558.709 74.6728 556.547C74.6728 554.386 76.4872 552.571 78.6152 552.571C80.7544 552.571 82.5464 554.386 82.5464 556.547C82.5464 558.709 80.7544 560.535 78.6152 560.535ZM78.6152 559.728C80.2728 559.728 81.6616 558.272 81.6616 556.547C81.6616 554.834 80.2728 553.378 78.6152 553.378C76.9576 553.378 75.5576 554.834 75.5576 556.547C75.5576 558.272 76.9576 559.728 78.6152 559.728ZM84.4016 560.4V552.706H85.2752L90.0464 558.967V552.706H90.92V560.4H90.0464L85.2752 554.139V560.4H84.4016ZM95.7419 560.523C94.4763 560.523 93.4795 560.064 92.7067 559.303L93.2555 558.619C93.9051 559.269 94.7003 559.728 95.7755 559.728C96.9627 559.728 97.5675 559.079 97.5675 558.384C97.5675 557.567 96.8395 557.242 95.4955 556.928C93.9499 556.57 92.9755 556.088 92.9755 554.755C92.9755 553.523 94.0731 552.56 95.5515 552.56C96.6939 552.56 97.5451 553.008 98.2507 553.658L97.7131 554.341C97.0747 553.725 96.3131 553.355 95.5067 553.355C94.5547 553.355 93.8603 553.983 93.8603 554.688C93.8603 555.483 94.6219 555.763 95.9323 556.077C97.3995 556.424 98.4523 556.951 98.4523 558.306C98.4523 559.527 97.5339 560.523 95.7419 560.523ZM102.375 560.4V553.535H99.7883V552.706H105.836V553.535H103.249V560.4H102.375ZM113.406 555.17C113.406 556.379 112.533 557.298 111.312 557.555L113.305 560.4H112.309L110.36 557.634H108.321V560.4H107.448V552.706H110.573C112.163 552.706 113.406 553.725 113.406 555.17ZM108.321 553.535V556.805H110.416C111.67 556.805 112.521 556.2 112.521 555.17C112.521 554.139 111.67 553.535 110.416 553.535H108.321ZM118.249 560.535C116.367 560.535 115.035 559.157 115.035 557.208V552.706H115.908V557.208C115.908 558.687 116.883 559.739 118.249 559.739C119.615 559.739 120.59 558.687 120.59 557.208V552.706H121.463V557.208C121.463 559.157 120.131 560.535 118.249 560.535ZM127.176 560.535C125.048 560.535 123.234 558.709 123.234 556.547C123.234 554.386 125.048 552.571 127.176 552.571C128.24 552.571 129.226 553.019 129.943 553.747L129.349 554.352C128.789 553.759 128.016 553.378 127.176 553.378C125.519 553.378 124.119 554.834 124.119 556.547C124.119 558.272 125.519 559.728 127.176 559.728C128.016 559.728 128.789 559.347 129.349 558.754L129.943 559.359C129.226 560.075 128.24 560.535 127.176 560.535ZM133.579 560.4V553.535H130.992V552.706H137.04V553.535H134.453V560.4H133.579ZM138.652 560.4V552.706H139.525V560.4H138.652ZM145.162 560.535C143.034 560.535 141.22 558.709 141.22 556.547C141.22 554.386 143.034 552.571 145.162 552.571C147.302 552.571 149.094 554.386 149.094 556.547C149.094 558.709 147.302 560.535 145.162 560.535ZM145.162 559.728C146.82 559.728 148.209 558.272 148.209 556.547C148.209 554.834 146.82 553.378 145.162 553.378C143.505 553.378 142.105 554.834 142.105 556.547C142.105 558.272 143.505 559.728 145.162 559.728ZM150.949 560.4V552.706H151.822L156.594 558.967V552.706H157.467V560.4H156.594L151.822 554.139V560.4H150.949Z" fill="#9B9B9B"/>
<g clip-path="url(#clip6_601_6149)">
<rect x="262.5" y="538.8" width="15.2" height="15.2" rx="0.8" stroke="#2BCBBA" stroke-width="1.6"/>
</g>
<g clip-path="url(#clip7_601_6149)">
<path d="M119.851 532.714L116.677 532.253L115.258 529.376C115.22 529.298 115.156 529.234 115.077 529.195C114.88 529.098 114.64 529.179 114.541 529.376L113.122 532.253L109.948 532.714C109.861 532.726 109.781 532.768 109.72 532.83C109.646 532.906 109.605 533.009 109.606 533.115C109.608 533.221 109.651 533.322 109.727 533.396L112.023 535.635L111.481 538.796C111.468 538.87 111.476 538.945 111.504 539.015C111.532 539.084 111.579 539.144 111.64 539.188C111.7 539.231 111.772 539.257 111.846 539.263C111.92 539.268 111.995 539.252 112.061 539.218L114.9 537.725L117.738 539.218C117.816 539.259 117.906 539.273 117.992 539.258C118.21 539.22 118.356 539.014 118.318 538.796L117.776 535.635L120.072 533.396C120.135 533.335 120.176 533.255 120.188 533.168C120.222 532.949 120.07 532.746 119.851 532.714ZM116.81 535.32L117.261 537.949L114.9 536.709L112.538 537.95L112.99 535.321L111.08 533.459L113.72 533.075L114.9 530.684L116.08 533.075L118.72 533.459L116.81 535.32Z" fill="#2BCBBA"/>
<path d="M127.777 538.2V536.293H123.438L123.284 535.051L127.457 529.406H129.364V534.923H130.58V536.293H129.364V538.2H127.777ZM124.986 534.923H127.777V531.147L124.986 534.923ZM133.148 538.354C132.56 538.354 132.124 537.893 132.124 537.33C132.124 536.805 132.56 536.344 133.148 536.344C133.686 536.344 134.134 536.805 134.134 537.33C134.134 537.893 133.686 538.354 133.148 538.354ZM139.642 538.354C137.377 538.354 135.777 536.472 135.777 533.797C135.777 531.134 137.377 529.253 139.642 529.253C141.895 529.253 143.482 531.134 143.482 533.797C143.482 536.472 141.895 538.354 139.642 538.354ZM139.642 536.894C140.935 536.894 141.857 535.614 141.857 533.797C141.857 531.979 140.935 530.712 139.642 530.712C138.337 530.712 137.415 531.979 137.415 533.797C137.415 535.614 138.337 536.894 139.642 536.894Z" fill="#2BCBBA"/>
</g>
<line x1="19.7" y1="583" x2="281.3" y2="583" stroke="#E7E7E8" stroke-width="0.8"/>
<g clip-path="url(#clip8_601_6149)">
<path d="M87.8509 458.314L84.6772 457.853L83.2584 454.976C83.2197 454.898 83.1559 454.834 83.0772 454.795C82.8797 454.698 82.6397 454.779 82.5409 454.976L81.1222 457.853L77.9484 458.314C77.8609 458.326 77.7809 458.368 77.7197 458.43C77.6456 458.506 77.6048 458.609 77.6062 458.715C77.6076 458.821 77.6511 458.922 77.7272 458.996L80.0234 461.235L79.4809 464.396C79.4682 464.47 79.4763 464.546 79.5044 464.615C79.5325 464.684 79.5794 464.744 79.6398 464.788C79.7002 464.831 79.7716 464.858 79.8461 464.863C79.9205 464.868 79.9949 464.853 80.0609 464.818L82.8997 463.325L85.7384 464.818C85.8159 464.859 85.9059 464.873 85.9922 464.858C86.2097 464.82 86.3559 464.614 86.3184 464.396L85.7759 461.235L88.0722 458.996C88.1347 458.935 88.1759 458.855 88.1884 458.768C88.2222 458.549 88.0697 458.346 87.8509 458.314ZM84.8097 460.92L85.2609 463.549L82.8997 462.309L80.5384 463.55L80.9897 460.921L79.0797 459.059L81.7197 458.675L82.8997 456.284L84.0797 458.675L86.7197 459.059L84.8097 460.92Z" fill="#2BCBBA"/>
<path d="M95.7768 463.8V461.893H91.4376L91.284 460.651L95.4568 455.006H97.364V460.523H98.58V461.893H97.364V463.8H95.7768ZM92.9864 460.523H95.7768V456.747L92.9864 460.523ZM101.148 463.954C100.56 463.954 100.124 463.493 100.124 462.93C100.124 462.405 100.56 461.944 101.148 461.944C101.686 461.944 102.134 462.405 102.134 462.93C102.134 463.493 101.686 463.954 101.148 463.954ZM107.642 463.954C105.377 463.954 103.777 462.072 103.777 459.397C103.777 456.734 105.377 454.853 107.642 454.853C109.895 454.853 111.482 456.734 111.482 459.397C111.482 462.072 109.895 463.954 107.642 463.954ZM107.642 462.494C108.935 462.494 109.857 461.214 109.857 459.397C109.857 457.579 108.935 456.312 107.642 456.312C106.337 456.312 105.415 457.579 105.415 459.397C105.415 461.214 106.337 462.494 107.642 462.494Z" fill="#2BCBBA"/>
</g>
<g clip-path="url(#clip9_601_6149)">
<path d="M62.251 311.114L59.0772 310.653L57.6585 307.776C57.6197 307.698 57.556 307.634 57.4772 307.595C57.2797 307.498 57.0397 307.579 56.941 307.776L55.5222 310.653L52.3485 311.114C52.261 311.126 52.181 311.168 52.1197 311.23C52.0457 311.306 52.0049 311.409 52.0063 311.515C52.0077 311.621 52.0512 311.722 52.1272 311.796L54.4235 314.035L53.881 317.196C53.8682 317.27 53.8764 317.346 53.9044 317.415C53.9325 317.484 53.9794 317.544 54.0398 317.588C54.1002 317.632 54.1716 317.658 54.2461 317.663C54.3205 317.668 54.395 317.653 54.461 317.618L57.2997 316.125L60.1385 317.618C60.216 317.659 60.306 317.673 60.3922 317.658C60.6097 317.62 60.756 317.414 60.7185 317.196L60.176 314.035L62.4722 311.796C62.5347 311.735 62.576 311.655 62.5885 311.568C62.6222 311.349 62.4697 311.146 62.251 311.114ZM59.2097 313.72L59.661 316.349L57.2997 315.109L54.9385 316.35L55.3897 313.721L53.4797 311.859L56.1197 311.475L57.2997 309.084L58.4797 311.475L61.1197 311.859L59.2097 313.72Z" fill="#2BCBBA"/>
<path d="M70.1768 316.6V314.693H65.8376L65.684 313.451L69.8568 307.806H71.764V313.323H72.98V314.693H71.764V316.6H70.1768ZM67.3864 313.323H70.1768V309.547L67.3864 313.323ZM75.5483 316.754C74.9595 316.754 74.5243 316.293 74.5243 315.73C74.5243 315.205 74.9595 314.744 75.5483 314.744C76.0859 314.744 76.5339 315.205 76.5339 315.73C76.5339 316.293 76.0859 316.754 75.5483 316.754ZM81.3895 316.754C79.9559 316.754 78.8807 316.216 78.0999 315.397L79.0471 314.258C79.7255 314.923 80.5319 315.371 81.4151 315.371C82.4903 315.371 83.1687 314.68 83.1687 313.822C83.1687 312.926 82.4647 312.325 81.4151 312.325C80.7239 312.325 80.1223 312.555 79.6231 312.939L78.5351 312.478L78.6631 307.806H84.2951V309.266H80.1607L80.0839 311.531C80.5319 311.224 81.1079 310.994 81.8631 310.994C83.4247 310.994 84.7687 311.992 84.7687 313.758C84.7687 315.576 83.3991 316.754 81.3895 316.754Z" fill="#2BCBBA"/>
</g>
<path d="M16.5768 271.6V264.266H13.7608V262.806H20.98V264.266H18.164V271.6H16.5768ZM25.4951 271.754C23.5751 271.754 21.9495 270.166 21.9495 268.285C21.9495 266.403 23.5751 264.829 25.4951 264.829C27.4151 264.829 29.0407 266.403 29.0407 268.285C29.0407 270.166 27.4151 271.754 25.4951 271.754ZM25.4951 270.422C26.5831 270.422 27.5047 269.45 27.5047 268.285C27.5047 267.133 26.5831 266.16 25.4951 266.16C24.3943 266.16 23.4727 267.133 23.4727 268.285C23.4727 269.45 24.3943 270.422 25.4951 270.422ZM33.6975 270.179L34.1455 271.229C33.7743 271.549 33.2367 271.754 32.7375 271.754C31.6367 271.754 30.8687 270.96 30.8687 269.846V266.275H29.9087V264.982H30.8687V263.165H32.3919V264.982H33.8895V266.275H32.3919V269.654C32.3919 270.102 32.6735 270.422 33.0447 270.422C33.3135 270.422 33.5567 270.32 33.6975 270.179ZM38.2376 264.829C39.9912 264.829 41.0792 265.942 41.0792 267.619V271.6H39.556V270.806C39.0696 271.421 38.2376 271.754 37.4696 271.754C36.0616 271.754 34.9992 270.922 34.9992 269.642C34.9992 268.336 36.2152 267.44 37.7 267.44C38.3016 267.44 38.9544 267.568 39.556 267.798V267.619C39.556 266.851 39.1336 266.109 37.9304 266.109C37.3032 266.109 36.7016 266.326 36.1384 266.608L35.6008 265.52C36.5352 265.059 37.4056 264.829 38.2376 264.829ZM37.8152 270.614C38.5704 270.614 39.3768 270.23 39.556 269.526V268.784C39.0696 268.618 38.5192 268.528 37.9304 268.528C37.1496 268.528 36.5224 268.963 36.5224 269.59C36.5224 270.218 37.0728 270.614 37.8152 270.614ZM42.7701 271.6V262.653H44.3317V271.6H42.7701ZM49.4011 271.6V270.294L52.6395 267.709C53.7531 266.813 54.1499 266.147 54.1499 265.43C54.1499 264.598 53.4459 264.086 52.6523 264.086C51.7307 264.086 51.0651 264.56 50.4251 265.328L49.3883 264.368C50.2203 263.28 51.2827 262.653 52.7035 262.653C54.4443 262.653 55.7755 263.766 55.7755 265.392C55.7755 266.557 55.2379 267.491 53.7275 268.656L51.8843 270.141H55.8651V271.6H49.4011ZM61.4143 271.6V269.693H57.0751L56.9215 268.451L61.0943 262.806H63.0015V268.323H64.2175V269.693H63.0015V271.6H61.4143ZM58.6239 268.323H61.4143V264.547L58.6239 268.323ZM76.4524 271.6H74.6348L72.5612 268.643H70.8588V271.6H69.2588V262.806H73.086C74.9676 262.806 76.3756 264.01 76.3756 265.725C76.3756 267.056 75.518 268.08 74.2508 268.477L76.4524 271.6ZM70.8588 264.278V267.171H72.9068C73.9948 267.171 74.75 266.621 74.75 265.725C74.75 264.829 73.9948 264.278 72.9068 264.278H70.8588ZM80.8549 270.371C81.4693 270.371 82.1989 270.09 82.5701 269.706L83.5557 270.73C82.9797 271.344 81.8277 271.754 80.8677 271.754C78.9733 271.754 77.4117 270.307 77.4117 268.272C77.4117 266.288 78.8965 264.829 80.7781 264.829C82.8261 264.829 84.0165 266.378 84.0165 268.822H79.0245C79.2165 269.731 79.9077 270.371 80.8549 270.371ZM80.8421 266.211C79.9717 266.211 79.2677 266.762 79.0373 267.632H82.5189C82.3397 266.8 81.7765 266.211 80.8421 266.211ZM87.815 271.754C86.8038 271.754 85.7158 271.395 84.9222 270.755L85.6262 269.667C86.2662 270.128 87.0086 270.435 87.8406 270.435C88.4678 270.435 88.903 270.166 88.903 269.757C88.903 269.245 88.327 269.078 87.5718 268.874C86.1382 268.502 85.2294 268.093 85.2166 266.915C85.2166 265.674 86.2406 264.829 87.7126 264.829C88.6214 264.829 89.5302 265.149 90.247 265.622L89.5942 266.762C88.967 266.365 88.2886 266.16 87.7126 266.16C87.1622 266.16 86.7398 266.378 86.7398 266.749C86.7398 267.171 87.0854 267.299 88.0966 267.594C89.2102 267.901 90.4134 268.285 90.4134 269.667C90.4134 270.934 89.3638 271.754 87.815 271.754ZM96.2502 264.982H97.8118V271.6H96.2502V270.717C95.8406 271.331 95.0726 271.754 94.2022 271.754C92.7558 271.754 91.7446 270.691 91.7446 269.194V264.982H93.255V268.886C93.255 269.782 93.831 270.422 94.6502 270.422C95.4694 270.422 96.1478 269.872 96.2502 269.168V264.982ZM99.5326 271.6V262.653H101.094V271.6H99.5326ZM106.123 270.179L106.571 271.229C106.199 271.549 105.662 271.754 105.163 271.754C104.062 271.754 103.294 270.96 103.294 269.846V266.275H102.334V264.982H103.294V263.165H104.817V264.982H106.315V266.275H104.817V269.654C104.817 270.102 105.099 270.422 105.47 270.422C105.739 270.422 105.982 270.32 106.123 270.179Z" fill="#222222"/>
<g clip-path="url(#clip10_601_6149)">
<rect x="198.7" y="261.8" width="12.8" height="12.8" rx="0.8" stroke="#2BCBBA" stroke-width="1.6"/>
</g>
<path d="M225.658 272.341C224.211 272.341 223.072 271.816 222.189 270.946L222.816 270.165C223.558 270.907 224.467 271.432 225.696 271.432C227.053 271.432 227.744 270.69 227.744 269.896C227.744 268.962 226.912 268.591 225.376 268.232C223.61 267.823 222.496 267.272 222.496 265.749C222.496 264.341 223.75 263.24 225.44 263.24C226.746 263.24 227.718 263.752 228.525 264.495L227.91 265.275C227.181 264.571 226.31 264.149 225.389 264.149C224.301 264.149 223.507 264.866 223.507 265.672C223.507 266.581 224.378 266.901 225.875 267.259C227.552 267.656 228.755 268.258 228.755 269.807C228.755 271.202 227.706 272.341 225.658 272.341ZM233.405 271.496C234.186 271.496 235.082 271.151 235.492 270.703L236.08 271.33C235.504 271.957 234.34 272.354 233.418 272.354C231.652 272.354 230.064 270.907 230.064 268.872C230.064 266.901 231.549 265.429 233.328 265.429C235.325 265.429 236.464 266.939 236.464 269.256H231.05C231.191 270.549 232.1 271.496 233.405 271.496ZM233.367 266.287C232.189 266.287 231.242 267.119 231.063 268.399H235.517C235.389 267.208 234.685 266.287 233.367 266.287ZM238.035 272.2V263.253H238.995V272.2H238.035ZM243.918 271.496C244.699 271.496 245.595 271.151 246.004 270.703L246.593 271.33C246.017 271.957 244.852 272.354 243.931 272.354C242.164 272.354 240.577 270.907 240.577 268.872C240.577 266.901 242.062 265.429 243.841 265.429C245.838 265.429 246.977 266.939 246.977 269.256H241.563C241.703 270.549 242.612 271.496 243.918 271.496ZM243.879 266.287C242.702 266.287 241.755 267.119 241.575 268.399H246.03C245.902 267.208 245.198 266.287 243.879 266.287ZM251.62 272.354C249.764 272.354 248.189 270.767 248.189 268.885C248.189 267.003 249.764 265.429 251.62 265.429C252.516 265.429 253.348 265.8 253.975 266.402L253.309 267.055C252.874 266.581 252.273 266.287 251.62 266.287C250.301 266.287 249.201 267.477 249.201 268.885C249.201 270.306 250.301 271.496 251.62 271.496C252.285 271.496 252.9 271.189 253.348 270.69L254.013 271.343C253.386 271.97 252.541 272.354 251.62 272.354ZM258.391 271.227L258.865 271.931C258.519 272.2 258.084 272.354 257.636 272.354C256.689 272.354 256.023 271.65 256.023 270.664V266.44H254.986V265.583H256.023V263.765H256.983V265.583H258.609V266.44H256.983V270.664C256.983 271.151 257.316 271.496 257.7 271.496C257.994 271.496 258.25 271.381 258.391 271.227ZM266.623 265.429C268.428 265.429 269.311 266.568 269.311 268.168V272.2H268.351V271.163C267.878 271.944 266.892 272.354 266.022 272.354C264.627 272.354 263.603 271.547 263.603 270.242C263.603 268.923 264.78 268.04 266.201 268.04C266.918 268.04 267.673 268.194 268.351 268.411V268.168C268.351 267.272 267.993 266.248 266.559 266.248C265.894 266.248 265.228 266.543 264.627 266.85L264.243 266.069C265.19 265.595 265.983 265.429 266.623 265.429ZM266.188 271.509C267.059 271.509 268.095 271.061 268.351 270.127V269.115C267.75 268.949 267.071 268.847 266.355 268.847C265.369 268.847 264.537 269.41 264.537 270.203C264.537 271.023 265.254 271.509 266.188 271.509ZM271.273 272.2V263.253H272.233V272.2H271.273ZM274.173 272.2V263.253H275.133V272.2H274.173Z" fill="#9B9B9B"/>
<rect opacity="0.5" width="300" height="87.2" transform="matrix(-1 0 0 1 300.5 0.200195)" fill="url(#paint0_linear_601_6149)"/>
<rect x="20.1" y="45.4002" width="32" height="32" rx="9.2" fill="white" stroke="#F9F9F9" stroke-width="0.8"/>
<path d="M38.2255 55.6938C38.1519 55.62 38.0646 55.5615 37.9684 55.5216C37.8722 55.4817 37.7691 55.4612 37.665 55.4612C37.5608 55.4612 37.4577 55.4817 37.3615 55.5216C37.2654 55.5615 37.178 55.62 37.1045 55.6938L31.8415 60.9568C31.7828 61.0154 31.7362 61.085 31.7044 61.1616C31.6726 61.2382 31.6562 61.3203 31.6562 61.4033C31.6562 61.4862 31.6726 61.5683 31.7044 61.645C31.7362 61.7216 31.7828 61.7912 31.8415 61.8498L37.1045 67.1128C37.4148 67.4231 37.9151 67.4231 38.2255 67.1128C38.5358 66.8024 38.5358 66.3021 38.2255 65.9918L33.6401 61.4001L38.2318 56.8084C38.5358 56.5044 38.5358 55.9978 38.2255 55.6938Z" fill="#222222" stroke="#222222" stroke-width="0.16"/>
<path d="M74.8039 54.4081H77.0279L72.4359 65.4001H70.2119L65.6199 54.4081H67.8279L71.3159 62.7441L74.8039 54.4081ZM81.1654 63.8641C81.9334 63.8641 82.8454 63.5121 83.3094 63.0321L84.5414 64.3121C83.8214 65.0801 82.3814 65.5921 81.1814 65.5921C78.8134 65.5921 76.8614 63.7841 76.8614 61.2401C76.8614 58.7601 78.7174 56.9361 81.0694 56.9361C83.6294 56.9361 85.1174 58.8721 85.1174 61.9281H78.8774C79.1174 63.0641 79.9814 63.8641 81.1654 63.8641ZM81.1494 58.6641C80.0614 58.6641 79.1814 59.3521 78.8934 60.4401H83.2454C83.0214 59.4001 82.3174 58.6641 81.1494 58.6641ZM91.3214 56.9361C93.1294 56.9361 94.3934 58.2641 94.3934 60.1361V65.4001H92.5054V60.5201C92.5054 59.4001 91.7854 58.6001 90.7614 58.6001C89.7374 58.6001 88.8894 59.2881 88.7614 60.1681V65.4001H86.8094V57.1281H88.7614V58.2321C89.2734 57.4641 90.2334 56.9361 91.3214 56.9361ZM102.801 54.2161H104.753V65.4001H102.801V64.1201C102.145 65.0481 101.153 65.5921 99.9366 65.5921C97.7446 65.5921 96.1446 63.8001 96.1446 61.2561C96.1446 58.7281 97.7446 56.9361 99.9366 56.9361C101.153 56.9361 102.145 57.4801 102.801 58.4081V54.2161ZM100.465 63.9281C101.841 63.9281 102.801 62.8081 102.801 61.2561C102.801 59.7041 101.841 58.6001 100.465 58.6001C99.0726 58.6001 98.0806 59.7041 98.0806 61.2561C98.0806 62.8081 99.0726 63.9281 100.465 63.9281ZM110.95 65.5921C108.55 65.5921 106.518 63.6081 106.518 61.2561C106.518 58.9041 108.55 56.9361 110.95 56.9361C113.35 56.9361 115.382 58.9041 115.382 61.2561C115.382 63.6081 113.35 65.5921 110.95 65.5921ZM110.95 63.9281C112.31 63.9281 113.462 62.7121 113.462 61.2561C113.462 59.8161 112.31 58.6001 110.95 58.6001C109.574 58.6001 108.422 59.8161 108.422 61.2561C108.422 62.7121 109.574 63.9281 110.95 63.9281ZM119.075 58.7281C119.603 57.6241 120.675 56.9361 122.035 56.9361V58.6001C120.259 58.6001 119.075 59.6561 119.075 61.2241V65.4001H117.123V57.1281H119.075V58.7281ZM126.537 65.5921C125.273 65.5921 123.913 65.1441 122.921 64.3441L123.801 62.9841C124.601 63.5601 125.529 63.9441 126.569 63.9441C127.353 63.9441 127.897 63.6081 127.897 63.0961C127.897 62.4561 127.177 62.2481 126.233 61.9921C124.441 61.5281 123.305 61.0161 123.289 59.5441C123.289 57.9921 124.569 56.9361 126.409 56.9361C127.545 56.9361 128.681 57.3361 129.577 57.9281L128.761 59.3521C127.977 58.8561 127.129 58.6001 126.409 58.6001C125.721 58.6001 125.193 58.8721 125.193 59.3361C125.193 59.8641 125.625 60.0241 126.889 60.3921C128.281 60.7761 129.785 61.2561 129.785 62.9841C129.785 64.5681 128.473 65.5921 126.537 65.5921Z" fill="#222222"/>
<path opacity="0.35" d="M269.7 16.2002C269.7 15.2429 270.476 14.4669 271.433 14.4669H284.767C285.724 14.4669 286.5 15.2429 286.5 16.2002V21.0002C286.5 21.9575 285.724 22.7336 284.767 22.7336H271.433C270.476 22.7336 269.7 21.9575 269.7 21.0002V16.2002Z" stroke="#222222" stroke-width="0.8"/>
<path opacity="0.4" d="M287.7 17.0002V20.2002C288.344 19.9292 288.763 19.2988 288.763 18.6002C288.763 17.9017 288.344 17.2713 287.7 17.0002Z" fill="#222222"/>
<path d="M270.9 16.7334C270.9 16.1443 271.378 15.6667 271.967 15.6667H284.233C284.822 15.6667 285.3 16.1443 285.3 16.7334V20.4667C285.3 21.0559 284.822 21.5334 284.233 21.5334H271.967C271.378 21.5334 270.9 21.0559 270.9 20.4667V16.7334Z" fill="#222222"/>
<path fill-rule="evenodd" clip-rule="evenodd" d="M259.164 15.8866C260.937 15.8866 262.642 16.5678 263.927 17.7892C264.023 17.8835 264.178 17.8823 264.273 17.7866L265.198 16.8532C265.246 16.8046 265.273 16.7388 265.273 16.6704C265.272 16.6019 265.245 16.5364 265.196 16.4884C261.824 13.2568 256.504 13.2568 253.132 16.4884C253.083 16.5364 253.055 16.6019 253.055 16.6703C253.054 16.7388 253.081 16.8046 253.13 16.8532L254.055 17.7866C254.15 17.8825 254.305 17.8837 254.401 17.7892C255.686 16.5677 257.391 15.8866 259.164 15.8866ZM259.164 18.923C260.138 18.9229 261.077 19.2849 261.799 19.9387C261.897 20.0315 262.051 20.0295 262.146 19.9342L263.07 19.0008C263.118 18.9519 263.145 18.8855 263.145 18.8165C263.144 18.7474 263.116 18.6816 263.066 18.6336C260.868 16.5885 257.463 16.5885 255.264 18.6336C255.215 18.6816 255.186 18.7475 255.186 18.8165C255.185 18.8855 255.212 18.9519 255.261 19.0008L256.184 19.9342C256.279 20.0295 256.433 20.0315 256.531 19.9387C257.252 19.2854 258.191 18.9234 259.164 18.923ZM261.015 20.966C261.016 21.0352 260.989 21.1019 260.939 21.1504L259.342 22.763C259.295 22.8104 259.231 22.837 259.164 22.837C259.098 22.837 259.034 22.8104 258.987 22.763L257.389 21.1504C257.339 21.1019 257.312 21.0352 257.314 20.966C257.315 20.8968 257.345 20.8312 257.396 20.7848C258.417 19.9217 259.911 19.9217 260.932 20.7848C260.983 20.8313 261.013 20.8968 261.015 20.966Z" fill="#222222"/>
<path fill-rule="evenodd" clip-rule="evenodd" d="M248.233 14.3335H247.433C246.992 14.3335 246.633 14.6917 246.633 15.1335V22.0668C246.633 22.5087 246.992 22.8668 247.433 22.8668H248.233C248.675 22.8668 249.033 22.5087 249.033 22.0668V15.1335C249.033 14.6917 248.675 14.3335 248.233 14.3335ZM243.7 16.2001H244.5C244.942 16.2001 245.3 16.5583 245.3 17.0001V22.0668C245.3 22.5086 244.942 22.8668 244.5 22.8668H243.7C243.258 22.8668 242.9 22.5086 242.9 22.0668V17.0001C242.9 16.5583 243.258 16.2001 243.7 16.2001ZM240.767 18.0669H239.967C239.525 18.0669 239.167 18.4251 239.167 18.8669V22.0669C239.167 22.5087 239.525 22.8669 239.967 22.8669H240.767C241.209 22.8669 241.567 22.5087 241.567 22.0669V18.8669C241.567 18.4251 241.209 18.0669 240.767 18.0669ZM237.033 19.6669H236.233C235.792 19.6669 235.433 20.0251 235.433 20.4669V22.0669C235.433 22.5087 235.792 22.8669 236.233 22.8669H237.033C237.475 22.8669 237.833 22.5087 237.833 22.0669V20.4669C237.833 20.0251 237.475 19.6669 237.033 19.6669Z" fill="#222222"/>
<path d="M30.3918 14.7341C32.1965 14.7341 33.7668 16.0173 33.7668 19.0642V19.0759C33.7668 21.9236 32.4836 23.6111 30.3566 23.6111C28.8039 23.6111 27.6437 22.6912 27.3742 21.3962L27.3625 21.3318H28.8508L28.8683 21.3904C29.091 21.9822 29.6125 22.3689 30.3566 22.3689C31.6984 22.3689 32.2668 21.0564 32.3312 19.4392C32.3312 19.3748 32.3371 19.3103 32.3371 19.2458H32.2199C31.9093 19.9138 31.1711 20.5056 30.0109 20.5056C28.3879 20.5056 27.2511 19.322 27.2511 17.7166V17.7048C27.2511 15.988 28.5578 14.7341 30.3918 14.7341ZM30.3859 19.3455C31.341 19.3455 32.0734 18.6541 32.0734 17.699V17.6873C32.0734 16.7205 31.341 15.9646 30.4035 15.9646C29.4718 15.9646 28.7277 16.7087 28.7277 17.6521V17.6638C28.7277 18.6423 29.425 19.3455 30.3859 19.3455ZM36.1869 17.9216C35.6537 17.9216 35.2553 17.5115 35.2553 16.9958C35.2553 16.4744 35.6537 16.0701 36.1869 16.0701C36.726 16.0701 37.1186 16.4744 37.1186 16.9958C37.1186 17.5115 36.726 17.9216 36.1869 17.9216ZM36.1869 22.2693C35.6537 22.2693 35.2553 21.865 35.2553 21.3435C35.2553 20.822 35.6537 20.4177 36.1869 20.4177C36.726 20.4177 37.1186 20.822 37.1186 21.3435C37.1186 21.865 36.726 22.2693 36.1869 22.2693ZM42.7086 23.4001V21.7771H38.5719V20.5408C39.6676 18.6365 40.8688 16.6912 42.0172 14.9451H44.1559V20.5291H45.2926V21.7771H44.1559V23.4001H42.7086ZM39.9782 20.5642H42.7321V16.1521H42.6442C41.777 17.4763 40.7985 19.0408 39.9782 20.4763V20.5642ZM48.5565 23.4001V16.4333H48.4569L46.3534 17.9216V16.4978L48.5624 14.9451H50.0683V23.4001H48.5565Z" fill="#222222"/>
<rect width="300" height="66.4" transform="translate(0.5 534)" fill="#F9F9F9"/>
<g filter="url(#filter1_d_601_6149)">
<rect x="13.3" y="534.8" width="274.4" height="38.4" rx="9.6" fill="#2BCBBA"/>
</g>
<path d="M110.102 557.123C108.814 557.123 107.75 556.675 106.933 555.891L107.616 555.051C108.299 555.7 109.105 556.126 110.147 556.126C111.211 556.126 111.76 555.566 111.76 554.95C111.76 554.222 111.121 553.942 109.833 553.651C108.265 553.281 107.224 552.811 107.224 551.422C107.224 550.134 108.344 549.16 109.889 549.16C111.077 549.16 111.961 549.596 112.701 550.246L112.051 551.097C111.401 550.504 110.629 550.156 109.845 550.156C108.982 550.156 108.377 550.705 108.377 551.321C108.377 552.038 109.038 552.284 110.304 552.587C111.838 552.945 112.902 553.46 112.902 554.838C112.902 556.137 111.917 557.123 110.102 557.123ZM119.624 549.305H120.755V557H119.624V553.606H115.424V557H114.292V549.305H115.424V552.553H119.624V549.305ZM128.489 557L127.817 555.432H123.807L123.135 557H121.881L125.185 549.305H126.439L129.743 557H128.489ZM124.244 554.412H127.38L125.812 550.761L124.244 554.412ZM136.966 551.814C136.966 553.001 136.16 553.908 134.995 554.211L136.955 557H135.656L133.774 554.323H132.005V557H130.874V549.305H134.11C135.734 549.305 136.966 550.347 136.966 551.814ZM132.005 550.358V553.27H133.954C135.062 553.27 135.813 552.721 135.813 551.814C135.813 550.907 135.062 550.358 133.954 550.358H132.005ZM143.912 550.358H139.399V552.553H143.476V553.606H139.399V555.947H143.912V557H138.256V549.305H143.912V550.358ZM150.677 557V550.358H148.157V549.305H154.339V550.358H151.808V557H150.677ZM161.281 550.358H156.768V552.553H160.844V553.606H156.768V555.947H161.281V557H155.625V549.305H161.281V550.358ZM162.836 557V549.305H163.967L168.391 555.14V549.305H169.523V557H168.391L163.967 551.164V557H162.836ZM171.477 557V549.305H174.131C176.618 549.305 178.387 550.896 178.387 553.147C178.387 555.398 176.618 557 174.131 557H171.477ZM172.608 555.969H174.198C175.979 555.969 177.222 554.804 177.222 553.147C177.222 551.5 175.979 550.336 174.198 550.336H172.608V555.969ZM185.53 550.358H181.016V552.553H185.093V553.606H181.016V555.947H185.53V557H179.874V549.305H185.53V550.358ZM193.043 551.814C193.043 553.001 192.237 553.908 191.072 554.211L193.032 557H191.733L189.851 554.323H188.081V557H186.95V549.305H190.187C191.811 549.305 193.043 550.347 193.043 551.814ZM188.081 550.358V553.27H190.03C191.139 553.27 191.889 552.721 191.889 551.814C191.889 550.907 191.139 550.358 190.03 550.358H188.081Z" fill="white"/>
<path fill-rule="evenodd" clip-rule="evenodd" d="M97.3 591.2C97.3 590.095 98.1955 589.2 99.3 589.2H202.5C203.605 589.2 204.5 590.095 204.5 591.2C204.5 592.304 203.605 593.2 202.5 593.2H99.3001C98.1955 593.2 97.3 592.304 97.3 591.2Z" fill="#222222"/>
</g>
<defs>
<filter id="filter0_d_601_6149" x="-6.69995" y="90.6" width="314.4" height="152" filterUnits="userSpaceOnUse" color-interpolation-filters="sRGB">
<feFlood flood-opacity="0" result="BackgroundImageFix"/>
<feColorMatrix in="SourceAlpha" type="matrix" values="0 0 0 0 0 0 0 0 0 0 0 0 0 0 0 0 0 0 127 0" result="hardAlpha"/>
<feOffset dy="0.8"/>
<feGaussianBlur stdDeviation="10"/>
<feColorMatrix type="matrix" values="0 0 0 0 0 0 0 0 0 0 0 0 0 0 0 0 0 0 0.08 0"/>
<feBlend mode="normal" in2="BackgroundImageFix" result="effect1_dropShadow_601_6149"/>
<feBlend mode="normal" in="SourceGraphic" in2="effect1_dropShadow_601_6149" result="shape"/>
</filter>
<filter id="filter1_d_601_6149" x="6.90005" y="531.6" width="287.2" height="51.1999" filterUnits="userSpaceOnUse" color-interpolation-filters="sRGB">
<feFlood flood-opacity="0" result="BackgroundImageFix"/>
<feColorMatrix in="SourceAlpha" type="matrix" values="0 0 0 0 0 0 0 0 0 0 0 0 0 0 0 0 0 0 127 0" result="hardAlpha"/>
<feOffset dy="3.2"/>
<feGaussianBlur stdDeviation="3.2"/>
<feColorMatrix type="matrix" values="0 0 0 0 0.0117647 0 0 0 0 0 0 0 0 0 0.282353 0 0 0 0.25 0"/>
<feBlend mode="normal" in2="BackgroundImageFix" result="effect1_dropShadow_601_6149"/>
<feBlend mode="normal" in="SourceGraphic" in2="effect1_dropShadow_601_6149" result="shape"/>
</filter>
<linearGradient id="paint0_linear_601_6149" x1="150" y1="-15.7862" x2="150" y2="107.497" gradientUnits="userSpaceOnUse">
<stop stop-color="#DAFFED"/>
<stop offset="0.575354" stop-color="#DAFFED" stop-opacity="0.486384"/>
<stop offset="1" stop-color="#DAFFED" stop-opacity="0"/>
</linearGradient>
<clipPath id="clip0_601_6149">
<rect width="300" height="600" fill="white"/>
</clipPath>
<clipPath id="clip1_601_6149">
<rect x="13.3" y="109.8" width="274.4" height="100.8" rx="12.8" fill="white"/>
</clipPath>
<clipPath id="clip2_601_6149">
<rect width="22.4" height="22.4" fill="white" transform="translate(258.9 313.2)"/>
</clipPath>
<clipPath id="clip3_601_6149">
<rect width="22.4" height="22.4" fill="white" transform="translate(258.9 387.2)"/>
</clipPath>
<clipPath id="clip4_601_6149">
<rect width="34.4" height="21" fill="white" transform="translate(69.3 376.2)"/>
</clipPath>
<clipPath id="clip5_601_6149">
<rect width="22.4" height="22.4" fill="white" transform="translate(258.9 461.2)"/>
</clipPath>
<clipPath id="clip6_601_6149">
<rect width="22.4" height="22.4" fill="white" transform="translate(258.9 535.2)"/>
</clipPath>
<clipPath id="clip7_601_6149">
<rect width="36.4" height="21" fill="white" transform="translate(108.5 524.2)"/>
</clipPath>
<clipPath id="clip8_601_6149">
<rect width="36.4" height="21" fill="white" transform="translate(76.5 449.8)"/>
</clipPath>
<clipPath id="clip9_601_6149">
<rect width="35.4" height="21" fill="white" transform="translate(50.9 302.6)"/>
</clipPath>
<clipPath id="clip10_601_6149">
<rect width="19.2" height="19.2" fill="white" transform="translate(195.5 258.6)"/>
</clipPath>
</defs>
</svg>
