<svg width="980" height="700" viewBox="0 0 980 700" fill="none" xmlns="http://www.w3.org/2000/svg">
<rect width="980" height="700" fill="#E2E5EA"/>
<path d="M368.95 327.293C359.175 327.227 352.68 333.942 352.68 342.749C352.702 351.247 358.756 357.39 366.661 357.39C371.526 357.39 375.754 355.034 377.933 351.159H378.241C378.219 360.803 374.719 366.549 368.488 366.549C364.591 366.549 361.971 364.303 361.156 360.714H353.12C354.045 368.178 359.945 373.616 368.488 373.616C379.298 373.616 386.19 364.589 386.168 349.067C386.146 332.643 377.603 327.337 368.95 327.293ZM368.972 333.898C373.794 333.898 377.339 337.905 377.339 342.506C377.361 347.174 373.64 351.181 368.884 351.181C364.085 351.181 360.628 347.394 360.606 342.572C360.606 337.729 364.195 333.898 368.972 333.898ZM409.528 373.616C419.281 373.616 426.261 368.244 426.283 360.913C426.261 355.276 422.099 350.565 416.859 349.684V349.376C421.417 348.363 424.587 344.268 424.609 339.38C424.587 332.445 418.202 327.293 409.528 327.293C400.787 327.293 394.402 332.423 394.424 339.38C394.402 344.268 397.528 348.363 402.174 349.376V349.684C396.846 350.565 392.729 355.276 392.751 360.913C392.729 368.244 399.686 373.616 409.528 373.616ZM409.528 367.32C404.42 367.32 401.117 364.501 401.161 360.34C401.117 356.025 404.662 352.964 409.528 352.964C414.327 352.964 417.85 356.047 417.894 360.34C417.85 364.501 414.57 367.32 409.528 367.32ZM409.528 346.778C405.344 346.778 402.35 344.07 402.394 340.151C402.35 336.276 405.256 333.678 409.528 333.678C413.733 333.678 416.617 336.276 416.661 340.151C416.617 344.092 413.645 346.778 409.528 346.778ZM450.188 373.859C461.064 373.881 467.559 365.294 467.559 350.499C467.559 335.791 461.02 327.293 450.188 327.293C439.355 327.293 432.838 335.769 432.816 350.499C432.816 365.272 439.311 373.859 450.188 373.859ZM450.188 366.967C444.573 366.967 441.051 361.331 441.073 350.499C441.095 339.754 444.595 334.096 450.188 334.096C455.802 334.096 459.303 339.754 459.325 350.499C459.325 361.331 455.824 366.967 450.188 366.967ZM502.153 366.131L507.107 361.177L496.693 350.763L507.107 340.349L502.153 335.351L491.717 345.787L481.303 335.351L476.327 340.349L486.741 350.763L476.327 361.177L481.303 366.131L491.717 355.717L502.153 366.131ZM518.242 373H526.719L545.874 334.888V327.909H515.16V334.734H537.419V335.043L518.242 373ZM568.678 373.859C579.554 373.881 586.049 365.294 586.049 350.499C586.049 335.791 579.51 327.293 568.678 327.293C557.846 327.293 551.328 335.769 551.306 350.499C551.306 365.272 557.801 373.859 568.678 373.859ZM568.678 366.967C563.064 366.967 559.541 361.331 559.563 350.499C559.585 339.754 563.086 334.096 568.678 334.096C574.292 334.096 577.793 339.754 577.815 350.499C577.815 361.331 574.314 366.967 568.678 366.967ZM610.031 373.859C620.908 373.881 627.403 365.294 627.403 350.499C627.403 335.791 620.864 327.293 610.031 327.293C599.199 327.293 592.682 335.769 592.66 350.499C592.66 365.272 599.155 373.859 610.031 373.859ZM610.031 366.967C604.417 366.967 600.894 361.331 600.916 350.499C600.938 339.754 604.439 334.096 610.031 334.096C615.646 334.096 619.146 339.754 619.169 350.499C619.169 361.331 615.668 366.967 610.031 366.967Z" fill="black"/>
</svg>
