<svg width="1810" height="800" viewBox="0 0 1810 800" fill="none" xmlns="http://www.w3.org/2000/svg">
<g clip-path="url(#clip0_597_2633)">
<path d="M0 60C0 26.8629 26.8629 0 60 0H1750C1783.14 0 1810 26.8629 1810 60V462.736C1810 492.258 1788.52 517.393 1759.36 522.001L69.3645 789.04C32.9447 794.794 0 766.647 0 729.775V60Z" fill="#F9F9F9"/>
<g filter="url(#filter0_ii_597_2633)">
<circle cx="1492" cy="146" r="290" transform="rotate(-30.9008 1492 146)" stroke="url(#paint0_linear_597_2633)" stroke-width="120" stroke-linecap="round"/>
</g>
<circle cx="1020" cy="471" r="50" fill="url(#paint1_linear_597_2633)"/>
</g>
<defs>
<filter id="filter0_ii_597_2633" x="1141.95" y="-204.053" width="780.107" height="740.107" filterUnits="userSpaceOnUse" color-interpolation-filters="sRGB">
<feFlood flood-opacity="0" result="BackgroundImageFix"/>
<feBlend mode="normal" in="SourceGraphic" in2="BackgroundImageFix" result="shape"/>
<feColorMatrix in="SourceAlpha" type="matrix" values="0 0 0 0 0 0 0 0 0 0 0 0 0 0 0 0 0 0 127 0" result="hardAlpha"/>
<feOffset dx="40" dy="20"/>
<feGaussianBlur stdDeviation="25"/>
<feComposite in2="hardAlpha" operator="arithmetic" k2="-1" k3="1"/>
<feColorMatrix type="matrix" values="0 0 0 0 0 0 0 0 0 0 0 0 0 0 0 0 0 0 0.25 0"/>
<feBlend mode="normal" in2="shape" result="effect1_innerShadow_597_2633"/>
<feColorMatrix in="SourceAlpha" type="matrix" values="0 0 0 0 0 0 0 0 0 0 0 0 0 0 0 0 0 0 127 0" result="hardAlpha"/>
<feOffset dx="80" dy="40"/>
<feGaussianBlur stdDeviation="50"/>
<feComposite in2="hardAlpha" operator="arithmetic" k2="-1" k3="1"/>
<feColorMatrix type="matrix" values="0 0 0 0 0.737255 0 0 0 0 0.933333 0 0 0 0 0.972549 0 0 0 1 0"/>
<feBlend mode="normal" in2="effect1_innerShadow_597_2633" result="effect2_innerShadow_597_2633"/>
</filter>
<linearGradient id="paint0_linear_597_2633" x1="1492" y1="-204" x2="1510.61" y2="542.313" gradientUnits="userSpaceOnUse">
<stop offset="0.167846" stop-color="#95FC53"/>
<stop offset="0.888231" stop-color="#2BCBBA"/>
</linearGradient>
<linearGradient id="paint1_linear_597_2633" x1="1020" y1="421" x2="1020" y2="521" gradientUnits="userSpaceOnUse">
<stop offset="0.167846" stop-color="#95FC53"/>
<stop offset="0.901822" stop-color="#2BCBBA"/>
</linearGradient>
<clipPath id="clip0_597_2633">
<path d="M0 0H1750C1783.14 0 1810 26.8629 1810 60V800H0V0Z" fill="white"/>
</clipPath>
</defs>
</svg>
