<svg width="140" height="70" viewBox="0 0 140 70" fill="none" xmlns="http://www.w3.org/2000/svg">
<rect width="140" height="70" fill="#5E5E60"/>
<path d="M49.4739 29.8182H47.7189L45.1884 31.4439V33.1342L47.5698 31.6129H47.6294V40H49.4739V29.8182ZM51.8752 38.1108H56.7324V40H58.4924V38.1108H59.7949V36.5945H58.4924V29.8182H56.1955L51.8752 36.6442V38.1108ZM56.7523 36.5945H53.7644V36.5149L56.6728 31.9062H56.7523V36.5945ZM65.1468 40.1939C67.6028 40.1989 69.0694 38.2599 69.0694 34.919C69.0694 31.598 67.5929 29.679 65.1468 29.679C62.7008 29.679 61.2292 31.593 61.2243 34.919C61.2243 38.255 62.6909 40.1939 65.1468 40.1939ZM65.1468 38.6378C63.8791 38.6378 63.0836 37.3651 63.0886 34.919C63.0936 32.4929 63.8841 31.2152 65.1468 31.2152C66.4146 31.2152 67.2051 32.4929 67.21 34.919C67.21 37.3651 66.4196 38.6378 65.1468 38.6378ZM76.881 38.4489L77.9996 37.3303L75.6481 34.9787L77.9996 32.6271L76.881 31.4986L74.5245 33.8551L72.1729 31.4986L71.0494 32.6271L73.4009 34.9787L71.0494 37.3303L72.1729 38.4489L74.5245 36.0973L76.881 38.4489ZM80.514 40H82.4281L86.7534 31.3942V29.8182H79.818V31.3594H84.8443V31.429L80.514 40ZM91.9027 40.1939C94.3587 40.1989 95.8253 38.2599 95.8253 34.919C95.8253 31.598 94.3487 29.679 91.9027 29.679C89.4567 29.679 87.9851 31.593 87.9801 34.919C87.9801 38.255 89.4467 40.1939 91.9027 40.1939ZM91.9027 38.6378C90.6349 38.6378 89.8395 37.3651 89.8445 34.919C89.8494 32.4929 90.6399 31.2152 91.9027 31.2152C93.1705 31.2152 93.9609 32.4929 93.9659 34.919C93.9659 37.3651 93.1754 38.6378 91.9027 38.6378Z" fill="white"/>
</svg>
